<svg width="76" height="76" viewBox="0 0 76 76" fill="none" xmlns="http://www.w3.org/2000/svg">
<path d="M24.1406 26.5682C28.5653 22.1436 36.7687 20.339 43.8434 24.5635C37.8624 22.2486 30.9086 22.8476 26.0409 27.7151C22.7742 30.9818 21.1809 35.056 21.205 39.1509C21.1809 43.2459 22.7742 47.3201 26.0409 50.5867C30.9086 55.4542 37.8624 56.0533 43.8434 53.7384C36.7686 57.9629 28.5653 56.1582 24.1406 51.7337C20.7378 48.3309 18.9965 44.1242 18.8412 39.8705V38.4314C18.9965 34.1777 20.7378 29.971 24.1406 26.5682Z" fill="#34B6ED"/>
<path d="M2.03137 15.3317C2.17123 15.099 2.44604 14.9841 2.70987 15.0481L17.1752 18.5567C17.2051 18.5639 17.2243 18.5932 17.2191 18.6236C17.2138 18.6541 17.1858 18.6751 17.1551 18.6718L6.805 17.5573C5.40781 17.4069 4.49427 18.9843 5.31985 20.1213L12.2667 29.6892C12.8769 30.5298 14.1092 30.5874 14.7953 29.8075L17.7626 26.4343C17.7804 26.4139 17.8111 26.4112 17.8323 26.4281C17.8533 26.4448 17.8577 26.4752 17.8421 26.4972L13.9555 31.989C13.811 32.1931 13.5575 32.2895 13.314 32.2331C13.1816 32.2024 13.0631 32.1288 12.9769 32.0237L1.1364 17.5799C0.957626 17.3618 0.954247 17.0488 1.12827 16.8269L1.14741 16.8025L2.03137 15.3317Z" fill="#EEB00E"/>
<path d="M46.3884 1.23226C46.558 1.01072 46.8593 0.93768 47.1115 1.0569L47.1397 1.07021L48.7675 1.60439C49.0246 1.68877 49.1975 1.93001 49.1948 2.20068L49.0431 17.1482C49.0428 17.1778 49.0196 17.2021 48.99 17.2038C48.9604 17.2054 48.9346 17.1838 48.931 17.1543L47.6844 6.77909C47.5165 5.38105 45.7684 4.8473 44.8482 5.91318L37.1264 14.8574C36.4507 15.6401 36.6706 16.8468 37.579 17.3407L41.5298 19.4892C41.5539 19.5024 41.5636 19.5321 41.5518 19.5569C41.54 19.5818 41.5107 19.5931 41.4853 19.5826L35.2869 17.0191C35.0559 16.9236 34.9033 16.6954 34.9033 16.4429C34.9033 16.3058 34.9487 16.172 35.0313 16.0641L46.3884 1.23226Z" fill="#FCD205"/>
<path d="M55.603 34.0299C55.7322 33.9853 55.8725 33.9847 56.002 34.0284L73.6632 39.9771C73.9305 40.0671 74.0992 40.3309 74.0688 40.6114L74.0654 40.6421L74.0923 42.3636C74.0965 42.6343 73.925 42.8764 73.6683 42.9622L59.5474 47.6822C59.5182 47.692 59.4865 47.6774 59.4749 47.6489C59.4634 47.6204 59.4758 47.5879 59.5034 47.5745L68.8773 43.0099C70.1397 42.3951 70.0766 40.5752 68.7746 40.0495L57.8329 35.631C56.8708 35.2425 55.7966 35.8454 55.6269 36.869L54.89 41.3157C54.8856 41.342 54.8615 41.3602 54.8351 41.3572C54.8088 41.3542 54.7893 41.3311 54.7909 41.3046L55.188 34.5776C55.2027 34.3279 55.3666 34.1117 55.603 34.0299Z" fill="#81BC29"/>
<path d="M48.3145 54.7399C48.5325 54.6156 48.8041 54.6355 49.0015 54.7904C49.1085 54.8743 49.1848 54.9911 49.2186 55.1228L53.8698 73.2401C53.9396 73.5121 53.811 73.7961 53.5606 73.923L53.5328 73.9371L52.1142 74.8939C51.8889 75.0458 51.591 75.0336 51.3789 74.8638L39.744 65.5455C39.7203 65.5265 39.7153 65.4924 39.7326 65.4674C39.7501 65.4422 39.784 65.435 39.8101 65.4509L48.7164 70.8489C49.9197 71.5783 51.417 70.5331 51.1474 69.1522L48.8798 57.5348C48.681 56.5163 47.5898 55.9443 46.6391 56.3603L42.5307 58.1582C42.5055 58.1692 42.476 58.1586 42.4637 58.1339C42.4515 58.1093 42.4606 58.0795 42.4844 58.0659L48.3145 54.7399Z" fill="#F57C14"/>
<path d="M9.97281 50.3829C9.98662 50.3564 10.0187 50.3452 10.046 50.3573C10.0732 50.3694 10.0865 50.4005 10.0762 50.4285L6.49209 60.2483C6.0099 61.5694 7.32363 62.8359 8.62616 62.3053L19.5521 57.8548C20.5099 57.4646 20.8622 56.2894 20.2772 55.4366L17.7264 51.7184C17.7112 51.6962 17.7159 51.666 17.7372 51.6495C17.7586 51.633 17.7892 51.6362 17.8068 51.6567L22.173 56.7688C22.3351 56.9587 22.3675 57.2305 22.2535 57.4552C22.1913 57.5777 22.09 57.6766 21.967 57.7354L5.14432 65.7727C4.8918 65.8933 4.58933 65.8213 4.41826 65.5998L4.39928 65.5753L3.1883 64.3553C2.998 64.1636 2.95347 63.8708 3.07819 63.6311L9.97281 50.3829Z" fill="#A39E1A"/>
<path d="M25.561 39.1627C25.561 32.375 31.0978 26.8543 37.8993 26.8543C44.7009 26.8543 50.2376 32.375 50.2376 39.1627C50.2376 45.9454 44.7008 51.4711 37.8993 51.4711C31.0979 51.4711 25.561 45.9454 25.561 39.1627Z" fill="#FCD205"/>
<path fillRule="evenodd" clipRule="evenodd" d="M49.6187 54.0036C49.1014 53.5979 48.39 53.5456 47.819 53.8713L41.9889 57.1973C41.5042 57.4737 41.3199 58.0806 41.5688 58.58C41.8188 59.0816 42.4182 59.299 42.9316 59.0743L47.04 57.2765C47.4041 57.1171 47.8221 57.3362 47.8983 57.7264L50.1659 69.3438C50.2692 69.8729 49.6956 70.2731 49.2347 69.9938L40.3285 64.5957C39.8505 64.306 39.2296 64.4381 38.911 64.8974C38.5941 65.3542 38.6849 65.9785 39.1189 66.3261L50.7538 75.6443C51.3075 76.0878 52.0852 76.1196 52.6734 75.7229L54.0428 74.7993C54.6918 74.4531 55.022 73.7067 54.8384 72.9914L50.1872 54.8741C50.0987 54.5293 49.8988 54.2233 49.6187 54.0036ZM49.0015 54.7904C48.8041 54.6355 48.5325 54.6156 48.3145 54.7399L42.4844 58.0659C42.4606 58.0795 42.4515 58.1093 42.4637 58.1339C42.476 58.1586 42.5055 58.1692 42.5307 58.1582L46.6391 56.3603C47.5898 55.9443 48.681 56.5163 48.8798 57.5348L51.1474 69.1522C51.417 70.5331 49.9197 71.5783 48.7164 70.8489L39.8101 65.4509C39.784 65.435 39.7501 65.4422 39.7326 65.4674C39.7153 65.4924 39.7203 65.5265 39.744 65.5455L51.3789 74.8638C51.591 75.0336 51.8889 75.0458 52.1142 74.8939L53.5328 73.9371L53.5606 73.923C53.811 73.7961 53.9396 73.5121 53.8698 73.2401L49.2186 55.1228C49.1848 54.9911 49.1085 54.8743 49.0015 54.7904Z" fill="#F57C14"/>
<path fillRule="evenodd" clipRule="evenodd" d="M10.4517 49.4433C9.94159 49.2169 9.34338 49.4262 9.08574 49.9213L2.19112 63.1695C1.86558 63.795 1.9818 64.5593 2.47857 65.0598L3.64784 66.2377C4.1104 66.8112 4.90794 66.9939 5.57541 66.675L22.3981 58.6377C22.721 58.4834 22.9837 58.2259 23.1452 57.9078C23.441 57.325 23.3593 56.6181 22.9334 56.1194L18.5672 51.0073C18.2033 50.5813 17.5692 50.5157 17.1259 50.8582C16.6849 51.1989 16.5865 51.8246 16.9018 52.2841L19.4526 56.0023C19.6767 56.329 19.5417 56.7792 19.1748 56.9287L8.24892 61.3792C7.75007 61.5824 7.24672 61.0974 7.43147 60.5912L11.0156 50.7714C11.2062 50.2493 10.9597 49.6688 10.4517 49.4433ZM10.046 50.3573C10.0187 50.3452 9.98662 50.3564 9.97281 50.3829L3.07819 63.6311C2.95347 63.8708 2.998 64.1636 3.1883 64.3553L4.39928 65.5753L4.41826 65.5998C4.58933 65.8213 4.8918 65.8933 5.14432 65.7727L21.967 57.7354C22.09 57.6766 22.1913 57.5777 22.2535 57.4552C22.3675 57.2305 22.3351 56.9587 22.173 56.7688L17.8068 51.6567C17.7892 51.6362 17.7586 51.633 17.7372 51.6495C17.7159 51.666 17.7112 51.6962 17.7264 51.7184L20.2772 55.4366C20.8622 56.2894 20.5099 57.4646 19.5521 57.8548L8.62616 62.3053C7.32363 62.8359 6.0099 61.5694 6.49209 60.2483L10.0762 50.4285C10.0865 50.4005 10.0732 50.3694 10.046 50.3573Z" fill="#A39E1A"/>
<path fillRule="evenodd" clipRule="evenodd" d="M2.94558 14.0763C2.25679 13.9092 1.53934 14.2091 1.17425 14.8166L0.320781 16.2367C-0.121401 16.8254 -0.105614 17.6422 0.36304 18.2138L12.2035 32.6576C12.4297 32.9335 12.7407 33.1267 13.0882 33.2073C13.7274 33.3554 14.3927 33.1022 14.7717 32.5667L18.6584 27.0748C18.9803 26.62 18.8911 25.9928 18.4551 25.6457C18.0168 25.2968 17.3818 25.3531 17.0117 25.7738C17.0117 25.7738 14.3072 28.8483 14.0444 29.147C13.7816 29.4457 13.3096 29.4237 13.0759 29.1017L6.12906 19.5338C5.81275 19.0982 6.16281 18.494 6.69794 18.5516L17.048 19.6661C17.6032 19.7259 18.1092 19.3442 18.2044 18.7941C18.2994 18.245 17.9525 17.7162 17.4109 17.5848L2.94558 14.0763ZM2.70987 15.0481C2.44604 14.9841 2.17123 15.099 2.03137 15.3317L1.14741 16.8025L1.12827 16.8269C0.954247 17.0488 0.957626 17.3618 1.1364 17.5799L12.9769 32.0237C13.0631 32.1288 13.1816 32.2024 13.314 32.2331C13.5575 32.2895 13.811 32.1931 13.9555 31.989L17.8421 26.4972C17.8577 26.4752 17.8533 26.4448 17.8323 26.4281C17.8111 26.4112 17.7804 26.4139 17.7626 26.4343L14.7953 29.8075C14.1092 30.5874 12.8769 30.5298 12.2667 29.6892L5.31985 20.1213C4.49427 18.9843 5.40781 17.4069 6.805 17.5573L17.1551 18.6718C17.1858 18.6751 17.2138 18.6541 17.2191 18.6236C17.2243 18.5932 17.2051 18.5639 17.1752 18.5567L2.70987 15.0481Z" fill="#EEB00E"/>
<path fillRule="evenodd" clipRule="evenodd" d="M47.5079 0.138583C46.8361 -0.161742 46.0436 0.0376705 45.5944 0.624293L34.2373 15.4561C34.0204 15.7394 33.9033 16.0872 33.9033 16.4429C33.9033 17.0975 34.2975 17.6921 34.9048 17.9432L41.1031 20.5067C41.621 20.7209 42.2159 20.4913 42.4557 19.9848C42.6944 19.4804 42.4978 18.8773 42.0075 18.6107L38.0567 16.4622C37.7088 16.273 37.6245 15.8108 37.8834 15.5109L45.6052 6.56667C45.9576 6.15841 46.6272 6.36279 46.6916 6.89839L47.9382 17.2736C48.0046 17.8265 48.489 18.233 49.0451 18.2023C49.6009 18.1716 50.0374 17.7149 50.0431 17.1583L50.1947 2.21083C50.2019 1.50432 49.7506 0.874543 49.0793 0.654242L47.5079 0.138583ZM47.1115 1.0569C46.8593 0.93768 46.558 1.01072 46.3884 1.23226L35.0313 16.0641C34.9487 16.172 34.9033 16.3058 34.9033 16.4429C34.9033 16.6954 35.0559 16.9236 35.2869 17.0191L41.4853 19.5826C41.5107 19.5931 41.54 19.5818 41.5518 19.5569C41.5636 19.5321 41.5539 19.5024 41.5298 19.4892L37.579 17.3407C36.6706 16.8468 36.4507 15.6401 37.1264 14.8574L44.8482 5.91318C45.7684 4.8473 47.5165 5.38105 47.6844 6.77909L48.931 17.1543C48.9346 17.1838 48.9604 17.2054 48.99 17.2038C49.0196 17.2021 49.0428 17.1778 49.0431 17.1482L49.1948 2.20068C49.1975 1.93001 49.0246 1.68877 48.7675 1.60439L47.1397 1.07021L47.1115 1.0569Z" fill="#FCD205"/>
<path fillRule="evenodd" clipRule="evenodd" d="M56.3213 33.0807C55.9821 32.9664 55.6146 32.9679 55.2763 33.0848C54.6573 33.2988 54.2283 33.8648 54.1897 34.5187L53.7926 41.2457C53.7598 41.8028 54.1684 42.2882 54.7229 42.3509C55.2781 42.4136 55.7851 42.0304 55.8765 41.4792L56.6135 37.0325C56.6785 36.6404 57.09 36.4095 57.4585 36.5583L68.4001 40.9767C68.8989 41.1781 68.9231 41.8753 68.4395 42.1108L59.0656 46.6754C58.5652 46.9191 58.339 47.5088 58.5482 48.0246C58.7581 48.5424 59.3344 48.8078 59.8644 48.6307L73.9853 43.9107C74.6554 43.6867 75.1032 43.0545 75.0922 42.348L75.0662 40.6856C75.1304 39.9511 74.6838 39.2656 73.9824 39.0294L56.3213 33.0807ZM56.002 34.0284C55.8725 33.9847 55.7322 33.9853 55.603 34.0299C55.3666 34.1117 55.2027 34.3279 55.188 34.5776L54.7909 41.3046C54.7893 41.3311 54.8088 41.3542 54.8351 41.3572C54.8615 41.3602 54.8856 41.342 54.89 41.3157L55.6269 36.869C55.7966 35.8454 56.8708 35.2425 57.8329 35.631L68.7746 40.0495C70.0766 40.5752 70.1397 42.3951 68.8773 43.0099L59.5034 47.5745C59.4758 47.5879 59.4634 47.6204 59.4749 47.6489C59.4865 47.6774 59.5182 47.692 59.5474 47.6822L73.6683 42.9622C73.925 42.8764 74.0965 42.6343 74.0923 42.3636L74.0654 40.6421L74.0688 40.6114C74.0992 40.3309 73.9305 40.0671 73.6632 39.9771L56.002 34.0284Z" fill="#81BC29"/>
<path fillRule="evenodd" clipRule="evenodd" d="M43.8434 24.5635C36.7687 20.339 28.5653 22.1436 24.1406 26.5682C20.7378 29.971 18.9965 34.1777 18.8412 38.4314V39.8705C18.9965 44.1242 20.7378 48.3309 24.1406 51.7337C28.5653 56.1582 36.7686 57.9629 43.8434 53.7384C37.8624 56.0533 30.9086 55.4542 26.0409 50.5867C22.7742 47.3201 21.1809 43.2459 21.205 39.1509C21.1809 35.056 22.7742 30.9818 26.0409 27.7151C30.9086 22.8476 37.8624 22.2486 43.8434 24.5635ZM23.4335 25.8611C28.3202 20.9746 37.4392 19.115 45.0792 24.1592C45.4002 24.3711 45.7162 24.5934 46.027 24.8261C46.3684 25.0818 46.4543 25.5492 46.2434 25.9089C46.017 26.295 45.5335 26.426 45.1454 26.2319C39.098 23.2072 31.7202 23.4502 26.748 28.4223C23.6663 31.5039 22.1818 35.3238 22.205 39.1479V39.154C22.1818 42.9781 23.6663 46.7979 26.748 49.8796C31.7202 54.8517 39.098 55.0947 45.1454 52.07C45.5335 51.8758 46.017 52.0069 46.2434 52.393C46.4543 52.7527 46.3684 53.2201 46.027 53.4758C45.7162 53.7085 45.4002 53.9307 45.0792 54.1426C37.4392 59.1869 28.3202 57.3273 23.4335 52.4408C19.8516 48.8589 18.0039 44.4097 17.8415 39.8975L17.8412 39.8885V38.4134L17.8415 38.4044C18.0039 33.8922 19.8516 29.443 23.4335 25.8611Z" fill="#34B6ED"/>
<path fillRule="evenodd" clipRule="evenodd" d="M37.8993 25.8543C30.5479 25.8543 24.561 31.8202 24.561 39.1627C24.561 46.4999 30.5478 52.4711 37.8993 52.4711C45.2508 52.4711 51.2376 46.4999 51.2376 39.1627C51.2376 31.8202 45.2507 25.8543 37.8993 25.8543ZM37.8993 26.8543C31.0978 26.8543 25.561 32.375 25.561 39.1627C25.561 45.9454 31.0979 51.4711 37.8993 51.4711C44.7008 51.4711 50.2376 45.9454 50.2376 39.1627C50.2376 32.375 44.7009 26.8543 37.8993 26.8543Z" fill="#FCD205"/>
</svg>
