<svg width="943" height="397" viewBox="0 0 943 397" fill="none" xmlns="http://www.w3.org/2000/svg">
<path d="M0 300.5V245.5L163.5 11.5H245V239.5H289V300.5H245V371.5H175V300.5H0ZM179.5 86.5L77 239.5H179.5V86.5Z" fill="#34A9ED"/>
<path d="M333.566 184.5C333.566 126.833 343.9 81.6667 364.566 49C385.566 16.3333 420.233 0 468.566 0C516.9 0 551.4 16.3333 572.066 49C593.066 81.6667 603.566 126.833 603.566 184.5C603.566 242.5 593.066 288 572.066 321C551.4 354 516.9 370.5 468.566 370.5C420.233 370.5 385.566 354 364.566 321C343.9 288 333.566 242.5 333.566 184.5ZM534.566 184.5C534.566 159.833 532.9 139.167 529.566 122.5C526.566 105.5 520.233 91.6667 510.566 81C501.233 70.3333 487.233 65 468.566 65C449.9 65 435.733 70.3333 426.066 81C416.733 91.6667 410.4 105.5 407.066 122.5C404.066 139.167 402.566 159.833 402.566 184.5C402.566 209.833 404.066 231.167 407.066 248.5C410.066 265.5 416.4 279.333 426.066 290C435.733 300.333 449.9 305.5 468.566 305.5C487.233 305.5 501.4 300.333 511.066 290C520.733 279.333 527.066 265.5 530.066 248.5C533.066 231.167 534.566 209.833 534.566 184.5Z" fill="#34A9ED"/>
<path d="M653.809 300.5V245.5L817.309 11.5H898.809V239.5H942.809V300.5H898.809V371.5H828.809V300.5H653.809ZM833.309 86.5L730.809 239.5H833.309V86.5Z" fill="#34A9ED"/>
<mask id="mask0_1653_13516" style="mask-type:alpha" maskUnits="userSpaceOnUse" x="217" y="0" width="464" height="397">
<path d="M468.566 0C516.9 0 551.4 16.3333 572.066 49C593.066 81.6667 603.566 126.833 603.566 184.5C603.566 242.5 593.066 288 572.066 321C551.4 354 516.9 370.5 468.566 370.5L476.5 396.5L680.5 370.5V0H468.566Z" fill="#34A9ED"/>
<path d="M333.566 184.5C333.566 126.833 343.9 81.6667 364.566 49C385.566 16.3333 420.233 0 468.566 0H217V396.5H476.5L468.566 370.5C420.233 370.5 385.566 354 364.566 321C343.9 288 333.566 242.5 333.566 184.5Z" fill="#34A9ED"/>
<path d="M534.566 184.5C534.566 159.833 532.9 139.167 529.566 122.5C526.566 105.5 520.233 91.6667 510.566 81C501.233 70.3333 487.233 65 468.566 65C449.9 65 435.733 70.3333 426.066 81C416.733 91.6667 410.4 105.5 407.066 122.5C404.066 139.167 402.566 159.833 402.566 184.5C402.566 209.833 404.066 231.167 407.066 248.5C410.066 265.5 416.4 279.333 426.066 290C435.733 300.333 449.9 305.5 468.566 305.5C487.233 305.5 501.4 300.333 511.066 290C520.733 279.333 527.066 265.5 530.066 248.5C533.066 231.167 534.566 209.833 534.566 184.5Z" fill="#34A9ED"/>
<path fill-rule="evenodd" clip-rule="evenodd" d="M364.566 49C343.9 81.6667 333.566 126.833 333.566 184.5C333.566 242.5 343.9 288 364.566 321C385.566 354 420.233 370.5 468.566 370.5V305.5C449.9 305.5 435.733 300.333 426.066 290C416.4 279.333 410.066 265.5 407.066 248.5C404.066 231.167 402.566 209.833 402.566 184.5C402.566 159.833 404.066 139.167 407.066 122.5C410.4 105.5 416.733 91.6667 426.066 81C435.733 70.3333 449.9 65 468.566 65V0C420.233 0 385.566 16.3333 364.566 49Z" fill="#34A9ED"/>
</mask>
<g mask="url(#mask0_1653_13516)">
<path d="M563.461 155.488C569.421 147.47 572.562 137.305 571.567 126.568C571.237 123.008 570.47 119.588 569.324 116.36C568.758 114.767 568.1 113.221 567.356 111.727C566.89 110.792 566.391 109.877 565.86 108.985C560.446 99.8874 551.73 93.0997 541.51 90.1161L541.171 89.9834C517.096 80.5605 490.935 75.5716 463.793 75.9311C458.444 72.0579 451.713 70.0289 444.617 70.6865C439.587 71.1527 434.98 72.9142 431.103 75.6109L413.811 68.8947L409.582 65.7439C488.965 64.7481 576.437 65.4151 582.348 131.918C582.998 139.23 583.256 146.464 580.119 152.975L563.461 155.488Z" fill="#E5F6FF"/>
<path d="M554.436 235.388L555.05 231.394C555.897 225.885 554.381 220.274 550.874 215.941L539.49 201.876C538.667 200.859 537.745 199.927 536.738 199.092L504.52 172.383L572.473 162.132C563.783 168.836 548.133 174.054 520.439 176.694C567.158 198.013 570.457 219.812 564.03 232.327L554.436 235.388Z" fill="#E5F6FF"/>
<path d="M329.14 189.421C321.8 171.2 329.267 155.604 341.775 155.442C368.433 149.649 382.775 144.41 394.947 134.171C396.719 134.276 398.512 134.142 400.278 133.762C399.272 135.109 397.985 136.235 396.495 137.056L364.148 154.873C362.986 155.513 361.726 155.954 360.419 156.177L351.342 157.728C350.933 157.797 350.513 157.739 350.14 157.559C346.315 155.721 341.745 156.521 338.773 159.549L335.107 163.284C330.396 168.083 328.909 175.184 331.299 181.47L334.087 188.801C335.223 191.789 337.463 194.226 340.344 195.611C342.714 196.75 345.383 197.111 347.97 196.642L348.894 196.475L369.2 192.798L436.052 182.712C438.236 189.461 442.196 195.345 447.333 199.867C447.437 199.958 447.545 200.044 447.658 200.124L489.089 229.523L487.724 230.767C487.297 231.156 486.806 231.534 486.174 232.008C479.149 237.271 474.93 245.964 475.801 255.362C475.975 257.248 476.347 259.071 476.894 260.812L472.524 262.226C464.438 248.318 477.423 232.748 484 229.294C469.836 225.937 440.573 210.48 432.548 188.076C411.955 187.798 392.951 191.913 376.904 195.389C352.674 200.636 335.184 204.424 329.14 189.421Z" fill="#E5F6FF"/>
<path fill-rule="evenodd" clip-rule="evenodd" d="M475.579 266.302L559.56 238.373C561.246 236.735 562.813 234.698 564.03 232.327L644.386 206.694C650.035 204.892 657.616 207.69 658.303 215.101C659.839 231.672 648.647 246.484 632.759 249.869L385.881 331.812C385.827 331.829 385.773 331.846 385.718 331.862C383.809 332.405 381.825 332.781 379.783 332.97C368.784 333.989 358.56 329.397 351.945 321.563C348.199 317.127 348.141 311.789 350.255 307.419C352.295 303.2 356.334 299.812 361.107 298.268L472.524 262.226C473.326 263.605 474.336 264.968 475.579 266.302ZM646.791 214.233L550.791 244.857L550.757 244.868L531.969 251.048L483.417 267.019L483.398 267.025L363.542 305.798C361.022 306.613 358.999 308.244 357.843 310.04C357.668 310.312 357.513 310.587 357.379 310.864C356.432 312.821 356.533 314.731 357.992 316.458C363.008 322.399 370.739 325.861 379.053 325.09C380.578 324.949 382.054 324.672 383.472 324.273L630.481 242.287C630.628 242.238 630.779 242.197 630.931 242.166C643.036 239.681 651.59 228.423 650.423 215.831C650.364 215.193 650.046 214.73 649.447 214.407C648.784 214.049 647.804 213.91 646.791 214.233Z" fill="#0B7DBF"/>
<path d="M559.56 238.373L475.579 266.302C474.336 264.968 473.326 263.605 472.524 262.226L476.894 260.812C476.347 259.071 475.975 257.248 475.801 255.362C474.93 245.964 479.149 237.271 486.174 232.008C486.806 231.534 487.297 231.156 487.724 230.767L489.089 229.523L447.658 200.124C447.545 200.044 447.437 199.958 447.333 199.867C442.196 195.345 438.236 189.461 436.052 182.712L444.011 181.512C445.789 186.299 448.707 190.49 452.411 193.793L481.341 214.322L487.897 218.974L495.259 224.198L500.017 230.525L497.946 232.158L493.055 236.616C492.316 237.289 491.549 237.869 490.918 238.342C486.003 242.024 483.074 248.086 483.681 254.632C483.8 255.925 484.051 257.171 484.419 258.359L546.013 238.098L547.228 230.192C547.736 226.886 546.827 223.52 544.723 220.92L533.339 206.855C532.905 206.319 532.426 205.822 531.906 205.369L525.678 200.202L515.534 191.793L509.41 186.716L494.029 173.966L504.52 172.383L536.738 199.092C537.745 199.927 538.667 200.859 539.49 201.876L550.874 215.941C554.381 220.274 555.897 225.885 555.05 231.394L554.436 235.388L564.03 232.327C562.813 234.698 561.246 236.735 559.56 238.373Z" fill="#0B7DBF"/>
<path d="M377.278 123.175L401.151 128.348C399.113 130.459 397.063 132.391 394.947 134.171L394.885 134.167C391.343 133.947 387.887 132.775 384.903 130.724L383.933 130.057L382.952 129.411C380.762 127.968 377.937 127.307 374.576 126.99C374.26 126.96 373.945 126.925 373.632 126.887C358.319 125.001 345.842 112.682 344.359 96.687C343.041 82.4618 350.807 69.499 362.875 63.5219L390.071 48.924L390.094 48.9113C391.175 48.3187 392.389 47.9352 393.681 47.8154C398.763 47.3445 403.264 51.082 403.735 56.1635L404.255 61.7742L409.582 65.7439C407.353 65.7718 405.129 65.8011 402.914 65.8303L402.897 65.8305L402.867 65.8309L402.854 65.8311C400.444 65.8628 398.043 65.8944 395.655 65.924L393.81 69.1241L396.442 63.2275L395.855 56.8938C395.788 56.1642 395.141 55.6276 394.412 55.6952C394.217 55.7133 394.045 55.7697 393.895 55.8525L366.559 70.526C366.518 70.5478 366.477 70.5688 366.436 70.5892C357.176 75.1507 351.231 85.0791 352.239 95.9567C353.087 105.104 358.645 112.685 366.297 116.52C368.023 117.386 369.855 118.06 371.764 118.519L374.062 113.371L377.278 123.175Z" fill="#0B7DBF"/>
<path d="M426.228 82.2069L414.13 77.5083L407.097 73.7609L402.077 70.0199L396.679 82.1132C395.748 82.4202 394.791 82.8065 393.796 83.3112C387.596 86.4547 384.447 91.0805 381.772 96.0968L393.81 69.1241L395.655 65.924C398.043 65.8944 400.444 65.8628 402.854 65.8311L402.867 65.8309L402.897 65.8305L402.914 65.8303C405.129 65.8011 407.353 65.7718 409.582 65.7439L413.811 68.8947L431.103 75.6109C434.98 72.9142 439.587 71.1527 444.617 70.6865C451.713 70.0289 458.444 72.0579 463.793 75.9311C490.935 75.5716 517.096 80.5605 541.171 89.9834L541.51 90.1161C551.73 93.0997 560.446 99.8874 565.86 108.985L557.585 110.765C553.133 104.481 546.627 99.8172 539.145 97.6698C539.026 97.6358 538.909 97.5962 538.795 97.5513L538.287 97.3526C517.316 89.1444 494.698 84.4358 471.218 83.8818L460.001 82.9896C456.018 79.7767 450.841 78.0572 445.348 78.5663C441.387 78.9333 437.807 80.4075 434.872 82.655L426.228 82.2069Z" fill="#0B7DBF"/>
<path d="M571.567 126.568C572.562 137.305 569.421 147.47 563.461 155.488L550.573 157.433C555.762 153.42 559.726 147.965 561.918 141.733C563.497 137.242 564.155 132.348 563.687 127.298C563.384 124.034 562.633 120.926 561.5 118.025L569.324 116.36C570.47 119.588 571.237 123.008 571.567 126.568Z" fill="#0B7DBF"/>
<path fill-rule="evenodd" clip-rule="evenodd" d="M401.151 128.348L377.278 123.175L374.062 113.371L381.772 96.0968C384.447 91.0805 387.596 86.4547 393.796 83.3112C394.791 82.8065 395.748 82.4202 396.679 82.1132L393.236 89.8265L400.666 90.2815L404.48 80.4838L407.097 73.7609L414.13 77.5083L407.408 94.7759L407.738 96.4688C408.904 102.468 407.233 108.67 403.209 113.27L392.354 125.681C394.436 126.376 396.691 126.487 398.868 125.967L404.777 124.557L426.228 82.2069L434.872 82.655L411.057 129.672L408.875 134.629C407.125 138.604 404.116 141.892 400.313 143.987L367.966 161.805C367.159 162.249 366.324 162.636 365.466 162.963L357.726 164.665L352.674 165.528C350.648 165.874 348.565 165.582 346.712 164.692C345.941 164.321 345.02 164.482 344.421 165.093L340.754 168.828C338.208 171.422 337.405 175.26 338.696 178.657L341.484 185.988C341.899 187.081 342.718 187.972 343.772 188.478C343.917 188.548 344.066 188.61 344.217 188.664C344.965 188.931 345.773 188.998 346.56 188.856C345.491 189.086 343.412 190.194 343.652 192.785C343.952 196.024 347.046 196.81 347.97 196.642C345.383 197.111 342.714 196.75 340.344 195.611C337.463 194.226 335.223 191.789 334.087 188.801L331.299 181.47C328.909 175.184 330.396 168.083 335.107 163.284L338.773 159.549C341.745 156.521 346.315 155.721 350.14 157.559C350.513 157.739 350.933 157.797 351.342 157.728L360.419 156.177C361.726 155.954 362.986 155.513 364.148 154.873L396.495 137.056C397.985 136.235 399.272 135.109 400.278 133.762C398.512 134.142 396.719 134.276 394.947 134.171C397.063 132.391 399.113 130.459 401.151 128.348ZM379.862 119.793L389.792 97.5439L400.005 98.1695C400.634 101.71 399.624 105.349 397.252 108.061L385.345 121.675C383.558 120.784 381.695 120.194 379.862 119.793Z" fill="#0B7DBF"/>
<path d="M481.341 214.322L509.41 186.716L515.534 191.793L487.897 218.974L481.341 214.322Z" fill="#0B7DBF"/>
<path d="M495.259 224.198L525.678 200.202L531.906 205.369L500.017 230.525L495.259 224.198Z" fill="#0B7DBF"/>
<path d="M371.429 184.458L381.707 182.908L400.255 180.11L434.395 174.959L442.228 173.778L550.573 157.433L563.461 155.488L580.119 152.975C578.548 156.236 576.125 159.315 572.473 162.132L504.52 172.383L494.029 173.966L444.011 181.512L436.052 182.712L369.2 192.798L348.894 196.475C348.481 192.014 358.513 187.482 363.581 185.773L371.429 184.458Z" fill="#0B7DBF"/>
<path d="M609.754 165.987L607.695 156.818L572.473 162.132C576.125 159.315 578.548 156.236 580.119 152.975L605.946 149.079L604.357 142.089C603.873 139.958 605.208 137.838 607.339 137.354C609.469 136.869 611.59 138.204 612.074 140.335L613.792 147.895L623.331 146.456C625.492 146.13 627.508 147.618 627.834 149.778C628.16 151.939 626.672 153.955 624.512 154.281L615.54 155.635L617.476 164.253C617.954 166.385 616.614 168.502 614.482 168.981C612.35 169.459 610.233 168.119 609.754 165.987Z" fill="#0B7DBF"/>
<path d="M442.209 173.577C442.215 173.644 442.222 173.711 442.228 173.778L434.395 174.959C434.371 174.743 434.349 174.526 434.329 174.308C433.72 167.731 434.789 161.386 437.182 155.697C440.551 155.072 443.793 154.542 446.932 154.09C443.356 159.682 441.549 166.46 442.209 173.577Z" fill="#0B7DBF"/>
<path d="M467.323 95.643C466.515 90.5027 463.816 86.0682 460.001 82.9896L471.218 83.8818C473.171 87.0132 474.536 90.5712 475.141 94.4139C475.374 95.8977 475.328 97.3151 475.197 98.5569L474.519 104.989C474.281 107.244 473.658 109.442 472.676 111.486L469.369 118.366C468.668 119.823 467.792 121.19 466.758 122.434L459.133 131.617L450.295 140.952L437.947 153.995L436.087 155.902C430.591 156.948 425.007 158.23 419.361 159.72L422.544 157.852C423.458 157.316 424.295 156.66 425.034 155.902L449.605 130.705L460.67 117.379C461.29 116.632 461.816 115.812 462.236 114.938L465.543 108.058C466.132 106.831 466.506 105.513 466.649 104.16L467.327 97.7277C467.414 96.8965 467.414 96.2184 467.323 95.643Z" fill="#0B7DBF"/>
<path d="M561.5 118.025L462.019 139.095L459.133 131.617L557.585 110.765L561.5 118.025Z" fill="#0B7DBF"/>
<path d="M459.133 131.617L462.019 139.095L450.295 140.952L459.133 131.617Z" fill="#0B7DBF"/>
<path d="M453.024 147.12L452.956 147.177C450.616 149.173 448.585 151.505 446.932 154.09C443.793 154.542 440.551 155.072 437.182 155.697C437.424 155.123 437.678 154.555 437.947 153.995L450.295 140.952L462.019 139.095L453.024 147.12Z" fill="#0B7DBF"/>
<path d="M391.923 175.837C392.004 175.781 392.087 175.728 392.172 175.678L419.361 159.72C425.007 158.23 430.591 156.948 436.087 155.902L430.7 161.426C429.468 162.69 428.072 163.783 426.55 164.677L400.255 180.11L381.707 182.908L391.923 175.837Z" fill="#0B7DBF"/>
<path d="M396.113 304.879C445.629 299.099 470.75 281.552 515.498 259.578C520.593 257.076 526.25 254.125 531.969 251.048L550.757 244.868L550.791 244.857L646.791 214.233C647.804 213.91 648.784 214.049 649.447 214.407C650.046 214.73 650.364 215.193 650.423 215.831C651.59 228.423 643.036 239.681 630.931 242.166C630.779 242.197 630.628 242.238 630.481 242.287L383.472 324.273C382.054 324.672 380.578 324.949 379.053 325.09C370.739 325.861 363.008 322.399 357.992 316.458C356.533 314.731 356.432 312.821 357.379 310.864C357.513 310.587 357.668 310.312 357.843 310.04C362.071 308.646 366.643 307.485 371.711 306.575C381.117 304.887 386.622 305.987 396.113 304.879Z" fill="#1197E4"/>
<path d="M462.019 139.095L561.5 118.025C562.633 120.926 563.384 124.034 563.687 127.298C564.155 132.348 563.497 137.242 561.918 141.733C552.712 143.884 542.896 145.918 531.309 147.671C514.148 150.267 500.302 150.717 486.7 151.159C474.055 151.57 461.621 151.975 446.932 154.09C448.585 151.505 450.616 149.173 452.956 147.177L453.024 147.12L462.019 139.095Z" fill="#E5F6FF"/>
<path d="M442.228 173.778C442.222 173.711 442.215 173.644 442.209 173.577C441.549 166.46 443.356 159.682 446.932 154.09C461.621 151.975 474.055 151.57 486.7 151.159C500.302 150.717 514.148 150.267 531.309 147.671C542.896 145.918 552.712 143.884 561.918 141.733C559.726 147.965 555.762 153.42 550.573 157.433L442.228 173.778Z" fill="#1197E4"/>
<path d="M444.011 181.512L494.029 173.966L509.41 186.716L481.341 214.322L452.411 193.793C448.707 190.49 445.789 186.299 444.011 181.512Z" fill="#1197E4"/>
<path d="M487.897 218.974L515.534 191.793L525.678 200.202L495.259 224.198L487.897 218.974Z" fill="#E5F6FF"/>
<path d="M515.498 259.578C470.75 281.552 445.629 299.099 396.113 304.879C386.622 305.987 381.117 304.887 371.711 306.575C366.643 307.485 362.071 308.646 357.843 310.04C358.999 308.244 361.022 306.613 363.542 305.798L483.398 267.025L483.417 267.019L531.969 251.048C526.25 254.125 520.593 257.076 515.498 259.578Z" fill="#E5F6FF"/>
<path d="M411.057 129.672L434.872 82.655C437.807 80.4075 441.387 78.9333 445.348 78.5663C450.841 78.0572 456.018 79.7767 460.001 82.9896C463.816 86.0682 466.515 90.5027 467.323 95.643C467.414 96.2184 467.414 96.8965 467.327 97.7277L466.649 104.16C466.506 105.513 466.132 106.831 465.543 108.058L462.236 114.938C461.816 115.812 461.29 116.632 460.67 117.379L449.605 130.705L425.034 155.902C424.295 156.66 423.458 157.316 422.544 157.852L419.361 159.72C403.05 164.025 386.209 170.068 369.414 177.194L365.466 162.963C366.324 162.636 367.159 162.249 367.966 161.805L400.313 143.987C404.116 141.892 407.125 138.604 408.875 134.629L411.057 129.672Z" fill="#E5F6FF"/>
<path d="M471.218 83.8818C494.698 84.4358 517.316 89.1444 538.287 97.3526L538.795 97.5513C538.909 97.5962 539.026 97.6358 539.145 97.6698C546.627 99.8172 553.133 104.481 557.585 110.765L459.133 131.617L466.758 122.434C467.792 121.19 468.668 119.823 469.369 118.366L472.676 111.486C473.658 109.442 474.281 107.244 474.519 104.989L475.197 98.5569C475.328 97.3151 475.374 95.8977 475.141 94.4139C474.536 90.5712 473.171 87.0132 471.218 83.8818Z" fill="#E5F6FF"/>
<path d="M392.172 175.678C392.087 175.728 392.004 175.781 391.923 175.837L381.707 182.908L371.429 184.458L369.414 177.194C386.209 170.068 403.05 164.025 419.361 159.72L392.172 175.678Z" fill="#1197E4"/>
<path d="M343.772 188.478C342.718 187.972 341.899 187.081 341.484 185.988L338.696 178.657C337.405 175.26 338.208 171.422 340.754 168.828L344.421 165.093C345.02 164.482 345.941 164.321 346.712 164.692C348.565 165.582 350.648 165.874 352.674 165.528L357.726 164.665L362.083 180.373C356.103 183.021 350.139 185.795 344.217 188.664C344.066 188.61 343.917 188.548 343.772 188.478Z" fill="#E5F6FF"/>
<path d="M346.56 188.856C345.773 188.998 344.965 188.931 344.217 188.664C350.139 185.795 356.103 183.021 362.083 180.373L363.581 185.773L346.56 188.856Z" fill="#1197E4"/>
<path d="M434.395 174.959L400.255 180.11L426.55 164.677C428.072 163.783 429.468 162.69 430.7 161.426L436.087 155.902L437.947 153.995C437.678 154.555 437.424 155.123 437.182 155.697C434.789 161.386 433.72 167.731 434.329 174.308C434.349 174.526 434.371 174.743 434.395 174.959Z" fill="#E5F6FF"/>
<path d="M392.354 125.681L403.209 113.27C407.233 108.67 408.904 102.468 407.738 96.4688L407.408 94.7759L414.13 77.5083L426.228 82.2069L404.777 124.557L398.868 125.967C396.691 126.487 394.436 126.376 392.354 125.681Z" fill="#E5F6FF"/>
<path d="M394.412 55.6952C395.141 55.6276 395.788 56.1642 395.855 56.8938L396.442 63.2275L393.81 69.1241L371.972 107L373.149 110.589C373.051 110.703 372.951 110.816 372.85 110.93C371.772 112.137 370.561 113.301 369.174 114.402C368.175 115.195 367.222 115.891 366.297 116.52C358.645 112.685 353.087 105.104 352.239 95.9567C351.231 85.0791 357.176 75.1507 366.436 70.5892C366.477 70.5688 366.518 70.5478 366.559 70.526L393.895 55.8525C394.045 55.7697 394.217 55.7133 394.412 55.6952Z" fill="#E5F6FF"/>
<path d="M393.81 69.1241L381.772 96.0968C381.2 97.1695 380.649 98.26 380.095 99.3578C378.174 103.163 376.209 107.055 373.149 110.589L371.972 107L393.81 69.1241Z" fill="#E5F6FF"/>
<path d="M371.764 118.519C369.855 118.06 368.023 117.386 366.297 116.52C367.222 115.891 368.175 115.195 369.174 114.402C370.561 113.301 371.772 112.137 372.85 110.93C372.951 110.816 373.051 110.703 373.149 110.589L374.062 113.371L371.764 118.519Z" fill="#E5F6FF"/>
<path d="M380.095 99.3578C380.649 98.26 381.2 97.1695 381.772 96.0968L374.062 113.371L373.149 110.589C376.209 107.055 378.174 103.163 380.095 99.3578Z" fill="#E5F6FF"/>
<path d="M400.666 90.2815L393.236 89.8265L396.679 82.1132C398.571 81.4893 400.356 81.1934 402.137 80.8982C402.916 80.7691 403.694 80.6401 404.48 80.4838L400.666 90.2815Z" fill="#E5F6FF"/>
<path d="M402.077 70.0199L407.097 73.7609L404.48 80.4838C403.694 80.6401 402.916 80.7691 402.137 80.8982C400.356 81.1934 398.571 81.4893 396.679 82.1132L402.077 70.0199Z" fill="#E5F6FF"/>
<path d="M343.652 192.785C343.412 190.194 345.491 189.086 346.56 188.856L363.581 185.773C358.513 187.482 348.481 192.014 348.894 196.475L347.97 196.642C347.046 196.81 343.952 196.024 343.652 192.785Z" fill="#0B7DBF"/>
<path d="M531.906 205.369C532.426 205.822 532.905 206.319 533.339 206.855L544.723 220.92C546.827 223.52 547.736 226.886 547.228 230.192L546.013 238.098L484.419 258.359C484.051 257.171 483.8 255.925 483.681 254.632C483.074 248.086 486.003 242.024 490.918 238.342C491.549 237.869 492.316 237.289 493.055 236.616L497.946 232.158L500.017 230.525L531.906 205.369Z" fill="#1197E4"/>
<path d="M561.5 118.025L557.585 110.765L565.86 108.985C566.391 109.877 566.89 110.792 567.356 111.727C568.1 113.221 568.758 114.767 569.324 116.36L561.5 118.025Z" fill="#0B7DBF"/>
<path d="M389.792 97.5439L379.862 119.793C381.695 120.194 383.558 120.784 385.345 121.675L397.252 108.061C399.624 105.349 400.634 101.71 400.005 98.1695L389.792 97.5439Z" fill="#1197E4"/>
</g>
</svg>
