<svg width="939" height="403" viewBox="0 0 939 403" fill="none" xmlns="http://www.w3.org/2000/svg">
<path d="M327.06 195.781C319.72 177.56 327.187 161.965 339.695 161.802C366.353 156.009 380.695 150.771 392.867 140.531C394.639 140.636 396.432 140.503 398.198 140.122C397.192 141.469 395.905 142.595 394.415 143.416L362.068 161.234C360.906 161.874 359.646 162.314 358.339 162.537L349.262 164.088C348.853 164.158 348.433 164.099 348.06 163.919C344.235 162.081 339.665 162.882 336.693 165.91L333.027 169.645C328.316 174.443 326.829 181.545 329.219 187.83L332.007 195.161C333.143 198.149 335.383 200.587 338.264 201.971C340.634 203.11 343.303 203.471 345.89 203.003L346.814 202.835L367.12 199.158L392.897 195.269L433.972 189.073C436.156 195.821 440.116 201.705 445.253 206.227C445.357 206.318 445.465 206.404 445.578 206.484L487.009 235.883L485.644 237.127C485.217 237.517 484.726 237.895 484.093 238.369C477.069 243.632 472.85 252.324 473.721 261.723C473.895 263.609 474.267 265.432 474.814 267.172L470.444 268.586C462.358 254.678 475.343 239.109 481.92 235.654C467.756 232.297 438.493 216.841 430.468 194.436C417.165 194.256 404.526 195.91 392.918 198.041C386.556 199.208 380.505 200.519 374.824 201.749C350.593 206.996 333.104 210.784 327.06 195.781Z" fill="#E5F6FF"/>
<path d="M375.198 129.535L399.071 134.708C397.033 136.82 394.983 138.751 392.867 140.531L392.805 140.528C389.263 140.307 385.807 139.136 382.823 137.084L381.853 136.417L380.872 135.771C378.682 134.329 375.857 133.667 372.496 133.35C372.18 133.32 371.865 133.286 371.551 133.247C356.239 131.361 343.762 119.042 342.279 103.047C340.961 88.8222 348.727 75.8593 360.795 69.8823L387.991 55.2843L388.014 55.2716C389.094 54.6791 390.309 54.2955 391.601 54.1758C396.683 53.7048 401.184 57.4424 401.655 62.5239L402.175 68.1345L407.502 72.1042C405.273 72.1322 403.049 72.1615 400.834 72.1906L400.817 72.1908L400.787 72.1912L400.774 72.1914C398.363 72.2232 395.963 72.2548 393.575 72.2844L391.73 75.4845L394.362 69.5878L393.775 63.2542C393.707 62.5246 393.061 61.9879 392.332 62.0556C392.136 62.0737 391.965 62.13 391.815 62.2128L364.479 76.8863C364.438 76.9081 364.397 76.9292 364.356 76.9495C355.096 81.5111 349.151 91.4395 350.159 102.317C351.007 111.464 356.565 119.045 364.217 122.881C365.943 123.746 367.775 124.42 369.684 124.879L371.982 119.731L375.198 129.535Z" fill="#0B7DBF"/>
<path fill-rule="evenodd" clip-rule="evenodd" d="M399.071 134.708L375.198 129.535L371.982 119.731L379.692 102.457C382.367 97.4408 385.515 92.8151 391.716 89.6715C392.711 89.1668 393.668 88.7805 394.599 88.4736L391.156 96.1868L398.586 96.6419L402.4 86.8441L405.017 80.1213L412.05 83.8686L405.328 101.136L405.657 102.829C406.824 108.829 405.153 115.03 401.129 119.631L390.274 132.042C392.356 132.736 394.611 132.847 396.788 132.328L402.697 130.917L424.148 88.5673L432.792 89.0154L408.977 136.033L406.795 140.99C405.045 144.964 402.036 148.252 398.233 150.348L365.886 168.165C365.079 168.61 364.244 168.996 363.386 169.323L355.646 171.026L350.594 171.889C348.568 172.235 346.484 171.942 344.632 171.052C343.861 170.681 342.94 170.843 342.34 171.453L338.674 175.188C336.128 177.782 335.324 181.62 336.616 185.017L339.404 192.349C339.819 193.441 340.638 194.333 341.692 194.839C341.837 194.909 341.986 194.971 342.137 195.025C342.885 195.291 343.693 195.358 344.48 195.216C343.411 195.446 341.332 196.554 341.572 199.145C341.872 202.384 344.966 203.17 345.89 203.003C343.303 203.471 340.634 203.11 338.264 201.971C335.383 200.587 333.143 198.149 332.007 195.161L329.219 187.83C326.829 181.545 328.316 174.443 333.027 169.645L336.693 165.91C339.665 162.882 344.235 162.081 348.06 163.919C348.433 164.099 348.853 164.158 349.262 164.088L358.339 162.537C359.646 162.314 360.906 161.874 362.068 161.234L394.415 143.416C395.905 142.595 397.192 141.469 398.198 140.122C396.432 140.503 394.639 140.636 392.867 140.531C394.983 138.751 397.033 136.82 399.071 134.708ZM377.782 126.153L387.712 103.904L397.925 104.53C398.554 108.07 397.544 111.709 395.172 114.421L383.265 128.036C381.477 127.145 379.615 126.555 377.782 126.153Z" fill="#0B7DBF"/>
<path d="M479.261 220.682L493.295 206.879L507.33 193.077L513.454 198.153L485.817 225.334L479.261 220.682Z" fill="#0B7DBF"/>
<path d="M493.179 230.559L523.598 206.563L529.826 211.73L497.937 236.885L493.179 230.559Z" fill="#0B7DBF"/>
<path d="M440.129 179.938C440.135 180.005 440.142 180.071 440.148 180.138L432.315 181.32C432.291 181.103 432.269 180.886 432.249 180.668C431.64 174.091 432.709 167.746 435.102 162.057C438.471 161.432 441.713 160.902 444.852 160.45C441.276 166.043 439.469 172.82 440.129 179.938Z" fill="#0B7DBF"/>
<path d="M465.243 102.003C464.435 96.8631 461.736 92.4285 457.921 89.35L469.138 90.2421C471.091 93.3735 472.456 96.9315 473.061 100.774C473.294 102.258 473.247 103.675 473.117 104.917L472.439 111.349C472.201 113.604 471.578 115.802 470.595 117.846L467.289 124.726C466.588 126.184 465.712 127.55 464.678 128.795L457.053 137.978L448.215 147.313L435.867 160.356L434.007 162.263C428.511 163.309 422.927 164.59 417.28 166.081L420.464 164.212C421.378 163.676 422.215 163.02 422.954 162.262L447.525 137.065L458.59 123.739C459.21 122.993 459.736 122.173 460.156 121.298L463.463 114.418C464.052 113.192 464.426 111.873 464.569 110.52L465.247 104.088C465.334 103.257 465.333 102.579 465.243 102.003Z" fill="#0B7DBF"/>
<path d="M457.053 137.978L459.939 145.456L448.215 147.313L457.053 137.978Z" fill="#0B7DBF"/>
<path d="M450.944 153.48L450.876 153.538C448.536 155.533 446.505 157.865 444.852 160.45C441.713 160.902 438.471 161.432 435.102 162.057C435.343 161.483 435.598 160.916 435.867 160.356L448.215 147.313L459.939 145.456L450.944 153.48Z" fill="#0B7DBF"/>
<path d="M389.843 182.197C389.924 182.141 390.007 182.088 390.092 182.039L417.28 166.081C422.927 164.59 428.511 163.309 434.007 162.263L428.62 167.787C427.388 169.05 425.992 170.143 424.47 171.037L398.175 186.47L392.906 187.265L379.627 189.268L389.843 182.197Z" fill="#0B7DBF"/>
<path d="M441.931 187.872L491.949 180.326L507.33 193.077L493.295 206.879L479.261 220.682L450.331 200.154C446.626 196.85 443.709 192.659 441.931 187.872Z" fill="#1197E4"/>
<path d="M485.817 225.334L513.454 198.153L523.598 206.563L493.179 230.559L485.817 225.334Z" fill="#E5F6FF"/>
<path d="M408.977 136.033L432.792 89.0154C435.727 86.7678 439.307 85.2937 443.268 84.9266C448.761 84.4175 453.938 86.1371 457.921 89.35C461.736 92.4285 464.435 96.8631 465.243 102.003C465.333 102.579 465.334 103.257 465.247 104.088L464.569 110.52C464.426 111.873 464.052 113.192 463.463 114.418L460.156 121.298C459.736 122.173 459.21 122.993 458.59 123.739L447.525 137.065L422.954 162.262C422.215 163.02 421.378 163.676 420.464 164.212L417.28 166.081C400.97 170.385 384.129 176.429 367.334 183.554L363.386 169.323C364.244 168.996 365.079 168.61 365.886 168.165L398.233 150.348C402.036 148.252 405.045 144.964 406.795 140.99L408.977 136.033Z" fill="#E5F6FF"/>
<path d="M390.092 182.039C390.007 182.088 389.924 182.141 389.843 182.197L379.627 189.268L369.349 190.819L367.334 183.554C384.129 176.429 400.97 170.385 417.28 166.081L390.092 182.039Z" fill="#1197E4"/>
<path d="M341.692 194.839C340.638 194.333 339.819 193.441 339.404 192.349L336.616 185.017C335.324 181.62 336.128 177.782 338.674 175.188L342.34 171.453C342.94 170.843 343.861 170.681 344.632 171.052C346.484 171.942 348.568 172.235 350.594 171.889L355.646 171.026L360.003 186.733C354.023 189.381 348.059 192.155 342.137 195.025C341.986 194.971 341.837 194.909 341.692 194.839Z" fill="#E5F6FF"/>
<path d="M344.48 195.216C343.693 195.358 342.885 195.291 342.137 195.025C348.059 192.155 354.023 189.381 360.003 186.733L361.501 192.133L344.48 195.216Z" fill="#1197E4"/>
<path d="M432.315 181.32L398.175 186.47L424.47 171.037C425.992 170.143 427.388 169.05 428.62 167.787L434.007 162.263L435.867 160.356C435.598 160.916 435.343 161.483 435.102 162.057C432.709 167.746 431.64 174.091 432.249 180.668C432.269 180.886 432.291 181.103 432.315 181.32Z" fill="#E5F6FF"/>
<path d="M390.274 132.042L401.129 119.631C405.153 115.03 406.824 108.829 405.657 102.829L405.328 101.136L412.05 83.8686L416.251 85.5002L424.148 88.5673L402.697 130.917L396.788 132.328C394.611 132.847 392.356 132.736 390.274 132.042Z" fill="#E5F6FF"/>
<path d="M392.332 62.0556C393.061 61.9879 393.707 62.5246 393.775 63.2542L394.362 69.5878L391.73 75.4845L369.892 113.36L371.069 116.949C370.971 117.063 370.871 117.177 370.77 117.29C369.692 118.498 368.481 119.661 367.094 120.763C366.095 121.555 365.142 122.251 364.217 122.881C356.565 119.045 351.007 111.464 350.159 102.317C349.151 91.4395 355.096 81.5111 364.356 76.9495C364.397 76.9292 364.438 76.9081 364.479 76.8863L391.815 62.2128C391.965 62.13 392.136 62.0737 392.332 62.0556Z" fill="#E5F6FF"/>
<path d="M391.73 75.4845L379.692 102.457C379.12 103.53 378.569 104.62 378.015 105.718C376.094 109.524 374.129 113.415 371.069 116.949L369.892 113.36L391.73 75.4845Z" fill="#E5F6FF"/>
<path d="M369.684 124.879C367.775 124.42 365.943 123.746 364.217 122.881C365.142 122.251 366.095 121.555 367.094 120.763C368.481 119.661 369.692 118.498 370.77 117.29C370.871 117.177 370.971 117.063 371.069 116.949L371.982 119.731L369.684 124.879Z" fill="#E5F6FF"/>
<path d="M378.015 105.718C378.569 104.62 379.12 103.53 379.692 102.457L371.982 119.731L371.069 116.949C374.129 113.415 376.094 109.524 378.015 105.718Z" fill="#E5F6FF"/>
<path d="M398.586 96.6419L391.156 96.1868L394.599 88.4736C396.491 87.8497 398.276 87.5538 400.057 87.2586C400.836 87.1294 401.614 87.0004 402.4 86.8441L398.586 96.6419Z" fill="#E5F6FF"/>
<path d="M399.996 76.3803L405.017 80.1213L402.4 86.8441C401.614 87.0004 400.836 87.1294 400.057 87.2586C398.276 87.5538 396.491 87.8497 394.599 88.4736L399.996 76.3803Z" fill="#E5F6FF"/>
<path d="M341.572 199.145C341.332 196.554 343.411 195.446 344.48 195.216L361.501 192.133C356.433 193.842 346.401 198.375 346.814 202.835L345.89 203.003C344.966 203.17 341.872 202.384 341.572 199.145Z" fill="#0B7DBF"/>
<path d="M387.712 103.904L377.782 126.153C379.615 126.555 381.477 127.145 383.265 128.036L395.172 114.421C397.544 111.709 398.554 108.07 397.925 104.53L387.712 103.904Z" fill="#1197E4"/>
<path d="M434.302 313.071C438.547 314.774 443.2 316.009 448.261 316.777L510.124 296.243C512.544 292.983 514.713 289.484 516.63 285.746L434.302 313.071Z" fill="#0B7DBF"/>
<path d="M347.287 323.238C348.104 324.795 348.94 326.33 349.796 327.841C349.819 327.869 349.842 327.896 349.865 327.924C356.48 335.757 366.704 340.35 377.703 339.33C379.745 339.141 381.729 338.766 383.638 338.222C383.693 338.206 383.747 338.19 383.8 338.172L448.261 316.777C443.2 316.009 438.547 314.774 434.302 313.071L381.391 330.633C379.974 331.032 378.498 331.309 376.973 331.45C368.659 332.221 360.928 328.759 355.911 322.818C354.453 321.091 354.352 319.182 355.299 317.225C355.433 316.948 355.588 316.672 355.763 316.4C356.919 314.604 358.942 312.973 361.462 312.158L412.496 295.649C410.906 293.461 409.428 291.166 408.061 288.767L359.027 304.629C354.254 306.173 350.215 309.56 348.175 313.779C346.768 316.687 346.323 320.024 347.287 323.238Z" fill="#0B7DBF"/>
<path d="M481.318 273.386L481.337 273.38L525.41 258.882C525.436 258.735 525.462 258.588 525.488 258.44C525.673 257.372 525.853 256.29 526.027 255.194L473.499 272.662C472.256 271.329 471.246 269.966 470.444 268.586L408.061 288.767C409.428 291.166 410.906 293.461 412.496 295.649L481.318 273.386Z" fill="#0B7DBF"/>
<path d="M630.679 256.229C646.567 252.844 657.759 238.033 656.223 221.461C655.536 214.051 647.955 211.252 642.306 213.054L600.631 226.348C600.404 229.235 600.146 232.086 599.859 234.901L644.711 220.593C645.724 220.27 646.704 220.41 647.367 220.767C647.966 221.09 648.284 221.553 648.343 222.191C649.51 234.784 640.956 246.041 628.851 248.526C628.699 248.558 628.548 248.598 628.401 248.647L596.471 259.245C595.929 262.266 595.347 265.238 594.725 268.163L630.679 256.229Z" fill="#0B7DBF"/>
<path d="M433.972 189.073C436.156 195.821 440.116 201.705 445.253 206.227C445.357 206.318 445.465 206.404 445.578 206.484L487.009 235.883L485.644 237.127C485.217 237.517 484.726 237.895 484.093 238.369C477.069 243.632 472.85 252.324 473.721 261.723C473.895 263.609 474.267 265.432 474.814 267.172L470.444 268.586C471.246 269.966 472.256 271.329 473.499 272.662L526.027 255.194C526.29 253.529 526.542 251.832 526.78 250.1L482.339 264.719C481.971 263.531 481.72 262.285 481.6 260.992C480.994 254.446 483.923 248.384 488.838 244.702C489.469 244.229 490.236 243.649 490.975 242.976L495.866 238.519L497.937 236.885L493.179 230.559L485.817 225.334L479.261 220.682L450.331 200.154C446.626 196.85 443.709 192.659 441.931 187.872L433.972 189.073Z" fill="#0B7DBF"/>
<path d="M392.906 187.265C392.894 188.788 392.888 190.326 392.888 191.88C392.888 193.018 392.891 194.147 392.897 195.269L433.972 189.073L441.931 187.872L491.949 180.326L502.44 178.744L529.885 174.603C529.793 171.899 529.678 169.248 529.541 166.652L440.148 180.138L432.315 181.32L398.175 186.47L392.906 187.265Z" fill="#0B7DBF"/>
<path d="M379.627 189.268L369.349 190.819L361.501 192.133C356.433 193.842 346.401 198.375 346.814 202.835L367.12 199.158L392.897 195.269C392.891 194.147 392.888 193.018 392.888 191.88C392.888 190.326 392.894 188.788 392.906 187.265L379.627 189.268Z" fill="#0B7DBF"/>
<path d="M491.949 180.326L507.33 193.077L513.454 198.153L523.598 206.563L529.826 211.73H529.847C529.958 208.452 530.04 205.099 530.094 201.668L502.44 178.744L491.949 180.326Z" fill="#0B7DBF"/>
<path d="M481.6 260.992C481.72 262.285 481.971 263.531 482.339 264.719L526.78 250.1C528.344 238.753 529.366 225.963 529.847 211.73H529.826L497.937 236.885L495.866 238.519L490.975 242.976C490.236 243.649 489.469 244.229 488.838 244.702C483.923 248.384 480.994 254.446 481.6 260.992Z" fill="#1197E4"/>
<path d="M422.428 79.41C420.612 80.8823 418.912 82.4923 417.328 84.24C416.965 84.6554 416.606 85.0755 416.251 85.5002L424.148 88.5673L432.792 89.0154C435.727 86.7678 439.307 85.2937 443.268 84.9266C448.761 84.4175 453.938 86.1371 457.921 89.35L469.138 90.2421C484.6 90.607 499.688 92.7734 514.178 96.5544C512.166 93.0862 509.919 89.8417 507.436 86.8209C492.661 83.6525 477.35 82.0844 461.713 82.2915C456.364 78.4183 449.633 76.3892 442.537 77.0468C437.507 77.513 432.899 79.2746 429.023 81.9712L422.428 79.41Z" fill="#0B7DBF"/>
<path d="M457.053 137.978L459.939 145.456L525.746 131.518C525.498 130.12 525.238 128.747 524.968 127.4C524.75 126.165 524.516 124.946 524.264 123.743L457.053 137.978Z" fill="#0B7DBF"/>
<path d="M399.996 76.3803L405.017 80.1213L412.05 83.8686L416.251 85.5002C416.606 85.0755 416.965 84.6554 417.328 84.24C418.912 82.4923 420.612 80.8823 422.428 79.41L411.731 75.255L407.502 72.1042C405.273 72.1322 403.049 72.1615 400.834 72.1906L400.817 72.1908L400.787 72.1912L400.774 72.1914C398.363 72.2232 395.963 72.2548 393.575 72.2844L391.73 75.4845L379.692 102.457C382.367 97.4408 385.515 92.8151 391.716 89.6715C392.711 89.1668 393.668 88.7805 394.599 88.4736L399.996 76.3803Z" fill="#0B7DBF"/>
<path d="M440.129 179.938C440.135 180.005 440.142 180.071 440.148 180.138L529.541 166.652C529.312 162.323 529.021 158.144 528.666 154.116C511.765 156.637 498.073 157.082 484.62 157.52C471.975 157.931 459.541 158.335 444.852 160.45C441.276 166.043 439.469 172.82 440.129 179.938Z" fill="#1197E4"/>
<path d="M360.003 186.733L361.501 192.133L369.349 190.819L367.334 183.554L360.003 186.733Z" fill="#0B7DBF"/>
<path d="M355.646 171.026L360.003 186.733C362.444 185.652 364.888 184.592 367.334 183.554L363.386 169.323L355.646 171.026Z" fill="#0B7DBF"/>
<path d="M605.615 163.179L607.674 172.347C608.153 174.479 610.27 175.82 612.402 175.341C614.534 174.862 615.874 172.745 615.396 170.613L613.46 161.995L622.431 160.642C624.592 160.316 626.08 158.3 625.754 156.139C625.428 153.978 623.412 152.491 621.251 152.817L611.712 154.256L609.994 146.695C609.509 144.565 607.389 143.23 605.258 143.714C603.128 144.198 601.793 146.318 602.277 148.449L603.866 155.439L600.495 155.948C600.713 158.557 600.907 161.195 601.075 163.863L605.615 163.179Z" fill="#0B7DBF"/>
<path d="M464.678 128.795L457.053 137.978L524.264 123.743C522.124 113.519 518.762 104.456 514.178 96.5544C499.688 92.7734 484.6 90.607 469.138 90.2421C471.091 93.3735 472.456 96.9315 473.061 100.774C473.294 102.258 473.247 103.675 473.117 104.917L472.439 111.349C472.201 113.604 471.578 115.802 470.595 117.846L467.289 124.726C466.588 126.184 465.712 127.55 464.678 128.795Z" fill="#E5F6FF"/>
<path d="M450.944 153.48L450.876 153.538C448.536 155.533 446.505 157.865 444.852 160.45C459.541 158.335 471.975 157.931 484.62 157.52C498.073 157.082 511.765 156.637 528.666 154.116C527.95 145.967 526.976 138.435 525.746 131.518L459.939 145.456L450.944 153.48Z" fill="#E5F6FF"/>
<path d="M442.537 77.0468C449.633 76.3892 456.364 78.4183 461.713 82.2915C477.35 82.0844 492.661 83.6525 507.436 86.8209C506.713 85.9416 505.971 85.0813 505.208 84.24C501.902 80.4615 498.033 77.3266 493.601 74.8351C475.307 72.629 455.47 71.9921 435.484 71.9255C432.647 73.0216 429.986 74.3259 427.5 75.8385C425.719 76.9221 424.029 78.1126 422.428 79.41L429.023 81.9712C432.899 79.2746 437.507 77.513 442.537 77.0468Z" fill="#E5F6FF"/>
<path d="M407.502 72.1042L411.731 75.255L422.428 79.41C424.029 78.1126 425.719 76.9221 427.5 75.8385C429.986 74.3259 432.647 73.0216 435.484 71.9255C426.142 71.8944 416.767 71.988 407.502 72.1042Z" fill="#E5F6FF"/>
<path d="M422.26 306.147C413.648 308.313 404.372 310.033 394.033 311.24C384.542 312.347 379.037 311.248 369.631 312.936C364.563 313.845 359.991 315.006 355.763 316.4C355.588 316.672 355.433 316.948 355.299 317.225C354.352 319.182 354.453 321.091 355.911 322.818C360.928 328.759 368.659 332.221 376.973 331.45C378.498 331.309 379.974 331.032 381.391 330.633L434.302 313.071C429.838 311.281 425.824 308.972 422.26 306.147Z" fill="#1197E4"/>
<path d="M647.367 220.767C646.704 220.41 645.724 220.27 644.711 220.593L599.859 234.901C598.998 243.335 597.869 251.45 596.471 259.245L628.401 248.647C628.548 248.598 628.699 248.558 628.851 248.526C640.956 246.041 649.51 234.784 648.343 222.191C648.284 221.553 647.966 221.09 647.367 220.767Z" fill="#1197E4"/>
<path d="M525.216 259.901C521.115 262.068 517.118 264.121 513.418 265.938C478.014 283.324 454.896 297.939 422.26 306.147C425.824 308.972 429.838 311.281 434.302 313.071L516.63 285.746C520.593 278.018 523.482 269.269 525.297 259.5L525.216 259.901Z" fill="#1197E4"/>
<path d="M481.337 273.38L481.318 273.386L412.496 295.649C414.006 297.728 415.617 299.712 417.328 301.6C418.863 303.241 420.507 304.756 422.26 306.147C454.896 297.939 478.014 283.324 513.418 265.938C517.118 264.121 521.115 262.068 525.216 259.901L525.297 259.5C525.335 259.294 525.372 259.088 525.41 258.882L481.337 273.38Z" fill="#E5F6FF"/>
<path d="M369.631 312.936C379.037 311.248 384.542 312.347 394.033 311.24C404.372 310.033 413.648 308.313 422.26 306.147C420.507 304.756 418.863 303.241 417.328 301.6C415.617 299.712 414.006 297.728 412.496 295.649L361.462 312.158C358.942 312.973 356.919 314.604 355.763 316.4C359.991 315.006 364.563 313.845 369.631 312.936Z" fill="#E5F6FF"/>
<path d="M529.885 174.603L502.44 178.744L530.094 201.668C530.144 198.472 530.168 195.209 530.168 191.88C530.168 190.892 530.166 189.91 530.161 188.934C526.576 186.975 522.65 185.013 518.359 183.054C522.531 182.656 526.43 182.2 530.073 181.689C530.027 179.287 529.965 176.925 529.885 174.603Z" fill="#E5F6FF"/>
<path d="M353.368 50.96C331.875 84.9333 321.128 131.907 321.128 191.88C321.128 246.214 329.848 289.999 347.287 323.238C346.323 320.024 346.768 316.687 348.175 313.779C350.215 309.56 354.254 306.173 359.027 304.629L408.061 288.767C403.096 280.052 399.598 269.943 397.568 258.44C394.695 241.836 393.144 221.703 392.918 198.041C386.556 199.208 380.505 200.519 374.824 201.749C350.593 206.996 333.104 210.784 327.06 195.781C319.72 177.56 327.187 161.965 339.695 161.802C366.353 156.009 380.695 150.771 392.867 140.531L392.805 140.528C389.263 140.307 385.807 139.136 382.823 137.084L381.853 136.417L380.872 135.771C378.682 134.329 375.857 133.667 372.496 133.35C372.18 133.32 371.865 133.286 371.551 133.247C356.239 131.361 343.762 119.042 342.279 103.047C340.961 88.8222 348.727 75.8593 360.795 69.8823L387.991 55.2843L388.014 55.2716C389.094 54.6791 390.309 54.2955 391.601 54.1758C396.683 53.7048 401.184 57.4424 401.655 62.5239L402.175 68.1345L407.502 72.1042C416.767 71.988 426.142 71.8944 435.484 71.9255C442.949 69.0418 451.631 67.6 461.528 67.6C474.329 67.6 485.02 70.0117 493.601 74.8351C498.033 77.3266 501.902 80.4615 505.208 84.24C505.971 85.0813 506.713 85.9416 507.436 86.8209C509.919 89.8417 512.166 93.0862 514.178 96.5544C518.762 104.456 522.124 113.519 524.264 123.743C524.516 124.946 524.75 126.165 524.968 127.4C525.238 128.747 525.498 130.12 525.746 131.518C526.976 138.435 527.95 145.967 528.666 154.116C529.021 158.144 529.312 162.323 529.541 166.652C529.678 169.248 529.793 171.899 529.885 174.603C529.965 176.925 530.027 179.287 530.073 181.689C530.119 184.065 530.148 186.48 530.161 188.934C530.166 189.91 530.168 190.892 530.168 191.88C530.168 195.209 530.144 198.472 530.094 201.668C530.04 205.099 529.958 208.452 529.847 211.73C529.366 225.963 528.344 238.753 526.78 250.1C526.542 251.832 526.29 253.529 526.027 255.194C525.853 256.29 525.673 257.372 525.488 258.44C525.462 258.588 525.436 258.735 525.41 258.882C525.372 259.088 525.335 259.294 525.297 259.5C523.482 269.269 520.593 278.018 516.63 285.746C514.713 289.484 512.544 292.983 510.124 296.243C508.741 298.107 507.276 299.892 505.728 301.6C495.675 312.347 480.942 317.72 461.528 317.72C456.832 317.72 452.409 317.406 448.261 316.777L383.8 338.172C383.747 338.19 383.693 338.206 383.638 338.222C381.729 338.766 379.745 339.141 377.703 339.33C366.704 340.35 356.48 335.757 349.865 327.924C349.842 327.896 349.819 327.869 349.796 327.841C350.952 329.883 352.143 331.883 353.368 333.84C375.208 368.16 411.262 385.32 461.528 385.32C511.795 385.32 547.675 368.16 569.168 333.84C580.767 315.614 589.286 293.722 594.725 268.163C595.347 265.238 595.929 262.266 596.471 259.245C597.869 251.45 598.998 243.335 599.859 234.901C600.146 232.086 600.404 229.235 600.631 226.348C601.496 215.374 601.928 203.884 601.928 191.88C601.928 182.203 601.644 172.864 601.075 163.863C600.907 161.195 600.713 158.557 600.495 155.948C596.882 112.822 586.44 77.8262 569.168 50.96C547.675 16.9867 511.795 0 461.528 0C411.262 0 375.208 16.9867 353.368 50.96Z" fill="#34A9ED"/>
<path fill-rule="evenodd" clip-rule="evenodd" d="M657.3 191.88C657.3 131.907 668.047 84.9333 689.54 50.96C711.38 16.9867 747.434 0 797.7 0C847.967 0 883.847 16.9867 905.34 50.96C927.18 84.9333 938.1 131.907 938.1 191.88C938.1 252.2 927.18 299.52 905.34 333.84C883.847 368.16 847.967 385.32 797.7 385.32C747.434 385.32 711.38 368.16 689.54 333.84C668.047 299.52 657.3 252.2 657.3 191.88ZM861.14 127.4C864.607 144.733 866.34 166.227 866.34 191.88C866.34 218.227 864.78 240.413 861.66 258.44C858.54 276.12 851.954 290.507 841.9 301.6C831.847 312.347 817.114 317.72 797.7 317.72C778.287 317.72 763.554 312.347 753.5 301.6C743.447 290.507 736.86 276.12 733.74 258.44C730.62 240.413 729.06 218.227 729.06 191.88C729.06 166.227 730.62 144.733 733.74 127.4C737.207 109.72 743.794 95.3333 753.5 84.24C763.554 73.1467 778.287 67.6 797.7 67.6C817.114 67.6 831.674 73.1467 841.38 84.24C851.434 95.3333 858.02 109.72 861.14 127.4Z" fill="#34A9ED"/>
<path d="M241.28 70.2H72.8V159.12C80.08 150.107 90.48 142.827 104 137.28C117.52 131.387 131.907 128.44 147.16 128.44C174.893 128.44 197.6 134.507 215.28 146.64C232.96 158.773 245.787 174.373 253.76 193.44C261.733 212.16 265.72 232.267 265.72 253.76C265.72 293.627 254.28 325.693 231.4 349.96C208.867 374.227 176.627 386.36 134.68 386.36C95.16 386.36 63.6133 376.48 40.04 356.72C16.4667 336.96 3.12 311.133 0 279.24H70.72C73.84 293.107 80.7733 304.2 91.52 312.52C102.613 320.84 116.653 325 133.64 325C154.093 325 169.52 318.587 179.92 305.76C190.32 292.933 195.52 275.947 195.52 254.8C195.52 233.307 190.147 217.013 179.4 205.92C169 194.48 153.573 188.76 133.12 188.76C118.56 188.76 106.427 192.4 96.72 199.68C87.0133 206.96 80.08 216.667 75.92 228.8H6.24V6.24001H241.28V70.2Z" fill="#34A9ED"/>
</svg>
