<svg width="29" height="30" viewBox="0 0 29 30" fill="none" xmlns="http://www.w3.org/2000/svg">
<path fill-rule="evenodd" clip-rule="evenodd" d="M10.6174 0.189253C12.7358 -0.24753 14.9629 0.0772818 16.8332 1.10619C18.3215 1.92501 19.5006 3.14528 20.2065 4.60045C20.7454 4.57016 21.2886 4.61378 21.8179 4.73178C22.7876 4.94797 23.6823 5.40767 24.3966 6.06994C25.1116 6.73294 25.618 7.57388 25.8449 8.50258C25.969 9.01043 26.0059 9.52997 25.9571 10.0427C26.8525 10.5542 27.6097 11.2664 28.1476 12.1297C28.9046 13.3449 29.1721 14.7733 28.8908 16.161C28.6099 17.5472 27.8047 18.7805 26.6417 19.6569C25.4809 20.5317 24.032 21.0012 22.5482 21L22.5467 21L7.45271 21C5.50523 21 3.62021 20.3003 2.21647 19.0292C0.809557 17.7552 0 16.0071 0 14.1637C6.18736e-05 12.7024 0.509685 11.2882 1.44069 10.1222C2.1269 9.26283 3.01464 8.57182 4.02539 8.09162C3.94647 6.46601 4.42853 4.85266 5.41122 3.48579C6.62465 1.79798 8.49809 0.626214 10.6174 0.189253ZM7.73368 5.04871C8.51749 3.95848 9.75695 3.16519 11.207 2.86621C11.4978 2.80625 11.7914 2.7674 12.085 2.74916C13.2562 2.67644 14.4286 2.93196 15.4348 3.48549C16.6909 4.17653 17.5738 5.26724 17.9303 6.50559C18.0325 6.86069 18.2785 7.16088 18.6125 7.33819C18.9465 7.51551 19.3403 7.55496 19.7048 7.44762C20.1813 7.3073 20.6943 7.2901 21.1826 7.39896C21.6707 7.50777 22.1044 7.73571 22.4391 8.04605C22.773 8.35565 22.9944 8.73354 23.0918 9.13222C23.189 9.53015 23.162 9.94459 23.0113 10.3326C22.8778 10.6766 22.8928 11.058 23.053 11.3911C23.2131 11.7243 23.505 11.9811 23.863 12.1038C24.3475 12.27 24.7764 12.5227 25.1288 12.8378L25.7247 13.5427C26.1251 14.1855 26.2587 14.9238 26.1147 15.6343C25.9704 16.3462 25.5509 17.0095 24.9032 17.4976C24.2537 17.9871 23.4211 18.2638 22.5496 18.2629H7.45271C6.19733 18.2629 5.01067 17.8105 4.14965 17.0308C3.29182 16.254 2.82905 15.2206 2.82903 14.1638C2.82908 13.3235 3.1212 12.4947 3.67948 11.7955C4.23901 11.0948 5.04027 10.5577 5.97957 10.277C6.67683 10.0686 7.09578 9.38126 6.94681 8.69008C6.6772 7.43917 6.95253 6.13524 7.73368 5.04871Z" fill="#1C1E20"/>
<path fill-rule="evenodd" clip-rule="evenodd" d="M15.9562 28.2985C15.3292 29.7066 13.8824 30.1151 12.5793 29.5349C11.2762 28.9547 10.6117 27.6063 11.2385 26.1981C11.8655 24.7901 15.4888 23 15.4888 23C15.4888 23 16.583 26.8904 15.9562 28.2985Z" fill="#1C1E20"/>
<path fill-rule="evenodd" clip-rule="evenodd" d="M15.9562 28.2985C15.3292 29.7066 13.8824 30.1151 12.5793 29.5349C11.2762 28.9547 10.6117 27.6063 11.2385 26.1981C11.8655 24.7901 15.4888 23 15.4888 23C15.4888 23 16.583 26.8904 15.9562 28.2985Z" fill="#1C1E20"/>
<path fill-rule="evenodd" clip-rule="evenodd" d="M21.9944 26.2703C21.4891 27.4052 20.323 27.7344 19.2728 27.2668C18.2226 26.7992 17.687 25.7124 18.1922 24.5775C18.6975 23.4427 21.6177 22 21.6177 22C21.6177 22 22.4996 25.1355 21.9944 26.2703Z" fill="#1C1E20"/>
<path fill-rule="evenodd" clip-rule="evenodd" d="M8.99443 26.2703C8.48913 27.4052 7.32303 27.7344 6.27283 27.2668C5.22263 26.7992 4.68703 25.7124 5.19223 24.5775C5.69753 23.4427 8.61773 22 8.61773 22C8.61773 22 9.49963 25.1355 8.99443 26.2703Z" fill="#1C1E20"/>
</svg>
