<svg width="30" height="30" viewBox="0 0 30 30" fill="none" xmlns="http://www.w3.org/2000/svg">
<path fill-rule="evenodd" clip-rule="evenodd" d="M15 0C15.7531 0 16.3636 0.610521 16.3636 1.36364V3.84298C16.3636 4.59609 15.7531 5.20661 15 5.20661C14.2469 5.20661 13.6364 4.59609 13.6364 3.84298V1.36364C13.6364 0.610521 14.2469 0 15 0ZM4.39114 4.39114C4.92367 3.8586 5.78708 3.8586 6.31961 4.39114L8.07994 6.15147C8.61247 6.684 8.61247 7.54741 8.07994 8.07994C7.54741 8.61247 6.684 8.61247 6.15147 8.07994L4.39114 6.31961C3.8586 5.78708 3.8586 4.92367 4.39114 4.39114ZM25.6089 4.39114C26.1414 4.92367 26.1414 5.78708 25.6089 6.31961L23.8485 8.07994C23.316 8.61247 22.4526 8.61247 21.9201 8.07994C21.3875 7.54741 21.3875 6.684 21.9201 6.15147L23.6804 4.39114C24.2129 3.8586 25.0763 3.8586 25.6089 4.39114ZM15 10.1653C12.3299 10.1653 10.1653 12.3299 10.1653 15C10.1653 17.6701 12.3299 19.8347 15 19.8347C17.6701 19.8347 19.8347 17.6701 19.8347 15C19.8347 12.3299 17.6701 10.1653 15 10.1653ZM7.43802 15C7.43802 10.8236 10.8236 7.43802 15 7.43802C19.1764 7.43802 22.562 10.8236 22.562 15C22.562 19.1764 19.1764 22.562 15 22.562C10.8236 22.562 7.43802 19.1764 7.43802 15ZM0 15C0 14.2469 0.610521 13.6364 1.36364 13.6364H3.84298C4.59609 13.6364 5.20661 14.2469 5.20661 15C5.20661 15.7531 4.59609 16.3636 3.84298 16.3636H1.36364C0.610521 16.3636 0 15.7531 0 15ZM24.7934 15C24.7934 14.2469 25.4039 13.6364 26.157 13.6364H28.6364C29.3895 13.6364 30 14.2469 30 15C30 15.7531 29.3895 16.3636 28.6364 16.3636H26.157C25.4039 16.3636 24.7934 15.7531 24.7934 15ZM8.07994 21.9201C8.61247 22.4526 8.61247 23.316 8.07994 23.8485L6.31961 25.6089C5.78708 26.1414 4.92367 26.1414 4.39114 25.6089C3.8586 25.0763 3.8586 24.2129 4.39114 23.6804L6.15147 21.9201C6.684 21.3875 7.54741 21.3875 8.07994 21.9201ZM21.9201 21.9201C22.4526 21.3875 23.316 21.3875 23.8485 21.9201L25.6089 23.6804C26.1414 24.2129 26.1414 25.0763 25.6089 25.6089C25.0763 26.1414 24.2129 26.1414 23.6804 25.6089L21.9201 23.8485C21.3875 23.316 21.3875 22.4526 21.9201 21.9201ZM15 24.7934C15.7531 24.7934 16.3636 25.4039 16.3636 26.157V28.6364C16.3636 29.3895 15.7531 30 15 30C14.2469 30 13.6364 29.3895 13.6364 28.6364V26.157C13.6364 25.4039 14.2469 24.7934 15 24.7934Z" fill="#1C1E20"/>
</svg>
