<svg width="29" height="30" viewBox="0 0 29 30" fill="none" xmlns="http://www.w3.org/2000/svg">
<path fill-rule="evenodd" clip-rule="evenodd" d="M10.6174 0.189253C12.7358 -0.24753 14.9629 0.0772818 16.8332 1.10619C18.3215 1.92501 19.5006 3.14528 20.2065 4.60045C20.7454 4.57016 21.2886 4.61378 21.8179 4.73178C22.7876 4.94797 23.6823 5.40767 24.3966 6.06994C25.1116 6.73294 25.618 7.57388 25.8449 8.50258C25.969 9.01043 26.0059 9.52997 25.9571 10.0427C26.8525 10.5542 27.6097 11.2664 28.1476 12.1297C28.9046 13.3449 29.1721 14.7733 28.8908 16.161C28.6099 17.5472 27.8047 18.7805 26.6417 19.6569C25.4809 20.5317 24.032 21.0012 22.5482 21L22.5467 21L7.45271 21C5.50523 21 3.62021 20.3003 2.21647 19.0292C0.809557 17.7552 0 16.0071 0 14.1637C6.18736e-05 12.7024 0.509685 11.2882 1.44069 10.1222C2.1269 9.26283 3.01464 8.57182 4.02539 8.09162C3.94647 6.46601 4.42853 4.85266 5.41122 3.48579C6.62465 1.79798 8.49809 0.626214 10.6174 0.189253ZM7.73368 5.04871C8.51749 3.95848 9.75695 3.16519 11.207 2.86621C11.4978 2.80625 11.7914 2.7674 12.085 2.74916C13.2562 2.67644 14.4286 2.93196 15.4348 3.48549C16.6909 4.17653 17.5738 5.26724 17.9303 6.50559C18.0325 6.86069 18.2785 7.16088 18.6125 7.33819C18.9465 7.51551 19.3403 7.55496 19.7048 7.44762C20.1813 7.3073 20.6943 7.2901 21.1826 7.39896C21.6707 7.50777 22.1044 7.73571 22.4391 8.04605C22.773 8.35565 22.9944 8.73354 23.0918 9.13222C23.189 9.53015 23.162 9.94459 23.0113 10.3326C22.8778 10.6766 22.8928 11.058 23.053 11.3911C23.2131 11.7243 23.505 11.9811 23.863 12.1038C24.3475 12.27 24.7764 12.5227 25.1288 12.8378L25.7247 13.5427C26.1251 14.1855 26.2587 14.9238 26.1147 15.6343C25.9704 16.3462 25.5509 17.0095 24.9032 17.4976C24.2537 17.9871 23.4211 18.2638 22.5496 18.2629H7.45271C6.19733 18.2629 5.01067 17.8105 4.14965 17.0308C3.29182 16.254 2.82905 15.2206 2.82903 14.1638C2.82908 13.3235 3.1212 12.4947 3.67948 11.7955C4.23901 11.0948 5.04027 10.5577 5.97957 10.277C6.67683 10.0686 7.09578 9.38126 6.94681 8.69008C6.6772 7.43917 6.95253 6.13524 7.73368 5.04871Z" fill="#1C1E20"/>
<path d="M2.5955 23.9497C2.2658 23.9497 2.0027 24.1981 2 24.5C2.0027 24.8019 2.2658 25.0503 2.5955 25.0503H3.9708L3.2818 26.1674C3.118 26.4317 3.2148 26.771 3.4985 26.9246C3.7849 27.0792 4.1502 26.9866 4.3139 26.721L4.9998 25.6087L5.6856 26.7212C5.8493 26.9868 6.2144 27.0797 6.5008 26.9251C6.6916 26.8217 6.7976 26.6343 6.7976 26.4449C6.7976 26.35 6.7714 26.2547 6.7184 26.1686L6.0288 25.0503H7.4045C7.7342 25.0503 7.9973 24.8019 8 24.5C7.9973 24.1981 7.7342 23.9497 7.4045 23.9497H6.0288L6.7184 22.8314C6.7714 22.7453 6.7976 22.65 6.7976 22.5551C6.7976 22.3657 6.6916 22.1783 6.5008 22.0749C6.2144 21.9203 5.8493 22.0132 5.6856 22.2788L4.9998 23.3912L4.3139 22.279C4.1502 22.0134 3.7849 21.9208 3.4985 22.0754C3.2148 22.229 3.118 22.5683 3.2818 22.8326L3.9708 23.9497H2.5955Z" fill="#1C1E20"/>
<path fill-rule="evenodd" clip-rule="evenodd" d="M12.9944 28.2703C12.4891 29.4052 11.323 29.7344 10.2728 29.2668C9.22263 28.7992 8.68703 27.7124 9.19223 26.5775C9.69753 25.4427 12.6177 24 12.6177 24C12.6177 24 13.4996 27.1355 12.9944 28.2703Z" fill="#1C1E20"/>
<path d="M20.8963 26.9497C20.5666 26.9497 20.3035 27.1981 20.3008 27.5C20.3035 27.8019 20.5666 28.0503 20.8963 28.0503H22.2716L21.5826 29.1674C21.4188 29.4317 21.5156 29.771 21.7993 29.9246C22.0857 30.0792 22.451 29.9866 22.6147 29.721L23.3006 28.6087L23.9864 29.7212C24.1501 29.9868 24.5152 30.0797 24.8016 29.9251C24.9924 29.8217 25.0984 29.6343 25.0984 29.4449C25.0984 29.35 25.0722 29.2547 25.0192 29.1686L24.3296 28.0503H25.7053C26.035 28.0503 26.2981 27.8019 26.3008 27.5C26.2981 27.1981 26.035 26.9497 25.7053 26.9497H24.3296L25.0192 25.8314C25.0722 25.7453 25.0984 25.65 25.0984 25.5551C25.0984 25.3657 24.9924 25.1783 24.8016 25.0749C24.5152 24.9203 24.1501 25.0132 23.9864 25.2788L23.3006 26.3912L22.6147 25.279C22.451 25.0134 22.0857 24.9208 21.7993 25.0754C21.5156 25.229 21.4188 25.5683 21.5826 25.8326L22.2716 26.9497H20.8963Z" fill="#1C1E20"/>
<path fill-rule="evenodd" clip-rule="evenodd" d="M19.1448 26.2703C18.6395 27.4052 17.4734 27.7344 16.4232 27.2668C15.373 26.7992 14.8374 25.7124 15.3426 24.5775C15.8479 23.4427 18.7681 22 18.7681 22C18.7681 22 19.65 25.1355 19.1448 26.2703Z" fill="#1C1E20"/>
</svg>
