<svg width="42" height="30" viewBox="0 0 42 30" fill="none" xmlns="http://www.w3.org/2000/svg">
<path fill-rule="evenodd" clip-rule="evenodd" d="M11.8301 5.95188C14.1905 5.44714 16.672 5.82249 18.7559 7.01145C20.4143 7.95765 21.728 9.36774 22.5145 11.0493C23.115 11.0143 23.7203 11.0647 24.31 11.201C25.3904 11.4509 26.3874 11.9821 27.1832 12.7473C27.98 13.5136 28.5442 14.4852 28.797 15.5584C28.9353 16.1453 28.9763 16.7457 28.922 17.3382C29.9197 17.9292 30.7634 18.7521 31.3627 19.7498C32.2062 21.1539 32.5042 22.8046 32.1909 24.4082C31.8777 26.01 30.9806 27.4352 29.6847 28.4479C28.3913 29.4588 26.7769 30.0013 25.1237 30H8.30398C6.13405 30 4.03372 29.1914 2.46964 27.7226C0.902027 26.2504 0 24.2304 0 22.1002C6.89409e-05 20.4115 0.567902 18.7774 1.60525 17.43C2.36985 16.437 3.35897 15.6384 4.48518 15.0835C4.39725 13.2051 4.93436 11.3408 6.02931 9.76123C7.38134 7.81086 9.46876 6.45681 11.8301 5.95188ZM8.61704 11.5673C9.49038 10.3074 10.8714 9.39076 12.4871 9.04527C12.8112 8.97598 13.1382 8.93107 13.4653 8.91001C14.7703 8.82597 16.0767 9.12124 17.1978 9.76088C18.5973 10.5594 19.5811 11.8198 19.9783 13.2508C20.0922 13.6612 20.3662 14.008 20.7384 14.2129C21.1106 14.4178 21.5495 14.4634 21.9556 14.3393C22.4864 14.1772 23.0581 14.1573 23.6021 14.2831C24.146 14.4089 24.6293 14.6723 25.0022 15.0308C25.3743 15.3887 25.6208 15.8254 25.7294 16.286C25.8376 16.7459 25.8077 17.2248 25.6397 17.6732C25.4909 18.0705 25.5077 18.5114 25.6861 18.8963C25.8646 19.2813 26.1898 19.578 26.5887 19.7199C27.1286 19.9119 27.6064 20.2039 27.9991 20.568L28.6631 21.3826C29.1092 22.1254 29.258 22.9786 29.0976 23.7995C28.9368 24.6223 28.4694 25.3887 27.7477 25.9527C27.0239 26.5184 26.0963 26.8381 25.1253 26.8371H8.30398C6.9052 26.8371 5.583 26.3143 4.62364 25.4134C3.66782 24.5157 3.15219 23.3215 3.15217 22.1002C3.15222 21.1293 3.47771 20.1715 4.09975 19.3637C4.72319 18.5539 5.61598 17.9333 6.66256 17.6089C7.43947 17.3681 7.90628 16.5738 7.7403 15.7751C7.43988 14.3296 7.74667 12.8229 8.61704 11.5673Z" fill="#1C1E20"/>
<path d="M31.4367 0.993997C29.8129 0.0694438 27.8793 -0.222425 26.0401 0.170059C24.2001 0.562702 22.5736 1.61562 21.5201 3.13225C20.7483 4.24323 20.3322 5.5354 20.3105 6.85303C20.3062 7.12069 20.4277 7.3723 20.6252 7.55276L21.741 8.57258C22.0786 8.88108 22.6301 8.93146 22.7958 8.50499C22.8794 8.29003 22.9035 8.04962 22.8533 7.80872C22.6192 6.68467 22.8582 5.51299 23.5364 4.53665C24.217 3.557 25.2931 2.84417 26.552 2.57551C26.8045 2.52163 27.0594 2.48672 27.3142 2.47034C28.3312 2.40499 29.349 2.6346 30.2225 3.13198C31.3131 3.75294 32.0797 4.73302 32.3892 5.84578C32.478 6.16486 32.6915 6.4346 32.9815 6.59394C33.2715 6.75327 33.6134 6.78872 33.9299 6.69227C34.3435 6.56618 34.7889 6.55072 35.2129 6.64854C35.6367 6.74632 36.0131 6.95114 36.3037 7.22999C36.5936 7.5082 36.7858 7.84776 36.8704 8.20601C36.9548 8.56358 36.9314 8.93598 36.8005 9.28465C36.6846 9.59371 36.6977 9.93643 36.8367 10.2358C36.9757 10.5351 37.2292 10.7659 37.54 10.8763C37.9607 11.0255 38.3331 11.2526 38.639 11.5357C38.8426 11.7242 39.0168 11.9374 39.1563 12.1692C39.504 12.7467 39.62 13.4102 39.4949 14.0486C39.3697 14.6884 39.0055 15.2843 38.4431 15.7229C37.8792 16.1628 37.1563 16.4114 36.3997 16.4107H31.6559C30.8654 16.4107 30.3814 17.2792 30.7966 17.9528L31.0661 18.3901C31.25 18.6884 31.5751 18.8701 31.9254 18.8701H36.3985C37.6867 18.8712 38.9447 18.4493 39.9524 17.6633C40.9622 16.8757 41.6613 15.7675 41.9052 14.5219C42.1495 13.2749 41.9172 11.9914 41.2599 10.8995C40.793 10.1237 40.1355 9.48372 39.3582 9.02417C39.4005 8.56342 39.3685 8.09657 39.2607 7.64023C39.0637 6.80572 38.6241 6.05007 38.0033 5.45431C37.3831 4.85921 36.6063 4.44613 35.7644 4.25187C35.3049 4.14585 34.8333 4.10665 34.3654 4.13387C33.7526 2.82628 32.7289 1.72978 31.4367 0.993997Z" fill="#1C1E20"/>
</svg>
