<svg width="43" height="30" viewBox="0 0 43 30" fill="none" xmlns="http://www.w3.org/2000/svg">
<path d="M13.4901 0C14.1618 0 14.7063 0.544519 14.7063 1.21622V4.25939C14.7063 4.93109 14.1618 5.4756 13.4901 5.4756C12.8184 5.4756 12.2739 4.93109 12.2739 4.25939V1.21622C12.2739 0.544519 12.8184 0 13.4901 0Z" fill="#1C1E20"/>
<path d="M3.94754 3.92503C4.42054 3.44811 5.1906 3.44492 5.66752 3.91792L7.83726 6.06978C8.31419 6.54277 8.31737 7.31283 7.84438 7.78975C7.37139 8.26668 6.60133 8.26986 6.12441 7.79687L3.95466 5.64501C3.47774 5.17202 3.47455 4.40196 3.94754 3.92503Z" fill="#1C1E20"/>
<path d="M23.0326 3.92503C23.5056 4.40196 23.5024 5.17201 23.0255 5.64501L20.8557 7.79687C20.3788 8.26986 19.6087 8.26668 19.1358 7.78975C18.6628 7.31283 18.6659 6.54277 19.1429 6.06978L21.3126 3.91792C21.7895 3.44492 22.5596 3.44811 23.0326 3.92503Z" fill="#1C1E20"/>
<path d="M0 13.3889C0 12.7172 0.544519 12.1727 1.21622 12.1727H4.28468C4.95638 12.1727 5.5009 12.7172 5.5009 13.3889C5.5009 14.0606 4.95638 14.6051 4.28468 14.6051H1.21622C0.544519 14.6051 0 14.0606 0 13.3889Z" fill="#1C1E20"/>
<path d="M7.84438 18.9881C8.31737 19.465 8.31419 20.235 7.83726 20.708L5.66752 22.8599C5.1906 23.3329 4.42054 23.3297 3.94754 22.8528C3.47455 22.3759 3.47774 21.6058 3.95466 21.1328L6.12441 18.9809C6.60133 18.508 7.37139 18.5111 7.84438 18.9881Z" fill="#1C1E20"/>
<path d="M13.4901 21.3022C14.1618 21.3022 14.7063 21.8467 14.7063 22.5184V25.5616C14.7063 26.2333 14.1618 26.7778 13.4901 26.7778C12.8184 26.7778 12.2739 26.2333 12.2739 25.5616V22.5184C12.2739 21.8467 12.8184 21.3022 13.4901 21.3022Z" fill="#1C1E20"/>
<path fill-rule="evenodd" clip-rule="evenodd" d="M26.3295 11.5055C28.1509 11.1173 30.0658 11.406 31.6739 12.3204C32.9536 13.0481 33.9674 14.1325 34.5742 15.4257C35.0376 15.3988 35.5047 15.4376 35.9598 15.5425C36.7935 15.7346 37.5628 16.1431 38.1769 16.7317C38.7917 17.3209 39.2272 18.0682 39.4223 18.8936C39.5289 19.3449 39.5606 19.8066 39.5187 20.2623C40.2886 20.7168 40.9396 21.3498 41.4021 22.117C42.053 23.1969 42.283 24.4663 42.0412 25.6996C41.7996 26.9315 41.1073 28.0275 40.1073 28.8064C39.1092 29.5838 37.8635 30.001 36.5877 30L36.5865 30L23.6084 30C21.934 30 20.3132 29.3782 19.1063 28.2485C17.8966 27.1163 17.2005 25.5628 17.2005 23.9246C17.2006 22.6259 17.6387 21.3691 18.4392 20.3329C19.0292 19.5692 19.7925 18.9551 20.6616 18.5283C20.5937 17.0837 21.0082 15.6499 21.8531 14.4351C22.8965 12.9352 24.5073 11.8938 26.3295 11.5055ZM23.85 15.8241C24.5239 14.8552 25.5896 14.1502 26.8364 13.8845C27.0865 13.8312 27.3389 13.7967 27.5913 13.7805C28.5983 13.7159 29.6064 13.943 30.4715 14.4349C31.5515 15.049 32.3106 16.0183 32.6172 17.1188C32.7051 17.4344 32.9165 17.7012 33.2037 17.8588C33.4909 18.0164 33.8296 18.0514 34.1429 17.956C34.5526 17.8313 34.9937 17.816 35.4136 17.9128C35.8332 18.0095 36.2061 18.212 36.4939 18.4878C36.781 18.763 36.9713 19.0988 37.0551 19.4531C37.1387 19.8068 37.1154 20.1751 36.9859 20.5199C36.8711 20.8256 36.884 21.1646 37.0217 21.4606C37.1594 21.7567 37.4104 21.9849 37.7182 22.094C38.1348 22.2416 38.5035 22.4662 38.8065 22.7462L39.3189 23.3727C39.6632 23.9439 39.778 24.6001 39.6542 25.2315C39.5301 25.8642 39.1695 26.4536 38.6126 26.8874C38.0541 27.3224 37.3382 27.5683 36.5889 27.5676H35.2385H23.6084C22.529 27.5676 21.5087 27.1655 20.7684 26.4726C20.0309 25.7823 19.633 24.8638 19.6329 23.9246C19.633 23.1779 19.8842 22.4414 20.3642 21.82C20.8453 21.1972 21.5342 20.72 22.3418 20.4705C22.9413 20.2853 23.3015 19.6744 23.1735 19.0602C22.9416 17.9485 23.1784 16.7897 23.85 15.8241Z" fill="#1C1E20"/>
<path fill-rule="evenodd" clip-rule="evenodd" d="M13.4901 7.10074C11.8144 7.10074 10.2053 7.76081 9.01742 8.93895C7.82916 10.1174 7.15975 11.7179 7.15975 13.3889C7.15975 15.0599 7.82916 16.6604 9.01742 17.8389C10.2053 19.017 11.8144 19.6771 13.4901 19.6771C15.1657 19.6771 16.7748 19.017 17.9627 17.8389C19.151 16.6604 19.8204 15.0599 19.8204 13.3889C19.8204 11.7179 19.151 10.1174 17.9627 8.93895C16.7748 7.76081 15.1657 7.10074 13.4901 7.10074ZM13.4901 9.53317C12.453 9.53317 11.4605 9.94182 10.7303 10.666C10.0004 11.3899 9.59218 12.3696 9.59218 13.3889C9.59218 14.4082 10.0004 15.3879 10.7303 16.1118C11.4605 16.836 12.453 17.2446 13.4901 17.2446C14.5271 17.2446 15.5196 16.836 16.2499 16.1118C16.9798 15.3879 17.388 14.4082 17.388 13.3889C17.388 12.3696 16.9798 11.3899 16.2499 10.666C15.5196 9.94182 14.5271 9.53317 13.4901 9.53317Z" fill="#1C1E20"/>
</svg>
