<svg width="80" height="80" viewBox="0 0 80 80" fill="none" xmlns="http://www.w3.org/2000/svg">
<path d="M4 2H76C77.1046 2 78 2.89543 78 4V29.8081V33.2798V40.018V71.3195C77.9192 71.3661 77.8198 71.4198 77.6989 71.4798C76.9584 71.8475 75.8027 72.2652 74.2788 72.7095C71.2585 73.5901 67.145 74.4754 62.8696 75.2673C58.6071 76.0567 54.2371 76.7437 50.7284 77.2328C47.1428 77.7326 44.6322 78 43.9698 78H36.0302C35.3678 78 32.8572 77.7326 29.2716 77.2328C25.7629 76.7437 21.3929 76.0567 17.1304 75.2673C12.855 74.4754 8.7415 73.5901 5.72117 72.7095C4.19727 72.2652 3.04162 71.8475 2.30109 71.4798C2.18022 71.4198 2.0808 71.3661 2 71.3195V45.278V37.3553V33.4822V4C2 2.89543 2.89543 2 4 2ZM78.2903 71.1256C78.29 71.1259 78.2897 71.1262 78.2893 71.1265C78.3057 71.1092 78.3089 71.1088 78.2903 71.1256ZM1.70966 71.1256C1.69111 71.1088 1.69431 71.1092 1.71069 71.1265C1.71034 71.1262 1.71 71.1259 1.70966 71.1256Z" fill="url(#paint0_linear_1700_5590)" stroke="#E5FFEE" stroke-width="4"/>
<path d="M49.6633 71.5959C48.2477 68.0392 46.7202 64.1287 45.1881 60.0986L44.2241 62.1522L45.7549 65.6184C45.7593 65.7827 45.7593 65.9463 45.7544 66.1066C45.7394 66.5964 45.6783 67.1099 45.5323 67.5497C45.3947 67.964 45.1238 68.4817 44.5736 68.6965C43.8939 68.9617 43.222 68.6022 42.8004 68.2991C42.6317 68.1778 42.4651 68.0382 42.3036 67.8873L42.0994 67.5047L41.1029 69.5406C41.498 70.6254 41.8838 71.6915 42.2585 72.7335L42.4322 73.2164H43.4028C44.1675 73.2164 46.2963 72.983 49.0891 72.6L50.0125 72.4733L49.6633 71.5959Z" fill="#11E457"/>
<path fill-rule="evenodd" clip-rule="evenodd" d="M54.9262 19.7708L54.8711 19.7478L54.8705 19.7492C52.5125 18.85 49.8674 20.0229 48.9191 22.4092C48.312 23.937 47.2689 26.9114 45.9236 30.7474L45.9132 30.7771C43.4909 37.6846 40.0699 47.4393 36.3642 56.8539C34.317 62.0546 32.2265 67.1713 30.3284 71.7128L29.9558 72.6043L30.9015 72.7291C33.2076 73.0333 34.949 73.2164 35.6285 73.2164H37.6189L37.7976 72.7458C39.3706 68.6032 41.1223 64.0903 42.9418 59.5547C46.7084 50.1651 50.9123 40.732 53.8892 34.0523L53.9021 34.0234C55.5553 30.314 56.8371 27.4378 57.4442 25.91C58.3923 23.5241 57.2912 20.813 54.9811 19.7946L54.9816 19.7932L54.9262 19.7708ZM9.60156 27.6555C9.60156 26.2464 10.7253 25.1027 12.1131 25.1027C13.5009 25.1027 14.6246 26.2464 14.6246 27.6555V36.8648C14.6246 37.5592 14.3513 38.189 13.9095 38.6487V69.8838L13.039 69.7008C12.3062 69.5468 11.5858 69.3902 10.8834 69.2316L10.3167 69.1036V38.6487C9.87491 38.189 9.60156 37.5592 9.60156 36.8648V27.6555ZM65.3785 27.6555C65.3785 26.2464 66.5022 25.1027 67.89 25.1027C69.2778 25.1027 70.4016 26.2464 70.4016 27.6555V36.8648C70.4016 37.5592 70.1282 38.189 69.6865 38.6487V68.8753L69.1254 69.0068C68.4259 69.1707 67.7049 69.3328 66.9685 69.4924L66.0936 69.6821V38.6487C65.6519 38.189 65.3785 37.5592 65.3785 36.8648V27.6555ZM36.6202 62.1747C36.3615 62.0684 36.0895 62.0501 35.836 62.1057L34.1723 66.2105C34.172 66.2612 34.1722 66.3118 34.1729 66.362C34.1794 66.852 34.2318 67.3665 34.3702 67.8088C34.5006 68.2255 34.7626 68.748 35.3091 68.9725C35.8558 69.197 36.4016 69.0061 36.7804 68.7983C37.1823 68.5778 37.5716 68.2446 37.9111 67.8967C38.0222 67.7828 38.1321 67.6632 38.2391 67.5399L39.6995 63.7921C39.5575 63.514 39.3208 63.284 39.0123 63.1573L36.6202 62.1747ZM39.8769 51.7757C39.9295 51.7186 39.9826 51.6625 40.036 51.6078C40.3755 51.2599 40.7648 50.9267 41.1667 50.7062C41.5455 50.4984 42.0914 50.3075 42.6381 50.5321C43.1845 50.7565 43.4465 51.279 43.5769 51.6957C43.7154 52.138 43.7677 52.6525 43.7742 53.1425C43.7767 53.3301 43.7725 53.5221 43.7623 53.7143L42.2651 57.3552C41.9703 57.4583 41.6389 57.458 41.3269 57.3298L38.9348 56.3472C38.6737 56.24 38.4641 56.0587 38.3197 55.837L39.8769 51.7757Z" fill="#11E457"/>
<path d="M31.8762 21.8553C30.969 19.4526 28.3444 18.233 25.9713 19.0902L25.9708 19.0888L25.9153 19.1108L25.8595 19.1322L25.86 19.1336C23.5327 20.1109 22.3852 22.802 23.2923 25.2044C23.873 26.7427 25.1052 29.641 26.6943 33.3788L26.7069 33.4086C29.0367 38.8888 32.1486 46.2087 35.1708 53.8441L35.842 51.6066L38.3073 45.4027L39.0383 43.0758C37.4076 38.3296 35.9428 33.9104 34.7379 30.2753L34.7277 30.2446C33.4487 26.3857 32.4569 23.3936 31.8762 21.8553Z" fill="#11E457"/>
<defs>
<linearGradient id="paint0_linear_1700_5590" x1="40" y1="0" x2="40" y2="80" gradientUnits="userSpaceOnUse">
<stop stop-color="#E5FFEE" stop-opacity="0"/>
<stop offset="0.5625" stop-color="#E5FFEE"/>
</linearGradient>
</defs>
</svg>
