<svg width="80" height="80" viewBox="0 0 80 80" fill="none" xmlns="http://www.w3.org/2000/svg">
<path d="M4 2H76C77.1046 2 78 2.89543 78 4V29.8081V33.2798V40.018V71.3195C77.9192 71.3661 77.8198 71.4198 77.6989 71.4798C76.9584 71.8475 75.8027 72.2652 74.2788 72.7095C71.2585 73.5901 67.145 74.4754 62.8696 75.2673C58.6071 76.0567 54.2371 76.7437 50.7284 77.2328C47.1428 77.7326 44.6322 78 43.9698 78H36.0302C35.3678 78 32.8572 77.7326 29.2716 77.2328C25.7629 76.7437 21.3929 76.0567 17.1304 75.2673C12.855 74.4754 8.7415 73.5901 5.72117 72.7095C4.19727 72.2652 3.04162 71.8475 2.30109 71.4798C2.18022 71.4198 2.0808 71.3661 2 71.3195V45.278V37.3553V33.4822V4C2 2.89543 2.89543 2 4 2ZM78.2903 71.1256C78.29 71.1259 78.2897 71.1262 78.2893 71.1265C78.3057 71.1092 78.3089 71.1088 78.2903 71.1256ZM1.70966 71.1256C1.69111 71.1088 1.69431 71.1092 1.71069 71.1265C1.71034 71.1262 1.71 71.1259 1.70966 71.1256Z" fill="url(#paint0_linear_1700_5593)" stroke="#FFE8E5" stroke-width="4"/>
<path d="M49.6633 71.5996C48.2477 68.0429 46.7202 64.1324 45.1881 60.1023L44.2241 62.1559L45.7549 65.6221C45.7593 65.7863 45.7593 65.95 45.7544 66.1103C45.7394 66.6 45.6783 67.1135 45.5323 67.5533C45.3947 67.9676 45.1238 68.4854 44.5736 68.7001C43.8939 68.9654 43.222 68.6059 42.8004 68.3027C42.6317 68.1814 42.4651 68.0419 42.3036 67.891L42.0994 67.5084L41.1029 69.5442C41.498 70.629 41.8838 71.6952 42.2585 72.7371L42.4322 73.2201H43.4028C44.1675 73.2201 46.2963 72.9866 49.0891 72.6036L50.0125 72.477L49.6633 71.5996Z" fill="#E41F11"/>
<path fill-rule="evenodd" clip-rule="evenodd" d="M54.9262 19.7745L54.8711 19.7514L54.8705 19.7528C52.5125 18.8537 49.8674 20.0265 48.9191 22.4128C48.312 23.9407 47.2689 26.9151 45.9236 30.7511L45.9132 30.7808C43.4909 37.6882 40.0699 47.443 36.3642 56.8575C34.317 62.0583 32.2265 67.1749 30.3284 71.7165L29.9558 72.608L30.9015 72.7327C33.2076 73.037 34.949 73.2201 35.6285 73.2201H37.6189L37.7976 72.7495C39.3706 68.6069 41.1223 64.094 42.9418 59.5583C46.7084 50.1688 50.9123 40.7357 53.8892 34.056L53.9021 34.0271C55.5553 30.3177 56.8371 27.4415 57.4442 25.9136C58.3923 23.5277 57.2912 20.8167 54.9811 19.7982L54.9816 19.7968L54.9262 19.7745ZM9.60156 27.6592C9.60156 26.2501 10.7253 25.1064 12.1131 25.1064C13.5009 25.1064 14.6246 26.2501 14.6246 27.6592V36.8684C14.6246 37.5629 14.3513 38.1927 13.9095 38.6524V69.8875L13.039 69.7045C12.3062 69.5504 11.5858 69.3938 10.8834 69.2352L10.3167 69.1073V38.6524C9.87491 38.1927 9.60156 37.5629 9.60156 36.8684V27.6592ZM65.3785 27.6592C65.3785 26.2501 66.5022 25.1064 67.89 25.1064C69.2778 25.1064 70.4016 26.2501 70.4016 27.6592V36.8684C70.4016 37.5629 70.1282 38.1927 69.6865 38.6524V68.879L69.1254 69.0105C68.4259 69.1744 67.7049 69.3365 66.9685 69.4961L66.0936 69.6858V38.6524C65.6519 38.1927 65.3785 37.5629 65.3785 36.8684V27.6592ZM36.6202 62.1784C36.3615 62.0721 36.0895 62.0537 35.836 62.1093L34.1723 66.2141C34.172 66.2649 34.1722 66.3155 34.1729 66.3657C34.1794 66.8557 34.2318 67.3702 34.3702 67.8125C34.5006 68.2292 34.7626 68.7516 35.3091 68.9761C35.8558 69.2007 36.4016 69.0098 36.7804 68.802C37.1823 68.5815 37.5716 68.2482 37.9111 67.9004C38.0222 67.7865 38.1321 67.6668 38.2391 67.5436L39.6995 63.7958C39.5575 63.5177 39.3208 63.2877 39.0123 63.161L36.6202 62.1784ZM39.8769 51.7794C39.9295 51.7223 39.9826 51.6662 40.036 51.6115C40.3755 51.2636 40.7648 50.9303 41.1667 50.7098C41.5455 50.5021 42.0914 50.3111 42.6381 50.5357C43.1845 50.7602 43.4465 51.2827 43.5769 51.6994C43.7154 52.1417 43.7677 52.6562 43.7742 53.1461C43.7767 53.3337 43.7725 53.5258 43.7623 53.718L42.2651 57.3589C41.9703 57.462 41.6389 57.4617 41.3269 57.3335L38.9348 56.3509C38.6737 56.2436 38.4641 56.0624 38.3197 55.8406L39.8769 51.7794Z" fill="#E41F11"/>
<path d="M31.8762 21.859C30.969 19.4563 28.3444 18.2367 25.9713 19.0938L25.9708 19.0924L25.9153 19.1145L25.8595 19.1359L25.86 19.1373C23.5327 20.1146 22.3852 22.8057 23.2923 25.208C23.873 26.7463 25.1052 29.6446 26.6943 33.3825L26.7069 33.4122C29.0367 38.8924 32.1486 46.2123 35.1708 53.8477L35.842 51.6103L38.3073 45.4063L39.0383 43.0794C37.4076 38.3333 35.9428 33.9141 34.7379 30.279L34.7277 30.2482C33.4487 26.3894 32.4569 23.3973 31.8762 21.859Z" fill="#E41F11"/>
<defs>
<linearGradient id="paint0_linear_1700_5593" x1="40" y1="0" x2="40" y2="80" gradientUnits="userSpaceOnUse">
<stop stop-color="#FFE8E5" stop-opacity="0"/>
<stop offset="0.604167" stop-color="#FFE8E5"/>
</linearGradient>
</defs>
</svg>
