<svg width="54" height="54" viewBox="0 0 54 54" fill="none" xmlns="http://www.w3.org/2000/svg">
<path d="M21.9216 15.6596C21.3547 14.1579 19.7143 13.3956 18.2311 13.9314C18.2267 13.9331 18.2223 13.9347 18.2179 13.9362L18.1961 13.9443L18.1745 13.9532C18.1702 13.955 18.1659 13.9568 18.1615 13.9585C16.707 14.5693 15.9898 16.2513 16.5567 17.7527C16.9197 18.7142 17.6898 20.5256 18.683 22.8618L18.6909 22.8804C20.147 26.3055 22.0919 30.8804 23.9808 35.6525L24.3997 36.7109L26.908 30.3986L26.8512 30.2349C26.698 29.7936 26.5469 29.3558 26.398 28.9224C25.3788 25.956 24.4633 23.194 23.7102 20.9221L23.7039 20.9029C22.9045 18.4911 22.2846 16.621 21.9216 15.6596Z" fill="#1197E4"/>
<path fill-rule="evenodd" clip-rule="evenodd" d="M36.3279 14.3568L36.2935 14.3424C34.8197 13.7804 33.1661 14.5143 32.5735 16.0057C32.194 16.9606 31.5421 18.8196 30.7013 21.2171L30.6948 21.2357C29.1808 25.5528 27.0427 31.6496 24.7266 37.5337C23.4472 40.7842 22.1406 43.9821 20.9543 46.8205L20.7214 47.3777L21.3124 47.4557C22.7538 47.6458 23.8422 47.7603 24.2668 47.7603H25.5108L25.6225 47.4661C26.6057 44.877 27.7005 42.0565 28.8376 39.2217C31.1918 33.3532 33.8192 27.4575 35.6798 23.2827L35.6878 23.2646C36.7211 20.9463 37.5222 19.1486 37.9017 18.1937C38.4942 16.7025 37.806 15.0081 36.3622 14.3716C36.3579 14.3698 36.3536 14.3679 36.3493 14.366L36.3279 14.3568ZM26.9221 34.3598C26.955 34.3241 26.9882 34.2891 27.0215 34.2549C27.2337 34.0375 27.477 33.8292 27.7282 33.6914C27.965 33.5615 28.3061 33.4422 28.6478 33.5825C28.9894 33.7228 29.1531 34.0494 29.2346 34.3098C29.3211 34.5863 29.3538 34.9078 29.3579 35.214C29.3595 35.3313 29.3568 35.4513 29.3505 35.5714L28.4147 37.847C28.2305 37.9114 28.0233 37.9112 27.8283 37.8311L26.3333 37.217C26.1701 37.15 26.0391 37.0367 25.9488 36.8981L26.9221 34.3598ZM24.3965 40.816C24.5549 40.7813 24.725 40.7928 24.8867 40.8592L26.3817 41.4733C26.5745 41.5525 26.7224 41.6963 26.8112 41.8701L25.8985 44.2125C25.8316 44.2895 25.7629 44.3643 25.6935 44.4355C25.4813 44.6529 25.238 44.8612 24.9868 44.999C24.75 45.1288 24.4089 45.2482 24.0672 45.1078C23.7256 44.9675 23.5619 44.6409 23.4804 44.3805C23.3939 44.1041 23.3612 43.7825 23.3571 43.4763C23.3567 43.4449 23.3566 43.4133 23.3567 43.3815L24.3965 40.816Z" fill="#1197E4"/>
<path d="M33.0386 46.7475C32.1539 44.5245 31.1991 42.0804 30.2416 39.5616L29.6391 40.8451L30.5959 43.0115C30.5986 43.1142 30.5986 43.2165 30.5955 43.3166C30.5862 43.6227 30.5479 43.9437 30.4567 44.2185C30.3707 44.4775 30.2014 44.8011 29.8575 44.9353C29.4327 45.1011 29.0128 44.8764 28.7493 44.6869C28.6438 44.6111 28.5397 44.5239 28.4388 44.4296L28.3112 44.1904L27.6883 45.4628C27.9353 46.1409 28.1764 46.8072 28.4106 47.4584L28.5191 47.7603H29.1258C29.6037 47.7603 30.9342 47.6144 32.6797 47.375L33.2568 47.2958L33.0386 46.7475Z" fill="#1197E4"/>
<path d="M44.4303 17.6892C43.5629 17.6892 42.8606 18.404 42.8606 19.2847V25.0405C42.8606 25.4745 43.0314 25.8682 43.3075 26.1554V45.5513L43.8543 45.4328C44.3146 45.333 44.7652 45.2317 45.2024 45.1293L45.5531 45.0471V26.1554C45.8292 25.8682 46 25.4745 46 25.0405V19.2847C46 18.404 45.2977 17.6892 44.4303 17.6892Z" fill="#1197E4"/>
<path d="M9.56971 17.6892C8.70233 17.6892 8 18.404 8 19.2847V25.0405C8 25.4745 8.17084 25.8682 8.44693 26.1554V45.1898L8.80114 45.2697C9.24015 45.3689 9.69043 45.4667 10.1484 45.563L10.6925 45.6774V26.1554C10.9686 25.8682 11.1394 25.4745 11.1394 25.0405V19.2847C11.1394 18.404 10.4371 17.6892 9.56971 17.6892Z" fill="#1197E4"/>
<path d="M2.38164 30.3015C2.25224 30.3014 2.12509 30.3005 2 30.2987M2 30.2987V46.9812C2 49.0626 22.4374 52 24.5188 52H29.4812C31.5626 52 52 49.0626 52 46.9812V27.0113V22.7999V20.6301V6C52 3.79086 50.2091 2 48 2H6C3.79086 2 2 3.79086 2 6V22.9264V25.3471M2 30.2987V25.3471M2 25.3471C2.01648 25.3284 2.03275 25.3098 2.04881 25.2913C2.05474 25.2844 2.06063 25.2776 2.0665 25.2708M2.0665 25.2708L2.08138 25.2535C2.07644 25.2592 2.07148 25.265 2.0665 25.2708Z" stroke="#1197E4" stroke-width="3"/>
</svg>
