<svg width="117" height="135" viewBox="0 0 117 135" fill="none" xmlns="http://www.w3.org/2000/svg">
<g opacity="0.5">
<path d="M56.5852 29.3397C58.1772 27.5786 59.1514 25.2454 59.1606 22.6826C59.1636 21.8328 59.0602 21.0065 58.8626 20.2168C58.7651 19.827 58.6446 19.4461 58.5027 19.0757C58.4139 18.8439 58.3167 18.6162 58.2114 18.393C57.1384 16.1175 55.2317 14.3132 52.8829 13.3745L52.8058 13.3354C47.3272 10.5578 41.2541 8.78168 34.8276 8.24847C33.6508 7.21033 32.1052 6.57696 30.4124 6.57091C29.2121 6.56662 28.0825 6.87839 27.1043 7.42804L23.168 5.44527L22.2399 4.60359C41.0348 6.1763 61.7047 8.32663 61.5883 24.1938C61.5755 25.9386 61.4718 27.6558 60.5816 29.1246L56.5852 29.3397Z" fill="#E5F6FF"/>
<path d="M52.6316 48.0359L52.8677 47.1053C53.1935 45.8212 52.9627 44.4593 52.2321 43.3544L49.8604 39.7677C49.6889 39.5084 49.4921 39.2667 49.273 39.0463L42.2622 31.9939L58.5652 31.1166C56.3575 32.5047 52.5378 33.3826 45.9286 33.3763C56.4912 39.4839 56.775 44.7162 54.9702 47.5305L52.6316 48.0359Z" fill="#E5F6FF"/>
<path d="M0.400945 32.0296C-0.920009 27.5517 1.20101 24.0324 4.16257 24.2789C10.5985 23.5157 14.1094 22.6031 17.2208 20.458C17.6375 20.5232 18.0645 20.5324 18.4908 20.4827C18.2223 20.7784 17.8923 21.0155 17.5212 21.1757L9.46613 24.6541C9.17695 24.7789 8.86884 24.8544 8.5547 24.8775L6.37283 25.0376C6.27465 25.0448 6.17666 25.0212 6.09243 24.9703C5.22991 24.4483 4.13096 24.5336 3.35911 25.1822L2.40712 25.9823C1.18392 27.0102 0.670563 28.6563 1.09262 30.1977L1.58497 31.9956C1.7856 32.7283 2.25965 33.356 2.90942 33.7491C3.44392 34.0726 4.06692 34.2188 4.68944 34.1669L4.91178 34.1483L9.7973 33.7409L25.836 32.8778C26.1988 34.524 27.0012 36.0063 28.1132 37.193C28.1356 37.217 28.1592 37.2397 28.184 37.2612L37.3121 45.16L36.9611 45.4231C36.8511 45.5056 36.7265 45.5838 36.5661 45.6815C34.7851 46.7666 33.5894 48.7269 33.5814 50.9701C33.5797 51.4202 33.6262 51.86 33.716 52.2843L32.6503 52.5192C31.0548 49.0447 34.48 45.6572 36.114 44.9899C32.8409 43.8731 26.2727 39.5499 24.8853 34.0669C20.0218 33.5319 15.4341 34.0727 11.5601 34.5293C5.71073 35.2187 1.48855 35.7164 0.400945 32.0296Z" fill="#E5F6FF"/>
<path fill-rule="evenodd" clip-rule="evenodd" d="M33.2799 53.553L53.7753 48.859C54.2115 48.5099 54.6283 48.0636 54.9702 47.5305L74.5562 43.2968C75.9331 42.9992 77.6621 43.834 77.6558 45.6027C77.6416 49.558 74.6577 52.807 70.8236 53.2458L10.5765 67.0074C10.5634 67.0104 10.5502 67.0131 10.537 67.0156C10.0732 67.1007 9.5955 67.1443 9.10831 67.1426C6.48409 67.1332 4.17086 65.8138 2.78501 63.81C2.00019 62.6752 2.10789 61.4111 2.70732 60.4253C3.28598 59.4736 4.31808 58.7643 5.48191 58.5077L32.6503 52.5192C32.8085 52.8638 33.0162 53.2093 33.2799 53.553ZM74.9532 45.1352L51.5541 50.193L51.5459 50.1948L46.9621 51.229L35.1171 53.9013L35.1125 53.9023L5.88644 60.3445C5.27179 60.4799 4.75633 60.8197 4.44201 61.2183C4.39444 61.2786 4.35154 61.3402 4.31354 61.4027C4.04517 61.8441 4.02546 62.2981 4.33101 62.7399C5.38208 64.2597 7.13147 65.2547 9.11506 65.2618C9.47887 65.2631 9.8342 65.2312 10.1785 65.1692L70.4575 51.4003C70.4935 51.3921 70.53 51.386 70.5667 51.382C73.4859 51.0698 75.765 48.6015 75.7757 45.5959C75.7763 45.4435 75.7116 45.3269 75.5774 45.2368C75.4288 45.1371 75.2 45.0818 74.9532 45.1352Z" fill="#34A9ED"/>
<path d="M53.7753 48.859L33.2799 53.553C33.0162 53.2093 32.8085 52.8638 32.6503 52.5192L33.716 52.2843C33.6262 51.86 33.5797 51.4202 33.5814 50.9701C33.5894 48.7269 34.7851 46.7666 36.5661 45.6815C36.7265 45.5838 36.8511 45.5056 36.9611 45.4231L37.3121 45.16L28.184 37.2612C28.1592 37.2397 28.1356 37.217 28.1132 37.193C27.0012 36.0063 26.1988 34.524 25.836 32.8778L27.7455 32.7751C28.0569 33.9482 28.6514 35.006 29.4523 35.8719L35.8261 41.3874L37.2705 42.6372L38.8925 44.0409L39.8736 45.6459L39.3466 45.9852L38.0885 46.9283C37.8984 47.0707 37.7038 47.1905 37.5439 47.2879C36.2978 48.0471 35.467 49.4144 35.4614 50.9768C35.4603 51.2853 35.4913 51.5858 35.5512 51.8754L50.578 48.4852L51.0455 46.6426C51.2409 45.8721 51.1025 45.055 50.6641 44.3921L48.2924 40.8053C48.202 40.6687 48.0999 40.5402 47.9873 40.4213L46.6323 39.0571L44.4248 36.8366L43.0923 35.4961L39.7454 32.1293L42.2622 31.9939L49.273 39.0463C49.4921 39.2667 49.6889 39.5084 49.8604 39.7677L52.2321 43.3544C52.9627 44.4593 53.1935 45.8212 52.8677 47.1053L52.6316 48.0359L54.9702 47.5305C54.6283 48.0636 54.2115 48.5099 53.7753 48.859Z" fill="#34A9ED"/>
<path d="M13.2931 17.4542L18.8206 19.2218C18.2906 19.6749 17.7617 20.0851 17.2208 20.458L17.2064 20.4558C16.3737 20.323 15.5832 19.967 14.9243 19.4137L14.7101 19.2339L14.4927 19.0587C14.0076 18.6676 13.3546 18.4467 12.567 18.2951C12.493 18.2808 12.4194 18.2656 12.3461 18.2493C8.76804 17.4544 6.09791 14.2558 6.11155 10.4381C6.12369 7.0428 8.25531 4.15307 11.2452 3.01396L18.0089 0.180034L18.0146 0.177567C18.2837 0.0620022 18.5796 -0.00108846 18.8879 1.42133e-05C20.1003 0.0043507 21.0796 0.991098 21.0753 2.20396L21.0705 3.54311L22.2399 4.60359C21.712 4.55941 21.1856 4.51567 20.6611 4.47212L20.657 4.47182L20.65 4.47121L20.6468 4.47095C20.0761 4.42356 19.5078 4.37636 18.9424 4.32897L18.4332 5.04399L19.1899 3.70894L19.1952 2.19725C19.1958 2.02311 19.0552 1.88141 18.8812 1.88079C18.8346 1.88062 18.7927 1.89006 18.7554 1.90623L11.957 4.75487C11.9469 4.7591 11.9366 4.76312 11.9264 4.76699C9.63279 5.63519 8.00087 7.84857 7.99159 10.4448C7.98378 12.628 9.12557 14.5481 10.8477 15.6298C11.2361 15.8738 11.654 16.0751 12.095 16.2272L12.7556 15.0615L13.2931 17.4542Z" fill="#34A9ED"/>
<path d="M25.8013 8.87741L23.0475 7.49031L21.4696 6.44355L20.3676 5.44418L18.8158 8.18217C18.5886 8.23358 18.3536 8.30316 18.1067 8.39988C16.5689 9.00233 15.7192 10.0249 14.9722 11.1507L18.4332 5.04399L18.9424 4.32897C19.5078 4.37636 20.0761 4.42356 20.6468 4.47095L20.65 4.47121L20.657 4.47182L20.6611 4.47212C21.1856 4.51567 21.712 4.55941 22.2399 4.60359L23.168 5.44527L27.1043 7.42804C28.0825 6.87839 29.2121 6.56662 30.4124 6.57091C32.1052 6.57696 33.6508 7.21033 34.8276 8.24847C41.2541 8.78168 47.3272 10.5578 52.8058 13.3354L52.8829 13.3745C55.2317 14.3132 57.1384 16.1175 58.2114 18.393L56.2142 18.6257C55.3044 17.0376 53.8719 15.7861 52.1516 15.1077C52.1243 15.0969 52.0975 15.0849 52.0714 15.0716L51.9559 15.0131C47.1836 12.5935 41.9421 10.9644 36.4022 10.2985L33.77 9.83191C32.9014 8.98111 31.7162 8.45637 30.4057 8.45168C29.4608 8.4483 28.5804 8.71549 27.8352 9.18033L25.8013 8.87741Z" fill="#34A9ED"/>
<path d="M59.1606 22.6826C59.1514 25.2454 58.1772 27.5786 56.5852 29.3397L53.4931 29.5061C54.8117 28.675 55.8734 27.4749 56.5334 26.0505C57.0091 25.024 57.2762 23.881 57.2805 22.6759C57.2833 21.8969 57.1763 21.1444 56.9745 20.4323L58.8626 20.2168C59.0602 21.0065 59.1636 21.8328 59.1606 22.6826Z" fill="#34A9ED"/>
<path fill-rule="evenodd" clip-rule="evenodd" d="M18.8206 19.2218L13.2931 17.4542L12.7556 15.0615L14.9722 11.1507C15.7192 10.0249 16.5689 9.00233 18.1067 8.39988C18.3536 8.30316 18.5886 8.23358 18.8158 8.18217L17.8261 9.92845L19.5726 10.2054L20.6976 7.97437L21.4696 6.44355L23.0475 7.49031L21.0647 11.4222L21.1041 11.8302C21.2434 13.276 20.7069 14.7051 19.6506 15.7018L16.8011 18.3906C17.2776 18.6023 17.8084 18.6799 18.3349 18.6066L19.7643 18.4076L25.8013 8.87741L27.8352 9.18033L21.1329 19.7608L20.504 20.8837C19.9998 21.7841 19.2134 22.4935 18.2662 22.9025L10.2112 26.3808C10.0103 26.4676 9.80406 26.54 9.59382 26.5978L7.7246 26.8242L6.5103 26.9133C6.02329 26.949 5.53724 26.8324 5.11941 26.5796C4.94554 26.4744 4.724 26.4915 4.56841 26.6223L3.61632 27.4224C2.95519 27.978 2.67775 28.8677 2.90587 29.7008L3.39822 31.4987C3.47157 31.7666 3.64486 31.9961 3.88244 32.1399C3.91528 32.1597 3.94905 32.1778 3.98357 32.194C4.15444 32.274 4.34392 32.3084 4.53328 32.2926C4.27516 32.3226 3.75842 32.5374 3.75621 33.1558C3.75345 33.9289 4.46711 34.1854 4.68944 34.1669C4.06692 34.2188 3.44392 34.0726 2.90942 33.7491C2.25965 33.356 1.7856 32.7283 1.58497 31.9956L1.09262 30.1977C0.670563 28.6563 1.18392 27.0102 2.40712 25.9823L3.35911 25.1822C4.13096 24.5336 5.22991 24.4483 6.09243 24.9703C6.17666 25.0212 6.27465 25.0448 6.37283 25.0376L8.5547 24.8775C8.86884 24.8544 9.17695 24.7789 9.46613 24.6541L17.5212 21.1757C17.8923 21.0155 18.2223 20.7784 18.4908 20.4827C18.0645 20.5324 17.6375 20.5232 17.2208 20.458C17.7617 20.0851 18.2906 19.6749 18.8206 19.2218ZM13.9809 16.713L16.8358 11.6757L19.2367 12.0564C19.3049 12.9082 18.9832 13.7461 18.3606 14.3336L15.2347 17.2832C14.8324 17.0317 14.4054 16.8497 13.9809 16.713Z" fill="#34A9ED"/>
<path d="M35.8261 41.3874L43.0923 35.4961L44.4248 36.8366L37.2705 42.6372L35.8261 41.3874Z" fill="#34A9ED"/>
<path d="M38.8925 44.0409L46.6323 39.0571L47.9873 40.4213L39.8736 45.6459L38.8925 44.0409Z" fill="#34A9ED"/>
<path d="M10.5142 31.8188L12.9802 31.6861L17.4302 31.4467L25.6207 31.0059L27.4999 30.9048L53.4931 29.5061L56.5852 29.3397L60.5816 29.1246C60.1359 29.8602 59.4928 30.5334 58.5652 31.1166L42.2622 31.9939L39.7454 32.1293L27.7455 32.7751L25.836 32.8778L9.7973 33.7409L4.91178 34.1483C4.91558 33.0836 7.39119 32.2399 8.6285 31.9511L10.5142 31.8188Z" fill="#34A9ED"/>
<path d="M67.2935 32.8779L67.0152 30.6619L58.5652 31.1166C59.4928 30.5334 60.1359 29.8602 60.5816 29.1246L66.7778 28.7912L66.5613 27.1014C66.4953 26.5862 66.8592 26.1151 67.3742 26.0491C67.8891 25.9831 68.3601 26.3471 68.4261 26.8622L68.6603 28.6899L70.9488 28.5668C71.4672 28.5389 71.91 28.9367 71.9379 29.4553C71.9658 29.9739 71.5681 30.4169 71.0497 30.4448L68.8974 30.5607L69.1589 32.6435C69.2236 33.1588 68.8584 33.6291 68.3433 33.6938C67.8282 33.7585 67.3582 33.3932 67.2935 32.8779Z" fill="#34A9ED"/>
<path d="M27.4999 30.857C27.4999 30.873 27.4999 30.8889 27.4999 30.9048L25.6207 31.0059C25.62 30.9542 25.6197 30.9023 25.6199 30.8503C25.6255 29.2806 26.0229 27.8039 26.7184 26.5125C27.5293 26.4414 28.308 26.3898 29.0606 26.3544C28.0876 27.596 27.506 29.1582 27.4999 30.857Z" fill="#34A9ED"/>
<path d="M35.2134 12.9921C35.1394 11.7577 34.6022 10.6471 33.77 9.83191L36.4022 10.2985C36.7929 11.0838 37.0347 11.9566 37.0901 12.8794C37.1115 13.2358 37.0683 13.57 37.009 13.8608L36.7023 15.367C36.5948 15.8951 36.3973 16.4008 36.1185 16.8619L35.1799 18.4142C34.981 18.7432 34.7426 19.0464 34.4699 19.3173L32.4575 21.316L30.1551 23.323L26.9379 26.1274L26.4547 26.5362C25.1312 26.6584 23.7816 26.8345 22.4123 27.0584L23.2078 26.6888C23.436 26.5828 23.6489 26.4468 23.841 26.2842L30.2251 20.883L33.1452 17.9826C33.3089 17.8201 33.4519 17.6381 33.5712 17.4408L34.5098 15.8885C34.6771 15.6118 34.7956 15.3084 34.8601 14.9915L35.1668 13.4854C35.2064 13.2908 35.2217 13.1303 35.2134 12.9921Z" fill="#34A9ED"/>
<path d="M56.9745 20.4323L32.9698 23.1508L32.4575 21.316L56.2142 18.6257L56.9745 20.4323Z" fill="#34A9ED"/>
<path d="M32.4575 21.316L32.9698 23.1508L30.1551 23.323L32.4575 21.316Z" fill="#34A9ED"/>
<path d="M30.6599 24.8443L30.6427 24.8564C30.0438 25.2751 29.5103 25.7805 29.0606 26.3544C28.308 26.3898 27.5293 26.4414 26.7184 26.5125C26.7886 26.3822 26.8617 26.2538 26.9379 26.1274L30.1551 23.323L32.9698 23.1508L30.6599 24.8443Z" fill="#34A9ED"/>
<path d="M15.557 30.2461C15.5774 30.2347 15.5983 30.2241 15.6195 30.2142L22.4123 27.0584C23.7816 26.8345 25.1312 26.6584 26.4547 26.5362L25.0551 27.7203C24.7349 27.9912 24.38 28.2179 23.9997 28.3946L17.4302 31.4467L12.9802 31.6861L15.557 30.2461Z" fill="#34A9ED"/>
<path d="M13.6095 60.8691C25.4506 60.6297 31.7908 57.0507 42.8729 52.8716C44.1349 52.3958 45.5398 51.8266 46.9621 51.229L51.5459 50.1948L51.5541 50.193L74.9532 45.1352C75.2 45.0818 75.4288 45.1371 75.5774 45.2368C75.7116 45.3269 75.7763 45.4435 75.7757 45.5959C75.765 48.6015 73.4859 51.0698 70.5667 51.382C70.53 51.386 70.4935 51.3921 70.4575 51.4003L10.1785 65.1692C9.8342 65.2312 9.47887 65.2631 9.11506 65.2618C7.13147 65.2547 5.38208 64.2597 4.33101 62.7399C4.02546 62.2981 4.04517 61.8441 4.31354 61.4027C4.35154 61.3402 4.39444 61.2786 4.44201 61.2183C5.47365 60.9848 6.58121 60.8143 7.80039 60.7145C10.0632 60.5294 11.34 60.915 13.6095 60.8691Z" fill="#58BBF5"/>
<path d="M32.9698 23.1508L56.9745 20.4323C57.1763 21.1444 57.2833 21.8969 57.2805 22.6759C57.2762 23.881 57.0091 25.024 56.5334 26.0505C54.3075 26.3497 51.94 26.6071 49.1602 26.7579C45.0429 26.9811 41.7582 26.7723 38.5316 26.567C35.532 26.3763 32.5825 26.1886 29.0606 26.3544C29.5103 25.7805 30.0438 25.2751 30.6427 24.8564L30.6599 24.8443L32.9698 23.1508Z" fill="#E5F6FF"/>
<path d="M27.4999 30.9048C27.4999 30.8889 27.4999 30.873 27.4999 30.857C27.506 29.1582 28.0876 27.596 29.0606 26.3544C32.5825 26.1886 35.532 26.3763 38.5316 26.567C41.7582 26.7723 45.0429 26.9811 49.1602 26.7579C51.94 26.6071 54.3075 26.3497 56.5334 26.0505C55.8734 27.4749 54.8117 28.675 53.4931 29.5061L27.4999 30.9048Z" fill="#58BBF5"/>
<path d="M27.7455 32.7751L39.7454 32.1293L43.0923 35.4961L35.8261 41.3874L29.4523 35.8719C28.6514 35.006 28.0569 33.9482 27.7455 32.7751Z" fill="#58BBF5"/>
<path d="M37.2705 42.6372L44.4248 36.8366L46.6323 39.0571L38.8925 44.0409L37.2705 42.6372Z" fill="#E5F6FF"/>
<path d="M42.8729 52.8716C31.7908 57.0507 25.4506 60.6297 13.6095 60.8691C11.34 60.915 10.0632 60.5294 7.80039 60.7145C6.58121 60.8143 5.47365 60.9848 4.44201 61.2183C4.75633 60.8197 5.27179 60.4799 5.88644 60.3445L35.1125 53.9023L35.1171 53.9013L46.9621 51.229C45.5398 51.8266 44.1349 52.3958 42.8729 52.8716Z" fill="#E5F6FF"/>
<path d="M21.1329 19.7608L27.8352 9.18033C28.5804 8.71549 29.4608 8.4483 30.4057 8.45168C31.7162 8.45637 32.9014 8.98111 33.77 9.83191C34.6022 10.6471 35.1394 11.7577 35.2134 12.9921C35.2217 13.1303 35.2064 13.2908 35.1668 13.4854L34.8601 14.9915C34.7956 15.3084 34.6771 15.6118 34.5098 15.8885L33.5712 17.4408C33.4519 17.6381 33.3089 17.8201 33.1452 17.9826L30.2251 20.883L23.841 26.2842C23.6489 26.4468 23.436 26.5828 23.2078 26.6888L22.4123 27.0584C18.4572 27.7051 14.3372 28.7512 10.2031 30.0544L9.59382 26.5978C9.80406 26.54 10.0103 26.4676 10.2112 26.3808L18.2662 22.9025C19.2134 22.4935 19.9998 21.7841 20.504 20.8837L21.1329 19.7608Z" fill="#E5F6FF"/>
<path d="M36.4022 10.2985C41.9421 10.9644 47.1836 12.5935 51.9559 15.0131L52.0714 15.0716C52.0975 15.0849 52.1243 15.0969 52.1516 15.1077C53.8719 15.7861 55.3044 17.0376 56.2142 18.6257L32.4575 21.316L34.4699 19.3173C34.7426 19.0464 34.981 18.7432 35.1799 18.4142L36.1185 16.8619C36.3973 16.4008 36.5948 15.8951 36.7023 15.367L37.009 13.8608C37.0683 13.57 37.1115 13.2358 37.0901 12.8794C37.0347 11.9566 36.7929 11.0838 36.4022 10.2985Z" fill="#E5F6FF"/>
<path d="M15.6195 30.2142C15.5983 30.2241 15.5774 30.2347 15.557 30.2461L12.9802 31.6861L10.5142 31.8188L10.2031 30.0544C14.3372 28.7512 18.4572 27.7051 22.4123 27.0584L15.6195 30.2142Z" fill="#58BBF5"/>
<path d="M3.88244 32.1399C3.64486 31.9961 3.47157 31.7666 3.39822 31.4987L2.90587 29.7008C2.67775 28.8677 2.95519 27.978 3.61632 27.4224L4.56841 26.6223C4.724 26.4915 4.94554 26.4744 5.11941 26.5796C5.53724 26.8324 6.02329 26.949 6.5103 26.9133L7.7246 26.8242L8.39725 30.6394C6.92273 31.1297 5.44919 31.65 3.98357 32.194C3.94905 32.1778 3.91528 32.1597 3.88244 32.1399Z" fill="#E5F6FF"/>
<path d="M4.53328 32.2926C4.34392 32.3084 4.15444 32.274 3.98357 32.194C5.44919 31.65 6.92273 31.1297 8.39725 30.6394L8.6285 31.9511L4.53328 32.2926Z" fill="#58BBF5"/>
<path d="M25.6207 31.0059L17.4302 31.4467L23.9997 28.3946C24.38 28.2179 24.7349 27.9912 25.0551 27.7203L26.4547 26.5362L26.9379 26.1274C26.8617 26.2538 26.7886 26.3822 26.7184 26.5125C26.0229 27.8039 25.6255 29.2806 25.6199 30.8503C25.6197 30.9023 25.62 30.9542 25.6207 31.0059Z" fill="#E5F6FF"/>
<path d="M16.8011 18.3906L19.6506 15.7018C20.7069 14.7051 21.2434 13.276 21.1041 11.8302L21.0647 11.4222L23.0475 7.49031L25.8013 8.87741L19.7643 18.4076L18.3349 18.6066C17.8084 18.6799 17.2776 18.6023 16.8011 18.3906Z" fill="#E5F6FF"/>
<path d="M18.8812 1.88079C19.0552 1.88141 19.1958 2.02311 19.1952 2.19725L19.1899 3.70894L18.4332 5.04399L12.4066 13.5068L12.6032 14.3826C12.5773 14.4073 12.5511 14.432 12.5246 14.4565C12.2423 14.7176 11.9294 14.9653 11.5762 15.1942C11.3221 15.359 11.0807 15.5019 10.8477 15.6298C9.12557 14.5481 7.98378 12.628 7.99159 10.4448C8.00087 7.84857 9.63279 5.63519 11.9264 4.76699C11.9366 4.76312 11.9469 4.7591 11.957 4.75487L18.7554 1.90623C18.7927 1.89006 18.8346 1.88062 18.8812 1.88079Z" fill="#E5F6FF"/>
<path d="M18.4332 5.04399L14.9722 11.1507C14.8125 11.3914 14.6574 11.6369 14.5013 11.884C13.9603 12.7405 13.4071 13.6164 12.6032 14.3826L12.4066 13.5068L18.4332 5.04399Z" fill="#E5F6FF"/>
<path d="M12.095 16.2272C11.654 16.0751 11.2361 15.8738 10.8477 15.6298C11.0807 15.5019 11.3221 15.359 11.5762 15.1942C11.9294 14.9653 12.2423 14.7176 12.5246 14.4565C12.5511 14.432 12.5773 14.4073 12.6032 14.3826L12.7556 15.0615L12.095 16.2272Z" fill="#E5F6FF"/>
<path d="M14.5013 11.884C14.6574 11.6369 14.8125 11.3914 14.9722 11.1507L12.7556 15.0615L12.6032 14.3826C13.4071 13.6164 13.9603 12.7405 14.5013 11.884Z" fill="#E5F6FF"/>
<path d="M19.5726 10.2054L17.8261 9.92845L18.8158 8.18217C19.2775 8.07769 19.7063 8.04835 20.1341 8.01907C20.3212 8.00626 20.5082 7.99344 20.6976 7.97437L19.5726 10.2054Z" fill="#E5F6FF"/>
<path d="M20.3676 5.44418L21.4696 6.44355L20.6976 7.97437C20.5082 7.99344 20.3212 8.00626 20.1341 8.01907C19.7063 8.04835 19.2775 8.07769 18.8158 8.18217L20.3676 5.44418Z" fill="#E5F6FF"/>
<path d="M3.75621 33.1558C3.75842 32.5374 4.27516 32.3226 4.53328 32.2926L8.6285 31.9511C7.39119 32.2399 4.91558 33.0836 4.91178 34.1483L4.68944 34.1669C4.46711 34.1854 3.75345 33.9289 3.75621 33.1558Z" fill="#34A9ED"/>
<path d="M47.9873 40.4213C48.0999 40.5402 48.202 40.6687 48.2924 40.8053L50.6641 44.3921C51.1025 45.055 51.2409 45.8721 51.0455 46.6426L50.578 48.4852L35.5512 51.8754C35.4913 51.5858 35.4603 51.2853 35.4614 50.9768C35.467 49.4144 36.2978 48.0471 37.5439 47.2879C37.7038 47.1905 37.8984 47.0707 38.0885 46.9283L39.3466 45.9852L39.8736 45.6459L47.9873 40.4213Z" fill="#58BBF5"/>
<path d="M56.9745 20.4323L56.2142 18.6257L58.2114 18.393C58.3167 18.6162 58.4139 18.8439 58.5027 19.0757C58.6446 19.4461 58.7651 19.827 58.8626 20.2168L56.9745 20.4323Z" fill="#34A9ED"/>
<path d="M16.8358 11.6757L13.9809 16.713C14.4054 16.8497 14.8324 17.0317 15.2347 17.2832L18.3606 14.3336C18.9832 13.7461 19.3049 12.9082 19.2367 12.0564L16.8358 11.6757Z" fill="#58BBF5"/>
<path d="M8.39725 30.6394L7.7246 26.8242L9.59382 26.5978L10.2031 30.0544C9.60131 30.2441 8.99921 30.4392 8.39725 30.6394Z" fill="#E5F6FF"/>
<path d="M8.6285 31.9511L8.39725 30.6394L10.2031 30.0544L10.5142 31.8188L8.6285 31.9511Z" fill="#E5F6FF"/>
<path d="M95.5852 96.3397C97.1772 94.5786 98.1514 92.2454 98.1606 89.6826C98.1636 88.8328 98.0602 88.0065 97.8626 87.2168C97.7651 86.827 97.6446 86.4461 97.5027 86.0757C97.4139 85.8439 97.3167 85.6162 97.2114 85.393C96.1384 83.1175 94.2317 81.3132 91.8829 80.3745L91.8058 80.3354C86.3272 77.5578 80.2541 75.7817 73.8276 75.2485C72.6508 74.2103 71.1052 73.577 69.4124 73.5709C68.2121 73.5666 67.0825 73.8784 66.1043 74.428L62.168 72.4453L61.2399 71.6036C80.0348 73.1763 100.705 75.3266 100.588 91.1938C100.576 92.9386 100.472 94.6558 99.5816 96.1246L95.5852 96.3397Z" fill="#E5F6FF"/>
<path d="M91.6316 115.036L91.8677 114.105C92.1935 112.821 91.9627 111.459 91.2321 110.354L88.8604 106.768C88.6889 106.508 88.4921 106.267 88.273 106.046L81.2622 98.9939L97.5652 98.1166C95.3575 99.5047 91.5378 100.383 84.9286 100.376C95.4912 106.484 95.7751 111.716 93.9702 114.53L91.6316 115.036Z" fill="#E5F6FF"/>
<path d="M39.4009 99.0296C38.08 94.5517 40.201 91.0324 43.1626 91.2789C49.5985 90.5157 53.1094 89.6031 56.2208 87.458C56.6375 87.5232 57.0645 87.5325 57.4908 87.4827C57.2223 87.7784 56.8923 88.0155 56.5212 88.1758L48.4661 91.6541C48.1769 91.7789 47.8688 91.8544 47.5547 91.8775L45.3728 92.0376C45.2747 92.0448 45.1767 92.0212 45.0924 91.9703C44.2299 91.4483 43.131 91.5335 42.3591 92.1822L41.4071 92.9823C40.1839 94.0102 39.6706 95.6563 40.0926 97.1977L40.585 98.9956C40.7856 99.7283 41.2597 100.356 41.9094 100.749C42.4439 101.073 43.0669 101.219 43.6894 101.167L43.9118 101.148L48.7973 100.741L64.836 99.8779C65.1988 101.524 66.0012 103.006 67.1132 104.193C67.1356 104.217 67.1592 104.24 67.184 104.261L76.3121 112.16L75.9611 112.423C75.8511 112.506 75.7265 112.584 75.5661 112.682C73.7851 113.767 72.5894 115.727 72.5814 117.97C72.5797 118.42 72.6262 118.86 72.716 119.284L71.6503 119.519C70.0548 116.045 73.48 112.657 75.1141 111.99C71.8409 110.873 65.2727 106.55 63.8853 101.067C59.0218 100.532 54.4341 101.073 50.5601 101.529C44.7107 102.219 40.4885 102.716 39.4009 99.0296Z" fill="#E5F6FF"/>
<path fill-rule="evenodd" clip-rule="evenodd" d="M72.2799 120.553L92.7753 115.859C93.2115 115.51 93.6283 115.064 93.9702 114.53L113.556 110.297C114.933 109.999 116.662 110.834 116.656 112.603C116.642 116.558 113.658 119.807 109.824 120.246L49.5765 134.007C49.5634 134.01 49.5502 134.013 49.537 134.016C49.0732 134.101 48.5955 134.144 48.1083 134.143C45.4841 134.133 43.1709 132.814 41.785 130.81C41.0002 129.675 41.1079 128.411 41.7073 127.425C42.286 126.474 43.3181 125.764 44.4819 125.508L71.6503 119.519C71.8085 119.864 72.0162 120.209 72.2799 120.553ZM113.953 112.135L90.5541 117.193L90.5459 117.195L85.9621 118.229L74.1171 120.901L74.1125 120.902L44.8864 127.344C44.2718 127.48 43.7563 127.82 43.442 128.218C43.3944 128.279 43.3515 128.34 43.3135 128.403C43.0452 128.844 43.0255 129.298 43.331 129.74C44.3821 131.26 46.1315 132.255 48.1151 132.262C48.4789 132.263 48.8342 132.231 49.1785 132.169L109.457 118.4C109.494 118.392 109.53 118.386 109.567 118.382C112.486 118.07 114.765 115.601 114.776 112.596C114.776 112.444 114.712 112.327 114.577 112.237C114.429 112.137 114.2 112.082 113.953 112.135Z" fill="#34A9ED"/>
<path d="M92.7753 115.859L72.2799 120.553C72.0162 120.209 71.8085 119.864 71.6503 119.519L72.716 119.284C72.6262 118.86 72.5797 118.42 72.5814 117.97C72.5894 115.727 73.7851 113.767 75.5661 112.682C75.7265 112.584 75.8511 112.506 75.9611 112.423L76.3121 112.16L67.184 104.261C67.1592 104.24 67.1356 104.217 67.1132 104.193C66.0012 103.006 65.1988 101.524 64.836 99.8779L66.7455 99.7751C67.0569 100.948 67.6514 102.006 68.4523 102.872L74.8261 108.387L76.2705 109.637L77.8925 111.041L78.8736 112.646L78.3466 112.985L77.0885 113.928C76.8984 114.071 76.7038 114.19 76.544 114.288C75.2978 115.047 74.467 116.414 74.4614 117.977C74.4603 118.285 74.4913 118.586 74.5512 118.875L89.578 115.485L90.0455 113.643C90.2409 112.872 90.1025 112.055 89.6641 111.392L87.2924 107.805C87.2021 107.669 87.0999 107.54 86.9873 107.421L85.6323 106.057L83.4248 103.837L82.0923 102.496L78.7454 99.1293L81.2622 98.9939L88.273 106.046C88.4921 106.267 88.6889 106.508 88.8604 106.768L91.2321 110.354C91.9627 111.459 92.1935 112.821 91.8677 114.105L91.6316 115.036L93.9702 114.53C93.6283 115.064 93.2115 115.51 92.7753 115.859Z" fill="#34A9ED"/>
<path d="M52.2931 84.4542L57.8206 86.2218C57.2906 86.6749 56.7617 87.0851 56.2208 87.458L56.2064 87.4558C55.3737 87.323 54.5832 86.967 53.9243 86.4137L53.7101 86.2339L53.4927 86.0587C53.0076 85.6676 52.3546 85.4467 51.567 85.2951C51.493 85.2808 51.4194 85.2656 51.3461 85.2493C47.768 84.4544 45.0979 81.2558 45.1116 77.4381C45.1237 74.0428 47.2553 71.1531 50.2452 70.014L57.0089 67.18L57.0146 67.1776C57.2837 67.062 57.5796 66.9989 57.8879 67C59.1003 67.0044 60.0796 67.9911 60.0753 69.204L60.0705 70.5431L61.2399 71.6036C60.712 71.5594 60.1856 71.5157 59.6611 71.4721L59.657 71.4718L59.65 71.4712L59.6468 71.471C59.0761 71.4236 58.5078 71.3764 57.9424 71.329L57.4332 72.044L58.1899 70.7089L58.1952 69.1973C58.1958 69.0231 58.0552 68.8814 57.8812 68.8808C57.8346 68.8806 57.7927 68.8901 57.7554 68.9062L50.957 71.7549C50.9469 71.7591 50.9366 71.7631 50.9264 71.767C48.6328 72.6352 47.0009 74.8486 46.9916 77.4448C46.9838 79.628 48.1256 81.5481 49.8477 82.6298C50.2361 82.8738 50.654 83.0751 51.095 83.2271L51.7556 82.0615L52.2931 84.4542Z" fill="#34A9ED"/>
<path d="M64.8013 75.8774L62.0475 74.4903L60.4696 73.4436L59.3676 72.4442L57.8158 75.1822C57.5886 75.2336 57.3536 75.3032 57.1067 75.3999C55.5689 76.0023 54.7192 77.0249 53.9722 78.1507L57.4332 72.044L57.9424 71.329C58.5078 71.3764 59.0761 71.4236 59.6468 71.471L59.65 71.4712L59.657 71.4718L59.6611 71.4721C60.1856 71.5157 60.712 71.5594 61.2399 71.6036L62.168 72.4453L66.1043 74.428C67.0825 73.8784 68.2121 73.5666 69.4124 73.5709C71.1052 73.577 72.6508 74.2103 73.8276 75.2485C80.2541 75.7817 86.3272 77.5578 91.8058 80.3354L91.8829 80.3745C94.2317 81.3132 96.1384 83.1175 97.2114 85.393L95.2142 85.6257C94.3044 84.0376 92.8719 82.7861 91.1516 82.1077C91.1243 82.0969 91.0975 82.0849 91.0714 82.0716L90.9559 82.0131C86.1836 79.5935 80.9421 77.9644 75.4022 77.2985L72.77 76.8319C71.9014 75.9811 70.7162 75.4564 69.4057 75.4517C68.4608 75.4483 67.5804 75.7155 66.8352 76.1803L64.8013 75.8774Z" fill="#34A9ED"/>
<path d="M98.1606 89.6826C98.1514 92.2454 97.1772 94.5786 95.5852 96.3397L92.4931 96.5061C93.8117 95.675 94.8734 94.4749 95.5334 93.0505C96.0091 92.024 96.2762 90.881 96.2805 89.6759C96.2833 88.8969 96.1763 88.1444 95.9745 87.4323L97.8626 87.2168C98.0602 88.0065 98.1636 88.8328 98.1606 89.6826Z" fill="#34A9ED"/>
<path fill-rule="evenodd" clip-rule="evenodd" d="M57.8206 86.2218L52.2931 84.4542L51.7556 82.0615L53.9722 78.1507C54.7192 77.0249 55.5689 76.0023 57.1067 75.3999C57.3536 75.3032 57.5886 75.2336 57.8158 75.1822L56.8261 76.9285L58.5726 77.2054L59.6976 74.9744L60.4696 73.4436L62.0475 74.4903L60.0647 78.4222L60.1041 78.8302C60.2434 80.276 59.7069 81.7051 58.6506 82.7018L55.8011 85.3906C56.2776 85.6023 56.8084 85.6799 57.3349 85.6066L58.7643 85.4076L64.8013 75.8774L66.8352 76.1803L60.1329 86.7608L59.504 87.8837C58.9998 88.7841 58.2134 89.4935 57.2662 89.9025L49.2112 93.3808C49.0103 93.4676 48.8041 93.54 48.5938 93.5978L46.7246 93.8242L45.5103 93.9133C45.0233 93.949 44.5372 93.8324 44.1194 93.5796C43.9455 93.4744 43.724 93.4915 43.5684 93.6223L42.6163 94.4224C41.9552 94.978 41.6777 95.8677 41.9059 96.7008L42.3982 98.4987C42.4716 98.7666 42.6449 98.9961 42.8824 99.1399C42.9153 99.1597 42.9491 99.1778 42.9836 99.194C43.1544 99.274 43.3439 99.3084 43.5333 99.2926C43.2752 99.3226 42.7584 99.5374 42.7562 100.156C42.7535 100.929 43.4671 101.185 43.6894 101.167C43.0669 101.219 42.4439 101.073 41.9094 100.749C41.2597 100.356 40.7856 99.7283 40.585 98.9956L40.0926 97.1977C39.6706 95.6563 40.1839 94.0102 41.4071 92.9823L42.3591 92.1822C43.131 91.5335 44.2299 91.4483 45.0924 91.9703C45.1767 92.0212 45.2747 92.0448 45.3728 92.0376L47.5547 91.8775C47.8688 91.8544 48.1769 91.7789 48.4661 91.6541L56.5212 88.1758C56.8923 88.0155 57.2223 87.7784 57.4908 87.4827C57.0645 87.5325 56.6375 87.5232 56.2208 87.458C56.7617 87.0851 57.2906 86.6749 57.8206 86.2218ZM52.9809 83.713L55.8358 78.6757L58.2367 79.0564C58.3049 79.9082 57.9832 80.7461 57.3606 81.3336L54.2347 84.2832C53.8324 84.0317 53.4054 83.8497 52.9809 83.713Z" fill="#34A9ED"/>
<path d="M74.8261 108.387L82.0923 102.496L83.4248 103.837L76.2705 109.637L74.8261 108.387Z" fill="#34A9ED"/>
<path d="M77.8925 111.041L85.6323 106.057L86.9873 107.421L78.8736 112.646L77.8925 111.041Z" fill="#34A9ED"/>
<path d="M49.5142 98.8188L51.9802 98.6861L56.4302 98.4467L64.6207 98.006L66.4999 97.9048L92.4931 96.5061L95.5852 96.3397L99.5816 96.1246C99.1359 96.8602 98.4928 97.5334 97.5652 98.1166L81.2622 98.9939L78.7454 99.1293L66.7455 99.7751L64.836 99.8779L48.7973 100.741L43.9118 101.148C43.9156 100.084 46.3912 99.2399 47.6285 98.9511L49.5142 98.8188Z" fill="#34A9ED"/>
<path d="M106.293 99.8779L106.015 97.6619L97.5652 98.1166C98.4928 97.5334 99.1359 96.8602 99.5816 96.1246L105.778 95.7912L105.561 94.1014C105.495 93.5862 105.859 93.1151 106.374 93.0491C106.889 92.9831 107.36 93.3471 107.426 93.8622L107.66 95.6899L109.949 95.5668C110.467 95.5389 110.91 95.9367 110.938 96.4553C110.966 96.9739 110.568 97.4169 110.05 97.4448L107.897 97.5607L108.159 99.6435C108.224 100.159 107.858 100.629 107.343 100.694C106.828 100.759 106.358 100.393 106.293 99.8779Z" fill="#34A9ED"/>
<path d="M66.4999 97.857C66.4999 97.873 66.4999 97.8889 66.4999 97.9048L64.6207 98.006C64.62 97.9542 64.6197 97.9023 64.6199 97.8503C64.6255 96.2806 65.0229 94.8039 65.7184 93.5125C66.5293 93.4414 67.308 93.3898 68.0606 93.3544C67.0876 94.596 66.506 96.1582 66.4999 97.857Z" fill="#34A9ED"/>
<path d="M74.2134 79.9921C74.1394 78.7577 73.6022 77.6471 72.77 76.8319L75.4022 77.2985C75.7929 78.0838 76.0347 78.9566 76.0901 79.8794C76.1115 80.2358 76.0683 80.57 76.009 80.8608L75.7023 82.367C75.5948 82.8951 75.3973 83.4008 75.1185 83.8619L74.1799 85.4142C73.981 85.7432 73.7426 86.0464 73.4699 86.3173L71.4575 88.316L69.1551 90.323L65.9379 93.1274L65.4547 93.5362C64.1312 93.6584 62.7816 93.8345 61.4123 94.0584L62.2078 93.6888C62.436 93.5828 62.6489 93.4468 62.841 93.2842L69.2251 87.883L72.1452 84.9827C72.3089 84.8201 72.4519 84.6381 72.5712 84.4408L73.5098 82.8885C73.6771 82.6118 73.7956 82.3084 73.8601 81.9915L74.1668 80.4854C74.2064 80.2908 74.2217 80.1303 74.2134 79.9921Z" fill="#34A9ED"/>
<path d="M95.9745 87.4323L71.9698 90.1508L71.4575 88.316L95.2142 85.6257L95.9745 87.4323Z" fill="#34A9ED"/>
<path d="M71.4575 88.316L71.9698 90.1508L69.1551 90.323L71.4575 88.316Z" fill="#34A9ED"/>
<path d="M69.6599 91.8443L69.6427 91.8564C69.0438 92.2751 68.5103 92.7805 68.0606 93.3544C67.308 93.3898 66.5293 93.4414 65.7184 93.5125C65.7886 93.3822 65.8617 93.2538 65.9379 93.1274L69.1551 90.323L71.9698 90.1508L69.6599 91.8443Z" fill="#34A9ED"/>
<path d="M54.557 97.2461C54.5774 97.2347 54.5983 97.2241 54.6195 97.2142L61.4123 94.0584C62.7816 93.8345 64.1312 93.6584 65.4547 93.5362L64.0551 94.7203C63.7349 94.9912 63.38 95.2179 62.9997 95.3946L56.4302 98.4467L51.9802 98.6861L54.557 97.2461Z" fill="#34A9ED"/>
<path d="M52.6095 127.869C64.4506 127.63 70.7908 124.051 81.8729 119.872C83.1349 119.396 84.5398 118.827 85.9621 118.229L90.5459 117.195L90.5541 117.193L113.953 112.135C114.2 112.082 114.429 112.137 114.577 112.237C114.712 112.327 114.776 112.444 114.776 112.596C114.765 115.601 112.486 118.07 109.567 118.382C109.53 118.386 109.494 118.392 109.457 118.4L49.1785 132.169C48.8342 132.231 48.4789 132.263 48.1151 132.262C46.1315 132.255 44.3821 131.26 43.331 129.74C43.0255 129.298 43.0452 128.844 43.3135 128.403C43.3515 128.34 43.3944 128.279 43.442 128.218C44.4736 127.985 45.5812 127.814 46.8004 127.715C49.0632 127.529 50.34 127.915 52.6095 127.869Z" fill="#58BBF5"/>
<path d="M71.9698 90.1508L95.9745 87.4323C96.1763 88.1444 96.2833 88.8969 96.2805 89.6759C96.2762 90.881 96.0091 92.024 95.5334 93.0505C93.3075 93.3497 90.94 93.6071 88.1602 93.7579C84.0429 93.9811 80.7582 93.7723 77.5316 93.567C74.532 93.3763 71.5825 93.1886 68.0606 93.3544C68.5103 92.7805 69.0438 92.2751 69.6427 91.8564L69.6599 91.8443L71.9698 90.1508Z" fill="#E5F6FF"/>
<path d="M66.4999 97.9048C66.4999 97.8889 66.4999 97.873 66.4999 97.857C66.506 96.1582 67.0876 94.596 68.0606 93.3544C71.5825 93.1886 74.532 93.3763 77.5316 93.567C80.7582 93.7723 84.0429 93.9811 88.1602 93.7579C90.94 93.6071 93.3075 93.3497 95.5334 93.0505C94.8734 94.4749 93.8117 95.675 92.4931 96.5061L66.4999 97.9048Z" fill="#58BBF5"/>
<path d="M66.7455 99.7751L78.7454 99.1293L82.0923 102.496L74.8261 108.387L68.4523 102.872C67.6514 102.006 67.0569 100.948 66.7455 99.7751Z" fill="#58BBF5"/>
<path d="M76.2705 109.637L83.4248 103.837L85.6323 106.057L77.8925 111.041L76.2705 109.637Z" fill="#E5F6FF"/>
<path d="M81.8729 119.872C70.7908 124.051 64.4506 127.63 52.6095 127.869C50.34 127.915 49.0632 127.529 46.8004 127.715C45.5812 127.814 44.4736 127.985 43.442 128.218C43.7563 127.82 44.2718 127.48 44.8864 127.344L74.1125 120.902L74.1171 120.901L85.9621 118.229C84.5398 118.827 83.1349 119.396 81.8729 119.872Z" fill="#E5F6FF"/>
<path d="M60.1329 86.7608L66.8352 76.1803C67.5804 75.7155 68.4608 75.4483 69.4057 75.4517C70.7162 75.4564 71.9014 75.9811 72.77 76.8319C73.6022 77.6471 74.1394 78.7577 74.2134 79.9921C74.2217 80.1303 74.2064 80.2908 74.1668 80.4854L73.8601 81.9915C73.7956 82.3084 73.6771 82.6118 73.5098 82.8885L72.5712 84.4408C72.4519 84.6381 72.3089 84.8201 72.1452 84.9827L69.2251 87.883L62.841 93.2842C62.6489 93.4468 62.436 93.5828 62.2078 93.6888L61.4123 94.0584C57.4572 94.7051 53.3372 95.7512 49.2031 97.0544L48.5938 93.5978C48.8041 93.54 49.0103 93.4676 49.2112 93.3808L57.2662 89.9025C58.2134 89.4935 58.9998 88.7841 59.504 87.8837L60.1329 86.7608Z" fill="#E5F6FF"/>
<path d="M75.4022 77.2985C80.9421 77.9644 86.1836 79.5935 90.9559 82.0131L91.0714 82.0716C91.0975 82.0849 91.1243 82.0969 91.1516 82.1077C92.8719 82.7861 94.3044 84.0376 95.2142 85.6257L71.4575 88.316L73.4699 86.3173C73.7426 86.0464 73.981 85.7432 74.1799 85.4142L75.1185 83.8619C75.3973 83.4008 75.5948 82.8951 75.7023 82.367L76.009 80.8608C76.0683 80.57 76.1115 80.2358 76.0901 79.8794C76.0347 78.9566 75.7929 78.0838 75.4022 77.2985Z" fill="#E5F6FF"/>
<path d="M54.6195 97.2142C54.5983 97.2241 54.5774 97.2347 54.557 97.2461L51.9802 98.6861L49.5142 98.8188L49.2031 97.0544C53.3372 95.7512 57.4572 94.7051 61.4123 94.0584L54.6195 97.2142Z" fill="#58BBF5"/>
<path d="M42.8824 99.1399C42.6449 98.9961 42.4716 98.7666 42.3982 98.4987L41.9059 96.7008C41.6777 95.8677 41.9552 94.978 42.6163 94.4224L43.5684 93.6223C43.724 93.4915 43.9455 93.4744 44.1194 93.5796C44.5372 93.8324 45.0233 93.949 45.5103 93.9133L46.7246 93.8242L47.3973 97.6394C45.9227 98.1297 44.4492 98.65 42.9836 99.194C42.9491 99.1778 42.9153 99.1597 42.8824 99.1399Z" fill="#E5F6FF"/>
<path d="M43.5333 99.2926C43.3439 99.3084 43.1544 99.274 42.9836 99.194C44.4492 98.65 45.9227 98.1297 47.3973 97.6394L47.6285 98.9511L43.5333 99.2926Z" fill="#58BBF5"/>
<path d="M64.6207 98.006L56.4302 98.4467L62.9997 95.3946C63.38 95.2179 63.7349 94.9912 64.0551 94.7203L65.4547 93.5362L65.9379 93.1274C65.8617 93.2538 65.7886 93.3822 65.7184 93.5125C65.0229 94.8039 64.6255 96.2806 64.6199 97.8503C64.6197 97.9023 64.62 97.9542 64.6207 98.006Z" fill="#E5F6FF"/>
<path d="M55.8011 85.3906L58.6506 82.7018C59.7069 81.7051 60.2434 80.276 60.1041 78.8302L60.0647 78.4222L62.0475 74.4903L64.8013 75.8774L58.7643 85.4076L57.3349 85.6066C56.8084 85.6799 56.2776 85.6023 55.8011 85.3906Z" fill="#E5F6FF"/>
<path d="M57.8812 68.8808C58.0552 68.8814 58.1958 69.0231 58.1952 69.1973L58.1899 70.7089L57.4332 72.044L51.4066 80.5068L51.6032 81.3826C51.5773 81.4073 51.5511 81.432 51.5246 81.4565C51.2423 81.7176 50.9294 81.9653 50.5762 82.1942C50.3221 82.359 50.0807 82.5019 49.8477 82.6298C48.1256 81.5481 46.9838 79.628 46.9916 77.4448C47.0009 74.8486 48.6328 72.6352 50.9264 71.767C50.9366 71.7631 50.9469 71.7591 50.957 71.7549L57.7554 68.9062C57.7927 68.8901 57.8346 68.8806 57.8812 68.8808Z" fill="#E5F6FF"/>
<path d="M57.4332 72.044L53.9722 78.1507C53.8125 78.3914 53.6574 78.6369 53.5013 78.884C52.9603 79.7405 52.4071 80.6164 51.6032 81.3826L51.4066 80.5068L57.4332 72.044Z" fill="#E5F6FF"/>
<path d="M51.095 83.2271C50.654 83.0751 50.2361 82.8738 49.8477 82.6298C50.0807 82.5019 50.3221 82.359 50.5762 82.1942C50.9294 81.9653 51.2423 81.7176 51.5246 81.4565C51.5511 81.432 51.5773 81.4073 51.6032 81.3826L51.7556 82.0615L51.095 83.2271Z" fill="#E5F6FF"/>
<path d="M53.5013 78.884C53.6574 78.6369 53.8125 78.3914 53.9722 78.1507L51.7556 82.0615L51.6032 81.3826C52.4071 80.6164 52.9603 79.7405 53.5013 78.884Z" fill="#E5F6FF"/>
<path d="M58.5726 77.2054L56.8261 76.9285L57.8158 75.1822C58.2775 75.0777 58.7063 75.0484 59.1341 75.0191C59.3212 75.0063 59.5082 74.9934 59.6976 74.9744L58.5726 77.2054Z" fill="#E5F6FF"/>
<path d="M59.3676 72.4442L60.4696 73.4436L59.6976 74.9744C59.5082 74.9934 59.3212 75.0063 59.1341 75.0191C58.7063 75.0484 58.2775 75.0777 57.8158 75.1822L59.3676 72.4442Z" fill="#E5F6FF"/>
<path d="M42.7562 100.156C42.7584 99.5374 43.2752 99.3226 43.5333 99.2926L47.6285 98.9511C46.3912 99.2399 43.9156 100.084 43.9118 101.148L43.6894 101.167C43.4671 101.185 42.7535 100.929 42.7562 100.156Z" fill="#34A9ED"/>
<path d="M86.9873 107.421C87.0999 107.54 87.2021 107.669 87.2924 107.805L89.6641 111.392C90.1025 112.055 90.2409 112.872 90.0455 113.643L89.578 115.485L74.5512 118.875C74.4913 118.586 74.4603 118.285 74.4614 117.977C74.467 116.414 75.2978 115.047 76.544 114.288C76.7038 114.19 76.8984 114.071 77.0885 113.928L78.3466 112.985L78.8736 112.646L86.9873 107.421Z" fill="#58BBF5"/>
<path d="M95.9745 87.4323L95.2142 85.6257L97.2114 85.393C97.3167 85.6162 97.4139 85.8439 97.5027 86.0757C97.6446 86.4461 97.7651 86.827 97.8626 87.2168L95.9745 87.4323Z" fill="#34A9ED"/>
<path d="M55.8358 78.6757L52.9809 83.713C53.4054 83.8497 53.8324 84.0317 54.2347 84.2832L57.3606 81.3336C57.9832 80.7461 58.3049 79.9082 58.2367 79.0564L55.8358 78.6757Z" fill="#58BBF5"/>
<path d="M47.3973 97.6394L46.7246 93.8242L48.5938 93.5978L49.2031 97.0544C48.6013 97.2441 47.9992 97.4392 47.3973 97.6394Z" fill="#E5F6FF"/>
<path d="M47.6285 98.9511L47.3973 97.6394L49.2031 97.0544L49.5142 98.8188L47.6285 98.9511Z" fill="#E5F6FF"/>
</g>
</svg>
