<svg width="132" height="47" viewBox="0 0 132 47"  xmlns="http://www.w3.org/2000/svg">
<path d="M10.1631 39.9759C11.9235 39.9759 12.811 39.7463 12.811 38.3292C12.811 36.8409 11.9381 36.555 10.1631 36.555H9.54783V39.9759H10.1631ZM9.54783 45.6721H8.35962V35.4384H10.1631C10.2772 35.4384 10.3923 35.4384 10.5065 35.4384C11.5512 35.4384 12.396 35.4662 13.083 35.9542C13.7272 36.4119 14.128 37.2557 14.128 38.258C14.128 39.2606 13.7272 40.1038 13.083 40.5615C12.396 41.0495 11.5657 41.0772 10.5065 41.0772C10.3923 41.0772 10.2772 41.0772 10.1631 41.0772H9.54783V45.6721Z" />
<path d="M22.3851 41.4927H25.6483L24.0165 37.7284L22.3851 41.4927ZM28.6684 45.6721H27.3521L26.0205 42.5377H22.0271L20.6962 45.6721H19.3792L24.0165 35.0376L28.6684 45.6721Z" />
<path d="M35.4669 35.0376L42.9525 43.2104V35.4384H44.112V46.0726L36.6265 37.9867V45.6721H35.4669V35.0376Z" />
<path d="M59.6059 43.5537C60.4073 42.753 60.8359 41.7225 60.8359 40.5768C60.8359 39.4319 60.4073 38.3723 59.6059 37.571C58.8042 36.7695 57.7737 36.3399 56.6426 36.3399C55.5119 36.3399 54.4675 36.7695 53.6797 37.571C52.8783 38.3869 52.4487 39.4319 52.4487 40.5768C52.4487 41.7225 52.8783 42.7376 53.6797 43.5537C54.4953 44.3699 55.5119 44.7985 56.6426 44.7985C57.7591 44.7985 58.7896 44.3699 59.6059 43.5537ZM60.5218 44.3699C59.4774 45.3858 58.0736 45.9443 56.6426 45.9443C55.1967 45.9443 53.8088 45.3719 52.779 44.3699C51.7327 43.3534 51.1749 42.0369 51.1749 40.5768C51.1749 39.1164 51.7327 37.7854 52.779 36.7695C53.8088 35.7668 55.1967 35.2088 56.6426 35.2088C58.0882 35.2088 59.4913 35.7668 60.5218 36.7695C61.5668 37.7854 62.1107 39.1164 62.1107 40.5768C62.1107 42.0369 61.5522 43.3679 60.5218 44.3699Z" />
<path d="M70.6984 39.8899H71.6282C73.232 39.8899 74.0188 39.6616 74.0188 38.2441C74.0188 36.7549 73.2459 36.4688 71.6282 36.4688H70.6984V39.8899ZM69.5107 35.4384H71.5998C71.7143 35.4384 71.8149 35.4384 71.9142 35.4384C72.8877 35.4384 73.6318 35.4662 74.2625 35.9542C74.8487 36.4119 75.2214 37.2279 75.2214 38.2289C75.2214 39.9038 74.2624 40.7913 72.4584 40.7913C72.3869 40.7913 72.3154 40.7913 72.2439 40.7913L76.1512 45.6721H74.6054L70.8699 40.7913H70.6984V45.6721H69.5107V35.4384Z" />
<path d="M85.5322 41.4927H88.795L87.1641 37.7284L85.5322 41.4927ZM91.8162 45.6721H90.4984L89.1674 42.5377H85.1747L83.843 45.6721H82.5266L87.1641 35.0376L91.8162 45.6721Z" />
<path d="M100.308 38.7165L99.021 45.6721H97.833L99.9078 35.0376L103.486 43.4963L107.065 35.0376L109.14 45.6721H107.952L106.649 38.7165L103.486 46.0726L100.308 38.7165Z" />
<path d="M118.157 41.4927H121.421L119.789 37.7284L118.157 41.4927ZM124.441 45.6721H123.124L121.793 42.5377H117.8L116.469 45.6721H115.152L119.789 35.0376L124.441 45.6721Z" />
<path d="M131.002 32.6493C58.6739 28.2575 0.998413 32.6167 0.998413 32.6167L131.002 32.6493Z" />
<path d="M6.92297 7.63437H9.61633L15.7642 23.6487L21.8831 7.63437H24.5763L15.7642 29.3868L6.92297 7.63437Z" />
<path d="M32.666 16.7397H34.5688C37.8479 16.7397 39.4581 16.2711 39.4581 13.3729C39.4581 10.3279 37.8774 9.74207 34.5688 9.74207H32.666V16.7397ZM30.2358 7.63441H34.5103C34.7446 7.63441 34.9494 7.63441 35.1544 7.63441C37.1451 7.63441 38.6676 7.69304 39.9556 8.68858C41.1558 9.62516 41.9172 11.294 41.9172 13.3431C41.9172 16.7688 39.9556 18.584 36.2672 18.584C36.1205 18.584 35.9741 18.584 35.8277 18.584L43.8205 28.5669H40.6584L33.0172 18.584H32.666V28.5669H30.2358V7.63441Z" />
<path d="M56.9968 5.58607C57.9923 5.58607 58.8123 4.79654 58.8123 3.80303C58.8123 2.84002 57.9923 2.02339 56.9968 2.02339C56.031 2.02339 55.2405 2.81088 55.2405 3.80303C55.2405 4.79654 56.0016 5.58607 56.9968 5.58607ZM53.6303 20.0181H60.3053L56.9676 12.3187L53.6303 20.0181ZM56.9968 0.388771C58.9292 0.388771 60.4226 1.877 60.4226 3.80303C60.4226 5.73211 58.9292 7.22475 56.9968 7.22475C55.0646 7.22475 53.5717 5.73211 53.5717 3.80303C53.5717 1.877 55.0646 0.388771 56.9968 0.388771ZM57.2021 7.69304L66.4815 28.5669H63.789L61.0664 22.1552H52.8984L50.1754 28.5669H47.4822L56.8216 7.69304H57.2021Z" />
<path d="M75.128 26.2249C78.6999 26.2249 81.1881 26.1956 82.9453 24.7318C84.643 23.3266 85.5799 21.0435 85.5799 18.0862C85.5799 15.1295 84.6721 12.9042 82.9453 11.4695C81.2179 10.0057 78.729 9.94741 75.128 9.94741H73.5476V26.2249H75.128ZM71.0293 7.63441H75.0406C78.9632 7.63441 81.9789 7.63442 84.5257 9.59602C86.9268 11.4404 88.1857 14.3684 88.1857 18.1154C88.1857 21.8628 86.9268 24.7613 84.5257 26.6053C82.0962 28.4795 79.3437 28.5669 75.9481 28.5669C75.6553 28.5669 75.333 28.5669 75.0406 28.5669H71.0293V7.63441Z"/>
<path d="M97.5927 20.0181H104.268L100.93 12.3187L97.5927 20.0181ZM110.445 28.5669H107.752L105.029 22.1552H96.8608L94.1381 28.5669H91.4446L100.93 6.81575L110.445 28.5669Z" />
<path d="M114.544 7.63441H117.032V26.1956H124.937V28.5669H114.544V7.63441Z" />
</svg>
 