<svg width="54" height="54" viewBox="0 0 54 54" fill="none" xmlns="http://www.w3.org/2000/svg">
<path d="M35.6043 33.8075C35.5204 33.8402 35.4242 33.8585 35.332 33.8368C35.5714 33.5618 35.5675 33.1436 35.8699 32.9145L35.6043 33.8075Z" fill="#FCD205"/>
<path d="M35.2858 33.2937C35.2487 32.7924 35.569 32.3624 35.6272 31.8421C35.4895 32.0322 35.343 32.3295 35.2148 32.5608C35.3611 32.1151 35.4566 31.6391 35.5775 31.1777C35.5685 31.1236 35.4995 31.145 35.4476 31.1265C36.0898 30.5496 35.9109 29.5101 36.0489 28.7007C36.3674 30.3037 35.7077 31.8494 35.2858 33.2937Z" fill="#FCD205"/>
<path d="M22.2796 37.4702C20.9905 37.4383 19.9915 36.8402 19.0427 36.1383C16.2605 33.9035 14.4528 30.5223 14.9603 27.0112C15.0514 26.1168 15.8967 25.3878 15.7334 24.4714L16.953 22.2208C17.0149 22.2796 17.1621 22.2925 17.2332 22.245L17.4251 22.0595L17.817 21.1099C18.0312 21.1287 17.9605 20.8533 18.0778 20.7426C18.4753 20.1979 19.1696 19.8006 19.5667 19.2557C19.6205 19.2601 19.5959 19.3929 19.659 19.439C20.5486 18.6547 21.5533 18.2569 22.4948 17.6517L22.4877 17.7326C22.8301 17.8158 23.1353 17.5596 23.4336 17.5447C23.3154 17.6561 23.2386 17.7707 23.1075 17.8803C23.4002 17.7709 23.8206 17.902 24.1514 17.8228C24.0385 17.8803 23.9147 17.9101 23.8233 18.0236C24.3217 18.1877 24.6659 17.6386 25.1765 17.8038L25.1555 17.5735C25.7717 17.7885 26.5316 17.7599 27.1475 17.9747C27.4504 17.9069 27.6359 17.4784 28.02 17.552C28.1163 17.8433 28.4375 17.8582 28.6886 17.9203L28.7322 17.8837C28.6761 17.7575 28.5323 17.7044 28.4149 17.6671C29.9067 17.8506 31.35 18.2864 32.4909 19.2608C32.4144 19.2138 32.2957 19.177 32.2101 19.2362C32.2752 19.4168 32.4643 19.5684 32.488 19.759C32.8329 19.9771 33.176 20.2091 33.5016 20.4933C33.0042 20.1672 32.419 19.7799 31.8021 19.5913C31.8979 19.8823 31.3876 19.865 31.4841 20.1562C31.596 20.2601 31.6693 20.4955 31.8636 20.4314L31.9189 20.2615C32.2896 20.3339 32.4444 20.7246 32.7515 20.913C32.6676 20.9459 32.4595 20.8608 32.3459 20.9315C32.4768 21.1314 32.748 21.2628 33.0079 21.2179C32.8441 21.3922 33.1207 21.6183 33.2611 21.7112C33.2974 21.7548 33.3669 21.7336 33.4202 21.7383L33.583 21.564C33.6725 21.9357 33.6986 22.409 34.1131 22.5932C34.02 22.585 33.7978 22.5121 33.6615 22.527L33.8818 22.7756C33.8433 22.7587 33.7753 22.766 33.771 22.8192C33.8258 22.9586 34.0171 23.0831 34.1241 23.2411C34.3483 23.6103 34.3566 24.136 34.8217 24.3651L34.4232 24.4519C34.478 24.6045 34.537 24.8521 34.7444 24.9374C34.9221 24.912 35.0476 25.0173 35.1305 25.1463C35.0454 25.0444 34.9135 25.1677 34.8748 24.9893C34.7858 25.2374 34.9252 25.4919 34.9849 25.7392C35.6242 27.3707 35.5146 29.2469 35.3657 31.119L35.2513 31.1897" fill="#FCD205"/>
<path d="M34.6973 33.7026C34.794 33.5225 34.8135 33.2954 35 33.1638L34.6973 33.7026Z" fill="#FCD205"/>
<path d="M34.0508 22.872C34.1926 22.9378 34.3391 23.1118 34.3935 23.2654L34.0508 22.872Z" fill="#FCD205"/>
<path d="M25.7056 38.5506L25.4395 38.5006C25.4621 38.3944 25.5986 38.38 25.6739 38.2918C25.8379 38.2659 25.971 38.6003 25.7056 38.5506Z" fill="#FCD205"/>
<path d="M23.8023 38.5596C23.8959 38.4189 23.7326 38.2705 23.8374 38.1582C23.9822 38.0358 24.2191 38.1106 24.4099 38.0872C24.2286 38.1518 23.9775 38.0897 23.8047 38.223C23.8328 38.36 23.9756 38.4263 24.0804 38.4618L24.5834 38.4114C24.3234 38.4562 24.0733 38.5423 23.8023 38.5596Z" fill="#FCD205"/>
<path d="M22.456 38.4021C22.3037 38.2946 22.1114 38.1837 22.0195 38.0002C22.2935 37.9437 22.5584 38.1552 22.8363 38.2059L22.456 38.4021Z" fill="#FCD205"/>
<path d="M24.3065 17.7578C24.3345 17.7466 24.3379 17.7064 24.3126 17.6908C24.2475 17.6581 24.1517 17.6769 24.0723 17.6564L24.4381 17.6338C24.4449 17.7159 24.3394 17.693 24.3065 17.7578Z" fill="#FCD205"/>
<path d="M23.9219 17.386L24.1707 17.3136L24.0147 17.394L23.9219 17.386Z" fill="#FCD205"/>
<path d="M35.0569 31.1447L34.7425 32.3794L33.84 33.938L32.489 35.3553L30.9258 36.8561L29.0523 37.8188L26.7262 38.0769L25.235 38.1013L22.9991 37.9071L21.7656 37.3909" fill="#FCD205"/>
<path d="M2.07595 10.2969L1.97551 10.1965C2.10976 10.1126 2.36023 10.5311 2.59543 10.5813L3.73313 11.1336L3.79967 10.9832C4.08483 11.0166 4.28566 11.2009 4.53645 11.3015C5.22302 11.2172 5.74192 11.7527 6.41167 11.5019C6.52866 11.6527 6.69585 11.6527 6.84623 11.6359C6.86329 11.7527 7.01416 11.7363 7.11433 11.7363C7.44945 11.6693 7.4826 11.1504 7.93495 11.3515C7.95104 11.3515 7.98492 11.3515 8.00198 11.3686L7.81772 11.5355C7.95104 11.6527 8.15235 11.6359 8.33612 11.6359C8.35343 11.703 8.30298 11.8207 8.42045 11.837C8.70512 11.7193 8.50429 11.9206 8.75509 11.9708L9.27349 12.1217L9.32394 12.0208C9.39048 12.2048 9.59155 12.2718 9.7429 12.3561C9.94373 12.0544 10.1275 12.5567 10.3951 12.3895C10.3951 12.4561 10.2784 12.5733 10.3951 12.6064C10.613 12.5231 10.6968 12.7573 10.9147 12.6742L10.8977 12.5399C11.149 12.9418 11.7178 13.0588 12.2367 13.0588C11.0147 13.3432 9.54207 13.0088 8.21962 12.8911C6.96371 12.7573 5.80894 12.2886 4.53645 12.3561L4.45285 12.4059C4.1014 12.3057 3.71632 12.2384 3.33221 12.1884C3.31417 12.1049 3.28127 12.0042 3.18085 11.9708C2.81283 12.1049 2.49477 12.0544 2.12594 12.0208L2.46113 12.3895L2.52816 12.322C2.61151 12.6237 2.84622 12.9418 3.01317 13.2094C3.13089 13.1758 3.31417 13.1424 3.41507 13.226C3.41507 13.3266 3.41507 13.5109 3.56545 13.5945C3.68293 13.5445 3.56545 13.4602 3.56545 13.3934C4.0178 13.8624 4.53645 14.3145 4.87157 14.8499C4.85451 14.8833 4.77067 14.7663 4.7541 14.8667C4.63711 15.1846 5.0222 15.3018 5.15624 15.5197C4.90496 15.5026 4.48649 14.5818 4.16867 15.235C4.15185 15.3186 4.18573 15.3851 4.23521 15.4524C4.52036 15.2011 4.48649 15.6703 4.70365 15.7541L4.45285 15.7875C4.55327 15.8877 4.65368 15.9713 4.80455 15.955C4.66977 16.0215 4.80455 16.1219 4.83794 16.1887C4.92129 16.3228 5.05583 16.1721 5.08971 16.1721C5.12261 16.3398 5.07216 16.5402 5.25641 16.6581C5.30735 16.7078 5.13918 16.6074 5.08971 16.6747L5.18963 16.7751L5.10579 16.8419C5.42386 17.0259 5.44043 17.4446 5.79188 17.545L5.57423 17.662C5.60811 17.7456 5.69146 17.8463 5.79188 17.8629H6.02658L5.87572 17.9133C6.46164 18.6664 7.04755 19.4363 7.78408 20.1224C7.86768 20.2565 8.15235 20.2733 8.06924 20.4575L9.03976 21.3779H9.30737C9.52477 21.0269 9.67563 20.5745 10.0271 20.3406L10.4287 19.7542C10.6464 18.9677 11.3161 18.3486 11.7678 17.662C11.4166 18.8675 10.7639 19.9221 10.0941 20.993C10.1945 21.1775 9.95982 21.4783 9.82626 21.6964L8.58765 21.7632C7.91814 21.0437 7.28226 20.2565 6.5116 19.6372C6.42824 19.3357 6.07655 19.3191 5.87572 19.1351C5.94274 19.1524 5.99271 19.2187 6.04316 19.1524L5.37389 18.2984C5.25642 18.2482 5.10579 18.2984 5.00538 18.1972C5.08971 17.8629 4.7541 17.6113 4.5033 17.428V17.545C3.18085 15.9713 2.29345 14.0798 0.837804 12.5733C0.804024 12.1716 0.28467 12.1385 0.100438 11.7863C0.0509378 11.8207 0.0338038 11.8538 0.0509377 11.9038H0L1.15579 9.94545C1.43998 10.1292 1.69133 10.4478 2.07595 10.2969Z" fill="#EEB00E"/>
<path d="M1.22375 10.1287L1.10742 10.0953C1.10742 9.99576 1.24028 10.079 1.22375 10.1287Z" fill="#EEB00E"/>
<path d="M3.24843 12.775L3.08148 12.8245C2.98009 12.6575 3.28182 12.6068 3.24843 12.775Z" fill="#EEB00E"/>
<path d="M3.98376 12.6746C3.91649 12.7078 3.83289 12.7914 3.76562 12.7246V12.6746H3.98376Z" fill="#EEB00E"/>
<path d="M12.8745 15.5693C12.7407 15.4521 12.7906 15.2847 12.9749 15.2347H13.0419L12.8745 15.5693Z" fill="#EEB00E"/>
<path d="M12.6236 16.0213L12.4902 16.3225L12.5407 16.0049C12.5736 16.0049 12.5904 16.0381 12.6236 16.0213Z" fill="#EEB00E"/>
<path d="M12.7227 16.3225V16.0717L12.7731 16.1383L12.7227 16.3225Z" fill="#EEB00E"/>
<path d="M12.2701 16.9419H12.1523L12.2191 16.7408C12.303 16.7574 12.253 16.8751 12.2701 16.9419Z" fill="#EEB00E"/>
<path d="M5.44111 16.9419L5.35742 16.875L5.42452 16.9251L5.44111 16.9419Z" fill="#EEB00E"/>
<path d="M9.0402 20.8765C8.83937 20.8097 8.70556 20.5752 8.53739 20.4412C8.50474 20.5421 8.62124 20.6591 8.67169 20.7595C8.48792 20.6257 8.31999 20.3412 8.11965 20.2908C8.06969 19.8723 7.60076 19.6045 7.41602 19.236C8.05189 19.6878 8.43747 20.3744 9.0402 20.8765Z" fill="#EEB00E"/>
<path d="M9.37497 20.8921C9.29113 20.7749 9.07373 20.674 9.09079 20.507C9.19121 20.6406 9.47539 20.7076 9.37497 20.8921Z" fill="#EEB00E"/>
<path d="M9.10572 21.1767C9.07258 21.1933 8.9222 21.1263 8.93877 21.0093L9.10572 21.1767Z" fill="#EEB00E"/>
<path d="M43.733 25.4453C43.9502 25.6301 44.2683 25.5123 44.5361 25.5465C44.4523 25.5301 44.4186 25.563 44.3523 25.5967C44.636 25.7973 45.0721 25.7636 45.3397 25.9981C45.5244 25.9813 45.7413 25.7636 45.8247 26.0312C46.0089 26.1992 46.3107 26.2494 46.5788 26.2996L46.5278 26.1823C46.88 26.3666 47.3148 26.3666 47.6331 26.6342C49.1398 27.2204 50.5958 28.0739 52.2198 28.4921C52.4201 28.8604 52.9895 28.5762 53.2741 28.8268C53.3577 28.76 53.2407 28.6427 53.2568 28.6262H53.3073L53.3577 30.9028C53.0565 30.8862 52.6214 30.8021 52.3872 31.0698C52.3872 31.2374 52.6543 31.0195 52.4872 31.204C51.834 31.0534 51.132 31.1872 50.5122 31.2876C50.5793 31.3208 50.5627 31.4721 50.4623 31.4551C49.6253 31.4217 49.0226 31.9574 48.2692 32.1078C48.135 32.5265 47.7664 32.0744 47.6161 32.459C47.6161 32.4258 47.5832 32.409 47.5661 32.3927C47.4328 32.459 47.2819 32.5099 47.1976 32.6603C47.298 32.9613 47.0806 33.1794 46.8459 33.2625L46.746 33.2796C46.7791 33.2126 46.7791 33.1287 46.8634 33.0622C46.6621 32.9282 46.5117 33.196 46.3107 33.2126C46.2946 33.1794 46.2946 33.1287 46.2436 33.0956L46.026 33.2126C45.9424 33.0622 45.7757 33.196 45.6409 33.196L45.2731 33.3135L45.3063 33.3968C45.1554 33.2796 44.9212 33.3635 44.7365 33.3303C44.8208 33.7317 44.3187 33.3634 44.2181 33.6481L44.1171 33.4468C43.9668 33.615 43.7155 33.5309 43.5822 33.7147L43.6831 33.7983L43.0133 33.6981C42.7452 33.7817 42.5273 34.0161 42.2427 34.033C43.2975 33.0785 44.6029 32.71 45.8091 32.0744C46.8459 31.5891 47.9846 31.3378 49.0055 30.8021C49.2741 30.3337 49.909 30.4341 50.3112 30.1497C50.4623 30.4168 50.6965 30.0656 50.8635 29.9654C50.9139 29.9152 50.9644 29.848 51.0143 29.9152C51.1142 29.7475 51.2985 29.7142 51.4494 29.614C51.2985 29.5801 51.1142 29.614 50.9807 29.4968L50.9139 29.614L50.1276 29.0949C49.96 29.1453 49.7423 29.4129 49.6419 29.2123C49.6083 29.0948 49.491 29.0948 49.3906 29.0612C49.3567 29.078 49.3567 29.1282 49.3906 29.1453L49.4745 29.2123C48.8213 29.1112 48.2188 28.9277 47.6331 28.6764L47.717 28.5925C47.6161 28.2413 47.2646 28.3583 47.0306 28.2413C47.3148 28.2915 47.5992 28.3247 47.8839 28.3415C47.8503 28.1577 48.2188 27.9394 47.8839 27.8397C47.6499 27.7892 47.9012 28.0739 47.6331 27.9898C47.5493 27.8562 47.4328 27.8397 47.298 27.806C47.2646 27.7395 47.4328 27.7729 47.4662 27.6888C47.3984 27.5548 47.1976 27.6386 47.0806 27.6717L47.1142 27.6386C47.0643 27.5216 46.9134 27.4882 46.8125 27.5216L46.746 27.6717C46.6287 27.5216 46.4944 27.3205 46.3107 27.3374C46.3774 27.3035 46.4445 27.3035 46.4779 27.2369C46.4445 27.1702 46.3945 27.1867 46.3446 27.1867C46.3606 27.1702 46.3606 27.1363 46.3606 27.1195C46.026 27.1026 45.7918 26.7685 45.4401 26.8516L45.5405 26.651C45.3896 26.4668 45.2064 26.651 45.0384 26.701L45.1554 26.6006L44.7708 26.3834C43.8503 26.1823 43.0299 25.73 42.0423 25.6634C41.6743 25.3622 41.1383 25.3788 40.6528 25.2786C40.2175 25.4624 40.5522 26.0312 40.4523 26.4334C40.268 26.6842 40.4352 27.0025 40.318 27.2871C40.5356 28.1073 40.2843 29.011 40.2843 29.8814C39.9329 28.7429 39.9329 27.4546 39.9497 26.1487C39.7988 26.0485 39.8498 25.68 39.7988 25.4453L40.8702 24.7093C41.8076 24.9937 42.7282 25.3118 43.733 25.4453Z" fill="#81BC29"/>
<path d="M40.9193 25.5308L40.668 25.4801L40.8854 25.4966L40.9193 25.5308Z" fill="#81BC29"/>
<path d="M42.0267 25.7121C42.2943 26.0804 42.8298 26.0804 43.1312 26.2642C42.3447 26.2142 41.7089 25.7794 40.9219 25.745C41.1227 25.6619 41.3404 25.7794 41.558 25.8128C41.558 25.7285 41.3903 25.6785 41.3065 25.6115L41.9762 25.7794L42.0267 25.7121Z" fill="#81BC29"/>
<path d="M41.0553 26.0301C40.9544 26.0138 40.6029 26.0978 40.6197 25.8634C40.754 25.9297 40.9378 25.8963 41.0553 26.0301Z" fill="#81BC29"/>
<path d="M50.2631 29.5984C50.2466 29.6652 50.1457 29.6484 50.0957 29.6152L50.1956 29.4809C50.2127 29.5146 50.2965 29.5314 50.2631 29.5984Z" fill="#81BC29"/>
<path d="M49.541 30.0493L49.6083 29.9153H49.7087L49.541 30.0493Z" fill="#81BC29"/>
<path d="M40.3526 30.8019C40.3526 30.8353 40.3855 30.886 40.336 30.9026L40.2188 30.7851C40.2361 30.6515 40.403 30.6681 40.3526 30.8019Z" fill="#81BC29"/>
<path d="M53.1738 30.8201L53.3065 30.753V30.8201H53.1738Z" fill="#81BC29"/>
<path d="M40.4868 31.6727C40.4534 31.6893 40.3854 31.7227 40.3359 31.7227C40.4697 31.6388 40.3525 31.505 40.3525 31.4046L40.4868 31.6727Z" fill="#81BC29"/>
<path d="M40.6038 32.3437C40.5868 32.4436 40.5534 32.528 40.4868 32.6113C40.3855 32.528 40.4535 32.3603 40.4364 32.2265C40.4869 32.2601 40.5534 32.2769 40.6038 32.3437Z" fill="#81BC29"/>
<path d="M30.8452 14.9671C30.8952 15.0675 30.9281 15.1848 30.9115 15.302C30.5435 15.0341 30.0246 15.0844 29.707 14.7329L30.8452 14.9671Z" fill="#34B6ED"/>
<path d="M30.2416 15.4195C29.6228 15.5204 29.0534 15.1687 28.4007 15.1524C28.6515 15.3025 29.0371 15.4531 29.3386 15.5872C28.7687 15.4531 28.1665 15.3858 27.5801 15.2857C27.5131 15.3025 27.5477 15.3858 27.5301 15.4531C26.7419 14.7166 25.4641 15.0517 24.4434 14.9676C26.4051 14.3988 28.4007 15.0517 30.2416 15.4195Z" fill="#34B6ED"/>
<path d="M27.6297 15.6868C29.5381 16.2059 31.6302 16.29 33.1035 17.813C33.3548 18.3985 34.1413 18.6831 34.3592 19.3025C36.2671 20.5581 36.7528 22.7175 37.3048 24.7095C35.9488 22.2654 34.2922 19.6039 31.6977 18.0307L31.6806 18.2147C29.4547 16.9927 26.6901 16.1055 23.9894 16.9425V16.892C23.3862 16.8082 22.9838 17.3948 22.4815 17.6115C22.4983 17.5452 22.8666 17.3948 22.6826 17.2605C21.9794 17.4611 21.3433 17.8296 20.6402 17.9802C20.3726 18.1808 20.5563 18.5662 20.2217 18.7334C19.6194 18.3488 19.2344 19.1019 18.7822 19.37L18.5812 19.671L18.9667 19.5706C18.2799 20.0392 17.7445 20.826 17.0913 21.3283L17.1417 21.3953C14.9492 23.923 13.6935 27.7058 15.2334 30.9532C15.1834 30.9359 15.1668 30.9698 15.133 31.003C15.1169 31.924 16.2046 32.3091 16.422 33.1458H16.489C16.5558 32.9452 16.422 32.7948 16.422 32.6101C16.8071 32.8614 16.5558 33.4134 16.7228 33.7656C16.8575 34.1 17.209 34.3671 17.4932 34.5357C17.6606 34.4178 17.4098 34.2845 17.4432 34.2004C17.9114 34.1841 17.5768 34.6522 17.7445 34.8701C18.1961 35.9413 19.15 36.8285 20.054 37.6986L20.1717 37.4141C20.7571 37.6657 21.2595 38.1509 21.8456 38.4353C23.0684 38.5189 24.1574 39.0715 25.4296 38.9206C25.6312 38.8538 25.8159 38.7868 25.967 38.6196C26.2032 38.6866 26.4547 38.9879 26.7065 38.7371C26.8081 38.6698 26.9417 38.536 27.0087 38.6196V38.7371C27.3789 38.6698 27.9149 38.5523 28.0153 38.101C27.9809 37.7656 28.1152 37.4646 28.4337 37.314L29.0026 37.0966C29.0362 37.2472 28.9188 37.431 28.7679 37.5484C28.8517 37.6318 29.0867 37.6155 29.2034 37.5484L29.8898 37.1633C29.9565 37.2472 30.007 37.3308 30.0903 37.4141C30.3077 37.3976 30.442 37.1799 30.5425 37.0127C30.559 37.0298 30.5259 37.2472 30.6772 37.2309C31.1952 37.0966 31.6468 36.7619 32.133 36.5099L31.9653 36.3266C32.4172 36.477 32.8184 36.1758 33.2039 36.0247L33.154 35.6067C33.4886 35.4726 33.9405 35.2386 34.0246 34.8197L34.376 35.138C34.426 34.6357 35.1628 34.4178 35.0789 33.916L34.7443 33.983C35.6478 33.6817 36.4847 32.8114 36.5686 31.807L36.8364 31.1209C36.9363 32.7273 36.3009 34.0332 35.5308 35.2886C33.0536 38.9879 29.2034 40.9801 24.7771 40.7288C23.6543 40.7122 22.4983 40.36 21.3772 40.6623L18.4476 39.3895C18.5146 39.3062 18.5146 39.1217 18.4476 39.0383L18.1961 38.8204L16.9738 38.4353C16.9738 38.1675 16.6397 38.2852 16.489 38.1509C15.7693 37.7156 15.2 36.8955 14.4798 36.4604C14.4798 36.3937 14.6475 36.41 14.6979 36.3266C13.6262 35.3054 13.0238 34.1 12.1702 32.9952H12.2711C12.3377 32.5599 11.9865 32.2089 11.9355 31.8401C12.0869 31.9744 12.2373 32.0578 12.3881 32.2089C12.2202 31.8572 12.3377 31.321 12.2039 30.9196C12.2877 31.0536 12.3377 31.2043 12.4885 31.3047C12.6392 30.6686 11.9192 30.3008 12.0698 29.6474L11.7856 29.6978C11.9865 28.9108 11.8687 27.9735 12.0698 27.187C11.9526 26.8184 11.4001 26.6344 11.4505 26.1489C11.8017 25.9983 11.7856 25.5969 11.8356 25.2788L11.7856 25.2281C11.6348 25.312 11.5841 25.4962 11.5509 25.6466C11.6175 23.7721 12.003 21.931 13.0908 20.4073C13.0408 20.5079 13.0079 20.6585 13.0908 20.759C13.3084 20.6585 13.4764 20.4073 13.7106 20.3571C13.9448 19.9054 14.1961 19.4531 14.5141 19.0178C14.1624 19.671 13.7444 20.4406 13.5763 21.2276C13.9277 21.0773 13.9614 21.7131 14.3128 21.562C14.4298 21.4116 14.7145 21.2954 14.6141 21.0604L14.3967 21.0102C14.4471 20.5416 14.9158 20.3073 15.1169 19.9054C15.1668 20.0058 15.0835 20.2735 15.1834 20.4073C15.4181 20.223 15.5519 19.8718 15.4681 19.5532C15.7023 19.738 15.9536 19.37 16.054 19.1855C16.104 19.1353 16.0703 19.0514 16.0703 18.9846L15.8361 18.8006C16.2882 18.6498 16.8739 18.5662 17.0579 18.0307C17.0579 18.1477 16.9914 18.4319 17.0247 18.5996L17.3094 18.2986C17.2926 18.3488 17.3094 18.4319 17.376 18.4319C17.5436 18.3488 17.6772 18.0975 17.8619 17.9471C18.297 17.6285 18.9492 17.5615 19.1839 16.959L19.3348 17.4448C19.5185 17.3605 19.8198 17.2605 19.9036 16.9927C19.8532 16.7753 19.9704 16.6076 20.1218 16.4906C20.004 16.6076 20.1717 16.758 19.9541 16.8255C20.2721 16.9093 20.5729 16.708 20.8744 16.6076C22.833 15.6368 25.1788 15.5698 27.5293 15.5532L27.6297 15.6868Z" fill="#34B6ED"/>
<path d="M30.8101 16.1062C30.5759 16.006 30.2912 16.006 30.1074 15.7884L30.8101 16.1062Z" fill="#34B6ED"/>
<path d="M17.4121 18.0803C17.4786 17.8968 17.6795 17.6957 17.8642 17.6116L17.4121 18.0803Z" fill="#34B6ED"/>
<path d="M37.8068 26.7513L37.7734 27.0859C37.6391 27.0696 37.6062 26.9024 37.4887 26.8183C37.4387 26.618 37.8399 26.4167 37.8068 26.7513Z" fill="#34B6ED"/>
<path d="M38.0255 29.1109C37.8408 29.0107 37.6738 29.2284 37.5229 29.1109C37.3553 28.9442 37.423 28.6425 37.373 28.4082C37.473 28.6259 37.423 28.9442 37.607 29.145C37.7742 29.0946 37.8408 28.9103 37.8741 28.7765L37.7572 28.1574C37.8408 28.4755 37.975 28.7765 38.0255 29.1109Z" fill="#34B6ED"/>
<path d="M37.9767 30.8023C37.8597 31.0029 37.7425 31.2539 37.5246 31.3884C37.4247 31.0535 37.6589 30.7016 37.6921 30.3507L37.9767 30.8023Z" fill="#34B6ED"/>
<path d="M12.104 30.7346C12.0869 30.7013 12.0369 30.7013 12.0199 30.7346C11.9865 30.819 12.0199 30.9355 12.0031 31.0364L11.9355 30.5845C12.0369 30.5677 12.0199 30.7013 12.104 30.7346Z" fill="#34B6ED"/>
<path d="M11.6851 31.2527L11.5684 30.9519L11.6851 31.1364V31.2527Z" fill="#34B6ED"/>
<path d="M18.0462 40.512C17.9458 40.4286 17.7284 40.4118 17.5273 40.4286L17.6278 40.1271C17.8625 40.1271 18.0126 40.2943 18.0462 40.512Z" fill="#34B6ED"/>
<path d="M20.054 40.9279C19.8198 41.0284 19.4851 41.0284 19.3516 40.7608L20.054 40.9279Z" fill="#34B6ED"/>
<path d="M10.1459 35.2383C10.0955 35.154 10.0455 35.037 10.1123 34.9368L10.3636 35.2046L10.1459 35.2383Z" fill="#A39E1A"/>
<path d="M7.66991 35.9913C6.9168 38.0001 6.03013 39.9416 4.99234 41.8332C4.94189 42.0011 4.89144 42.2182 4.94189 42.4025C4.70718 42.7037 4.55681 43.0218 4.423 43.3733C4.33916 43.3404 4.17221 43.4069 4.15539 43.5412C4.18927 43.9255 4.00453 44.2102 3.93848 44.5285C4.07131 44.4778 4.15539 44.3109 4.32259 44.3109V44.16C4.67331 44.1934 4.94189 44.0601 5.25995 44.0264C5.39351 43.9097 5.27653 43.6911 5.42739 43.5907C5.52781 43.6414 5.695 43.6579 5.79542 43.5907L5.84636 43.5412C5.81199 43.4576 5.72864 43.4905 5.67819 43.4905C6.23095 43.1561 6.78348 42.8378 7.40303 42.6704L7.35233 42.7374C7.65333 42.9879 7.88853 42.6538 8.15589 42.5702C7.95458 42.8378 7.06791 42.9545 7.57047 43.4403C7.637 43.4737 7.77081 43.4905 7.82126 43.4244C7.637 43.0891 8.12275 43.2555 8.25679 43.1054C8.25679 43.189 8.13981 43.2063 8.17271 43.2899C8.29019 43.3404 8.44056 43.1398 8.47395 43.0554C8.52392 43.1561 8.64164 43.0713 8.70866 43.0554C8.79202 42.9879 8.7752 42.8878 8.70866 42.8207C8.89194 42.8714 9.14322 42.9048 9.26094 42.7871C9.22804 42.8378 9.22804 42.9048 9.19416 42.9545C9.36087 43.0713 9.56219 42.8207 9.79641 42.7871C9.98066 42.7871 10.1649 42.7374 10.2475 42.5526C10.2315 42.637 10.2985 42.6872 10.2819 42.7708C10.3489 42.8207 10.4323 42.7374 10.5161 42.6872L10.6336 42.4025C10.6499 42.4527 10.6336 42.5024 10.5832 42.5195H10.8508C11.7387 42.0179 12.7426 41.8332 13.5456 41.1805C14.0148 41.1639 14.4328 40.7788 14.8517 40.5275C15.0355 40.0593 14.3158 39.8412 14.182 39.4227C13.9134 38.8536 13.4289 38.6194 13.0267 38.1341L12.056 36.8619C13.0938 37.4312 13.9307 38.5022 14.7847 39.3893C15.0021 39.3394 15.1698 39.6738 15.3536 39.8246L15.0694 41.0801C14.1991 41.5322 13.2951 41.8836 12.474 42.4527C12.2068 42.4359 12.006 42.754 11.8218 42.9048C11.7886 42.8878 11.9219 42.8378 11.8885 42.7708C11.5539 42.8207 11.2519 43.0891 10.8851 43.1227C10.7503 43.2222 10.8342 43.4403 10.6336 43.4576C10.3324 43.3067 10.0306 43.5907 9.76302 43.725L9.86343 43.7752C9.47834 43.8924 9.17661 44.16 8.75863 44.1934L8.64164 44.2772C7.10105 44.7457 5.54462 45.1639 4.10494 45.8678C3.75373 45.8171 3.45249 46.2356 3.11737 46.3862L3.18439 46.4537C3.20096 46.4364 3.21778 46.4193 3.23436 46.4364C3.25142 46.47 3.20096 46.47 3.18439 46.5034L1.67773 44.8466C1.87813 44.6453 2.2965 44.4108 2.23045 44.0425L2.09616 44.1098C2.12948 43.9757 2.34744 43.9097 2.46467 43.8088C2.84976 43.4737 3.13443 43.0554 3.50245 42.6872L3.38522 42.6036C3.61993 42.2014 4.02134 41.9002 4.10494 41.4483C4.32259 41.0464 4.70719 40.6621 4.65722 40.2095C4.79151 40.1259 4.89144 40.0428 4.85805 39.8412C5.02573 39.9752 5.00892 39.6738 5.0757 39.5902C4.99235 39.306 4.64065 38.9882 4.94189 38.6864C4.99234 38.6362 5.04231 38.7535 5.02573 38.8202C5.00892 38.8536 5.04231 38.8868 5.0757 38.9036C5.29359 38.7871 5.2095 38.3182 5.47736 38.452L5.54463 38.2177L5.59508 38.2509C5.82905 38.1008 5.89583 37.8495 6.06327 37.6489L6.01331 37.6153C6.06327 37.5653 6.56559 37.364 6.34794 37.1295C6.39791 37.0128 6.64894 36.8787 6.61506 36.6608C6.666 36.6945 6.73278 36.7617 6.79981 36.7617C6.79981 36.5607 7.03451 36.4434 7.05109 36.2258H6.88365C7.43569 36.1251 7.61994 35.5226 7.78762 35.0703L7.66991 35.9913Z" fill="#A39E1A"/>
<path d="M11.0643 35.5903L10.8301 35.4558L10.9975 35.506L11.0643 35.5903Z" fill="#A39E1A"/>
<path d="M10.9997 35.7732L10.6816 35.6565L10.7484 35.539C10.7818 35.6394 10.8832 35.7235 10.9997 35.7732Z" fill="#A39E1A"/>
<path d="M11.5022 36.1928C11.4848 36.2264 11.5182 36.2596 11.4848 36.2766L11.334 36.1431C11.3844 36.1596 11.5022 36.0924 11.5022 36.1928Z" fill="#A39E1A"/>
<path d="M14.4639 40.0595C14.3469 40.126 14.2136 40.2596 14.0293 40.2433C14.1967 40.2096 14.3135 39.8747 14.4639 40.0595Z" fill="#A39E1A"/>
<path d="M13.794 40.7622L14.1291 40.7122C13.6767 40.8458 13.6097 41.2311 13.0742 41.1473L12.3711 41.4656C12.8905 41.0135 13.7106 40.8122 14.3462 40.3605C14.2295 40.5614 13.9614 40.6286 13.794 40.7622Z" fill="#A39E1A"/>
<path d="M14.4629 40.4944L14.6805 40.4108L14.5809 40.4944H14.4629Z" fill="#A39E1A"/>
<path d="M5.09 43.0719L5.03906 43.1233L5.07245 42.9054C5.10609 42.9551 5.07245 43.0224 5.09 43.0719Z" fill="#A39E1A"/>
<path d="M4.93899 43.7753C4.90559 43.7753 4.82176 43.809 4.82176 43.7251C4.7713 43.6242 4.90559 43.6415 4.93899 43.6081V43.7753Z" fill="#A39E1A"/>
<path d="M1.79312 44.8792H1.75977L1.8103 44.7962C1.87652 44.7962 1.79312 44.8465 1.79312 44.8792Z" fill="#A39E1A"/>
<path d="M34.9128 39.8569C35.1804 40.8111 35.4149 41.7821 35.7997 42.6863C35.7495 42.9705 36.0347 43.1552 36.1349 43.406C36.1514 43.4231 36.0681 43.289 36.0011 43.3058L36.218 44.3941C36.3184 44.4769 36.4695 44.5111 36.5026 44.6614C36.2684 44.9117 36.5026 45.2812 36.6035 45.5488C36.6708 45.5654 36.6369 45.4811 36.6535 45.4316C36.7203 45.8335 36.905 46.1845 36.8712 46.6363L36.9377 46.687C37.1224 48.3271 37.2392 50.0183 37.7252 51.525C37.6248 51.6588 37.7252 51.8752 37.7751 52.009C37.8924 52.1923 37.976 52.3761 38.0432 52.5598L38.1436 52.4426L38.1597 52.5099C37.5239 52.9096 36.905 53.36 36.2348 53.71C36.1349 53.4268 35.9501 53.0933 35.6155 53.0263C35.5321 53.0763 35.683 53.1438 35.6325 53.1601H35.566C35.3813 52.5598 34.846 52.0928 34.4778 51.5584L34.3269 51.6244C33.9755 51.3234 33.808 50.8545 33.3396 50.7375C33.0045 50.4365 32.7035 50.0343 32.2348 49.9844C32.1843 49.8172 32.0837 49.7329 31.9001 49.7L31.9496 49.649C31.8329 49.5152 31.6155 49.3814 31.4144 49.4986C31.2974 49.649 31.0966 49.6329 30.9623 49.5491L30.7615 49.4153C30.8114 49.3814 30.8785 49.3483 30.9623 49.3643L30.9794 49.3814L31.0127 49.3643C30.9794 49.0802 30.46 49.1472 30.6442 48.8625C30.5943 48.7789 30.4934 48.7955 30.4273 48.7621C30.5604 48.6785 30.3934 48.6117 30.3764 48.5452L29.9416 48.1601L29.8911 48.2101L29.6569 47.7251C29.372 47.9758 29.3557 47.4228 29.1044 47.4067L29.2209 47.2898C29.0205 47.2725 28.9696 46.9217 28.7198 46.9544L28.6859 47.088C28.6859 46.5527 28.167 46.2512 27.748 46.0173C29.088 46.3183 30.3091 47.4067 31.565 48.1601C32.5021 48.729 33.2723 49.7329 34.3101 50.0848L34.4273 50.0514C34.6786 50.369 34.9962 50.5532 35.2974 50.7546C35.1641 51.156 35.733 51.0053 35.8838 51.223L36.3523 51.4402C36.2014 51.3068 36.3023 50.9049 36.0681 50.9717C36.1853 50.6707 36.0681 50.3356 36.0681 50.0183C35.9501 49.9178 35.7495 49.951 35.683 49.7663C35.7829 49.6824 35.7997 49.5491 35.7495 49.4311C35.7495 49.3982 35.6996 49.3982 35.683 49.4311C35.6325 49.4487 35.6659 49.5152 35.6659 49.5491C35.4488 48.9802 35.1975 48.3604 35.1302 47.6912L35.1975 47.7416C35.4488 47.5237 35.2314 47.2561 35.1975 47.0051L35.566 47.7416C35.6659 47.6073 35.9842 47.8255 35.9672 47.5571C35.9672 47.5064 35.9842 47.4399 35.9167 47.4067C35.8497 47.4399 35.7668 47.4735 35.733 47.3561C35.7829 47.2218 35.733 47.0714 35.683 46.9544L35.9002 47.0546C35.9167 46.9376 35.7997 46.7872 35.7169 46.7034C35.8497 46.687 35.7495 46.57 35.7495 46.4862C35.6996 46.3853 35.5987 46.3853 35.5156 46.4528C35.5826 46.2681 35.7169 46.0173 35.5826 45.8837L35.733 45.9836L35.7169 45.8162C35.7169 45.8335 35.733 45.8491 35.7495 45.8491C35.8668 45.7324 35.6659 45.6151 35.683 45.4811C35.6996 45.2473 35.6996 45.029 35.5156 44.8783H35.733C35.8168 44.6782 35.6155 44.5276 35.4488 44.494H35.5826C35.4488 43.5732 35.2314 42.6863 34.9289 41.8159C34.9128 41.6146 34.6452 41.4138 34.7951 41.23C34.6111 40.7611 34.5277 40.1416 34.0922 39.8905C33.6903 40.0918 33.3562 40.4599 32.8872 40.5098C32.4522 40.6612 32.2009 41.0619 31.7995 41.28L30.2087 42.1001C31.0793 41.0792 32.2009 40.5266 33.2219 39.8237L33.1714 39.7738L33.7242 39.3551L34.9128 39.8569Z" fill="#F57C14"/>
<path d="M34.2414 40.345L34.1914 40.1273L34.2575 40.2446L34.2414 40.345Z" fill="#F57C14"/>
<path d="M33.9075 40.7617C33.8902 40.5945 33.6223 40.4271 33.8066 40.276C33.8397 40.4271 33.9404 40.5945 33.9075 40.7617Z" fill="#F57C14"/>
<path d="M34.3589 41.062L34.3757 40.7278C34.4761 40.9457 34.4588 41.2467 34.6769 41.3805C34.509 41.8161 34.7603 42.2007 34.8103 42.6199C34.4257 41.9662 34.4257 41.1127 34.0742 40.4429C34.2575 40.594 34.2575 40.8614 34.3589 41.062Z" fill="#F57C14"/>
<path d="M29.5389 42.5367C29.5727 42.6215 29.4884 42.6712 29.4219 42.7046L29.4389 42.5203C29.4718 42.5203 29.4884 42.5535 29.5389 42.5367Z" fill="#F57C14"/>
<path d="M28.7865 43.2393L28.6855 43.1398C28.8194 43.1561 28.9198 43.0555 28.9873 42.9546C28.9363 43.0555 28.8527 43.1398 28.7865 43.2393Z" fill="#F57C14"/>
<path d="M28.1674 43.7244H28C28.0331 43.5901 28.2008 43.5567 28.3012 43.4731C28.3012 43.5234 28.3512 43.7905 28.1674 43.7244Z" fill="#F57C14"/>
<path d="M35.3254 1.98996L35.4032 1.87103C35.5121 1.9846 35.1541 2.3168 35.1541 2.55638L34.848 3.78402L35.0088 3.81887C35.0351 4.10379 34.896 4.3385 34.8499 4.60464C35.0727 5.25953 34.6552 5.87713 35.0398 6.48108C34.9164 6.62658 34.9508 6.79013 34.9979 6.93417C34.887 6.97463 34.9342 7.11866 34.9547 7.21713C35.0892 7.5308 35.604 7.45622 35.5007 7.9405C35.5041 7.95659 35.5106 7.98949 35.4972 8.00923L35.2964 7.86349C35.2094 8.01874 35.2664 8.21152 35.3049 8.39237C35.2426 8.4221 35.118 8.39773 35.1251 8.51521C35.2984 8.76966 35.0607 8.61465 35.0627 8.87056L35.0227 9.40919L35.1312 9.43795C34.9652 9.54129 34.9408 9.75187 34.8909 9.91638C35.2265 10.0509 34.7729 10.3346 34.9922 10.5618C34.9264 10.5757 34.788 10.4852 34.7785 10.6069C34.9052 10.8026 34.6937 10.9327 34.8204 11.1287L34.9469 11.0843C34.6062 11.4126 34.6091 11.9936 34.7156 12.5016C34.1858 11.3646 34.2101 9.85423 34.0522 8.53617C33.9245 7.28001 34.1453 6.0531 33.8175 4.82229L33.7512 4.75063C33.7775 4.38602 33.7631 3.99557 33.7332 3.60854C33.8112 3.5749 33.903 3.5208 33.9155 3.41624C33.7078 3.08307 33.6917 2.7616 33.6484 2.39455L33.3571 2.79791L33.4361 2.85007C33.1592 2.99387 32.8957 3.28828 32.6688 3.50715C32.7249 3.61512 32.7958 3.78841 32.7344 3.90369C32.6364 3.92489 32.456 3.96291 32.4056 4.12718C32.479 4.2315 32.536 4.09964 32.602 4.086C32.2364 4.62487 31.9004 5.22565 31.4453 5.66387C31.4097 5.65388 31.5072 5.54834 31.4054 5.55273C31.0697 5.50325 31.0346 5.90394 30.8494 6.07991C30.8136 5.83034 31.6286 5.23126 30.9242 5.05505C30.8389 5.05602 30.7809 5.10209 30.7251 5.16497C31.0298 5.39236 30.5638 5.45573 30.5272 5.68605L30.4429 5.44745C30.3654 5.56663 30.304 5.68142 30.351 5.82594C30.2577 5.70847 30.1872 5.86007 30.1287 5.90686C30.0154 6.01605 30.1901 6.11646 30.1967 6.14888C30.0398 6.21688 29.8326 6.20835 29.7565 6.41259C29.7173 6.4723 29.7817 6.28756 29.7056 6.25246L29.6279 6.3714L29.5445 6.30316C29.4304 6.65217 29.0244 6.75478 28.9986 7.11939L28.8387 6.93075C28.7634 6.98071 28.6829 7.08357 28.6873 7.18544L28.7358 7.41479L28.6559 7.27733C28.039 8.00582 27.4058 8.73773 26.8847 9.60003C26.7702 9.7097 26.8126 9.99145 26.6154 9.94709L25.9108 11.087L25.9659 11.3495C26.3568 11.4896 26.8323 11.5442 27.1346 11.8401L27.7914 12.1121C28.6059 12.1628 29.3505 12.6909 30.1143 12.9915C28.8635 12.8959 27.6961 12.4745 26.5075 12.04C26.3473 12.1762 26.0025 12.009 25.7614 11.9227L25.4395 10.7241C26.0078 9.92077 26.6493 9.13622 27.0982 8.25491C27.3763 8.11136 27.3203 7.76356 27.4592 7.5291C27.4563 7.59831 27.4012 7.66071 27.4767 7.69678L28.175 6.86543C28.2004 6.74089 28.1204 6.60318 28.1974 6.48449C28.5421 6.49741 28.7197 6.11817 28.8477 5.83423L28.7329 5.85836C30.0003 4.24052 31.6676 2.98241 32.8431 1.24709C33.2287 1.13156 33.1548 0.616817 33.4609 0.364319C33.4175 0.32191 33.3815 0.312405 33.3357 0.339214L33.3247 0.290225L35.4802 1.01726C35.3578 1.33313 35.0992 1.64436 35.3254 1.98996Z" fill="#FCD205"/>
<path d="M33.1429 3.64771L33.0586 3.49465C33.2019 3.36157 33.3133 3.64649 33.1429 3.64771Z" fill="#FCD205"/>
<path d="M33.3938 4.34766C33.3475 4.28965 33.2476 4.22482 33.3 4.14561L33.3485 4.13513L33.3938 4.34766Z" fill="#FCD205"/>
<path d="M32.3887 13.642C32.4769 13.487 32.6512 13.5011 32.7377 13.671L32.7516 13.7368L32.3887 13.642Z" fill="#FCD205"/>
<path d="M31.8969 13.489L31.5742 13.4205L31.8964 13.4042C31.9025 13.4369 31.8735 13.4598 31.8969 13.489Z" fill="#FCD205"/>
<path d="M31.6211 13.6487L31.8668 13.5973L31.8114 13.6602L31.6211 13.6487Z" fill="#FCD205"/>
<path d="M30.9223 13.3357L30.8984 13.2214L31.1088 13.2458C31.1093 13.3308 30.9842 13.3057 30.9223 13.3357Z" fill="#FCD205"/>
<path d="M29.5156 6.6521L29.564 6.55696L29.5285 6.63249L29.5156 6.6521Z" fill="#FCD205"/>
<path d="M26.4023 10.9839C26.427 10.7733 26.6293 10.5942 26.727 10.4028C26.6207 10.3904 26.5296 10.5296 26.4418 10.5993C26.5354 10.3914 26.7799 10.1691 26.7874 9.96244C27.1884 9.82717 27.3541 9.31291 27.6763 9.05748C27.3651 9.77282 26.7711 10.2907 26.4023 10.9839Z" fill="#FCD205"/>
<path d="M26.457 11.316C26.5555 11.2095 26.6086 10.976 26.7761 10.9582C26.6657 11.0832 26.6586 11.3759 26.457 11.316Z" fill="#FCD205"/>
<path d="M26.1202 11.1118C26.0968 11.0826 26.1314 10.9212 26.2503 10.9134L26.1202 11.1118Z" fill="#FCD205"/>
</svg>
