<svg width="301" height="291" viewBox="0 0 301 291" fill="none" xmlns="http://www.w3.org/2000/svg">
<path d="M214.67 115.362C214.666 115.2 214.666 115.038 214.67 114.875V80.3809C184.179 81.332 155.24 87.1387 121.034 103.193C118.235 104.507 116.058 105.975 113.985 107.372C110.699 109.588 107.676 111.626 102.857 112.589C100.03 113.154 97.7593 112.882 95.4816 112.609C93.2519 112.342 91.0145 112.075 88.24 112.589C81.3225 113.873 77.4938 117.934 73.5174 122.153C70.175 125.699 66.7281 129.356 61.2546 131.566C57.9165 132.914 55.2495 133.501 52.4791 134.111C50.2871 134.593 48.0305 135.089 45.3258 135.988C44.2962 136.33 43.3251 136.681 42.3996 137.038V182.024C64.3522 179.237 85.973 178.198 105.391 180.091C118.402 181.359 128.815 183.587 138.81 186.049H144.635C150.654 186.049 156.018 188.071 160.322 191.404C167.263 193.007 174.699 194.487 183.258 195.634C195.234 197.239 205.144 197.875 214.67 198.295V115.362Z" fill="url(#paint0_linear_1029_5967)"/>
<path d="M257.603 137.969L235.6 130.024V199.166C242.357 199.515 249.511 200.021 257.603 200.928V137.969Z" fill="white"/>
<path d="M257.603 200.927C249.511 200.02 242.357 199.514 235.6 199.165V251.668L257.603 247.404V200.927Z" fill="white"/>
<path d="M235.6 269.072H257.603V247.407L235.6 251.671V269.072Z" fill="white"/>
<path d="M214.67 198.292C205.144 197.872 195.234 197.236 183.258 195.631C174.699 194.484 167.263 193.004 160.322 191.401C167.058 196.616 171.2 205.042 171.2 213.952V265.35C185.485 262.117 197.69 259.013 197.69 259.013L214.67 255.722V198.292Z" fill="#ADDBF6"/>
<path d="M85.8697 213.956C85.8697 199.353 96.9953 186.05 112.434 186.05L138.81 186.049C128.815 183.587 118.402 181.359 105.391 180.091C85.973 178.198 64.3522 179.237 42.3996 182.024V269.072H85.8697V213.956Z" fill="url(#paint1_linear_1029_5967)"/>
<path d="M85.8697 213.956C85.8697 199.353 96.9953 186.05 112.434 186.05L138.81 186.049C128.815 183.587 118.402 181.359 105.391 180.091C85.973 178.198 64.3522 179.237 42.3996 182.024V269.072H85.8697V213.956Z" fill="#ADDBF6"/>
<path d="M171.2 269.069H214.67V255.722L197.69 259.013C197.69 259.013 185.485 262.117 171.2 265.35V269.069Z" fill="#58BBF5"/>
<path d="M64.4031 71.0001L42.3996 79.6661V20.9326H64.4031V71.0001Z" fill="white"/>
<path d="M214.67 34.2871L42.3996 102.159V137.035C43.3251 136.678 44.2962 136.327 45.3258 135.985C48.0305 135.086 50.2871 134.59 52.4791 134.108C55.2495 133.498 57.9165 132.911 61.2546 131.563C66.7281 129.353 70.175 125.696 73.5174 122.15C77.4938 117.931 81.3225 113.87 88.24 112.586C91.0145 112.072 93.2519 112.339 95.4816 112.606C97.7593 112.879 100.03 113.151 102.857 112.586C107.676 111.623 110.699 109.585 113.985 107.369C116.058 105.972 118.235 104.504 121.034 103.19C155.24 87.1359 184.179 81.3292 214.67 80.3781V34.2871Z" fill="white"/>
<path fill-rule="evenodd" clip-rule="evenodd" d="M250.434 20.2057C255.812 18.0888 258.456 12.013 256.339 6.63491C254.222 1.25686 248.147 -1.38688 242.768 0.729989L85.333 62.7546V10.4678C85.333 4.68817 80.6476 0.00279263 74.868 0.00279263H31.9345C26.1548 0.00279263 21.4695 4.68817 21.4695 10.4678V87.9098L6.63289 93.7532C1.25524 95.8712 -1.38719 101.948 0.730788 107.325C2.84877 112.703 8.92519 115.345 14.3028 113.227L21.4695 110.405V146.01L21.7135 145.936C30.2597 143.338 34.7823 139.976 42.3996 137.038L42.3995 102.161L214.67 34.2889L214.67 80.3809C221.542 80.1665 228.492 80.1978 235.6 80.415V26.0447L250.434 20.2057ZM42.3996 79.6661L64.4031 71.0001V20.9326H42.3996V79.6661Z" fill="url(#paint2_linear_1029_5967)"/>
<path d="M278.533 145.527L285.98 148.217C291.417 150.18 297.415 147.364 299.378 141.928C301.341 136.492 298.525 130.494 293.089 128.531L235.6 107.771L235.6 80.415C228.492 80.1978 221.542 80.1653 214.67 80.3797V114.874C214.666 115.037 214.666 115.199 214.67 115.361V198.294C221.633 198.602 228.39 198.793 235.6 199.165V130.024L257.603 137.969V200.927C258.155 200.989 258.711 201.053 259.271 201.119C266.041 201.911 272.432 202.802 278.533 203.773V145.527Z" fill="url(#paint3_linear_1029_5967)"/>
<path d="M235.6 199.168C228.39 198.796 221.633 198.603 214.67 198.295L214.67 255.726L235.6 251.671L235.6 199.168Z" fill="url(#paint4_linear_1029_5967)"/>
<path d="M278.533 203.773C272.432 202.802 266.041 201.911 259.271 201.119C258.711 201.053 258.155 200.989 257.603 200.927V247.404L278.533 243.349L278.533 203.773Z" fill="url(#paint5_linear_1029_5967)"/>
<path d="M42.3994 182.022L42.3996 137.035C34.7823 139.973 30.2597 143.338 21.7135 145.936L21.4695 146.01L21.4694 185.163C28.4397 183.965 35.4362 182.906 42.3994 182.022Z" fill="#1153BE"/>
<path d="M42.3994 182.022L42.3996 137.035C34.7823 139.973 30.2597 143.338 21.7135 145.936L21.4695 146.01L21.4694 185.163C28.4397 183.965 35.4362 182.906 42.3994 182.022Z" fill="url(#paint6_linear_1029_5967)"/>
<path fill-rule="evenodd" clip-rule="evenodd" d="M21.4695 269.068H10.4678C6.44161 269.068 2.94644 271.342 1.19629 274.675C6.41641 274.129 11.9949 274.112 18.3149 274.784C22.7521 275.256 26.0057 276.139 29.3891 277.056C32.0485 277.777 34.7881 278.52 38.2455 279.103C56.45 282.17 71.3459 282.276 85.8696 280.828V269.068H42.3995L42.3994 182.022C35.4362 182.906 28.4397 183.965 21.4694 185.163L21.4695 269.068Z" fill="url(#paint7_linear_1029_5967)"/>
<path fill-rule="evenodd" clip-rule="evenodd" d="M21.4695 269.068H10.4678C6.44161 269.068 2.94644 271.342 1.19629 274.675C6.41641 274.129 11.9949 274.112 18.3149 274.784C22.7521 275.256 26.0057 276.139 29.3891 277.056C32.0485 277.777 34.7881 278.52 38.2455 279.103C56.45 282.17 71.3459 282.276 85.8696 280.828V269.068H42.3995L42.3994 182.022C35.4362 182.906 28.4397 183.965 21.4694 185.163L21.4695 269.068Z" fill="url(#paint8_linear_1029_5967)"/>
<path fill-rule="evenodd" clip-rule="evenodd" d="M10.4677 290.001C4.68809 290.001 0.00274662 285.316 0.00274662 279.536C0.00274662 277.783 0.433987 276.13 1.19622 274.678C6.41634 274.132 11.9948 274.115 18.3148 274.787C22.752 275.259 26.0056 276.142 29.389 277.059C32.0484 277.78 34.788 278.523 38.2454 279.106C56.4499 282.173 71.3459 282.279 85.8696 280.831V290.001H10.4677ZM171.2 290.001H289.535C295.314 290.001 300 285.316 300 279.536C300 273.756 295.314 269.071 289.535 269.071H278.533L278.533 243.349L257.603 247.406V269.071H235.6V251.67L214.67 255.725V269.071H171.2V290.001Z" fill="url(#paint9_linear_1029_5967)"/>
<path fill-rule="evenodd" clip-rule="evenodd" d="M10.4677 290.001C4.68809 290.001 0.00274662 285.316 0.00274662 279.536C0.00274662 277.783 0.433987 276.13 1.19622 274.678C6.41634 274.132 11.9948 274.115 18.3148 274.787C22.752 275.259 26.0056 276.142 29.389 277.059C32.0484 277.78 34.788 278.523 38.2454 279.106C56.4499 282.173 71.3459 282.279 85.8696 280.831V290.001H10.4677ZM171.2 290.001H289.535C295.314 290.001 300 285.316 300 279.536C300 273.756 295.314 269.071 289.535 269.071H278.533L278.533 243.349L257.603 247.406V269.071H235.6V251.67L214.67 255.725V269.071H171.2V290.001Z" fill="url(#paint10_linear_1029_5967)"/>
<path d="M112.434 186.05C96.9953 186.05 85.8697 199.353 85.8697 213.956V269.072L85.8694 280.832C92.824 280.139 99.693 279.089 106.799 277.837V213.956C106.799 209.304 110.1 206.98 112.434 206.98H144.635C146.969 206.98 150.27 209.304 150.27 213.956V269.777C156.976 268.493 164.329 266.908 171.2 265.354V213.956C171.2 205.046 167.058 196.619 160.322 191.404C156.018 188.071 150.654 186.049 144.635 186.049H138.81L112.434 186.05Z" fill="url(#paint11_linear_1029_5967)"/>
<path d="M106.799 290.002V277.837C99.693 279.089 92.824 280.139 85.8694 280.832V290.002H106.799Z" fill="url(#paint12_linear_1029_5967)"/>
<path d="M106.799 290.002V277.837C99.693 279.089 92.824 280.139 85.8694 280.832V290.002H106.799Z" fill="url(#paint13_linear_1029_5967)"/>
<path d="M171.2 269.069L171.2 265.352C164.329 266.906 156.976 268.491 150.27 269.775V290H171.2L171.2 269.069Z" fill="url(#paint14_linear_1029_5967)"/>
<path d="M171.2 269.069L171.2 265.352C164.329 266.906 156.976 268.491 150.27 269.775V290H171.2L171.2 269.069Z" fill="url(#paint15_linear_1029_5967)"/>
<defs>
<linearGradient id="paint0_linear_1029_5967" x1="-73.8371" y1="159.945" x2="448.288" y2="147.052" gradientUnits="userSpaceOnUse">
<stop stop-color="#34A9ED"/>
<stop offset="0.989583" stop-color="#0B7DBF"/>
</linearGradient>
<linearGradient id="paint1_linear_1029_5967" x1="150.001" y1="-0.000424319" x2="150.001" y2="290" gradientUnits="userSpaceOnUse">
<stop stop-color="#0081F8"/>
<stop offset="1" stop-color="#162182"/>
</linearGradient>
<linearGradient id="paint2_linear_1029_5967" x1="123.908" y1="-30.5296" x2="417.308" y2="527.193" gradientUnits="userSpaceOnUse">
<stop stop-color="#1197E4"/>
<stop offset="1" stop-color="#00273D"/>
</linearGradient>
<linearGradient id="paint3_linear_1029_5967" x1="1.40313e-07" y1="125" x2="298.571" y2="119.845" gradientUnits="userSpaceOnUse">
<stop stop-color="#34A9ED"/>
<stop offset="0.989583" stop-color="#0B7DBF"/>
</linearGradient>
<linearGradient id="paint4_linear_1029_5967" x1="-3077" y1="-267.031" x2="1181.4" y2="-688.551" gradientUnits="userSpaceOnUse">
<stop stop-color="#E5F6FF"/>
<stop offset="0.989583" stop-color="#1197E4"/>
</linearGradient>
<linearGradient id="paint5_linear_1029_5967" x1="-3077" y1="-267.031" x2="1181.4" y2="-688.551" gradientUnits="userSpaceOnUse">
<stop stop-color="#E5F6FF"/>
<stop offset="0.989583" stop-color="#1197E4"/>
</linearGradient>
<linearGradient id="paint6_linear_1029_5967" x1="1.40313e-07" y1="125" x2="298.571" y2="119.845" gradientUnits="userSpaceOnUse">
<stop stop-color="#34A9ED"/>
<stop offset="0.989583" stop-color="#0B7DBF"/>
</linearGradient>
<linearGradient id="paint7_linear_1029_5967" x1="527.225" y1="-529.412" x2="527.225" y2="314.05" gradientUnits="userSpaceOnUse">
<stop stop-color="#0081F8"/>
<stop offset="1" stop-color="#162182"/>
</linearGradient>
<linearGradient id="paint8_linear_1029_5967" x1="221" y1="-1.8124e-07" x2="225.472" y2="318.059" gradientUnits="userSpaceOnUse">
<stop stop-color="#1197E4"/>
<stop offset="1" stop-color="#0668A0"/>
</linearGradient>
<linearGradient id="paint9_linear_1029_5967" x1="150.001" y1="-1512.76" x2="150.001" y2="290.002" gradientUnits="userSpaceOnUse">
<stop stop-color="#0081F8"/>
<stop offset="1" stop-color="#162182"/>
</linearGradient>
<linearGradient id="paint10_linear_1029_5967" x1="221" y1="-1.8124e-07" x2="225.472" y2="318.059" gradientUnits="userSpaceOnUse">
<stop stop-color="#1197E4"/>
<stop offset="1" stop-color="#0668A0"/>
</linearGradient>
<linearGradient id="paint11_linear_1029_5967" x1="221" y1="-1.8124e-07" x2="225.472" y2="318.059" gradientUnits="userSpaceOnUse">
<stop stop-color="#1197E4"/>
<stop offset="1" stop-color="#0668A0"/>
</linearGradient>
<linearGradient id="paint12_linear_1029_5967" x1="919.256" y1="-6623.32" x2="919.256" y2="290.002" gradientUnits="userSpaceOnUse">
<stop stop-color="#0081F8"/>
<stop offset="1" stop-color="#162182"/>
</linearGradient>
<linearGradient id="paint13_linear_1029_5967" x1="221" y1="-1.8124e-07" x2="225.472" y2="318.059" gradientUnits="userSpaceOnUse">
<stop stop-color="#1197E4"/>
<stop offset="1" stop-color="#0668A0"/>
</linearGradient>
<linearGradient id="paint14_linear_1029_5967" x1="150.001" y1="-0.000424319" x2="150.001" y2="290" gradientUnits="userSpaceOnUse">
<stop stop-color="#0081F8"/>
<stop offset="1" stop-color="#162182"/>
</linearGradient>
<linearGradient id="paint15_linear_1029_5967" x1="221" y1="-1.8124e-07" x2="225.472" y2="318.059" gradientUnits="userSpaceOnUse">
<stop stop-color="#1197E4"/>
<stop offset="1" stop-color="#0668A0"/>
</linearGradient>
</defs>
</svg>
