<svg width="353" height="291" viewBox="0 0 353 291" fill="none" xmlns="http://www.w3.org/2000/svg">
<path fill-rule="evenodd" clip-rule="evenodd" d="M51.9643 192.175C54.8727 191.553 57.5426 191.163 60.0632 190.793C66.9108 189.791 72.6563 188.95 79.089 184.097C82.0137 181.891 83.4779 179.286 84.9258 176.708C86.4689 173.962 87.9934 171.249 91.2481 169.088C93.1813 167.804 94.8605 167.216 96.5936 166.608C98.0221 166.108 99.4865 165.594 101.161 164.668C103.494 163.379 105.113 162.103 106.753 160.811C108.258 159.625 109.78 158.425 111.89 157.188C113.145 156.45 114.218 155.963 115.26 155.489C116.579 154.89 117.848 154.314 119.371 153.286C121.868 151.599 123.2 149.404 124.491 147.276C126.028 144.744 127.506 142.306 130.823 140.93C132.153 140.379 133.299 140.275 134.44 140.172C135.606 140.067 136.768 139.962 138.12 139.379C140.423 138.386 141.715 137.046 143.119 135.589C144.005 134.67 144.936 133.705 146.194 132.751C173.625 111.939 196.151 109.239 229.868 105.198L232.371 104.897C238.437 104.169 243.137 104.065 247.914 103.96C252.208 103.866 256.563 103.77 262.029 103.217C267.89 102.624 272.663 101.352 277.231 100.135C283.914 98.3553 290.158 96.6911 298.734 97.4373C300.106 97.5572 301.208 97.7929 302.272 98.0207C303.696 98.3253 305.053 98.615 306.899 98.5921L308.936 99.3682L295.034 33.9656C292.969 24.2523 283.421 18.0517 273.708 20.1163L33.344 71.2073C21.619 73.6995 17.0025 80.8082 19.4948 92.5332L41.0186 193.795C44.3809 193.5 47.9388 193.034 51.9643 192.175Z" fill="white"/>
<path d="M328.608 235.163C344.797 231.721 355.132 215.809 351.69 199.619L342.142 154.696L322.024 160.947L322.838 164.772L329.925 198.118C331.99 207.831 325.789 217.38 316.076 219.444L75.7121 270.535C67.8954 272.197 56.8784 268.411 54.3862 256.685L53.5381 252.696L37.5878 264.137L38.0447 266.287C41.4857 282.475 57.399 292.81 73.588 289.369L328.608 235.163Z" fill="#0B7DBF"/>
<path d="M45.5042 214.897L41.0185 193.794L23.2856 196.849L29.0947 224.178L45.5042 214.897Z" fill="#0B7DBF"/>
<path fill-rule="evenodd" clip-rule="evenodd" d="M331.592 105.064L308.936 99.3701L322.025 160.947L342.142 154.696L331.592 105.064Z" fill="#0668A0"/>
<path d="M314.307 23.7431C310.866 7.55412 294.953 -2.78005 278.763 0.661014L23.743 54.8673C7.55418 58.3084 -2.78005 74.2216 0.661012 90.4106L23.2856 196.851L41.0185 193.796L19.4947 92.5347C17.0024 80.8097 21.6189 73.701 33.3439 71.2088L273.708 20.1178C283.421 18.0532 292.969 24.2537 295.034 33.9671L308.936 99.3697L331.592 105.064L314.307 23.7431Z" fill="url(#paint0_linear_1029_5886)"/>
<path fill-rule="evenodd" clip-rule="evenodd" d="M60.0631 190.797C66.9107 189.795 72.6561 188.954 79.0889 184.101C82.0136 181.894 83.4778 179.289 84.9257 176.712C86.4688 173.966 87.9933 171.253 91.248 169.091C93.1812 167.807 94.8604 167.219 96.5935 166.612C98.022 166.111 99.4864 165.598 101.161 164.672C103.494 163.382 105.113 162.107 106.753 160.814C108.258 159.628 109.78 158.429 111.89 157.191C113.145 156.454 114.217 155.966 115.26 155.493C116.579 154.893 117.848 154.317 119.371 153.289C121.868 151.602 123.2 149.407 124.491 147.28C126.028 144.747 127.506 142.309 130.822 140.934C132.153 140.382 133.299 140.278 134.44 140.175C135.606 140.071 136.768 139.966 138.12 139.382C140.423 138.389 141.715 137.05 143.119 135.592C144.005 134.673 144.936 133.708 146.194 132.754C173.625 111.942 196.151 109.242 229.868 105.201L232.37 104.901C238.437 104.172 243.137 104.069 247.914 103.964C252.208 103.87 256.563 103.774 262.028 103.22C267.89 102.627 272.663 101.355 277.231 100.139C283.914 98.3587 290.158 96.6945 298.734 97.4407C300.106 97.5606 301.208 97.7963 302.272 98.024C303.696 98.3287 305.053 98.6184 306.899 98.5954L308.936 99.3716L322.024 160.949L320.47 161.492C317.236 162.632 314.557 164.136 312.115 165.74C308.435 166.041 304.509 166.316 300.091 166.532C287.081 167.167 276.599 166.802 266.388 166.445C253.791 166.006 241.608 165.581 225.607 167.068C218.41 167.738 212.766 168.714 207.195 169.678C201.061 170.739 195.016 171.786 187.081 172.39C179.715 172.95 173.827 172.708 168.042 172.47C161.428 172.199 154.951 171.932 146.56 172.877C110.091 176.982 62.9215 204.18 45.5041 214.901L41.0185 193.798C44.3808 193.504 47.9387 193.037 51.9641 192.178C54.8726 191.557 57.5425 191.166 60.0631 190.797Z" fill="url(#paint1_linear_1029_5886)"/>
<path fill-rule="evenodd" clip-rule="evenodd" d="M251.703 186.513C251.703 186.513 267.838 175.712 279.625 174.884C281.986 174.719 283.836 174.99 285.678 175.261C287.57 175.54 289.455 175.817 291.878 175.617C299.03 175.027 303.528 171.807 308.301 168.39C309.537 167.505 310.792 166.607 312.115 165.738C308.435 166.04 304.509 166.315 300.091 166.53C287.081 167.166 276.599 166.8 266.388 166.444C253.791 166.005 241.609 165.579 225.607 167.067C218.41 167.736 212.766 168.713 207.195 169.677C201.061 170.738 195.016 171.785 187.081 172.388C179.716 172.948 173.827 172.707 168.042 172.469C161.428 172.197 154.951 171.931 146.56 172.876C110.091 176.98 62.9215 204.179 45.5042 214.9L53.538 252.696C57.6053 251.225 61.8932 250.317 67.2915 250.74C69.0821 250.88 70.5232 251.436 71.902 251.969C73.8134 252.707 75.6051 253.399 78.0426 252.872C80.5946 252.321 81.9981 250.93 83.5298 249.414C84.496 248.458 85.5131 247.451 86.9016 246.572C81.0391 247.818 78.535 243.244 78.0157 240.801C76.4581 233.473 81.3435 232.435 83.7863 231.916L142.412 219.454C148.275 218.208 150.778 222.782 151.297 225.225C151.657 226.918 151.532 228.331 151.112 229.497C156.08 227.777 160.974 225.71 166.353 223.439C169.598 222.068 173.023 220.622 176.751 219.13C186.853 215.089 202.086 207.561 202.086 207.561L251.703 186.513ZM81.3323 220.37C75.4697 221.616 72.9656 217.042 72.4464 214.599C70.8888 207.271 75.7742 206.232 78.2169 205.714L166.155 187.022C172.018 185.776 174.521 190.35 175.041 192.792C176.287 198.655 171.713 201.159 169.27 201.678L81.3323 220.37Z" fill="url(#paint2_linear_1029_5886)"/>
<path d="M53.5381 252.695L45.5042 214.899L29.0946 224.18L37.5877 264.137L53.5381 252.695Z" fill="#1197E4"/>
<path d="M279.625 174.886C267.838 175.714 251.703 186.514 251.703 186.514L202.086 207.562C202.086 207.562 186.853 215.09 176.751 219.132C173.023 220.623 169.598 222.07 166.353 223.44C160.974 225.712 156.08 227.778 151.112 229.499C150.08 232.369 147.264 233.743 145.527 234.112L86.9016 246.573C85.5131 247.452 84.496 248.459 83.5298 249.415C81.9981 250.931 80.5946 252.322 78.0426 252.873C75.6051 253.401 73.8134 252.708 71.902 251.97C70.5232 251.438 69.0821 250.881 67.2915 250.742C61.8932 250.318 57.6054 251.226 53.5381 252.697L54.3861 256.687C56.8783 268.412 67.8954 272.198 75.712 270.537L316.076 219.445C325.789 217.382 331.99 207.833 329.925 198.119L322.838 164.774L322.024 160.949L320.47 161.492C317.236 162.632 314.558 164.136 312.115 165.74C310.792 166.609 309.537 167.507 308.301 168.392C303.528 171.808 299.03 175.028 291.878 175.618C289.455 175.819 287.57 175.541 285.678 175.262C283.836 174.992 281.986 174.72 279.625 174.886Z" fill="url(#paint3_linear_1029_5886)"/>
<path d="M72.4465 214.598C72.9657 217.04 75.4698 221.614 81.3324 220.369L169.27 201.677C171.713 201.158 176.287 198.653 175.041 192.791C174.521 190.348 172.018 185.774 166.155 187.021L78.217 205.713C75.7743 206.231 70.8889 207.27 72.4465 214.598Z" fill="white"/>
<path d="M78.0157 240.803C78.5349 243.246 81.039 247.82 86.9016 246.574C87.462 246.219 88.0095 245.869 88.546 245.525C89.144 245.141 89.7286 244.765 90.3017 244.394L90.3213 244.382L90.3308 244.376C98.2567 239.262 104.023 235.541 114.226 234.484C116.491 234.249 118.209 234.345 119.995 234.445C121.4 234.524 122.846 234.605 124.634 234.529C135.168 234.084 143.239 232.224 151.112 229.499C151.532 228.333 151.657 226.92 151.297 225.227C150.778 222.784 148.275 218.21 142.412 219.456L83.7862 231.918C81.3435 232.437 76.4581 233.475 78.0157 240.803Z" fill="white"/>
<path d="M86.9016 246.572L145.527 234.111C147.264 233.742 150.08 232.368 151.112 229.498C143.239 232.223 135.168 234.083 124.634 234.527C122.846 234.603 121.4 234.522 119.995 234.443C118.209 234.343 116.491 234.247 114.226 234.482C104.023 235.539 98.2567 239.26 90.3308 244.374L90.3213 244.38L90.3017 244.392C89.7286 244.763 89.1441 245.14 88.546 245.523C88.0095 245.868 87.462 246.217 86.9016 246.572Z" fill="white"/>
<defs>
<linearGradient id="paint0_linear_1029_5886" x1="102.793" y1="25.0738" x2="226.643" y2="285.368" gradientUnits="userSpaceOnUse">
<stop stop-color="#34A9ED"/>
<stop offset="1" stop-color="#0E2952"/>
<stop offset="1" stop-color="#044E79"/>
</linearGradient>
<linearGradient id="paint1_linear_1029_5886" x1="151.253" y1="27.766" x2="201.098" y2="262.267" gradientUnits="userSpaceOnUse">
<stop stop-color="#1197E4"/>
<stop offset="1" stop-color="#044E79"/>
</linearGradient>
<linearGradient id="paint2_linear_1029_5886" x1="19.4238" y1="178.683" x2="329.433" y2="98.0386" gradientUnits="userSpaceOnUse">
<stop stop-color="#ADDBF6"/>
<stop offset="0.989583" stop-color="#1197E4"/>
</linearGradient>
<linearGradient id="paint3_linear_1029_5886" x1="19.4238" y1="178.685" x2="329.433" y2="98.0398" gradientUnits="userSpaceOnUse">
<stop stop-color="#1197E4"/>
<stop offset="0.989583" stop-color="#0B7DBF"/>
</linearGradient>
</defs>
</svg>
