<svg width="43" height="30" viewBox="0 0 43 30" fill="none" xmlns="http://www.w3.org/2000/svg">
<path fill-rule="evenodd" clip-rule="evenodd" d="M25.545 5.76335C26.291 5.76335 27.0063 5.45975 27.5338 4.91933C28.0612 4.37891 28.3575 3.64594 28.3575 2.88168C28.3575 2.11741 28.0612 1.38444 27.5338 0.844023C27.0063 0.303604 26.291 0 25.545 0C24.7991 0 24.0837 0.303604 23.5563 0.844023C23.0288 1.38444 22.7325 2.11741 22.7325 2.88168C22.7325 3.64594 23.0288 4.37891 23.5563 4.91933C24.0837 5.45975 24.7991 5.76335 25.545 5.76335Z" fill="black"/>
<path fill-rule="evenodd" clip-rule="evenodd" d="M19.4982 9.6236C19.3927 9.61159 19.2814 9.60559 19.17 9.60559C18.3439 9.60559 17.5528 9.94178 16.9728 10.5361L15.6193 11.9229C15.4025 12.1451 15.1446 12.3012 14.8751 12.3912L13.047 11.995C13.0177 11.971 12.9943 11.9469 12.9708 11.9229L12.9767 11.9289C12.2443 11.1785 12.2443 9.95979 12.9767 9.20935L14.3302 7.82255C15.6134 6.50178 17.3595 5.76335 19.1759 5.76335C19.8614 5.76335 20.5411 5.87141 21.1915 6.07553L24.045 6.97606C26.1778 7.64845 27.9064 9.25738 28.7618 11.3646L29.131 12.2651C29.4181 12.9795 30.1036 13.4478 30.8595 13.4478H32.1075C33.1446 13.4478 33.9825 14.3063 33.9825 15.3689C33.9825 16.1254 33.5548 16.7798 32.9396 17.0919L31.0177 17.2901H30.8595C28.5861 17.2901 26.5411 15.8912 25.6622 13.742L25.3634 13.0036L23.5528 17.9504L26.8751 20.0817C27.9357 20.7601 28.4337 22.0808 28.088 23.3176L26.8224 27.8562H22.9259L24.2911 22.9573L19.2403 19.7215C17.7696 18.7789 17.1251 16.9298 17.67 15.2489L19.4982 9.6236Z" fill="black"/>
<path d="M17.7403 27.8562L20.1486 22.5671L18.2501 21.3484C17.7931 21.0542 17.3888 20.706 17.0431 20.3098L13.6036 27.8562H17.7403Z" fill="black"/>
<path d="M39.6325 29.3072C39.0366 29.5294 38.4412 29.6982 37.8463 29.8137C37.2514 29.9292 36.6571 29.9913 36.0632 30L4.26477 29.9775C3.97095 29.9541 3.71722 29.8426 3.50357 29.643C3.28992 29.4435 3.17889 29.1857 3.17046 28.8697C3.18495 28.5452 3.29532 28.2713 3.50155 28.0481C3.70778 27.825 3.96927 27.7208 4.28601 27.7356L24.9038 27.7392L27.8201 27.7287L32.6461 27.724L34.8341 27.7458L36.0375 27.7358C36.5001 27.7228 36.9695 27.6741 37.4456 27.5896C37.9217 27.5052 38.4004 27.3732 38.8818 27.1937C39.2714 27.0484 39.6412 26.8839 39.9912 26.7002C40.3413 26.5164 40.6788 26.2975 41.0038 26.0433C41.2454 25.8468 41.5189 25.7581 41.8242 25.7773C42.1295 25.7964 42.3853 25.9137 42.5917 26.1293C42.8064 26.3684 42.8929 26.6486 42.8513 26.9699C42.8097 27.2912 42.6681 27.5502 42.4265 27.7467C42.0181 28.0585 41.5822 28.3474 41.1186 28.6134C40.655 28.8793 40.1597 29.1106 39.6325 29.3072Z" fill="black"/>
<path d="M15.2231 11.9302C15.0288 12.1674 14.8223 12.3825 14.6036 12.5754C14.3849 12.7684 14.154 12.9391 13.9109 13.0877L0.779911 20.843C0.653186 20.905 0.522519 20.921 0.387913 20.8908C0.253306 20.8606 0.147515 20.7813 0.0705399 20.6529C0.00103714 20.5154 -0.0171048 20.3754 0.0161134 20.2329C0.0493317 20.0905 0.13304 19.9836 0.267238 19.9124L8.77863 14.8794L9.97997 14.163L11.971 12.9826L12.8792 12.4573L13.3736 12.1594C13.5616 12.0411 13.744 11.9064 13.9209 11.7552C14.0977 11.6041 14.2646 11.4327 14.4216 11.2411C14.5486 11.086 14.663 10.9278 14.7647 10.7665C14.8665 10.6052 14.9549 10.4324 15.0299 10.2481C15.084 10.108 15.1762 10.0046 15.3067 9.93796C15.4372 9.87131 15.57 9.85728 15.7054 9.89588C15.8496 9.94213 15.9505 10.0367 16.0081 10.1795C16.0657 10.3222 16.0674 10.4637 16.0134 10.6038C15.9173 10.8323 15.8046 11.058 15.6751 11.2809C15.5456 11.5039 15.3949 11.7203 15.2231 11.9302Z" fill="black"/>
<path d="M33.3482 16.2606C33.3482 16.5703 33.325 16.8711 33.2785 17.1629C33.2319 17.4547 33.1622 17.7376 33.0692 18.0116L29.5027 28.0298H28.3902L30.2617 22.7641L30.7325 21.4241L31.5172 19.2086L31.8834 18.2081L32.0752 17.6542C32.145 17.4398 32.2002 17.2165 32.2409 16.9842C32.2816 16.7519 32.3019 16.5107 32.3019 16.2606C32.3019 16.0581 32.2903 15.8616 32.2671 15.671C32.2438 15.4804 32.2031 15.2898 32.145 15.0993C32.0985 14.9563 32.1043 14.8164 32.1624 14.6794C32.2206 14.5424 32.3136 14.4442 32.4414 14.3846C32.5809 14.325 32.7175 14.331 32.8512 14.4025C32.9849 14.4739 33.075 14.5811 33.1215 14.7241C33.1913 14.9623 33.2465 15.2094 33.2872 15.4655C33.3279 15.7216 33.3482 15.9867 33.3482 16.2606Z" fill="black"/>
</svg>
