<svg width="32" height="36" viewBox="0 0 32 36" fill="none" xmlns="http://www.w3.org/2000/svg">
<path d="M16.4805 26.9925C16.4805 26.443 16.0342 26.0045 15.4918 26C14.9494 26.0045 14.5031 26.443 14.5031 26.9925V29.2846L12.496 28.1363C12.021 27.8633 11.4114 28.0247 11.1355 28.4975C10.8578 28.9748 11.0241 29.5837 11.5013 29.8565L13.4997 30.9996L11.5009 32.1427C11.0236 32.4155 10.8568 33.024 11.1345 33.5013C11.3204 33.8193 11.6571 33.9961 11.9974 33.9961C12.1679 33.9961 12.339 33.9523 12.4938 33.8639L14.5031 32.7146V35.0076C14.5031 35.557 14.9494 35.9955 15.4918 36C16.0342 35.9955 16.4805 35.557 16.4805 35.0076V32.7146L18.4898 33.8639C18.6446 33.9523 18.8157 33.9961 18.9862 33.9961C19.3265 33.9961 19.6632 33.8193 19.8491 33.5013C20.1268 33.024 19.96 32.4155 19.4827 32.1427L17.4839 30.9996L19.4823 29.8565C19.9595 29.5837 20.1258 28.9748 19.8481 28.4975C19.5722 28.0247 18.9626 27.8633 18.4876 28.1363L16.4805 29.2846V26.9925Z" fill="#1C1E20"/>
<path d="M22.5955 27.9497C22.2658 27.9497 22.0027 28.1981 22 28.5C22.0027 28.8019 22.2658 29.0503 22.5955 29.0503H23.9708L23.2818 30.1674C23.118 30.4317 23.2148 30.771 23.4985 30.9246C23.7849 31.0792 24.1502 30.9866 24.3139 30.721L24.9998 29.6087L25.6856 30.7212C25.8493 30.9868 26.2144 31.0797 26.5008 30.9251C26.6916 30.8217 26.7976 30.6343 26.7976 30.4449C26.7976 30.35 26.7714 30.2547 26.7184 30.1686L26.0288 29.0503H27.4045C27.7342 29.0503 27.9973 28.8019 28 28.5C27.9973 28.1981 27.7342 27.9497 27.4045 27.9497H26.0288L26.7184 26.8314C26.7714 26.7453 26.7976 26.65 26.7976 26.5551C26.7976 26.3657 26.6916 26.1783 26.5008 26.0749C26.2144 25.9203 25.8493 26.0132 25.6856 26.2788L24.9998 27.3912L24.3139 26.279C24.1502 26.0134 23.7849 25.9208 23.4985 26.0754C23.2148 26.229 23.118 26.5683 23.2818 26.8326L23.9708 27.9497H22.5955Z" fill="#1C1E20"/>
<path d="M3.59547 26.9497C3.26578 26.9497 3.00268 27.1981 3.00002 27.5C3.00268 27.8019 3.26578 28.0503 3.59547 28.0503H4.97078L4.28177 29.1674C4.118 29.4317 4.21485 29.771 4.49851 29.9246C4.78487 30.0792 5.15024 29.9866 5.31392 29.721L5.99977 28.6087L6.68561 29.7212C6.84929 29.9868 7.21441 30.0797 7.50079 29.9251C7.6916 29.8217 7.79764 29.6343 7.79764 29.4449C7.79764 29.35 7.7714 29.2547 7.71837 29.1686L7.02877 28.0503H8.40453C8.73422 28.0503 8.99732 27.8019 8.99998 27.5C8.99732 27.1981 8.73422 26.9497 8.40453 26.9497H7.02877L7.71837 25.8314C7.7714 25.7453 7.79764 25.65 7.79764 25.5551C7.79764 25.3657 7.6916 25.1783 7.50079 25.0749C7.21441 24.9203 6.84929 25.0132 6.68561 25.2788L5.99977 26.3912L5.31392 25.279C5.15024 25.0134 4.78487 24.9208 4.49851 25.0754C4.21485 25.229 4.118 25.5683 4.28177 25.8326L4.97078 26.9497H3.59547Z" fill="#1C1E20"/>
<path fill-rule="evenodd" clip-rule="evenodd" d="M11.7157 0.21629C14.0533 -0.282891 16.5108 0.0883217 18.5745 1.26422C20.2169 2.20001 21.5179 3.59461 22.2968 5.25766C22.8915 5.22304 23.4909 5.2729 24.0749 5.40775C25.1449 5.65482 26.1322 6.18019 26.9203 6.93707C27.7094 7.69479 28.2682 8.65586 28.5185 9.71724C28.6555 10.2976 28.6961 10.8914 28.6423 11.4774C29.6304 12.0619 30.4659 12.8759 31.0594 13.8625C31.8948 15.2513 32.1899 16.8837 31.8796 18.4697C31.5695 20.0539 30.681 21.4634 29.3977 22.465C28.1168 23.4648 26.518 24.0013 24.8808 24H8.22368C6.07474 24 3.99472 23.2003 2.44576 21.7476C0.893305 20.2917 0 18.2939 0 16.1871C6.82743e-05 14.517 0.562411 12.9008 1.58973 11.5683C2.34693 10.5861 3.32649 9.79637 4.44181 9.24757C4.35473 7.38973 4.88665 5.5459 5.97101 3.98376C7.30996 2.05483 9.3772 0.715673 11.7157 0.21629ZM8.53372 5.76995C9.39861 4.52398 10.7663 3.61736 12.3664 3.27567C12.6873 3.20714 13.0112 3.16273 13.3351 3.1419C14.6275 3.05878 15.9212 3.35082 17.0315 3.98342C18.4175 4.77318 19.3918 6.0197 19.7851 7.43496C19.8979 7.84079 20.1693 8.18386 20.5379 8.38651C20.9065 8.58915 21.3411 8.63424 21.7433 8.51157C22.269 8.3512 22.8351 8.33154 23.3739 8.45595C23.9125 8.58031 24.3911 8.84081 24.7604 9.19548C25.1289 9.54932 25.3731 9.9812 25.4806 10.4368C25.5878 10.8916 25.5581 11.3652 25.3918 11.8087C25.2444 12.2018 25.261 12.6377 25.4377 13.0184C25.6145 13.3992 25.9366 13.6927 26.3316 13.8329C26.8663 14.0228 27.3395 14.3116 27.7284 14.6717L28.3859 15.4774C28.8277 16.212 28.9751 17.0558 28.8162 17.8677C28.657 18.6814 28.1941 19.4394 27.4794 19.9973C26.7627 20.5567 25.844 20.8729 24.8823 20.8719H8.22368C6.83843 20.8719 5.52901 20.3549 4.57893 19.4638C3.63235 18.5761 3.12171 17.3949 3.12169 16.1872C3.12174 15.2269 3.44408 14.2797 4.06011 13.4806C4.67752 12.6798 5.56168 12.066 6.59814 11.7452C7.36753 11.507 7.82983 10.7214 7.66545 9.93152C7.36794 8.50191 7.67176 7.0117 8.53372 5.76995Z" fill="#1E1F21"/>
<path fill-rule="evenodd" clip-rule="evenodd" d="M11.7157 0.21629C14.0533 -0.282891 16.5108 0.0883217 18.5745 1.26422C20.2169 2.20001 21.5179 3.59461 22.2968 5.25766C22.8915 5.22304 23.4909 5.2729 24.0749 5.40775C25.1449 5.65482 26.1322 6.18019 26.9203 6.93707C27.7094 7.69479 28.2682 8.65586 28.5185 9.71724C28.6555 10.2976 28.6961 10.8914 28.6423 11.4774C29.6304 12.0619 30.4659 12.8759 31.0594 13.8625C31.8948 15.2513 32.1899 16.8837 31.8796 18.4697C31.5695 20.0539 30.681 21.4634 29.3977 22.465C28.1168 23.4648 26.518 24.0013 24.8808 24H8.22368C6.07474 24 3.99472 23.2003 2.44576 21.7476C0.893305 20.2917 0 18.2939 0 16.1871C6.82743e-05 14.517 0.562411 12.9008 1.58973 11.5683C2.34693 10.5861 3.32649 9.79637 4.44181 9.24757C4.35473 7.38973 4.88665 5.5459 5.97101 3.98376C7.30996 2.05483 9.3772 0.715673 11.7157 0.21629ZM8.53372 5.76995C9.39861 4.52398 10.7663 3.61736 12.3664 3.27567C12.6873 3.20714 13.0112 3.16273 13.3351 3.1419C14.6275 3.05878 15.9212 3.35082 17.0315 3.98342C18.4175 4.77318 19.3918 6.0197 19.7851 7.43496C19.8979 7.84079 20.1693 8.18386 20.5379 8.38651C20.9065 8.58915 21.3411 8.63424 21.7433 8.51157C22.269 8.3512 22.8351 8.33154 23.3739 8.45595C23.9125 8.58031 24.3911 8.84081 24.7604 9.19548C25.1289 9.54932 25.3731 9.9812 25.4806 10.4368C25.5878 10.8916 25.5581 11.3652 25.3918 11.8087C25.2444 12.2018 25.261 12.6377 25.4377 13.0184C25.6145 13.3992 25.9366 13.6927 26.3316 13.8329C26.8663 14.0228 27.3395 14.3116 27.7284 14.6717L28.3859 15.4774C28.8277 16.212 28.9751 17.0558 28.8162 17.8677C28.657 18.6814 28.1941 19.4394 27.4794 19.9973C26.7627 20.5567 25.844 20.8729 24.8823 20.8719H8.22368C6.83843 20.8719 5.52901 20.3549 4.57893 19.4638C3.63235 18.5761 3.12171 17.3949 3.12169 16.1872C3.12174 15.2269 3.44408 14.2797 4.06011 13.4806C4.67752 12.6798 5.56168 12.066 6.59814 11.7452C7.36753 11.507 7.82983 10.7214 7.66545 9.93152C7.36794 8.50191 7.67176 7.0117 8.53372 5.76995Z" fill="#1A2833"/>
<path fill-rule="evenodd" clip-rule="evenodd" d="M11.7157 0.21629C14.0533 -0.282891 16.5108 0.0883217 18.5745 1.26422C20.2169 2.20001 21.5179 3.59461 22.2968 5.25766C22.8915 5.22304 23.4909 5.2729 24.0749 5.40775C25.1449 5.65482 26.1322 6.18019 26.9203 6.93707C27.7094 7.69479 28.2682 8.65586 28.5185 9.71724C28.6555 10.2976 28.6961 10.8914 28.6423 11.4774C29.6304 12.0619 30.4659 12.8759 31.0594 13.8625C31.8948 15.2513 32.1899 16.8837 31.8796 18.4697C31.5695 20.0539 30.681 21.4634 29.3977 22.465C28.1168 23.4648 26.518 24.0013 24.8808 24H8.22368C6.07474 24 3.99472 23.2003 2.44576 21.7476C0.893305 20.2917 0 18.2939 0 16.1871C6.82743e-05 14.517 0.562411 12.9008 1.58973 11.5683C2.34693 10.5861 3.32649 9.79637 4.44181 9.24757C4.35473 7.38973 4.88665 5.5459 5.97101 3.98376C7.30996 2.05483 9.3772 0.715673 11.7157 0.21629ZM8.53372 5.76995C9.39861 4.52398 10.7663 3.61736 12.3664 3.27567C12.6873 3.20714 13.0112 3.16273 13.3351 3.1419C14.6275 3.05878 15.9212 3.35082 17.0315 3.98342C18.4175 4.77318 19.3918 6.0197 19.7851 7.43496C19.8979 7.84079 20.1693 8.18386 20.5379 8.38651C20.9065 8.58915 21.3411 8.63424 21.7433 8.51157C22.269 8.3512 22.8351 8.33154 23.3739 8.45595C23.9125 8.58031 24.3911 8.84081 24.7604 9.19548C25.1289 9.54932 25.3731 9.9812 25.4806 10.4368C25.5878 10.8916 25.5581 11.3652 25.3918 11.8087C25.2444 12.2018 25.261 12.6377 25.4377 13.0184C25.6145 13.3992 25.9366 13.6927 26.3316 13.8329C26.8663 14.0228 27.3395 14.3116 27.7284 14.6717L28.3859 15.4774C28.8277 16.212 28.9751 17.0558 28.8162 17.8677C28.657 18.6814 28.1941 19.4394 27.4794 19.9973C26.7627 20.5567 25.844 20.8729 24.8823 20.8719H8.22368C6.83843 20.8719 5.52901 20.3549 4.57893 19.4638C3.63235 18.5761 3.12171 17.3949 3.12169 16.1872C3.12174 15.2269 3.44408 14.2797 4.06011 13.4806C4.67752 12.6798 5.56168 12.066 6.59814 11.7452C7.36753 11.507 7.82983 10.7214 7.66545 9.93152C7.36794 8.50191 7.67176 7.0117 8.53372 5.76995Z" fill="#1A2033"/>
<path fill-rule="evenodd" clip-rule="evenodd" d="M11.7157 0.21629C14.0533 -0.282891 16.5108 0.0883217 18.5745 1.26422C20.2169 2.20001 21.5179 3.59461 22.2968 5.25766C22.8915 5.22304 23.4909 5.2729 24.0749 5.40775C25.1449 5.65482 26.1322 6.18019 26.9203 6.93707C27.7094 7.69479 28.2682 8.65586 28.5185 9.71724C28.6555 10.2976 28.6961 10.8914 28.6423 11.4774C29.6304 12.0619 30.4659 12.8759 31.0594 13.8625C31.8948 15.2513 32.1899 16.8837 31.8796 18.4697C31.5695 20.0539 30.681 21.4634 29.3977 22.465C28.1168 23.4648 26.518 24.0013 24.8808 24H8.22368C6.07474 24 3.99472 23.2003 2.44576 21.7476C0.893305 20.2917 0 18.2939 0 16.1871C6.82743e-05 14.517 0.562411 12.9008 1.58973 11.5683C2.34693 10.5861 3.32649 9.79637 4.44181 9.24757C4.35473 7.38973 4.88665 5.5459 5.97101 3.98376C7.30996 2.05483 9.3772 0.715673 11.7157 0.21629ZM8.53372 5.76995C9.39861 4.52398 10.7663 3.61736 12.3664 3.27567C12.6873 3.20714 13.0112 3.16273 13.3351 3.1419C14.6275 3.05878 15.9212 3.35082 17.0315 3.98342C18.4175 4.77318 19.3918 6.0197 19.7851 7.43496C19.8979 7.84079 20.1693 8.18386 20.5379 8.38651C20.9065 8.58915 21.3411 8.63424 21.7433 8.51157C22.269 8.3512 22.8351 8.33154 23.3739 8.45595C23.9125 8.58031 24.3911 8.84081 24.7604 9.19548C25.1289 9.54932 25.3731 9.9812 25.4806 10.4368C25.5878 10.8916 25.5581 11.3652 25.3918 11.8087C25.2444 12.2018 25.261 12.6377 25.4377 13.0184C25.6145 13.3992 25.9366 13.6927 26.3316 13.8329C26.8663 14.0228 27.3395 14.3116 27.7284 14.6717L28.3859 15.4774C28.8277 16.212 28.9751 17.0558 28.8162 17.8677C28.657 18.6814 28.1941 19.4394 27.4794 19.9973C26.7627 20.5567 25.844 20.8729 24.8823 20.8719H8.22368C6.83843 20.8719 5.52901 20.3549 4.57893 19.4638C3.63235 18.5761 3.12171 17.3949 3.12169 16.1872C3.12174 15.2269 3.44408 14.2797 4.06011 13.4806C4.67752 12.6798 5.56168 12.066 6.59814 11.7452C7.36753 11.507 7.82983 10.7214 7.66545 9.93152C7.36794 8.50191 7.67176 7.0117 8.53372 5.76995Z" fill="#1C1E20"/>
</svg>
