<svg width="31" height="30" viewBox="0 0 31 30" fill="none" xmlns="http://www.w3.org/2000/svg">
<g id="Vector (Stroke)">
<path fill-rule="evenodd" clip-rule="evenodd" d="M15.4922 0C16.2453 0 16.8558 0.610521 16.8558 1.36364V3.84298C16.8558 4.59609 16.2453 5.20661 15.4922 5.20661C14.7391 5.20661 14.1286 4.59609 14.1286 3.84298V1.36364C14.1286 0.610521 14.7391 0 15.4922 0ZM4.88332 4.39114C5.41586 3.8586 6.27926 3.8586 6.8118 4.39114L8.57213 6.15147C9.10466 6.684 9.10466 7.54741 8.57213 8.07994C8.03959 8.61247 7.17619 8.61247 6.64365 8.07994L4.88332 6.31961C4.35079 5.78708 4.35079 4.92367 4.88332 4.39114ZM26.1011 4.39114C26.6336 4.92367 26.6336 5.78708 26.1011 6.31961L24.3407 8.07994C23.8082 8.61247 22.9448 8.61247 22.4123 8.07994C21.8797 7.54741 21.8797 6.684 22.4123 6.15147L24.1726 4.39114C24.7051 3.8586 25.5685 3.8586 26.1011 4.39114ZM15.4922 10.1653C12.8221 10.1653 10.6575 12.3299 10.6575 15C10.6575 17.6701 12.8221 19.8347 15.4922 19.8347C18.1623 19.8347 20.3269 17.6701 20.3269 15C20.3269 12.3299 18.1623 10.1653 15.4922 10.1653ZM7.9302 15C7.9302 10.8236 11.3158 7.43802 15.4922 7.43802C19.6686 7.43802 23.0542 10.8236 23.0542 15C23.0542 19.1764 19.6686 22.562 15.4922 22.562C11.3158 22.562 7.9302 19.1764 7.9302 15ZM0.492188 15C0.492188 14.2469 1.10271 13.6364 1.85582 13.6364H4.33516C5.08828 13.6364 5.6988 14.2469 5.6988 15C5.6988 15.7531 5.08828 16.3636 4.33516 16.3636H1.85582C1.10271 16.3636 0.492188 15.7531 0.492188 15ZM25.2856 15C25.2856 14.2469 25.8961 13.6364 26.6492 13.6364H29.1286C29.8817 13.6364 30.4922 14.2469 30.4922 15C30.4922 15.7531 29.8817 16.3636 29.1286 16.3636H26.6492C25.8961 16.3636 25.2856 15.7531 25.2856 15ZM8.57213 21.9201C9.10466 22.4526 9.10466 23.316 8.57213 23.8485L6.8118 25.6089C6.27926 26.1414 5.41586 26.1414 4.88332 25.6089C4.35079 25.0763 4.35079 24.2129 4.88332 23.6804L6.64365 21.9201C7.17619 21.3875 8.03959 21.3875 8.57213 21.9201ZM22.4123 21.9201C22.9448 21.3875 23.8082 21.3875 24.3407 21.9201L26.1011 23.6804C26.6336 24.2129 26.6336 25.0763 26.1011 25.6089C25.5685 26.1414 24.7051 26.1414 24.1726 25.6089L22.4123 23.8485C21.8797 23.316 21.8797 22.4526 22.4123 21.9201ZM15.4922 24.7934C16.2453 24.7934 16.8558 25.4039 16.8558 26.157V28.6364C16.8558 29.3895 16.2453 30 15.4922 30C14.7391 30 14.1286 29.3895 14.1286 28.6364V26.157C14.1286 25.4039 14.7391 24.7934 15.4922 24.7934Z" fill="#1E1F21"/>
<path fill-rule="evenodd" clip-rule="evenodd" d="M15.4922 0C16.2453 0 16.8558 0.610521 16.8558 1.36364V3.84298C16.8558 4.59609 16.2453 5.20661 15.4922 5.20661C14.7391 5.20661 14.1286 4.59609 14.1286 3.84298V1.36364C14.1286 0.610521 14.7391 0 15.4922 0ZM4.88332 4.39114C5.41586 3.8586 6.27926 3.8586 6.8118 4.39114L8.57213 6.15147C9.10466 6.684 9.10466 7.54741 8.57213 8.07994C8.03959 8.61247 7.17619 8.61247 6.64365 8.07994L4.88332 6.31961C4.35079 5.78708 4.35079 4.92367 4.88332 4.39114ZM26.1011 4.39114C26.6336 4.92367 26.6336 5.78708 26.1011 6.31961L24.3407 8.07994C23.8082 8.61247 22.9448 8.61247 22.4123 8.07994C21.8797 7.54741 21.8797 6.684 22.4123 6.15147L24.1726 4.39114C24.7051 3.8586 25.5685 3.8586 26.1011 4.39114ZM15.4922 10.1653C12.8221 10.1653 10.6575 12.3299 10.6575 15C10.6575 17.6701 12.8221 19.8347 15.4922 19.8347C18.1623 19.8347 20.3269 17.6701 20.3269 15C20.3269 12.3299 18.1623 10.1653 15.4922 10.1653ZM7.9302 15C7.9302 10.8236 11.3158 7.43802 15.4922 7.43802C19.6686 7.43802 23.0542 10.8236 23.0542 15C23.0542 19.1764 19.6686 22.562 15.4922 22.562C11.3158 22.562 7.9302 19.1764 7.9302 15ZM0.492188 15C0.492188 14.2469 1.10271 13.6364 1.85582 13.6364H4.33516C5.08828 13.6364 5.6988 14.2469 5.6988 15C5.6988 15.7531 5.08828 16.3636 4.33516 16.3636H1.85582C1.10271 16.3636 0.492188 15.7531 0.492188 15ZM25.2856 15C25.2856 14.2469 25.8961 13.6364 26.6492 13.6364H29.1286C29.8817 13.6364 30.4922 14.2469 30.4922 15C30.4922 15.7531 29.8817 16.3636 29.1286 16.3636H26.6492C25.8961 16.3636 25.2856 15.7531 25.2856 15ZM8.57213 21.9201C9.10466 22.4526 9.10466 23.316 8.57213 23.8485L6.8118 25.6089C6.27926 26.1414 5.41586 26.1414 4.88332 25.6089C4.35079 25.0763 4.35079 24.2129 4.88332 23.6804L6.64365 21.9201C7.17619 21.3875 8.03959 21.3875 8.57213 21.9201ZM22.4123 21.9201C22.9448 21.3875 23.8082 21.3875 24.3407 21.9201L26.1011 23.6804C26.6336 24.2129 26.6336 25.0763 26.1011 25.6089C25.5685 26.1414 24.7051 26.1414 24.1726 25.6089L22.4123 23.8485C21.8797 23.316 21.8797 22.4526 22.4123 21.9201ZM15.4922 24.7934C16.2453 24.7934 16.8558 25.4039 16.8558 26.157V28.6364C16.8558 29.3895 16.2453 30 15.4922 30C14.7391 30 14.1286 29.3895 14.1286 28.6364V26.157C14.1286 25.4039 14.7391 24.7934 15.4922 24.7934Z" fill="#1A2833"/>
<path fill-rule="evenodd" clip-rule="evenodd" d="M15.4922 0C16.2453 0 16.8558 0.610521 16.8558 1.36364V3.84298C16.8558 4.59609 16.2453 5.20661 15.4922 5.20661C14.7391 5.20661 14.1286 4.59609 14.1286 3.84298V1.36364C14.1286 0.610521 14.7391 0 15.4922 0ZM4.88332 4.39114C5.41586 3.8586 6.27926 3.8586 6.8118 4.39114L8.57213 6.15147C9.10466 6.684 9.10466 7.54741 8.57213 8.07994C8.03959 8.61247 7.17619 8.61247 6.64365 8.07994L4.88332 6.31961C4.35079 5.78708 4.35079 4.92367 4.88332 4.39114ZM26.1011 4.39114C26.6336 4.92367 26.6336 5.78708 26.1011 6.31961L24.3407 8.07994C23.8082 8.61247 22.9448 8.61247 22.4123 8.07994C21.8797 7.54741 21.8797 6.684 22.4123 6.15147L24.1726 4.39114C24.7051 3.8586 25.5685 3.8586 26.1011 4.39114ZM15.4922 10.1653C12.8221 10.1653 10.6575 12.3299 10.6575 15C10.6575 17.6701 12.8221 19.8347 15.4922 19.8347C18.1623 19.8347 20.3269 17.6701 20.3269 15C20.3269 12.3299 18.1623 10.1653 15.4922 10.1653ZM7.9302 15C7.9302 10.8236 11.3158 7.43802 15.4922 7.43802C19.6686 7.43802 23.0542 10.8236 23.0542 15C23.0542 19.1764 19.6686 22.562 15.4922 22.562C11.3158 22.562 7.9302 19.1764 7.9302 15ZM0.492188 15C0.492188 14.2469 1.10271 13.6364 1.85582 13.6364H4.33516C5.08828 13.6364 5.6988 14.2469 5.6988 15C5.6988 15.7531 5.08828 16.3636 4.33516 16.3636H1.85582C1.10271 16.3636 0.492188 15.7531 0.492188 15ZM25.2856 15C25.2856 14.2469 25.8961 13.6364 26.6492 13.6364H29.1286C29.8817 13.6364 30.4922 14.2469 30.4922 15C30.4922 15.7531 29.8817 16.3636 29.1286 16.3636H26.6492C25.8961 16.3636 25.2856 15.7531 25.2856 15ZM8.57213 21.9201C9.10466 22.4526 9.10466 23.316 8.57213 23.8485L6.8118 25.6089C6.27926 26.1414 5.41586 26.1414 4.88332 25.6089C4.35079 25.0763 4.35079 24.2129 4.88332 23.6804L6.64365 21.9201C7.17619 21.3875 8.03959 21.3875 8.57213 21.9201ZM22.4123 21.9201C22.9448 21.3875 23.8082 21.3875 24.3407 21.9201L26.1011 23.6804C26.6336 24.2129 26.6336 25.0763 26.1011 25.6089C25.5685 26.1414 24.7051 26.1414 24.1726 25.6089L22.4123 23.8485C21.8797 23.316 21.8797 22.4526 22.4123 21.9201ZM15.4922 24.7934C16.2453 24.7934 16.8558 25.4039 16.8558 26.157V28.6364C16.8558 29.3895 16.2453 30 15.4922 30C14.7391 30 14.1286 29.3895 14.1286 28.6364V26.157C14.1286 25.4039 14.7391 24.7934 15.4922 24.7934Z" fill="#1A2033"/>
</g>
</svg>
