<svg width="43" height="30" viewBox="0 0 43 30" fill="none" xmlns="http://www.w3.org/2000/svg">
<g id="Vector (Stroke)">
<path d="M13.9823 0C14.654 0 15.1985 0.544519 15.1985 1.21622V4.25939C15.1985 4.93109 14.654 5.47561 13.9823 5.47561C13.3106 5.47561 12.766 4.93109 12.766 4.25939V1.21622C12.766 0.544519 13.3106 0 13.9823 0Z" fill="#1E1F21"/>
<path d="M13.9823 0C14.654 0 15.1985 0.544519 15.1985 1.21622V4.25939C15.1985 4.93109 14.654 5.47561 13.9823 5.47561C13.3106 5.47561 12.766 4.93109 12.766 4.25939V1.21622C12.766 0.544519 13.3106 0 13.9823 0Z" fill="#1A2833"/>
<path d="M13.9823 0C14.654 0 15.1985 0.544519 15.1985 1.21622V4.25939C15.1985 4.93109 14.654 5.47561 13.9823 5.47561C13.3106 5.47561 12.766 4.93109 12.766 4.25939V1.21622C12.766 0.544519 13.3106 0 13.9823 0Z" fill="#1A2033"/>
<path d="M4.43973 3.92503C4.91272 3.44811 5.68278 3.44492 6.15971 3.91792L8.32945 6.06978C8.80637 6.54277 8.80956 7.31283 8.33657 7.78975C7.86358 8.26668 7.09352 8.26986 6.61659 7.79687L4.44685 5.64501C3.96993 5.17202 3.96674 4.40196 4.43973 3.92503Z" fill="#1E1F21"/>
<path d="M4.43973 3.92503C4.91272 3.44811 5.68278 3.44492 6.15971 3.91792L8.32945 6.06978C8.80637 6.54277 8.80956 7.31283 8.33657 7.78975C7.86358 8.26668 7.09352 8.26986 6.61659 7.79687L4.44685 5.64501C3.96993 5.17202 3.96674 4.40196 4.43973 3.92503Z" fill="#1A2833"/>
<path d="M4.43973 3.92503C4.91272 3.44811 5.68278 3.44492 6.15971 3.91792L8.32945 6.06978C8.80637 6.54277 8.80956 7.31283 8.33657 7.78975C7.86358 8.26668 7.09352 8.26986 6.61659 7.79687L4.44685 5.64501C3.96993 5.17202 3.96674 4.40196 4.43973 3.92503Z" fill="#1A2033"/>
<path d="M23.5248 3.92503C23.9978 4.40196 23.9946 5.17201 23.5177 5.64501L21.3479 7.79687C20.871 8.26986 20.1009 8.26668 19.6279 7.78975C19.1549 7.31283 19.1581 6.54277 19.6351 6.06978L21.8048 3.91792C22.2817 3.44492 23.0518 3.44811 23.5248 3.92503Z" fill="#1E1F21"/>
<path d="M23.5248 3.92503C23.9978 4.40196 23.9946 5.17201 23.5177 5.64501L21.3479 7.79687C20.871 8.26986 20.1009 8.26668 19.6279 7.78975C19.1549 7.31283 19.1581 6.54277 19.6351 6.06978L21.8048 3.91792C22.2817 3.44492 23.0518 3.44811 23.5248 3.92503Z" fill="#1A2833"/>
<path d="M23.5248 3.92503C23.9978 4.40196 23.9946 5.17201 23.5177 5.64501L21.3479 7.79687C20.871 8.26986 20.1009 8.26668 19.6279 7.78975C19.1549 7.31283 19.1581 6.54277 19.6351 6.06978L21.8048 3.91792C22.2817 3.44492 23.0518 3.44811 23.5248 3.92503Z" fill="#1A2033"/>
<path d="M0.492188 13.3889C0.492188 12.7172 1.03671 12.1727 1.7084 12.1727H4.77687C5.44856 12.1727 5.99308 12.7172 5.99308 13.3889C5.99308 14.0606 5.44856 14.6051 4.77687 14.6051H1.7084C1.03671 14.6051 0.492188 14.0606 0.492188 13.3889Z" fill="#1E1F21"/>
<path d="M0.492188 13.3889C0.492188 12.7172 1.03671 12.1727 1.7084 12.1727H4.77687C5.44856 12.1727 5.99308 12.7172 5.99308 13.3889C5.99308 14.0606 5.44856 14.6051 4.77687 14.6051H1.7084C1.03671 14.6051 0.492188 14.0606 0.492188 13.3889Z" fill="#1A2833"/>
<path d="M0.492188 13.3889C0.492188 12.7172 1.03671 12.1727 1.7084 12.1727H4.77687C5.44856 12.1727 5.99308 12.7172 5.99308 13.3889C5.99308 14.0606 5.44856 14.6051 4.77687 14.6051H1.7084C1.03671 14.6051 0.492188 14.0606 0.492188 13.3889Z" fill="#1A2033"/>
<path d="M8.33657 18.9881C8.80956 19.465 8.80637 20.235 8.32945 20.708L6.15971 22.8599C5.68278 23.3329 4.91272 23.3297 4.43973 22.8528C3.96674 22.3759 3.96993 21.6058 4.44685 21.1328L6.61659 18.9809C7.09352 18.508 7.86358 18.5111 8.33657 18.9881Z" fill="#1E1F21"/>
<path d="M8.33657 18.9881C8.80956 19.465 8.80637 20.235 8.32945 20.708L6.15971 22.8599C5.68278 23.3329 4.91272 23.3297 4.43973 22.8528C3.96674 22.3759 3.96993 21.6058 4.44685 21.1328L6.61659 18.9809C7.09352 18.508 7.86358 18.5111 8.33657 18.9881Z" fill="#1A2833"/>
<path d="M8.33657 18.9881C8.80956 19.465 8.80637 20.235 8.32945 20.708L6.15971 22.8599C5.68278 23.3329 4.91272 23.3297 4.43973 22.8528C3.96674 22.3759 3.96993 21.6058 4.44685 21.1328L6.61659 18.9809C7.09352 18.508 7.86358 18.5111 8.33657 18.9881Z" fill="#1A2033"/>
<path d="M13.9823 21.3022C14.654 21.3022 15.1985 21.8467 15.1985 22.5184V25.5616C15.1985 26.2333 14.654 26.7778 13.9823 26.7778C13.3106 26.7778 12.766 26.2333 12.766 25.5616V22.5184C12.766 21.8467 13.3106 21.3022 13.9823 21.3022Z" fill="#1E1F21"/>
<path d="M13.9823 21.3022C14.654 21.3022 15.1985 21.8467 15.1985 22.5184V25.5616C15.1985 26.2333 14.654 26.7778 13.9823 26.7778C13.3106 26.7778 12.766 26.2333 12.766 25.5616V22.5184C12.766 21.8467 13.3106 21.3022 13.9823 21.3022Z" fill="#1A2833"/>
<path d="M13.9823 21.3022C14.654 21.3022 15.1985 21.8467 15.1985 22.5184V25.5616C15.1985 26.2333 14.654 26.7778 13.9823 26.7778C13.3106 26.7778 12.766 26.2333 12.766 25.5616V22.5184C12.766 21.8467 13.3106 21.3022 13.9823 21.3022Z" fill="#1A2033"/>
<path fill-rule="evenodd" clip-rule="evenodd" d="M26.8216 11.5055C28.6431 11.1173 30.558 11.406 32.166 12.3204C33.4457 13.0481 34.4595 14.1325 35.0664 15.4257C35.5298 15.3988 35.9969 15.4376 36.4519 15.5425C37.2857 15.7346 38.055 16.1431 38.6691 16.7317C39.2839 17.3209 39.7193 18.0682 39.9144 18.8936C40.0211 19.3449 40.0528 19.8066 40.0109 20.2623C40.7808 20.7168 41.4318 21.3498 41.8943 22.117C42.5452 23.1969 42.7752 24.4663 42.5334 25.6996C42.2918 26.9315 41.5994 28.0275 40.5995 28.8064C39.6014 29.5838 38.3556 30.001 37.0799 30L37.0786 30L24.1006 30C22.4262 30 20.8054 29.3782 19.5984 28.2485C18.3888 27.1163 17.6927 25.5628 17.6927 23.9246C17.6928 22.6259 18.1309 21.3691 18.9314 20.3329C19.5214 19.5692 20.2847 18.9551 21.1538 18.5283C21.0859 17.0837 21.5004 15.6499 22.3453 14.4351C23.3886 12.9352 24.9994 11.8938 26.8216 11.5055ZM24.3422 15.8241C25.0161 14.8552 26.0818 14.1502 27.3286 13.8845C27.5787 13.8312 27.8311 13.7967 28.0835 13.7805C29.0905 13.7159 30.0986 13.943 30.9637 14.4349C32.0437 15.049 32.8028 16.0183 33.1093 17.1188C33.1972 17.4344 33.4087 17.7012 33.6959 17.8588C33.9831 18.0163 34.3217 18.0514 34.6351 17.956C35.0448 17.8313 35.4859 17.816 35.9058 17.9128C36.3254 18.0095 36.6983 18.212 36.9861 18.4878C37.2732 18.763 37.4635 19.0988 37.5472 19.4531C37.6308 19.8068 37.6076 20.1751 37.4781 20.5199C37.3633 20.8256 37.3762 21.1646 37.5139 21.4606C37.6516 21.7567 37.9026 21.9849 38.2104 22.094C38.627 22.2416 38.9957 22.4662 39.2987 22.7462L39.8111 23.3727C40.1554 23.9439 40.2702 24.6001 40.1464 25.2315C40.0223 25.8642 39.6617 26.4536 39.1047 26.8874C38.5463 27.3224 37.8304 27.5683 37.0811 27.5676H35.7307H24.1006C23.0212 27.5676 22.0009 27.1655 21.2606 26.4726C20.523 25.7823 20.1251 24.8638 20.1251 23.9246C20.1252 23.1779 20.3763 22.4414 20.8564 21.82C21.3374 21.1972 22.0264 20.72 22.834 20.4705C23.4335 20.2853 23.7937 19.6744 23.6656 19.0602C23.4338 17.9485 23.6706 16.7897 24.3422 15.8241Z" fill="#1E1F21"/>
<path fill-rule="evenodd" clip-rule="evenodd" d="M26.8216 11.5055C28.6431 11.1173 30.558 11.406 32.166 12.3204C33.4457 13.0481 34.4595 14.1325 35.0664 15.4257C35.5298 15.3988 35.9969 15.4376 36.4519 15.5425C37.2857 15.7346 38.055 16.1431 38.6691 16.7317C39.2839 17.3209 39.7193 18.0682 39.9144 18.8936C40.0211 19.3449 40.0528 19.8066 40.0109 20.2623C40.7808 20.7168 41.4318 21.3498 41.8943 22.117C42.5452 23.1969 42.7752 24.4663 42.5334 25.6996C42.2918 26.9315 41.5994 28.0275 40.5995 28.8064C39.6014 29.5838 38.3556 30.001 37.0799 30L37.0786 30L24.1006 30C22.4262 30 20.8054 29.3782 19.5984 28.2485C18.3888 27.1163 17.6927 25.5628 17.6927 23.9246C17.6928 22.6259 18.1309 21.3691 18.9314 20.3329C19.5214 19.5692 20.2847 18.9551 21.1538 18.5283C21.0859 17.0837 21.5004 15.6499 22.3453 14.4351C23.3886 12.9352 24.9994 11.8938 26.8216 11.5055ZM24.3422 15.8241C25.0161 14.8552 26.0818 14.1502 27.3286 13.8845C27.5787 13.8312 27.8311 13.7967 28.0835 13.7805C29.0905 13.7159 30.0986 13.943 30.9637 14.4349C32.0437 15.049 32.8028 16.0183 33.1093 17.1188C33.1972 17.4344 33.4087 17.7012 33.6959 17.8588C33.9831 18.0163 34.3217 18.0514 34.6351 17.956C35.0448 17.8313 35.4859 17.816 35.9058 17.9128C36.3254 18.0095 36.6983 18.212 36.9861 18.4878C37.2732 18.763 37.4635 19.0988 37.5472 19.4531C37.6308 19.8068 37.6076 20.1751 37.4781 20.5199C37.3633 20.8256 37.3762 21.1646 37.5139 21.4606C37.6516 21.7567 37.9026 21.9849 38.2104 22.094C38.627 22.2416 38.9957 22.4662 39.2987 22.7462L39.8111 23.3727C40.1554 23.9439 40.2702 24.6001 40.1464 25.2315C40.0223 25.8642 39.6617 26.4536 39.1047 26.8874C38.5463 27.3224 37.8304 27.5683 37.0811 27.5676H35.7307H24.1006C23.0212 27.5676 22.0009 27.1655 21.2606 26.4726C20.523 25.7823 20.1251 24.8638 20.1251 23.9246C20.1252 23.1779 20.3763 22.4414 20.8564 21.82C21.3374 21.1972 22.0264 20.72 22.834 20.4705C23.4335 20.2853 23.7937 19.6744 23.6656 19.0602C23.4338 17.9485 23.6706 16.7897 24.3422 15.8241Z" fill="#1A2833"/>
<path fill-rule="evenodd" clip-rule="evenodd" d="M26.8216 11.5055C28.6431 11.1173 30.558 11.406 32.166 12.3204C33.4457 13.0481 34.4595 14.1325 35.0664 15.4257C35.5298 15.3988 35.9969 15.4376 36.4519 15.5425C37.2857 15.7346 38.055 16.1431 38.6691 16.7317C39.2839 17.3209 39.7193 18.0682 39.9144 18.8936C40.0211 19.3449 40.0528 19.8066 40.0109 20.2623C40.7808 20.7168 41.4318 21.3498 41.8943 22.117C42.5452 23.1969 42.7752 24.4663 42.5334 25.6996C42.2918 26.9315 41.5994 28.0275 40.5995 28.8064C39.6014 29.5838 38.3556 30.001 37.0799 30L37.0786 30L24.1006 30C22.4262 30 20.8054 29.3782 19.5984 28.2485C18.3888 27.1163 17.6927 25.5628 17.6927 23.9246C17.6928 22.6259 18.1309 21.3691 18.9314 20.3329C19.5214 19.5692 20.2847 18.9551 21.1538 18.5283C21.0859 17.0837 21.5004 15.6499 22.3453 14.4351C23.3886 12.9352 24.9994 11.8938 26.8216 11.5055ZM24.3422 15.8241C25.0161 14.8552 26.0818 14.1502 27.3286 13.8845C27.5787 13.8312 27.8311 13.7967 28.0835 13.7805C29.0905 13.7159 30.0986 13.943 30.9637 14.4349C32.0437 15.049 32.8028 16.0183 33.1093 17.1188C33.1972 17.4344 33.4087 17.7012 33.6959 17.8588C33.9831 18.0163 34.3217 18.0514 34.6351 17.956C35.0448 17.8313 35.4859 17.816 35.9058 17.9128C36.3254 18.0095 36.6983 18.212 36.9861 18.4878C37.2732 18.763 37.4635 19.0988 37.5472 19.4531C37.6308 19.8068 37.6076 20.1751 37.4781 20.5199C37.3633 20.8256 37.3762 21.1646 37.5139 21.4606C37.6516 21.7567 37.9026 21.9849 38.2104 22.094C38.627 22.2416 38.9957 22.4662 39.2987 22.7462L39.8111 23.3727C40.1554 23.9439 40.2702 24.6001 40.1464 25.2315C40.0223 25.8642 39.6617 26.4536 39.1047 26.8874C38.5463 27.3224 37.8304 27.5683 37.0811 27.5676H35.7307H24.1006C23.0212 27.5676 22.0009 27.1655 21.2606 26.4726C20.523 25.7823 20.1251 24.8638 20.1251 23.9246C20.1252 23.1779 20.3763 22.4414 20.8564 21.82C21.3374 21.1972 22.0264 20.72 22.834 20.4705C23.4335 20.2853 23.7937 19.6744 23.6656 19.0602C23.4338 17.9485 23.6706 16.7897 24.3422 15.8241Z" fill="#1A2033"/>
<path fill-rule="evenodd" clip-rule="evenodd" d="M13.9823 7.10074C12.3066 7.10074 10.6975 7.76081 9.50961 8.93895C8.32134 10.1174 7.65193 11.7179 7.65193 13.3889C7.65193 15.0599 8.32134 16.6604 9.50961 17.8389C10.6975 19.017 12.3066 19.6771 13.9823 19.6771C15.6579 19.6771 17.267 19.017 18.4549 17.8389C19.6432 16.6604 20.3126 15.0599 20.3126 13.3889C20.3126 11.7179 19.6432 10.1174 18.4549 8.93895C17.267 7.76081 15.6579 7.10074 13.9823 7.10074ZM13.9823 9.53317C12.9452 9.53317 11.9527 9.94182 11.2225 10.666C10.4926 11.3899 10.0844 12.3696 10.0844 13.3889C10.0844 14.4082 10.4926 15.3879 11.2225 16.1118C11.9527 16.836 12.9452 17.2446 13.9823 17.2446C15.0193 17.2446 16.0118 16.836 16.742 16.1118C17.4719 15.3879 17.8801 14.4082 17.8801 13.3889C17.8801 12.3696 17.4719 11.3899 16.742 10.666C16.0118 9.94182 15.0193 9.53317 13.9823 9.53317Z" fill="#1E1F21"/>
<path fill-rule="evenodd" clip-rule="evenodd" d="M13.9823 7.10074C12.3066 7.10074 10.6975 7.76081 9.50961 8.93895C8.32134 10.1174 7.65193 11.7179 7.65193 13.3889C7.65193 15.0599 8.32134 16.6604 9.50961 17.8389C10.6975 19.017 12.3066 19.6771 13.9823 19.6771C15.6579 19.6771 17.267 19.017 18.4549 17.8389C19.6432 16.6604 20.3126 15.0599 20.3126 13.3889C20.3126 11.7179 19.6432 10.1174 18.4549 8.93895C17.267 7.76081 15.6579 7.10074 13.9823 7.10074ZM13.9823 9.53317C12.9452 9.53317 11.9527 9.94182 11.2225 10.666C10.4926 11.3899 10.0844 12.3696 10.0844 13.3889C10.0844 14.4082 10.4926 15.3879 11.2225 16.1118C11.9527 16.836 12.9452 17.2446 13.9823 17.2446C15.0193 17.2446 16.0118 16.836 16.742 16.1118C17.4719 15.3879 17.8801 14.4082 17.8801 13.3889C17.8801 12.3696 17.4719 11.3899 16.742 10.666C16.0118 9.94182 15.0193 9.53317 13.9823 9.53317Z" fill="#1A2833"/>
<path fill-rule="evenodd" clip-rule="evenodd" d="M13.9823 7.10074C12.3066 7.10074 10.6975 7.76081 9.50961 8.93895C8.32134 10.1174 7.65193 11.7179 7.65193 13.3889C7.65193 15.0599 8.32134 16.6604 9.50961 17.8389C10.6975 19.017 12.3066 19.6771 13.9823 19.6771C15.6579 19.6771 17.267 19.017 18.4549 17.8389C19.6432 16.6604 20.3126 15.0599 20.3126 13.3889C20.3126 11.7179 19.6432 10.1174 18.4549 8.93895C17.267 7.76081 15.6579 7.10074 13.9823 7.10074ZM13.9823 9.53317C12.9452 9.53317 11.9527 9.94182 11.2225 10.666C10.4926 11.3899 10.0844 12.3696 10.0844 13.3889C10.0844 14.4082 10.4926 15.3879 11.2225 16.1118C11.9527 16.836 12.9452 17.2446 13.9823 17.2446C15.0193 17.2446 16.0118 16.836 16.742 16.1118C17.4719 15.3879 17.8801 14.4082 17.8801 13.3889C17.8801 12.3696 17.4719 11.3899 16.742 10.666C16.0118 9.94182 15.0193 9.53317 13.9823 9.53317Z" fill="#1A2033"/>
</g>
</svg>
