<svg width="36" height="30" viewBox="0 0 36 30" fill="none" xmlns="http://www.w3.org/2000/svg">
<path fill-rule="evenodd" clip-rule="evenodd" d="M28 5.30072C28 5.28052 27.9999 5.26034 27.9997 5.2402C27.9686 2.34057 25.7103 0 22.929 0H15.0711C12.3201 0 10.0806 2.28988 10.0021 5.14568C10.0007 5.19718 10 5.24886 10 5.30072V27.4784H6.67014C5.54657 27.4784 4.48452 27.0616 3.71392 26.3434C2.94616 25.6277 2.53198 24.6756 2.53197 23.702C2.53201 22.9279 2.79346 22.1644 3.29311 21.5203C3.79389 20.8747 4.51102 20.38 5.35168 20.1214C5.97572 19.9294 6.35069 19.2962 6.21736 18.6594C5.97605 17.507 6.22248 16.3058 6.92161 15.3048C7.21506 14.8846 7.57987 14.5123 8 14.2012C8.11385 14.1169 8.23177 14.0371 8.35342 13.9621C8.83571 13.5861 8.83571 13.3052 8.83571 13.0243V12.3495C8.83571 11.6748 8.83571 11 8 11.3074C6.73094 11.858 5.63135 12.7362 4.84302 13.8649C3.96351 15.1242 3.53207 16.6105 3.6027 18.108C2.69808 18.5504 1.90357 19.1871 1.28941 19.9788C0.456165 21.053 5.53765e-05 22.3557 0 23.702C0 25.4002 0.72455 27.0107 1.98373 28.1843C3.24007 29.3554 4.92715 30 6.67014 30H30.2054C31.5333 30.001 32.8504 29.356 33.8893 28.5501C34.9302 27.7427 35.6508 26.6065 35.9023 25.3295C36.154 24.051 35.9147 22.7351 35.2371 21.6156C34.7557 20.8203 34.078 20.1642 33.2766 19.693C33.3202 19.2206 33.2873 18.742 33.1762 18.2741C32.9732 17.4185 32.5199 16.6439 31.8799 16.033C31.2407 15.423 30.4399 14.9994 29.572 14.8003C28.9331 14.6958 28.9331 15.3324 28.9331 15.969C28.9331 16.6905 28.9331 17.1396 29.3382 17.359C29.3932 17.38 29.4472 17.4028 29.5 17.4274C29.7356 17.5371 29.9479 17.6816 30.128 17.8535C30.4269 18.1388 30.625 18.4869 30.7122 18.8542C30.7991 19.2208 30.775 19.6026 30.6402 19.9601C30.5206 20.2769 30.5341 20.6283 30.6774 20.9352C30.8208 21.2421 31.082 21.4787 31.4024 21.5918C31.8361 21.7449 32.2199 21.9777 32.5353 22.2679L33.0686 22.9173C33.427 23.5096 33.5465 24.1898 33.4177 24.8442C33.2885 25.5001 32.9131 26.1112 32.3334 26.5608C31.752 27.0118 30.9063 27.4793 30.1263 27.4784H28V5.30072ZM25.6429 5.30072V27.4784H21.2589C21.0559 27.0891 20.6654 26.8256 20.217 26.8256H12.7618C12.6197 26.8256 12.4835 26.852 12.3571 26.9006V24.2056C12.4835 24.2541 12.6197 24.2806 12.7618 24.2806H16.217C16.8745 24.2806 17.4074 23.7141 17.4074 23.0152C17.4074 22.3164 16.8745 21.7499 16.217 21.7499H12.7618C12.6197 21.7499 12.4835 21.7764 12.3571 21.8249V19.13C12.4835 19.1785 12.6197 19.2049 12.7618 19.2049H16.217C16.8745 19.2049 17.4074 18.6384 17.4074 17.9396C17.4074 17.6511 17.3166 17.3852 17.1637 17.1724C16.9462 16.8696 16.6031 16.6743 16.217 16.6743H12.7618C12.6197 16.6743 12.4835 16.7007 12.3571 16.7492V13.8781C12.4835 13.9266 12.6197 13.953 12.7618 13.953H20.3811C21.0385 13.953 21.5714 13.3865 21.5714 12.6877C21.5714 11.9889 21.0385 11.4224 20.3811 11.4224H12.7618C12.6197 11.4224 12.4835 11.4488 12.3571 11.4973V8.97412C12.4835 9.02265 12.6197 9.0491 12.7618 9.0491H16.217C16.8745 9.0491 17.4074 8.48256 17.4074 7.7838C17.4074 7.08496 16.8745 6.51842 16.217 6.51842H12.7618C12.6197 6.51842 12.4835 6.54487 12.3571 6.5934V5.30072C12.3571 3.70498 13.5898 2.44444 15.0711 2.44444H22.929C24.4102 2.44444 25.6429 3.70492 25.6429 5.30072Z" fill="#1C1E20"/>
</svg>
