<svg width="32" height="32" viewBox="0 0 32 32" fill="none" xmlns="http://www.w3.org/2000/svg">
<path fill-rule="evenodd" clip-rule="evenodd" d="M11.7157 0.21629C14.0533 -0.282891 16.5108 0.0883217 18.5745 1.26422C20.2169 2.20001 21.5179 3.59461 22.2968 5.25766C22.8915 5.22304 23.4909 5.2729 24.0749 5.40775C25.1449 5.65482 26.1322 6.18019 26.9203 6.93707C27.7094 7.69479 28.2682 8.65586 28.5185 9.71724C28.6555 10.2976 28.6961 10.8914 28.6423 11.4774C29.6304 12.0619 30.4659 12.8759 31.0594 13.8625C31.8948 15.2513 32.1899 16.8837 31.8796 18.4697C31.5695 20.0539 30.681 21.4634 29.3977 22.465C28.1168 23.4648 26.518 24.0013 24.8808 24H8.22368C6.07474 24 3.99472 23.2003 2.44576 21.7476C0.893305 20.2917 0 18.2939 0 16.1871C6.82743e-05 14.517 0.562411 12.9008 1.58973 11.5683C2.34693 10.5861 3.32649 9.79637 4.44181 9.24757C4.35473 7.38973 4.88665 5.5459 5.97101 3.98376C7.30996 2.05483 9.3772 0.715673 11.7157 0.21629ZM8.53372 5.76995C9.39861 4.52398 10.7663 3.61736 12.3664 3.27567C12.6873 3.20714 13.0112 3.16273 13.3351 3.1419C14.6275 3.05878 15.9212 3.35082 17.0315 3.98342C18.4175 4.77318 19.3918 6.0197 19.7851 7.43496C19.8979 7.84079 20.1693 8.18386 20.5379 8.38651C20.9065 8.58915 21.3411 8.63424 21.7433 8.51157C22.269 8.3512 22.8351 8.33154 23.3739 8.45595C23.9125 8.58031 24.3911 8.84081 24.7604 9.19548C25.1289 9.54932 25.3731 9.9812 25.4806 10.4368C25.5878 10.8916 25.5581 11.3652 25.3918 11.8087C25.2444 12.2018 25.261 12.6377 25.4377 13.0184C25.6145 13.3992 25.9366 13.6927 26.3316 13.8329C26.8663 14.0228 27.3395 14.3116 27.7284 14.6717L28.3859 15.4774C28.8277 16.212 28.9751 17.0558 28.8162 17.8677C28.657 18.6814 28.1941 19.4394 27.4794 19.9973C26.7627 20.5567 25.844 20.8729 24.8823 20.8719H8.22368C6.83843 20.8719 5.52901 20.3549 4.57893 19.4638C3.63235 18.5761 3.12171 17.3949 3.12169 16.1872C3.12174 15.2269 3.44408 14.2797 4.06011 13.4806C4.67752 12.6798 5.56168 12.066 6.59814 11.7452C7.36753 11.507 7.82983 10.7214 7.66545 9.93152C7.36794 8.50191 7.67176 7.0117 8.53372 5.76995Z" fill="#1E1F21"/>
<path fill-rule="evenodd" clip-rule="evenodd" d="M11.7157 0.21629C14.0533 -0.282891 16.5108 0.0883217 18.5745 1.26422C20.2169 2.20001 21.5179 3.59461 22.2968 5.25766C22.8915 5.22304 23.4909 5.2729 24.0749 5.40775C25.1449 5.65482 26.1322 6.18019 26.9203 6.93707C27.7094 7.69479 28.2682 8.65586 28.5185 9.71724C28.6555 10.2976 28.6961 10.8914 28.6423 11.4774C29.6304 12.0619 30.4659 12.8759 31.0594 13.8625C31.8948 15.2513 32.1899 16.8837 31.8796 18.4697C31.5695 20.0539 30.681 21.4634 29.3977 22.465C28.1168 23.4648 26.518 24.0013 24.8808 24H8.22368C6.07474 24 3.99472 23.2003 2.44576 21.7476C0.893305 20.2917 0 18.2939 0 16.1871C6.82743e-05 14.517 0.562411 12.9008 1.58973 11.5683C2.34693 10.5861 3.32649 9.79637 4.44181 9.24757C4.35473 7.38973 4.88665 5.5459 5.97101 3.98376C7.30996 2.05483 9.3772 0.715673 11.7157 0.21629ZM8.53372 5.76995C9.39861 4.52398 10.7663 3.61736 12.3664 3.27567C12.6873 3.20714 13.0112 3.16273 13.3351 3.1419C14.6275 3.05878 15.9212 3.35082 17.0315 3.98342C18.4175 4.77318 19.3918 6.0197 19.7851 7.43496C19.8979 7.84079 20.1693 8.18386 20.5379 8.38651C20.9065 8.58915 21.3411 8.63424 21.7433 8.51157C22.269 8.3512 22.8351 8.33154 23.3739 8.45595C23.9125 8.58031 24.3911 8.84081 24.7604 9.19548C25.1289 9.54932 25.3731 9.9812 25.4806 10.4368C25.5878 10.8916 25.5581 11.3652 25.3918 11.8087C25.2444 12.2018 25.261 12.6377 25.4377 13.0184C25.6145 13.3992 25.9366 13.6927 26.3316 13.8329C26.8663 14.0228 27.3395 14.3116 27.7284 14.6717L28.3859 15.4774C28.8277 16.212 28.9751 17.0558 28.8162 17.8677C28.657 18.6814 28.1941 19.4394 27.4794 19.9973C26.7627 20.5567 25.844 20.8729 24.8823 20.8719H8.22368C6.83843 20.8719 5.52901 20.3549 4.57893 19.4638C3.63235 18.5761 3.12171 17.3949 3.12169 16.1872C3.12174 15.2269 3.44408 14.2797 4.06011 13.4806C4.67752 12.6798 5.56168 12.066 6.59814 11.7452C7.36753 11.507 7.82983 10.7214 7.66545 9.93152C7.36794 8.50191 7.67176 7.0117 8.53372 5.76995Z" fill="#1A2833"/>
<path fill-rule="evenodd" clip-rule="evenodd" d="M11.7157 0.21629C14.0533 -0.282891 16.5108 0.0883217 18.5745 1.26422C20.2169 2.20001 21.5179 3.59461 22.2968 5.25766C22.8915 5.22304 23.4909 5.2729 24.0749 5.40775C25.1449 5.65482 26.1322 6.18019 26.9203 6.93707C27.7094 7.69479 28.2682 8.65586 28.5185 9.71724C28.6555 10.2976 28.6961 10.8914 28.6423 11.4774C29.6304 12.0619 30.4659 12.8759 31.0594 13.8625C31.8948 15.2513 32.1899 16.8837 31.8796 18.4697C31.5695 20.0539 30.681 21.4634 29.3977 22.465C28.1168 23.4648 26.518 24.0013 24.8808 24H8.22368C6.07474 24 3.99472 23.2003 2.44576 21.7476C0.893305 20.2917 0 18.2939 0 16.1871C6.82743e-05 14.517 0.562411 12.9008 1.58973 11.5683C2.34693 10.5861 3.32649 9.79637 4.44181 9.24757C4.35473 7.38973 4.88665 5.5459 5.97101 3.98376C7.30996 2.05483 9.3772 0.715673 11.7157 0.21629ZM8.53372 5.76995C9.39861 4.52398 10.7663 3.61736 12.3664 3.27567C12.6873 3.20714 13.0112 3.16273 13.3351 3.1419C14.6275 3.05878 15.9212 3.35082 17.0315 3.98342C18.4175 4.77318 19.3918 6.0197 19.7851 7.43496C19.8979 7.84079 20.1693 8.18386 20.5379 8.38651C20.9065 8.58915 21.3411 8.63424 21.7433 8.51157C22.269 8.3512 22.8351 8.33154 23.3739 8.45595C23.9125 8.58031 24.3911 8.84081 24.7604 9.19548C25.1289 9.54932 25.3731 9.9812 25.4806 10.4368C25.5878 10.8916 25.5581 11.3652 25.3918 11.8087C25.2444 12.2018 25.261 12.6377 25.4377 13.0184C25.6145 13.3992 25.9366 13.6927 26.3316 13.8329C26.8663 14.0228 27.3395 14.3116 27.7284 14.6717L28.3859 15.4774C28.8277 16.212 28.9751 17.0558 28.8162 17.8677C28.657 18.6814 28.1941 19.4394 27.4794 19.9973C26.7627 20.5567 25.844 20.8729 24.8823 20.8719H8.22368C6.83843 20.8719 5.52901 20.3549 4.57893 19.4638C3.63235 18.5761 3.12171 17.3949 3.12169 16.1872C3.12174 15.2269 3.44408 14.2797 4.06011 13.4806C4.67752 12.6798 5.56168 12.066 6.59814 11.7452C7.36753 11.507 7.82983 10.7214 7.66545 9.93152C7.36794 8.50191 7.67176 7.0117 8.53372 5.76995Z" fill="#1A2033"/>
<path fill-rule="evenodd" clip-rule="evenodd" d="M11.7157 0.21629C14.0533 -0.282891 16.5108 0.0883217 18.5745 1.26422C20.2169 2.20001 21.5179 3.59461 22.2968 5.25766C22.8915 5.22304 23.4909 5.2729 24.0749 5.40775C25.1449 5.65482 26.1322 6.18019 26.9203 6.93707C27.7094 7.69479 28.2682 8.65586 28.5185 9.71724C28.6555 10.2976 28.6961 10.8914 28.6423 11.4774C29.6304 12.0619 30.4659 12.8759 31.0594 13.8625C31.8948 15.2513 32.1899 16.8837 31.8796 18.4697C31.5695 20.0539 30.681 21.4634 29.3977 22.465C28.1168 23.4648 26.518 24.0013 24.8808 24H8.22368C6.07474 24 3.99472 23.2003 2.44576 21.7476C0.893305 20.2917 0 18.2939 0 16.1871C6.82743e-05 14.517 0.562411 12.9008 1.58973 11.5683C2.34693 10.5861 3.32649 9.79637 4.44181 9.24757C4.35473 7.38973 4.88665 5.5459 5.97101 3.98376C7.30996 2.05483 9.3772 0.715673 11.7157 0.21629ZM8.53372 5.76995C9.39861 4.52398 10.7663 3.61736 12.3664 3.27567C12.6873 3.20714 13.0112 3.16273 13.3351 3.1419C14.6275 3.05878 15.9212 3.35082 17.0315 3.98342C18.4175 4.77318 19.3918 6.0197 19.7851 7.43496C19.8979 7.84079 20.1693 8.18386 20.5379 8.38651C20.9065 8.58915 21.3411 8.63424 21.7433 8.51157C22.269 8.3512 22.8351 8.33154 23.3739 8.45595C23.9125 8.58031 24.3911 8.84081 24.7604 9.19548C25.1289 9.54932 25.3731 9.9812 25.4806 10.4368C25.5878 10.8916 25.5581 11.3652 25.3918 11.8087C25.2444 12.2018 25.261 12.6377 25.4377 13.0184C25.6145 13.3992 25.9366 13.6927 26.3316 13.8329C26.8663 14.0228 27.3395 14.3116 27.7284 14.6717L28.3859 15.4774C28.8277 16.212 28.9751 17.0558 28.8162 17.8677C28.657 18.6814 28.1941 19.4394 27.4794 19.9973C26.7627 20.5567 25.844 20.8729 24.8823 20.8719H8.22368C6.83843 20.8719 5.52901 20.3549 4.57893 19.4638C3.63235 18.5761 3.12171 17.3949 3.12169 16.1872C3.12174 15.2269 3.44408 14.2797 4.06011 13.4806C4.67752 12.6798 5.56168 12.066 6.59814 11.7452C7.36753 11.507 7.82983 10.7214 7.66545 9.93152C7.36794 8.50191 7.67176 7.0117 8.53372 5.76995Z" fill="#1C1E20"/>
<path fill-rule="evenodd" clip-rule="evenodd" d="M17.5336 30.1167C17.0283 31.2516 15.8622 31.5808 14.812 31.1132C13.7618 30.6456 13.2262 29.5588 13.7314 28.4239C14.2367 27.2891 17.1569 25.8464 17.1569 25.8464C17.1569 25.8464 18.0388 28.9819 17.5336 30.1167Z" fill="#1C1E20"/>
<path fill-rule="evenodd" clip-rule="evenodd" d="M10.6234 30.1167C10.1181 31.2516 8.95205 31.5808 7.90185 31.1132C6.85165 30.6456 6.31601 29.5588 6.82127 28.4239C7.32653 27.2891 10.2468 25.8464 10.2468 25.8464C10.2468 25.8464 11.1287 28.9819 10.6234 30.1167Z" fill="#1C1E20"/>
<path fill-rule="evenodd" clip-rule="evenodd" d="M24.475 30.1167C23.9697 31.2516 22.8036 31.5808 21.7534 31.1132C20.7032 30.6456 20.1676 29.5588 20.6728 28.4239C21.1781 27.2891 24.0983 25.8464 24.0983 25.8464C24.0983 25.8464 24.9802 28.9819 24.475 30.1167Z" fill="#1C1E20"/>
</svg>
