<svg width="42" height="31" viewBox="0 0 42 31" fill="none" xmlns="http://www.w3.org/2000/svg">
<g id="Vector">
<path fill-rule="evenodd" clip-rule="evenodd" d="M11.7157 6.21826C14.0533 5.71907 16.5108 6.09029 18.5745 7.26618C20.2169 8.20198 21.5179 9.59657 22.2968 11.2596C22.8915 11.225 23.4909 11.2749 24.0749 11.4097C25.1449 11.6568 26.1322 12.1822 26.9203 12.939C27.7094 13.6968 28.2682 14.6578 28.5185 15.7192C28.6555 16.2996 28.6961 16.8934 28.6423 17.4794C29.6304 18.0639 30.4659 18.8778 31.0594 19.8645C31.8948 21.2532 32.1899 22.8857 31.8796 24.4717C31.5695 26.0559 30.681 27.4654 29.3977 28.467C28.1168 29.4668 26.518 30.0033 24.8808 30.002H8.22368C6.07474 30.002 3.99472 29.2023 2.44576 27.7496C0.893305 26.2936 0 24.2958 0 22.1891C6.82743e-05 20.5189 0.562411 18.9028 1.58973 17.5702C2.34693 16.5881 3.32649 15.7983 4.44181 15.2495C4.35473 13.3917 4.88665 11.5479 5.97101 9.98573C7.30996 8.0568 9.3772 6.71764 11.7157 6.21826ZM8.53372 11.7719C9.39861 10.5259 10.7663 9.61933 12.3664 9.27764C12.6873 9.20911 13.0112 9.1647 13.3351 9.14387C14.6275 9.06075 15.9212 9.35278 17.0315 9.98538C18.4175 10.7751 19.3918 12.0217 19.7851 13.4369C19.8979 13.8428 20.1693 14.1858 20.5379 14.3885C20.9065 14.5911 21.3411 14.6362 21.7433 14.5135C22.269 14.3532 22.8351 14.3335 23.3739 14.4579C23.9125 14.5823 24.3911 14.8428 24.7604 15.1974C25.1289 15.5513 25.3731 15.9832 25.4806 16.4388C25.5878 16.8936 25.5581 17.3672 25.3918 17.8107C25.2444 18.2037 25.261 18.6397 25.4377 19.0204C25.6145 19.4011 25.9366 19.6946 26.3316 19.8349C26.8663 20.0248 27.3395 20.3136 27.7284 20.6737L28.3859 21.4793C28.8277 22.214 28.9751 23.0578 28.8162 23.8697C28.657 24.6834 28.1941 25.4414 27.4794 25.9992C26.7626 26.5587 25.844 26.8749 24.8823 26.8739H8.22368C6.83843 26.8739 5.52901 26.3568 4.57893 25.4658C3.63235 24.578 3.12171 23.3969 3.12169 22.1891C3.12174 21.2288 3.44408 20.2816 4.06011 19.4826C4.67752 18.6817 5.56168 18.068 6.59814 17.7471C7.36753 17.509 7.82983 16.7234 7.66545 15.9335C7.36794 14.5039 7.67176 13.0137 8.53372 11.7719Z" fill="#1E1F21"/>
<path fill-rule="evenodd" clip-rule="evenodd" d="M11.7157 6.21826C14.0533 5.71907 16.5108 6.09029 18.5745 7.26618C20.2169 8.20198 21.5179 9.59657 22.2968 11.2596C22.8915 11.225 23.4909 11.2749 24.0749 11.4097C25.1449 11.6568 26.1322 12.1822 26.9203 12.939C27.7094 13.6968 28.2682 14.6578 28.5185 15.7192C28.6555 16.2996 28.6961 16.8934 28.6423 17.4794C29.6304 18.0639 30.4659 18.8778 31.0594 19.8645C31.8948 21.2532 32.1899 22.8857 31.8796 24.4717C31.5695 26.0559 30.681 27.4654 29.3977 28.467C28.1168 29.4668 26.518 30.0033 24.8808 30.002H8.22368C6.07474 30.002 3.99472 29.2023 2.44576 27.7496C0.893305 26.2936 0 24.2958 0 22.1891C6.82743e-05 20.5189 0.562411 18.9028 1.58973 17.5702C2.34693 16.5881 3.32649 15.7983 4.44181 15.2495C4.35473 13.3917 4.88665 11.5479 5.97101 9.98573C7.30996 8.0568 9.3772 6.71764 11.7157 6.21826ZM8.53372 11.7719C9.39861 10.5259 10.7663 9.61933 12.3664 9.27764C12.6873 9.20911 13.0112 9.1647 13.3351 9.14387C14.6275 9.06075 15.9212 9.35278 17.0315 9.98538C18.4175 10.7751 19.3918 12.0217 19.7851 13.4369C19.8979 13.8428 20.1693 14.1858 20.5379 14.3885C20.9065 14.5911 21.3411 14.6362 21.7433 14.5135C22.269 14.3532 22.8351 14.3335 23.3739 14.4579C23.9125 14.5823 24.3911 14.8428 24.7604 15.1974C25.1289 15.5513 25.3731 15.9832 25.4806 16.4388C25.5878 16.8936 25.5581 17.3672 25.3918 17.8107C25.2444 18.2037 25.261 18.6397 25.4377 19.0204C25.6145 19.4011 25.9366 19.6946 26.3316 19.8349C26.8663 20.0248 27.3395 20.3136 27.7284 20.6737L28.3859 21.4793C28.8277 22.214 28.9751 23.0578 28.8162 23.8697C28.657 24.6834 28.1941 25.4414 27.4794 25.9992C26.7626 26.5587 25.844 26.8749 24.8823 26.8739H8.22368C6.83843 26.8739 5.52901 26.3568 4.57893 25.4658C3.63235 24.578 3.12171 23.3969 3.12169 22.1891C3.12174 21.2288 3.44408 20.2816 4.06011 19.4826C4.67752 18.6817 5.56168 18.068 6.59814 17.7471C7.36753 17.509 7.82983 16.7234 7.66545 15.9335C7.36794 14.5039 7.67176 13.0137 8.53372 11.7719Z" fill="#1A2833"/>
<path fill-rule="evenodd" clip-rule="evenodd" d="M11.7157 6.21826C14.0533 5.71907 16.5108 6.09029 18.5745 7.26618C20.2169 8.20198 21.5179 9.59657 22.2968 11.2596C22.8915 11.225 23.4909 11.2749 24.0749 11.4097C25.1449 11.6568 26.1322 12.1822 26.9203 12.939C27.7094 13.6968 28.2682 14.6578 28.5185 15.7192C28.6555 16.2996 28.6961 16.8934 28.6423 17.4794C29.6304 18.0639 30.4659 18.8778 31.0594 19.8645C31.8948 21.2532 32.1899 22.8857 31.8796 24.4717C31.5695 26.0559 30.681 27.4654 29.3977 28.467C28.1168 29.4668 26.518 30.0033 24.8808 30.002H8.22368C6.07474 30.002 3.99472 29.2023 2.44576 27.7496C0.893305 26.2936 0 24.2958 0 22.1891C6.82743e-05 20.5189 0.562411 18.9028 1.58973 17.5702C2.34693 16.5881 3.32649 15.7983 4.44181 15.2495C4.35473 13.3917 4.88665 11.5479 5.97101 9.98573C7.30996 8.0568 9.3772 6.71764 11.7157 6.21826ZM8.53372 11.7719C9.39861 10.5259 10.7663 9.61933 12.3664 9.27764C12.6873 9.20911 13.0112 9.1647 13.3351 9.14387C14.6275 9.06075 15.9212 9.35278 17.0315 9.98538C18.4175 10.7751 19.3918 12.0217 19.7851 13.4369C19.8979 13.8428 20.1693 14.1858 20.5379 14.3885C20.9065 14.5911 21.3411 14.6362 21.7433 14.5135C22.269 14.3532 22.8351 14.3335 23.3739 14.4579C23.9125 14.5823 24.3911 14.8428 24.7604 15.1974C25.1289 15.5513 25.3731 15.9832 25.4806 16.4388C25.5878 16.8936 25.5581 17.3672 25.3918 17.8107C25.2444 18.2037 25.261 18.6397 25.4377 19.0204C25.6145 19.4011 25.9366 19.6946 26.3316 19.8349C26.8663 20.0248 27.3395 20.3136 27.7284 20.6737L28.3859 21.4793C28.8277 22.214 28.9751 23.0578 28.8162 23.8697C28.657 24.6834 28.1941 25.4414 27.4794 25.9992C26.7626 26.5587 25.844 26.8749 24.8823 26.8739H8.22368C6.83843 26.8739 5.52901 26.3568 4.57893 25.4658C3.63235 24.578 3.12171 23.3969 3.12169 22.1891C3.12174 21.2288 3.44408 20.2816 4.06011 19.4826C4.67752 18.6817 5.56168 18.068 6.59814 17.7471C7.36753 17.509 7.82983 16.7234 7.66545 15.9335C7.36794 14.5039 7.67176 13.0137 8.53372 11.7719Z" fill="#1A2033"/>
<path fill-rule="evenodd" clip-rule="evenodd" d="M11.7157 6.21826C14.0533 5.71907 16.5108 6.09029 18.5745 7.26618C20.2169 8.20198 21.5179 9.59657 22.2968 11.2596C22.8915 11.225 23.4909 11.2749 24.0749 11.4097C25.1449 11.6568 26.1322 12.1822 26.9203 12.939C27.7094 13.6968 28.2682 14.6578 28.5185 15.7192C28.6555 16.2996 28.6961 16.8934 28.6423 17.4794C29.6304 18.0639 30.4659 18.8778 31.0594 19.8645C31.8948 21.2532 32.1899 22.8857 31.8796 24.4717C31.5695 26.0559 30.681 27.4654 29.3977 28.467C28.1168 29.4668 26.518 30.0033 24.8808 30.002H8.22368C6.07474 30.002 3.99472 29.2023 2.44576 27.7496C0.893305 26.2936 0 24.2958 0 22.1891C6.82743e-05 20.5189 0.562411 18.9028 1.58973 17.5702C2.34693 16.5881 3.32649 15.7983 4.44181 15.2495C4.35473 13.3917 4.88665 11.5479 5.97101 9.98573C7.30996 8.0568 9.3772 6.71764 11.7157 6.21826ZM8.53372 11.7719C9.39861 10.5259 10.7663 9.61933 12.3664 9.27764C12.6873 9.20911 13.0112 9.1647 13.3351 9.14387C14.6275 9.06075 15.9212 9.35278 17.0315 9.98538C18.4175 10.7751 19.3918 12.0217 19.7851 13.4369C19.8979 13.8428 20.1693 14.1858 20.5379 14.3885C20.9065 14.5911 21.3411 14.6362 21.7433 14.5135C22.269 14.3532 22.8351 14.3335 23.3739 14.4579C23.9125 14.5823 24.3911 14.8428 24.7604 15.1974C25.1289 15.5513 25.3731 15.9832 25.4806 16.4388C25.5878 16.8936 25.5581 17.3672 25.3918 17.8107C25.2444 18.2037 25.261 18.6397 25.4377 19.0204C25.6145 19.4011 25.9366 19.6946 26.3316 19.8349C26.8663 20.0248 27.3395 20.3136 27.7284 20.6737L28.3859 21.4793C28.8277 22.214 28.9751 23.0578 28.8162 23.8697C28.657 24.6834 28.1941 25.4414 27.4794 25.9992C26.7626 26.5587 25.844 26.8749 24.8823 26.8739H8.22368C6.83843 26.8739 5.52901 26.3568 4.57893 25.4658C3.63235 24.578 3.12171 23.3969 3.12169 22.1891C3.12174 21.2288 3.44408 20.2816 4.06011 19.4826C4.67752 18.6817 5.56168 18.068 6.59814 17.7471C7.36753 17.509 7.82983 16.7234 7.66545 15.9335C7.36794 14.5039 7.67176 13.0137 8.53372 11.7719Z" fill="#1C1E20"/>
<path d="M31.1327 1.31488C29.5246 0.400491 27.6097 0.111831 25.7883 0.5C23.9661 0.888327 22.3553 1.92967 21.312 3.42963C20.5477 4.52839 20.1356 5.80636 20.1141 7.1095C20.1098 7.37422 20.2302 7.62306 20.4258 7.80154L21.5308 8.81015C21.8651 9.11526 22.4113 9.16508 22.5754 8.7433C22.6582 8.5307 22.682 8.29294 22.6323 8.05468C22.4005 6.94299 22.6372 5.78419 23.3088 4.81859C23.9828 3.84971 25.0485 3.14471 26.2953 2.87901C26.5453 2.82572 26.7977 2.79119 27.0501 2.77499C28.0572 2.71036 29.0652 2.93745 29.9303 3.42936C31.0103 4.04349 31.7695 5.0128 32.076 6.11332C32.1639 6.4289 32.3754 6.69567 32.6626 6.85326C32.9498 7.01084 33.2884 7.0459 33.6018 6.95051C34.0114 6.8258 34.4525 6.81051 34.8724 6.90726C35.2921 7.00396 35.6649 7.20653 35.9527 7.48232C36.2398 7.75747 36.4301 8.0933 36.5139 8.44761C36.5975 8.80125 36.5743 9.16955 36.4447 9.51439C36.3299 9.82005 36.3428 10.159 36.4805 10.4551C36.6182 10.7511 36.8692 10.9794 37.177 11.0885C37.5936 11.2361 37.9624 11.4607 38.2654 11.7407C38.467 11.9271 38.6395 12.138 38.7777 12.3672C39.122 12.9384 39.2369 13.5946 39.113 14.226C38.989 14.8587 38.6283 15.4481 38.0714 15.8819C37.5129 16.3169 36.797 16.5628 36.0477 16.5621H31.3498C30.5669 16.5621 30.0876 17.421 30.4988 18.0872L30.7657 18.5197C30.9478 18.8148 31.2698 18.9945 31.6167 18.9945H36.0453L36.0465 18.9945C37.3223 18.9955 38.5681 18.5783 39.5661 17.8009C40.5661 17.022 41.2584 15.926 41.5 14.6941C41.7419 13.4608 41.5119 12.1914 40.8609 11.1115C40.3985 10.3442 39.7474 9.71127 38.9776 9.25677C39.0195 8.80109 38.9878 8.33937 38.8811 7.88805C38.686 7.06271 38.2506 6.31537 37.6358 5.72616C37.0216 5.1376 36.2523 4.72906 35.4186 4.53694C34.9635 4.43208 34.4965 4.39331 34.0331 4.42023C33.4262 3.12702 32.4124 2.04257 31.1327 1.31488Z" fill="#1E1F21"/>
<path d="M31.1327 1.31488C29.5246 0.400491 27.6097 0.111831 25.7883 0.5C23.9661 0.888327 22.3553 1.92967 21.312 3.42963C20.5477 4.52839 20.1356 5.80636 20.1141 7.1095C20.1098 7.37422 20.2302 7.62306 20.4258 7.80154L21.5308 8.81015C21.8651 9.11526 22.4113 9.16508 22.5754 8.7433C22.6582 8.5307 22.682 8.29294 22.6323 8.05468C22.4005 6.94299 22.6372 5.78419 23.3088 4.81859C23.9828 3.84971 25.0485 3.14471 26.2953 2.87901C26.5453 2.82572 26.7977 2.79119 27.0501 2.77499C28.0572 2.71036 29.0652 2.93745 29.9303 3.42936C31.0103 4.04349 31.7695 5.0128 32.076 6.11332C32.1639 6.4289 32.3754 6.69567 32.6626 6.85326C32.9498 7.01084 33.2884 7.0459 33.6018 6.95051C34.0114 6.8258 34.4525 6.81051 34.8724 6.90726C35.2921 7.00396 35.6649 7.20653 35.9527 7.48232C36.2398 7.75747 36.4301 8.0933 36.5139 8.44761C36.5975 8.80125 36.5743 9.16955 36.4447 9.51439C36.3299 9.82005 36.3428 10.159 36.4805 10.4551C36.6182 10.7511 36.8692 10.9794 37.177 11.0885C37.5936 11.2361 37.9624 11.4607 38.2654 11.7407C38.467 11.9271 38.6395 12.138 38.7777 12.3672C39.122 12.9384 39.2369 13.5946 39.113 14.226C38.989 14.8587 38.6283 15.4481 38.0714 15.8819C37.5129 16.3169 36.797 16.5628 36.0477 16.5621H31.3498C30.5669 16.5621 30.0876 17.421 30.4988 18.0872L30.7657 18.5197C30.9478 18.8148 31.2698 18.9945 31.6167 18.9945H36.0453L36.0465 18.9945C37.3223 18.9955 38.5681 18.5783 39.5661 17.8009C40.5661 17.022 41.2584 15.926 41.5 14.6941C41.7419 13.4608 41.5119 12.1914 40.8609 11.1115C40.3985 10.3442 39.7474 9.71127 38.9776 9.25677C39.0195 8.80109 38.9878 8.33937 38.8811 7.88805C38.686 7.06271 38.2506 6.31537 37.6358 5.72616C37.0216 5.1376 36.2523 4.72906 35.4186 4.53694C34.9635 4.43208 34.4965 4.39331 34.0331 4.42023C33.4262 3.12702 32.4124 2.04257 31.1327 1.31488Z" fill="#1A2833"/>
<path d="M31.1327 1.31488C29.5246 0.400491 27.6097 0.111831 25.7883 0.5C23.9661 0.888327 22.3553 1.92967 21.312 3.42963C20.5477 4.52839 20.1356 5.80636 20.1141 7.1095C20.1098 7.37422 20.2302 7.62306 20.4258 7.80154L21.5308 8.81015C21.8651 9.11526 22.4113 9.16508 22.5754 8.7433C22.6582 8.5307 22.682 8.29294 22.6323 8.05468C22.4005 6.94299 22.6372 5.78419 23.3088 4.81859C23.9828 3.84971 25.0485 3.14471 26.2953 2.87901C26.5453 2.82572 26.7977 2.79119 27.0501 2.77499C28.0572 2.71036 29.0652 2.93745 29.9303 3.42936C31.0103 4.04349 31.7695 5.0128 32.076 6.11332C32.1639 6.4289 32.3754 6.69567 32.6626 6.85326C32.9498 7.01084 33.2884 7.0459 33.6018 6.95051C34.0114 6.8258 34.4525 6.81051 34.8724 6.90726C35.2921 7.00396 35.6649 7.20653 35.9527 7.48232C36.2398 7.75747 36.4301 8.0933 36.5139 8.44761C36.5975 8.80125 36.5743 9.16955 36.4447 9.51439C36.3299 9.82005 36.3428 10.159 36.4805 10.4551C36.6182 10.7511 36.8692 10.9794 37.177 11.0885C37.5936 11.2361 37.9624 11.4607 38.2654 11.7407C38.467 11.9271 38.6395 12.138 38.7777 12.3672C39.122 12.9384 39.2369 13.5946 39.113 14.226C38.989 14.8587 38.6283 15.4481 38.0714 15.8819C37.5129 16.3169 36.797 16.5628 36.0477 16.5621H31.3498C30.5669 16.5621 30.0876 17.421 30.4988 18.0872L30.7657 18.5197C30.9478 18.8148 31.2698 18.9945 31.6167 18.9945H36.0453L36.0465 18.9945C37.3223 18.9955 38.5681 18.5783 39.5661 17.8009C40.5661 17.022 41.2584 15.926 41.5 14.6941C41.7419 13.4608 41.5119 12.1914 40.8609 11.1115C40.3985 10.3442 39.7474 9.71127 38.9776 9.25677C39.0195 8.80109 38.9878 8.33937 38.8811 7.88805C38.686 7.06271 38.2506 6.31537 37.6358 5.72616C37.0216 5.1376 36.2523 4.72906 35.4186 4.53694C34.9635 4.43208 34.4965 4.39331 34.0331 4.42023C33.4262 3.12702 32.4124 2.04257 31.1327 1.31488Z" fill="#1A2033"/>
<path d="M31.1327 1.31488C29.5246 0.400491 27.6097 0.111831 25.7883 0.5C23.9661 0.888327 22.3553 1.92967 21.312 3.42963C20.5477 4.52839 20.1356 5.80636 20.1141 7.1095C20.1098 7.37422 20.2302 7.62306 20.4258 7.80154L21.5308 8.81015C21.8651 9.11526 22.4113 9.16508 22.5754 8.7433C22.6582 8.5307 22.682 8.29294 22.6323 8.05468C22.4005 6.94299 22.6372 5.78419 23.3088 4.81859C23.9828 3.84971 25.0485 3.14471 26.2953 2.87901C26.5453 2.82572 26.7977 2.79119 27.0501 2.77499C28.0572 2.71036 29.0652 2.93745 29.9303 3.42936C31.0103 4.04349 31.7695 5.0128 32.076 6.11332C32.1639 6.4289 32.3754 6.69567 32.6626 6.85326C32.9498 7.01084 33.2884 7.0459 33.6018 6.95051C34.0114 6.8258 34.4525 6.81051 34.8724 6.90726C35.2921 7.00396 35.6649 7.20653 35.9527 7.48232C36.2398 7.75747 36.4301 8.0933 36.5139 8.44761C36.5975 8.80125 36.5743 9.16955 36.4447 9.51439C36.3299 9.82005 36.3428 10.159 36.4805 10.4551C36.6182 10.7511 36.8692 10.9794 37.177 11.0885C37.5936 11.2361 37.9624 11.4607 38.2654 11.7407C38.467 11.9271 38.6395 12.138 38.7777 12.3672C39.122 12.9384 39.2369 13.5946 39.113 14.226C38.989 14.8587 38.6283 15.4481 38.0714 15.8819C37.5129 16.3169 36.797 16.5628 36.0477 16.5621H31.3498C30.5669 16.5621 30.0876 17.421 30.4988 18.0872L30.7657 18.5197C30.9478 18.8148 31.2698 18.9945 31.6167 18.9945H36.0453L36.0465 18.9945C37.3223 18.9955 38.5681 18.5783 39.5661 17.8009C40.5661 17.022 41.2584 15.926 41.5 14.6941C41.7419 13.4608 41.5119 12.1914 40.8609 11.1115C40.3985 10.3442 39.7474 9.71127 38.9776 9.25677C39.0195 8.80109 38.9878 8.33937 38.8811 7.88805C38.686 7.06271 38.2506 6.31537 37.6358 5.72616C37.0216 5.1376 36.2523 4.72906 35.4186 4.53694C34.9635 4.43208 34.4965 4.39331 34.0331 4.42023C33.4262 3.12702 32.4124 2.04257 31.1327 1.31488Z" fill="#1C1E20"/>
</g>
</svg>
