<svg width="48" height="30" viewBox="0 0 48 30" fill="none" xmlns="http://www.w3.org/2000/svg">
<path fill-rule="evenodd" clip-rule="evenodd" d="M4 5C4 2.23858 6.23858 0 9 0H29C31.7614 0 34 2.23858 34 5V9.96939L41.2375 5.34602C41.7792 5 42.375 4.9135 43.025 5.08651C43.675 5.25952 44 5.58824 44 6.07266V23.9273C44 24.4118 43.675 24.7405 43.025 24.9135C42.375 25.0865 41.7792 25 41.2375 24.654L34 20.0306V25C34 27.7614 31.7614 30 29 30H9C6.23858 30 4 27.7614 4 25V5ZM29 3H9C7.89543 3 7 3.89543 7 5V25C7 26.1046 7.89543 27 9 27H29C30.1046 27 31 26.1046 31 25V5C31 3.89543 30.1046 3 29 3ZM41 9.05761L34.9233 12.9394C34.3481 13.3069 34 13.9423 34 14.6249V15.3751C34 16.0577 34.3481 16.6931 34.9233 17.0606L41 20.9424V9.05761Z" fill="#1C1E20"/>
<path d="M28 8C28 9.10457 27.1046 10 26 10C24.8954 10 24 9.10457 24 8C24 6.89543 24.8954 6 26 6C27.1046 6 28 6.89543 28 8Z" fill="#1C1E20"/>
</svg>
