<svg width="980" height="489" viewBox="0 0 980 489" fill="none" xmlns="http://www.w3.org/2000/svg">
<path d="M0 414.394V335.269L181.186 76.1035H290.701V329.535H337.717V414.394H290.701V488.933H192.654V414.394H0ZM199.534 183.898L103.207 329.535H199.534V183.898Z" fill="#34A9ED"/>
<path d="M703.686 276.783V212.044L851.929 0H941.532V207.353H980V276.783H941.532V337.769H861.311V276.783H703.686ZM866.941 88.1954L788.128 207.353H866.941V88.1954Z" fill="#34A9ED"/>
<path d="M381.949 217.362C381.949 157.592 393.417 110.506 416.352 76.1037C439.634 41.7012 476.99 24.5 528.42 24.5C579.85 24.5 617.033 41.7012 639.968 76.1037C663.25 110.506 674.891 157.592 674.891 217.362C674.891 277.827 663.25 325.261 639.968 359.663C617.033 394.066 579.85 411.267 528.42 411.267C476.99 411.267 439.634 394.066 416.352 359.663C393.417 325.261 381.949 277.827 381.949 217.362ZM587.321 217.362C587.321 182.265 583.499 155.334 575.854 136.569C568.209 117.456 552.398 107.9 528.42 107.9C504.443 107.9 488.632 117.456 480.987 136.569C473.342 155.334 469.519 182.265 469.519 217.362C469.519 240.992 470.909 260.626 473.689 276.263C476.469 291.553 482.029 304.063 490.369 313.793C499.057 323.176 511.74 327.867 528.42 327.867C545.1 327.867 557.61 323.176 565.95 313.793C574.638 304.063 580.371 291.553 583.151 276.263C585.931 260.626 587.321 240.992 587.321 217.362Z" fill="#34A9ED"/>
<mask id="mask0_1601_7346" style="mask-type:alpha" maskUnits="userSpaceOnUse" x="282" y="24" width="306" height="395">
<path fill-rule="evenodd" clip-rule="evenodd" d="M381.949 217.36C381.949 157.59 393.417 110.504 416.352 76.1017C439.634 41.6993 476.99 24.498 528.42 24.498V107.898C504.443 107.898 488.632 117.454 480.987 136.567C473.342 155.332 469.519 182.263 469.519 217.36C469.519 240.99 470.909 260.624 473.689 276.261C476.469 291.551 482.029 304.061 490.369 313.791C499.057 323.174 511.74 327.865 528.42 327.865V411.265C476.99 411.265 439.634 394.064 416.352 359.661C393.417 325.259 381.949 277.825 381.949 217.36Z" fill="#34A9ED"/>
<path d="M587.321 217.36C587.321 182.263 583.499 155.332 575.854 136.567C568.209 117.454 552.398 107.898 528.42 107.898C504.443 107.898 488.632 117.454 480.987 136.567C473.342 155.332 469.519 182.263 469.519 217.36C469.519 240.99 470.909 260.624 473.689 276.261C476.469 291.551 482.029 304.061 490.369 313.791C499.057 323.174 511.74 327.865 528.42 327.865C545.1 327.865 557.61 323.174 565.95 313.791C574.638 304.061 580.371 291.551 583.151 276.261C585.931 260.624 587.321 240.99 587.321 217.36Z" fill="#34A9ED"/>
<path d="M528.42 411.265C476.99 411.265 439.634 394.064 416.352 359.661C393.417 325.259 381.949 277.825 381.949 217.36V411.265H528.42Z" fill="#34A9ED"/>
<path d="M381.949 217.36C381.949 157.59 393.417 110.504 416.352 76.1017C439.634 41.6993 476.99 24.498 528.42 24.498H282L288.5 419L381.949 411.265V217.36Z" fill="#34A9ED"/>
</mask>
<g mask="url(#mask0_1601_7346)">
<path d="M573.74 200.915C579.305 193.428 582.237 183.936 581.308 173.91C581 170.586 580.284 167.393 579.214 164.379C578.686 162.892 578.071 161.448 577.376 160.053C576.942 159.179 576.476 158.326 575.98 157.493C570.925 148.998 562.786 142.66 553.243 139.874L552.927 139.75C530.447 130.951 506.019 126.293 480.676 126.629C475.681 123.012 469.396 121.118 462.771 121.732C458.073 122.167 453.771 123.812 450.151 126.33L434.005 120.059L430.057 117.117C504.18 116.187 585.856 116.81 591.375 178.906C591.982 185.734 592.223 192.489 589.294 198.568L573.74 200.915Z" fill="#E5F6FF"/>
<path d="M565.312 275.52L565.886 271.791C566.677 266.647 565.261 261.408 561.986 257.362L551.357 244.229C550.589 243.279 549.728 242.408 548.787 241.629L518.704 216.69L582.155 207.118C574.04 213.378 559.427 218.25 533.568 220.715C577.192 240.621 580.272 260.976 574.271 272.662L565.312 275.52Z" fill="#E5F6FF"/>
<path d="M354.945 232.599C348.091 215.585 355.063 201.023 366.742 200.871C391.634 195.462 405.026 190.571 416.391 181.01C418.045 181.107 419.72 180.983 421.369 180.628C420.429 181.885 419.228 182.937 417.836 183.703L387.633 200.341C386.548 200.938 385.371 201.349 384.151 201.558L375.675 203.006C375.294 203.071 374.902 203.016 374.553 202.848C370.982 201.132 366.715 201.879 363.939 204.706L360.516 208.194C356.118 212.675 354.729 219.306 356.961 225.175L359.564 232.02C360.625 234.81 362.716 237.086 365.406 238.379C367.619 239.442 370.111 239.779 372.527 239.342L373.39 239.186L392.35 235.752L454.773 226.335C456.812 232.636 460.509 238.13 465.306 242.353C465.403 242.438 465.504 242.518 465.609 242.592L504.295 270.044L503.021 271.205C502.622 271.569 502.164 271.922 501.573 272.364C495.014 277.279 491.074 285.395 491.888 294.171C492.051 295.932 492.398 297.634 492.909 299.26L488.828 300.58C481.278 287.593 493.402 273.055 499.544 269.83C486.318 266.695 458.994 252.263 451.501 231.343C432.272 231.083 414.528 234.926 399.543 238.171C376.919 243.071 360.588 246.608 354.945 232.599Z" fill="#E5F6FF"/>
<path fill-rule="evenodd" clip-rule="evenodd" d="M491.681 304.386L570.097 278.308C571.671 276.778 573.134 274.876 574.271 272.662L649.303 248.727C654.577 247.045 661.656 249.658 662.297 256.577C663.731 272.051 653.281 285.881 638.446 289.041L407.925 365.555C407.875 365.571 407.825 365.587 407.774 365.601C405.991 366.109 404.139 366.46 402.232 366.636C391.962 367.588 382.415 363.3 376.239 355.986C372.741 351.843 372.686 346.859 374.66 342.778C376.566 338.839 380.337 335.676 384.793 334.234L488.828 300.58C489.577 301.868 490.52 303.141 491.681 304.386ZM651.548 255.767L561.909 284.361L561.877 284.372L544.334 290.143L498.999 305.056L498.982 305.061L387.067 341.264C384.714 342.026 382.825 343.549 381.746 345.226C381.582 345.48 381.437 345.737 381.312 345.996C380.429 347.823 380.523 349.606 381.884 351.218C386.569 356.766 393.787 359.998 401.55 359.279C402.974 359.147 404.353 358.888 405.676 358.516L636.319 281.962C636.457 281.916 636.597 281.878 636.739 281.849C648.042 279.528 656.029 269.017 654.939 257.259C654.884 256.663 654.587 256.231 654.028 255.929C653.409 255.595 652.494 255.465 651.548 255.767Z" fill="#0B7DBF"/>
<path d="M570.097 278.308L491.681 304.386C490.52 303.141 489.577 301.868 488.828 300.58L492.909 299.26C492.398 297.634 492.051 295.932 491.888 294.171C491.074 285.395 495.014 277.279 501.573 272.364C502.164 271.922 502.622 271.569 503.021 271.205L504.295 270.044L465.609 242.592C465.504 242.518 465.403 242.438 465.306 242.353C460.509 238.13 456.812 232.636 454.773 226.335L462.204 225.214C463.865 229.684 466.589 233.597 470.048 236.681L497.061 255.85L503.183 260.194L510.057 265.072L514.499 270.979L512.566 272.504L507.998 276.667C507.309 277.295 506.592 277.837 506.004 278.278C501.414 281.716 498.679 287.377 499.245 293.489C499.357 294.696 499.592 295.859 499.935 296.969L557.447 278.05L558.582 270.668C559.057 267.582 558.207 264.438 556.243 262.011L545.613 248.878C545.208 248.377 544.76 247.913 544.275 247.491L538.46 242.666L528.988 234.814L523.27 230.073L508.908 218.168L518.704 216.69L548.787 241.629C549.728 242.408 550.589 243.279 551.357 244.229L561.986 257.362C565.261 261.408 566.677 266.647 565.886 271.791L565.312 275.52L574.271 272.662C573.134 274.876 571.671 276.778 570.097 278.308Z" fill="#0B7DBF"/>
<path d="M399.893 170.742L422.184 175.572C420.281 177.544 418.367 179.347 416.391 181.01L416.333 181.006C413.026 180.801 409.799 179.707 407.013 177.791L406.107 177.168L405.191 176.565C403.146 175.218 400.508 174.6 397.37 174.304C397.075 174.276 396.781 174.244 396.488 174.208C382.19 172.447 370.54 160.945 369.156 146.009C367.925 132.727 375.176 120.623 386.444 115.042L411.838 101.411L411.859 101.399C412.869 100.846 414.003 100.488 415.209 100.376C419.954 99.9363 424.157 103.426 424.597 108.171L425.082 113.41L430.057 117.117C427.975 117.143 425.899 117.17 423.831 117.197L423.815 117.197L423.787 117.198L423.774 117.198C421.524 117.228 419.282 117.257 417.053 117.285L415.33 120.273L417.787 114.767L417.239 108.853C417.176 108.172 416.573 107.671 415.891 107.734C415.709 107.751 415.549 107.803 415.409 107.881L389.884 121.582C389.846 121.602 389.808 121.622 389.769 121.641C381.123 125.9 375.572 135.171 376.513 145.327C377.305 153.868 382.495 160.947 389.639 164.529C391.251 165.337 392.962 165.966 394.744 166.395L396.89 161.588L399.893 170.742Z" fill="#0B7DBF"/>
<path d="M445.599 132.489L434.303 128.101L427.736 124.602L423.048 121.109L418.008 132.401C417.139 132.688 416.246 133.049 415.316 133.52C409.527 136.455 406.587 140.774 404.089 145.458L415.33 120.273L417.053 117.285C419.282 117.257 421.524 117.228 423.774 117.198L423.787 117.198L423.815 117.197L423.831 117.197C425.899 117.17 427.975 117.143 430.057 117.117L434.005 120.059L450.151 126.33C453.771 123.812 458.073 122.167 462.771 121.732C469.396 121.118 475.681 123.012 480.676 126.629C506.019 126.293 530.447 130.951 552.927 139.75L553.243 139.874C562.786 142.66 570.925 148.998 575.98 157.493L568.253 159.155C564.096 153.287 558.021 148.932 551.035 146.927C550.924 146.895 550.815 146.858 550.708 146.816L550.234 146.631C530.652 138.967 509.533 134.57 487.608 134.053L477.134 133.22C473.416 130.22 468.581 128.614 463.452 129.089C459.754 129.432 456.411 130.809 453.671 132.907L445.599 132.489Z" fill="#0B7DBF"/>
<path d="M581.308 173.91C582.237 183.936 579.305 193.428 573.74 200.915L561.705 202.73C566.551 198.983 570.253 193.89 572.298 188.071C573.773 183.877 574.387 179.307 573.95 174.592C573.668 171.545 572.966 168.642 571.908 165.934L579.214 164.379C580.284 167.393 581 170.586 581.308 173.91Z" fill="#0B7DBF"/>
<path fill-rule="evenodd" clip-rule="evenodd" d="M422.184 175.572L399.893 170.742L396.89 161.588L404.089 145.458C406.587 140.774 409.527 136.455 415.316 133.52C416.246 133.049 417.139 132.688 418.008 132.401L414.794 139.603L421.731 140.028L425.292 130.88L427.736 124.602L434.303 128.101L428.027 144.225L428.334 145.806C429.424 151.408 427.863 157.198 424.106 161.494L413.97 173.083C415.914 173.731 418.02 173.835 420.052 173.35L425.57 172.033L445.599 132.489L453.671 132.907L431.434 176.809L429.396 181.438C427.762 185.149 424.953 188.219 421.401 190.176L391.198 206.813C390.445 207.228 389.665 207.589 388.864 207.894L381.637 209.483L376.919 210.289C375.028 210.612 373.082 210.339 371.352 209.508C370.632 209.162 369.772 209.313 369.213 209.883L365.789 213.37C363.412 215.792 362.661 219.376 363.868 222.548L366.471 229.394C366.859 230.414 367.623 231.246 368.607 231.719C368.743 231.784 368.882 231.842 369.023 231.892C369.721 232.141 370.476 232.204 371.21 232.071C370.212 232.286 368.271 233.32 368.495 235.74C368.776 238.764 371.664 239.498 372.527 239.342C370.111 239.779 367.619 239.442 365.406 238.379C362.716 237.086 360.625 234.81 359.564 232.02L356.961 225.175C354.729 219.306 356.118 212.675 360.516 208.194L363.939 204.706C366.715 201.879 370.982 201.132 374.553 202.848C374.902 203.016 375.294 203.071 375.675 203.006L384.151 201.558C385.371 201.349 386.548 200.938 387.633 200.341L417.836 183.703C419.228 182.937 420.429 181.885 421.369 180.628C419.72 180.983 418.045 181.107 416.391 181.01C418.367 179.347 420.281 177.544 422.184 175.572ZM402.305 167.584L411.578 146.81L421.114 147.394C421.701 150.699 420.759 154.097 418.544 156.629L407.425 169.342C405.756 168.51 404.017 167.959 402.305 167.584Z" fill="#0B7DBF"/>
<path d="M497.061 255.85L523.27 230.073L528.988 234.814L503.183 260.194L497.061 255.85Z" fill="#0B7DBF"/>
<path d="M510.057 265.072L538.46 242.666L544.275 247.491L514.499 270.979L510.057 265.072Z" fill="#0B7DBF"/>
<path d="M394.431 227.965L404.029 226.517L421.348 223.904L453.225 219.095L460.54 217.992L561.705 202.73L573.74 200.915L589.294 198.568C587.826 201.613 585.564 204.488 582.155 207.118L518.704 216.69L508.908 218.168L462.204 225.214L454.773 226.335L392.35 235.752L373.39 239.186C373.004 235.02 382.371 230.788 387.103 229.193L394.431 227.965Z" fill="#0B7DBF"/>
<path d="M616.966 210.718L615.043 202.156L582.155 207.118C585.564 204.488 587.826 201.613 589.294 198.568L613.409 194.93L611.926 188.403C611.474 186.413 612.72 184.434 614.71 183.982C616.7 183.529 618.679 184.776 619.131 186.765L620.736 193.825L629.643 192.481C631.66 192.177 633.543 193.565 633.847 195.583C634.151 197.601 632.763 199.483 630.745 199.788L622.368 201.051L624.175 209.098C624.622 211.089 623.371 213.066 621.38 213.513C619.389 213.96 617.413 212.708 616.966 210.718Z" fill="#0B7DBF"/>
<path d="M460.522 217.805C460.527 217.868 460.533 217.93 460.54 217.992L453.225 219.095C453.203 218.893 453.183 218.69 453.164 218.487C452.595 212.346 453.593 206.422 455.828 201.109C458.974 200.526 462.001 200.031 464.931 199.609C461.592 204.831 459.906 211.159 460.522 217.805Z" fill="#0B7DBF"/>
<path d="M483.972 145.035C483.217 140.235 480.697 136.094 477.134 133.22L487.608 134.053C489.433 136.977 490.707 140.299 491.271 143.887C491.489 145.272 491.446 146.596 491.324 147.755L490.691 153.761C490.469 155.867 489.887 157.919 488.969 159.827L485.882 166.252C485.228 167.613 484.409 168.889 483.444 170.051L476.324 178.625L468.072 187.342L456.542 199.52L454.805 201.301C449.673 202.278 444.46 203.475 439.187 204.866L442.16 203.121C443.013 202.621 443.795 202.008 444.485 201.301L467.428 177.773L477.759 165.33C478.338 164.633 478.83 163.868 479.222 163.051L482.31 156.627C482.86 155.482 483.209 154.25 483.342 152.987L483.975 146.981C484.057 146.205 484.056 145.572 483.972 145.035Z" fill="#0B7DBF"/>
<path d="M571.908 165.934L479.019 185.608L476.324 178.625L568.253 159.155L571.908 165.934Z" fill="#0B7DBF"/>
<path d="M476.324 178.625L479.019 185.608L468.072 187.342L476.324 178.625Z" fill="#0B7DBF"/>
<path d="M470.62 193.101L470.557 193.154C468.372 195.017 466.475 197.195 464.931 199.609C462.001 200.031 458.974 200.526 455.828 201.109C456.053 200.573 456.291 200.044 456.542 199.52L468.072 187.342L479.019 185.608L470.62 193.101Z" fill="#0B7DBF"/>
<path d="M413.567 219.915C413.643 219.863 413.721 219.813 413.8 219.767L439.187 204.866C444.46 203.475 449.673 202.278 454.805 201.301L449.775 206.459C448.625 207.639 447.322 208.66 445.9 209.494L421.348 223.904L404.029 226.517L413.567 219.915Z" fill="#0B7DBF"/>
<path d="M417.48 340.407C463.715 335.01 487.172 318.625 528.955 298.107C533.712 295.771 538.995 293.016 544.334 290.143L561.877 284.372L561.909 284.361L651.548 255.767C652.494 255.465 653.409 255.595 654.028 255.929C654.587 256.231 654.884 256.663 654.939 257.259C656.029 269.017 648.042 279.528 636.739 281.849C636.597 281.878 636.457 281.916 636.319 281.962L405.676 358.516C404.353 358.888 402.974 359.147 401.55 359.279C393.787 359.998 386.569 356.766 381.884 351.218C380.523 349.606 380.429 347.823 381.312 345.996C381.437 345.737 381.582 345.48 381.746 345.226C385.694 343.924 389.962 342.84 394.695 341.991C403.478 340.414 408.618 341.441 417.48 340.407Z" fill="#1197E4"/>
<path d="M479.019 185.608L571.908 165.934C572.966 168.642 573.668 171.545 573.95 174.592C574.387 179.307 573.773 183.877 572.298 188.071C563.703 190.079 554.537 191.978 543.718 193.615C527.694 196.039 514.766 196.459 502.065 196.872C490.258 197.256 478.648 197.634 464.931 199.609C466.475 197.195 468.372 195.017 470.557 193.154L470.62 193.101L479.019 185.608Z" fill="#E5F6FF"/>
<path d="M460.54 217.992C460.533 217.93 460.527 217.868 460.522 217.805C459.906 211.159 461.592 204.831 464.931 199.609C478.648 197.634 490.258 197.256 502.065 196.872C514.766 196.459 527.694 196.039 543.718 193.615C554.537 191.978 563.703 190.079 572.298 188.071C570.253 193.89 566.551 198.983 561.705 202.73L460.54 217.992Z" fill="#1197E4"/>
<path d="M462.204 225.214L508.908 218.168L523.27 230.073L497.061 255.85L470.048 236.681C466.589 233.597 463.865 229.684 462.204 225.214Z" fill="#1197E4"/>
<path d="M503.183 260.194L528.988 234.814L538.46 242.666L510.057 265.072L503.183 260.194Z" fill="#E5F6FF"/>
<path d="M528.955 298.107C487.172 318.625 463.715 335.01 417.48 340.407C408.618 341.441 403.478 340.414 394.695 341.991C389.962 342.84 385.694 343.924 381.746 345.226C382.825 343.549 384.714 342.026 387.067 341.264L498.982 305.061L498.999 305.056L544.334 290.143C538.995 293.016 533.712 295.771 528.955 298.107Z" fill="#E5F6FF"/>
<path d="M431.434 176.809L453.671 132.907C456.411 130.809 459.754 129.432 463.452 129.089C468.581 128.614 473.416 130.22 477.134 133.22C480.697 136.094 483.217 140.235 483.972 145.035C484.056 145.572 484.057 146.205 483.975 146.981L483.342 152.987C483.209 154.25 482.86 155.482 482.31 156.627L479.222 163.051C478.83 163.868 478.338 164.633 477.759 165.33L467.428 177.773L444.485 201.301C443.795 202.008 443.013 202.621 442.16 203.121L439.187 204.866C423.957 208.885 408.232 214.529 392.55 221.182L388.864 207.894C389.665 207.589 390.445 207.228 391.198 206.813L421.401 190.176C424.953 188.219 427.762 185.149 429.396 181.438L431.434 176.809Z" fill="#E5F6FF"/>
<path d="M487.608 134.053C509.533 134.57 530.652 138.967 550.234 146.631L550.708 146.816C550.815 146.858 550.924 146.895 551.035 146.927C558.021 148.932 564.096 153.287 568.253 159.155L476.324 178.625L483.444 170.051C484.409 168.889 485.228 167.613 485.882 166.252L488.969 159.827C489.887 157.919 490.469 155.867 490.691 153.761L491.324 147.755C491.446 146.596 491.489 145.272 491.271 143.887C490.707 140.299 489.433 136.977 487.608 134.053Z" fill="#E5F6FF"/>
<path d="M413.8 219.767C413.721 219.813 413.643 219.863 413.567 219.915L404.029 226.517L394.431 227.965L392.55 221.182C408.232 214.529 423.957 208.885 439.187 204.866L413.8 219.767Z" fill="#1197E4"/>
<path d="M368.607 231.719C367.623 231.246 366.859 230.414 366.471 229.394L363.868 222.548C362.661 219.376 363.412 215.792 365.789 213.37L369.213 209.883C369.772 209.313 370.632 209.162 371.352 209.508C373.082 210.339 375.028 210.612 376.919 210.289L381.637 209.483L385.705 224.15C380.121 226.623 374.552 229.213 369.023 231.892C368.882 231.842 368.743 231.784 368.607 231.719Z" fill="#E5F6FF"/>
<path d="M371.21 232.071C370.476 232.204 369.721 232.141 369.023 231.892C374.552 229.213 380.121 226.623 385.705 224.15L387.103 229.193L371.21 232.071Z" fill="#1197E4"/>
<path d="M453.225 219.095L421.348 223.904L445.9 209.494C447.322 208.66 448.625 207.639 449.775 206.459L454.805 201.301L456.542 199.52C456.291 200.044 456.053 200.573 455.828 201.109C453.593 206.422 452.595 212.346 453.164 218.487C453.183 218.69 453.203 218.893 453.225 219.095Z" fill="#E5F6FF"/>
<path d="M413.97 173.083L424.106 161.494C427.863 157.198 429.424 151.408 428.334 145.806L428.027 144.225L434.303 128.101L445.599 132.489L425.57 172.033L420.052 173.35C418.02 173.835 415.914 173.731 413.97 173.083Z" fill="#E5F6FF"/>
<path d="M415.891 107.734C416.573 107.671 417.176 108.172 417.239 108.853L417.787 114.767L415.33 120.273L394.939 155.639L396.038 158.99C395.946 159.096 395.852 159.203 395.758 159.308C394.752 160.436 393.621 161.523 392.326 162.551C391.393 163.291 390.503 163.941 389.639 164.529C382.495 160.947 377.305 153.868 376.513 145.327C375.572 135.171 381.123 125.9 389.769 121.641C389.808 121.622 389.846 121.602 389.884 121.582L415.409 107.881C415.549 107.803 415.709 107.751 415.891 107.734Z" fill="#E5F6FF"/>
<path d="M415.33 120.273L404.089 145.458C403.555 146.46 403.041 147.478 402.523 148.503C400.729 152.057 398.895 155.69 396.038 158.99L394.939 155.639L415.33 120.273Z" fill="#E5F6FF"/>
<path d="M394.744 166.395C392.962 165.966 391.251 165.337 389.639 164.529C390.503 163.941 391.393 163.291 392.326 162.551C393.621 161.523 394.752 160.436 395.758 159.308C395.852 159.203 395.946 159.096 396.038 158.99L396.89 161.588L394.744 166.395Z" fill="#E5F6FF"/>
<path d="M402.523 148.503C403.041 147.478 403.555 146.46 404.089 145.458L396.89 161.588L396.038 158.99C398.895 155.69 400.729 152.057 402.523 148.503Z" fill="#E5F6FF"/>
<path d="M421.731 140.028L414.794 139.603L418.008 132.401C419.775 131.819 421.442 131.542 423.105 131.267C423.832 131.146 424.558 131.026 425.292 130.88L421.731 140.028Z" fill="#E5F6FF"/>
<path d="M423.048 121.109L427.736 124.602L425.292 130.88C424.558 131.026 423.832 131.146 423.105 131.267C421.442 131.542 419.775 131.819 418.008 132.401L423.048 121.109Z" fill="#E5F6FF"/>
<path d="M368.495 235.74C368.271 233.32 370.212 232.286 371.21 232.071L387.103 229.193C382.371 230.788 373.004 235.02 373.39 239.186L372.527 239.342C371.664 239.498 368.776 238.764 368.495 235.74Z" fill="#0B7DBF"/>
<path d="M544.275 247.491C544.76 247.913 545.208 248.377 545.613 248.878L556.243 262.011C558.207 264.438 559.057 267.582 558.582 270.668L557.447 278.05L499.935 296.969C499.592 295.859 499.357 294.696 499.245 293.489C498.679 287.377 501.414 281.716 506.004 278.278C506.592 277.837 507.309 277.295 507.998 276.667L512.566 272.504L514.499 270.979L544.275 247.491Z" fill="#1197E4"/>
<path d="M571.908 165.934L568.253 159.155L575.98 157.493C576.476 158.326 576.942 159.179 577.376 160.053C578.071 161.448 578.686 162.892 579.214 164.379L571.908 165.934Z" fill="#0B7DBF"/>
<path d="M411.578 146.81L402.305 167.584C404.017 167.959 405.756 168.51 407.425 169.342L418.544 156.629C420.759 154.097 421.701 150.699 421.114 147.394L411.578 146.81Z" fill="#1197E4"/>
</g>
</svg>
