<svg width="1920" height="277" viewBox="0 0 1920 277" fill="none" xmlns="http://www.w3.org/2000/svg">
<path d="M1572.94 89.2526C1570.59 88.5494 1568.04 88.0544 1565.06 87.9509C1559.07 87.7426 1554.6 89.8506 1550.16 91.9419C1549.93 92.0514 1549.69 92.1609 1549.46 92.2701C1545.07 94.333 1540.63 96.2596 1534.71 95.7841C1530.3 95.4301 1527.9 94.4679 1525.62 93.5501C1523.06 92.5222 1520.63 91.5499 1515.68 91.5499C1507.63 91.5499 1500.24 91.8417 1493.12 92.1225C1479.66 92.654 1467.19 93.1465 1453.05 91.5499C1449.08 91.1022 1445.9 91.6735 1442.96 92.2001C1439.05 92.9018 1435.58 93.5241 1431.3 91.55C1428.72 90.3633 1426.14 88.9388 1423.54 87.5037L1423.54 87.5032L1423.54 87.5025L1423.54 87.5006C1421.79 86.5364 1420.04 85.5674 1418.27 84.6626C1413 81.9625 1407.6 79.8341 1401.95 80.1089C1396.21 80.3887 1395.63 80.82 1393.72 82.2412C1392.72 82.9841 1391.36 83.9977 1388.7 85.4016C1381.64 89.1383 1377.56 92.8284 1374.47 96.7222C1372.58 99.1133 1371.07 101.581 1369.47 104.184C1366.42 109.155 1363.07 114.619 1356.21 120.977C1348.93 127.725 1332.21 139.366 1313.68 151.574C1319.06 152.028 1324.08 152.599 1329.08 153.167C1339.75 154.381 1350.31 155.582 1364.04 155.594C1390.81 155.617 1408.44 153.233 1430.91 150.195L1430.91 150.195L1430.93 150.193C1437.6 149.291 1444.69 148.331 1452.58 147.36C1459.36 146.526 1464.9 145.606 1470.21 144.724C1478 143.432 1485.29 142.222 1495.27 141.479C1508.2 140.515 1517.49 140.801 1527.88 141.122C1533.51 141.295 1539.46 141.479 1546.49 141.479C1556.62 141.479 1565.2 141.668 1573.31 141.847C1588.28 142.177 1601.66 142.473 1620.34 141.479C1637.27 140.578 1649.94 138.846 1663.1 137.047C1673.45 135.633 1684.11 134.177 1697.37 133.049C1702.37 132.624 1706.86 132.209 1711.08 131.819C1724.94 130.537 1735.86 129.528 1752.37 129.324C1772.43 129.076 1788.77 133.298 1804.51 137.364C1825.24 142.718 1844.92 147.803 1870.69 142.067C1873.26 141.495 1875.27 140.89 1877.24 140.296C1879.54 139.604 1881.78 138.929 1884.79 138.342C1895.67 136.217 1910.98 136.921 1920 137.629V115.457C1919.25 115.391 1918.52 115.325 1917.79 115.261C1906.54 114.265 1897.23 113.645 1888.32 113.051C1874.85 112.153 1862.3 111.317 1845.32 109.333C1831.71 107.742 1820.64 105.094 1810.03 102.557C1794.55 98.8512 1780.05 95.3814 1760.03 95.7841C1740.2 96.1829 1723.76 98.3738 1706.54 100.669C1697.75 101.841 1688.76 103.039 1679.01 104.041C1668.04 105.166 1662.41 103.025 1655.85 100.532C1651.27 98.7888 1646.23 96.8737 1638.6 95.7841C1629.84 94.533 1622.8 95.2553 1615.83 95.9698C1608.34 96.7382 1600.93 97.4977 1591.57 95.7841C1586.91 94.9297 1583.31 93.3872 1579.83 91.8939C1577.57 90.9257 1575.36 89.9783 1572.94 89.2526Z" fill="url(#paint0_linear_987_6134)"/>
<path d="M226.735 90.7715C205.882 90.7747 194.084 91.8385 173.541 95.3885C162.779 97.2483 154.535 100.212 146.442 103.122C137.177 106.453 128.11 109.713 115.688 111.163C92.7724 113.838 75.7177 109.046 57.9238 104.045C43.8993 100.104 29.4155 96.0332 11.2411 95.3885C7.83315 95.2676 3.91514 95.211 0 95.1932V217.489C5.75853 217.496 11.8254 217.415 16.8983 217.15C32.7397 216.322 44.3711 214.028 56.6348 211.61C65.5601 209.85 74.8204 208.024 86.2823 206.649C126.233 201.856 148.823 200.453 189.038 199.012C203.537 198.492 215.788 199.864 227.449 201.17C246.005 203.249 263.066 205.16 285.311 199.012C298.615 195.334 307.678 189.969 317.064 184.411C324.666 179.91 332.48 175.284 342.931 171.327C371.919 160.352 419.758 151.279 419.758 151.279C419.758 151.279 560.899 95.3946 653.599 104.501C670.659 106.177 683.409 109.459 696.427 112.809C707.814 115.74 719.406 118.723 734.266 120.73C750.278 122.893 762.725 123.37 775.352 123.854C786.821 124.294 798.44 124.739 813.014 126.458C845.417 130.281 869.429 136.301 894.256 142.527C914.382 147.573 935.043 152.754 961.145 157.007C977.021 159.594 989.835 161.133 1002.34 162.601C1009.3 159.61 1016.7 156.777 1025.74 155.594C1042.6 153.386 1056.03 155.368 1069.37 157.338C1083.24 159.384 1097.02 161.418 1114.48 158.73C1117.51 158.265 1119.88 157.74 1122.22 157.223C1124.89 156.635 1127.5 156.058 1130.96 155.594C1144.09 153.833 1153.88 155.18 1164.34 156.617C1171.53 157.606 1179.03 158.637 1188.14 158.73C1209.11 158.946 1225.46 156.813 1241.75 154.685C1258.37 152.515 1274.94 150.351 1296.34 150.693C1302.69 150.794 1308.36 151.127 1313.68 151.574C1332.21 139.366 1348.93 127.725 1356.21 120.977C1363.07 114.619 1366.42 109.155 1369.47 104.184C1371.07 101.581 1372.58 99.1133 1374.48 96.7222C1366.89 97.3789 1360.32 96.8216 1353.35 96.2306C1347.28 95.7165 1340.92 95.1769 1333.33 95.3885C1322.34 95.6946 1312.83 98.1869 1303.81 100.548C1288.83 104.472 1275.24 108.032 1258.58 100.583C1253.53 98.3231 1250.26 95.1869 1247.04 92.111C1243.41 88.6365 1239.86 85.2389 1233.93 83.2688C1227.61 81.1705 1222.32 82.1197 1216.97 83.0796C1211.91 83.9863 1206.81 84.9024 1200.73 83.2688C1194.63 81.6283 1190.65 78.6644 1186.61 75.652C1182.93 72.9083 1179.19 70.1244 1173.75 68.2636C1168.01 66.3022 1163.09 66.2582 1158.23 66.2147C1152.97 66.1677 1147.79 66.1213 1141.71 63.6465C1134.01 60.5111 1129.67 55.6885 1125.19 50.7259C1121.36 46.4751 1117.44 42.1217 1111.23 38.6377C1089.81 26.606 1074.46 25.6522 1049.88 24.2096C1046.37 24.0032 1043.47 24.2594 1040.67 24.5058C1036.8 24.8481 1033.13 25.1715 1028.34 24.2096C1024.66 23.4725 1022.09 22.3173 1019.39 21.1038C1017.37 20.1978 1015.28 19.2593 1012.61 18.4383C995.896 13.3067 982.793 13.9785 968.772 14.6973C959.187 15.1888 949.173 15.7021 937.284 14.3984C926.198 13.1828 917.509 11.525 908.942 9.8906C899.414 8.07277 890.037 6.28385 877.683 5.16441C875.97 5.00918 874.272 4.85472 872.587 4.70151C803.929 -1.54125 758.058 -5.71205 694.804 24.2096C691.904 25.5814 689.649 27.1144 687.502 28.5736C684.097 30.8873 680.966 33.0153 675.973 34.0207C673.044 34.6105 670.692 34.3266 668.332 34.0418C666.022 33.763 663.704 33.4833 660.83 34.0207C653.664 35.3607 649.698 39.6018 645.578 44.0066C642.115 47.7092 638.545 51.5274 632.874 53.8354C629.416 55.2429 626.653 55.8555 623.783 56.4919C621.512 56.9954 619.174 57.5138 616.372 58.4524C611.661 60.0306 608.131 61.7803 604.643 63.5095C600.841 65.3941 597.089 67.2541 591.911 68.8407C588.195 69.9792 585.069 70.3823 582.022 70.7752C578.324 71.252 574.742 71.7139 570.361 73.4577C562.986 76.3937 558.813 81.1655 554.59 85.9951C550.628 90.5267 546.621 95.1092 539.882 98.2741C525.06 105.235 513.296 104.476 499.275 103.572C494.115 103.239 488.648 102.886 482.611 102.891C467.693 102.904 456.261 101.051 444.717 99.1785C433.907 97.4257 422.997 95.6566 409.032 95.3885C395.651 95.1316 385.633 95.9274 375.152 96.76C367.206 97.3912 358.993 98.0436 348.849 98.2741C345.826 98.3428 342.992 98.413 340.293 98.4799L340.286 98.48L340.282 98.4801L340.28 98.4802C324.033 98.8825 312.668 99.164 294.49 98.2741C282.343 97.6795 272.712 96.0619 263.295 94.4803C252.095 92.5993 241.199 90.7693 226.735 90.7715Z" fill="url(#paint1_linear_987_6134)"/>
<path d="M226.735 90.7715C205.882 90.7747 194.084 91.8385 173.541 95.3885C162.779 97.2483 154.535 100.212 146.442 103.122C137.177 106.453 128.11 109.713 115.688 111.163C92.7724 113.838 75.7177 109.046 57.9238 104.045C43.8993 100.104 29.4155 96.0332 11.2411 95.3885C7.83315 95.2676 3.91514 95.211 0 95.1932V217.489C5.75853 217.496 11.8254 217.415 16.8983 217.15C32.7397 216.322 44.3711 214.028 56.6348 211.61C65.5601 209.85 74.8204 208.024 86.2823 206.649C126.233 201.856 148.823 200.453 189.038 199.012C203.537 198.492 215.788 199.864 227.449 201.17C246.005 203.249 263.066 205.16 285.311 199.012C298.615 195.334 307.678 189.969 317.064 184.411C324.666 179.91 332.48 175.284 342.931 171.327C371.919 160.352 419.758 151.279 419.758 151.279C419.758 151.279 560.899 95.3946 653.599 104.501C670.659 106.177 683.409 109.459 696.427 112.809C707.814 115.74 719.406 118.723 734.266 120.73C750.278 122.893 762.725 123.37 775.352 123.854C786.821 124.294 798.44 124.739 813.014 126.458C845.417 130.281 869.429 136.301 894.256 142.527C914.382 147.573 935.043 152.754 961.145 157.007C977.021 159.594 989.835 161.133 1002.34 162.601C1009.3 159.61 1016.7 156.777 1025.74 155.594C1042.6 153.386 1056.03 155.368 1069.37 157.338C1083.24 159.384 1097.02 161.418 1114.48 158.73C1117.51 158.265 1119.88 157.74 1122.22 157.223C1124.89 156.635 1127.5 156.058 1130.96 155.594C1144.09 153.833 1153.88 155.18 1164.34 156.617C1171.53 157.606 1179.03 158.637 1188.14 158.73C1209.11 158.946 1225.46 156.813 1241.75 154.685C1258.37 152.515 1274.94 150.351 1296.34 150.693C1302.69 150.794 1308.36 151.127 1313.68 151.574C1332.21 139.366 1348.93 127.725 1356.21 120.977C1363.07 114.619 1366.42 109.155 1369.47 104.184C1371.07 101.581 1372.58 99.1133 1374.48 96.7222C1366.89 97.3789 1360.32 96.8216 1353.35 96.2306C1347.28 95.7165 1340.92 95.1769 1333.33 95.3885C1322.34 95.6946 1312.83 98.1869 1303.81 100.548C1288.83 104.472 1275.24 108.032 1258.58 100.583C1253.53 98.3231 1250.26 95.1869 1247.04 92.111C1243.41 88.6365 1239.86 85.2389 1233.93 83.2688C1227.61 81.1705 1222.32 82.1197 1216.97 83.0796C1211.91 83.9863 1206.81 84.9024 1200.73 83.2688C1194.63 81.6283 1190.65 78.6644 1186.61 75.652C1182.93 72.9083 1179.19 70.1244 1173.75 68.2636C1168.01 66.3022 1163.09 66.2582 1158.23 66.2147C1152.97 66.1677 1147.79 66.1213 1141.71 63.6465C1134.01 60.5111 1129.67 55.6885 1125.19 50.7259C1121.36 46.4751 1117.44 42.1217 1111.23 38.6377C1089.81 26.606 1074.46 25.6522 1049.88 24.2096C1046.37 24.0032 1043.47 24.2594 1040.67 24.5058C1036.8 24.8481 1033.13 25.1715 1028.34 24.2096C1024.66 23.4725 1022.09 22.3173 1019.39 21.1038C1017.37 20.1978 1015.28 19.2593 1012.61 18.4383C995.896 13.3067 982.793 13.9785 968.772 14.6973C959.187 15.1888 949.173 15.7021 937.284 14.3984C926.198 13.1828 917.509 11.525 908.942 9.8906C899.414 8.07277 890.037 6.28385 877.683 5.16441C875.97 5.00918 874.272 4.85472 872.587 4.70151C803.929 -1.54125 758.058 -5.71205 694.804 24.2096C691.904 25.5814 689.649 27.1144 687.502 28.5736C684.097 30.8873 680.966 33.0153 675.973 34.0207C673.044 34.6105 670.692 34.3266 668.332 34.0418C666.022 33.763 663.704 33.4833 660.83 34.0207C653.664 35.3607 649.698 39.6018 645.578 44.0066C642.115 47.7092 638.545 51.5274 632.874 53.8354C629.416 55.2429 626.653 55.8555 623.783 56.4919C621.512 56.9954 619.174 57.5138 616.372 58.4524C611.661 60.0306 608.131 61.7803 604.643 63.5095C600.841 65.3941 597.089 67.2541 591.911 68.8407C588.195 69.9792 585.069 70.3823 582.022 70.7752C578.324 71.252 574.742 71.7139 570.361 73.4577C562.986 76.3937 558.813 81.1655 554.59 85.9951C550.628 90.5267 546.621 95.1092 539.882 98.2741C525.06 105.235 513.296 104.476 499.275 103.572C494.115 103.239 488.648 102.886 482.611 102.891C467.693 102.904 456.261 101.051 444.717 99.1785C433.907 97.4257 422.997 95.6566 409.032 95.3885C395.651 95.1316 385.633 95.9274 375.152 96.76C367.206 97.3912 358.993 98.0436 348.849 98.2741C345.826 98.3428 342.992 98.413 340.293 98.4799L340.286 98.48L340.282 98.4801L340.28 98.4802C324.033 98.8825 312.668 99.164 294.49 98.2741C282.343 97.6795 272.712 96.0619 263.295 94.4803C252.095 92.5993 241.199 90.7693 226.735 90.7715Z" fill="url(#paint2_linear_987_6134)"/>
<path d="M1876.14 91.9257C1871.87 90.7111 1868.66 89.0778 1865.53 87.4878C1861.7 85.5418 1857.99 83.6608 1852.65 82.6917C1846.22 81.5259 1841.7 81.8651 1836.29 82.2706C1834.17 82.4297 1831.92 82.5991 1829.35 82.6917C1823.41 82.9066 1818.54 83.8514 1813.87 84.7574C1807.19 86.0547 1800.91 87.2726 1792.47 86.1545C1787.64 85.515 1784.07 84.103 1780.49 82.6898C1776.94 81.285 1773.39 79.8789 1768.59 79.229C1760.68 78.1574 1755.77 78.5131 1748.42 79.0466L1748.41 79.0469L1748.38 79.0496C1747.88 79.0857 1747.37 79.1227 1746.85 79.16L1746.38 79.1932L1745.87 79.229C1739.52 79.6735 1734.48 81.3553 1729.61 82.9782C1723.27 85.0925 1717.23 87.1067 1708.99 86.1545C1704.58 85.6447 1701.72 84.8058 1698.13 83.7529C1696.99 83.4194 1695.78 83.0645 1694.43 82.6917C1690.64 81.6502 1687.74 80.5988 1684.86 79.552C1681.88 78.4724 1678.92 77.3976 1675.01 76.3433C1645.91 68.4987 1623.08 75.2376 1599.4 82.2273C1590.8 84.7645 1582.1 87.3348 1572.94 89.2526C1575.36 89.9783 1577.57 90.9257 1579.83 91.8939C1583.31 93.3872 1586.91 94.9297 1591.57 95.7841C1600.93 97.4977 1608.34 96.7382 1615.83 95.9698C1622.8 95.2553 1629.85 94.533 1638.6 95.7841C1646.23 96.8737 1651.27 98.7888 1655.86 100.532C1662.41 103.025 1668.05 105.166 1679.01 104.041C1688.76 103.039 1697.75 101.841 1706.54 100.669C1723.76 98.3738 1740.2 96.1829 1760.03 95.7841C1780.05 95.3814 1794.55 98.8512 1810.04 102.557C1820.64 105.094 1831.71 107.742 1845.32 109.333C1862.3 111.317 1874.85 112.153 1888.32 113.051C1897.23 113.645 1906.54 114.265 1917.79 115.261C1918.52 115.325 1919.25 115.391 1920 115.457V96.1366C1909.32 96.2183 1889.64 95.7708 1876.14 91.9257Z" fill="url(#paint3_linear_987_6134)"/>
<path d="M1876.14 91.9257C1871.87 90.7111 1868.66 89.0778 1865.53 87.4878C1861.7 85.5418 1857.99 83.6608 1852.65 82.6917C1846.22 81.5259 1841.7 81.8651 1836.29 82.2706C1834.17 82.4297 1831.92 82.5991 1829.35 82.6917C1823.41 82.9066 1818.54 83.8514 1813.87 84.7574C1807.19 86.0547 1800.91 87.2726 1792.47 86.1545C1787.64 85.515 1784.07 84.103 1780.49 82.6898C1776.94 81.285 1773.39 79.8789 1768.59 79.229C1760.68 78.1574 1755.77 78.5131 1748.42 79.0466L1748.41 79.0469L1748.38 79.0496C1747.88 79.0857 1747.37 79.1227 1746.85 79.16L1746.38 79.1932L1745.87 79.229C1739.52 79.6735 1734.48 81.3553 1729.61 82.9782C1723.27 85.0925 1717.23 87.1067 1708.99 86.1545C1704.58 85.6447 1701.72 84.8058 1698.13 83.7529C1696.99 83.4194 1695.78 83.0645 1694.43 82.6917C1690.64 81.6502 1687.74 80.5988 1684.86 79.552C1681.88 78.4724 1678.92 77.3976 1675.01 76.3433C1645.91 68.4987 1623.08 75.2376 1599.4 82.2273C1590.8 84.7645 1582.1 87.3348 1572.94 89.2526C1575.36 89.9783 1577.57 90.9257 1579.83 91.8939C1583.31 93.3872 1586.91 94.9297 1591.57 95.7841C1600.93 97.4977 1608.34 96.7382 1615.83 95.9698C1622.8 95.2553 1629.85 94.533 1638.6 95.7841C1646.23 96.8737 1651.27 98.7888 1655.86 100.532C1662.41 103.025 1668.05 105.166 1679.01 104.041C1688.76 103.039 1697.75 101.841 1706.54 100.669C1723.76 98.3738 1740.2 96.1829 1760.03 95.7841C1780.05 95.3814 1794.55 98.8512 1810.04 102.557C1820.64 105.094 1831.71 107.742 1845.32 109.333C1862.3 111.317 1874.85 112.153 1888.32 113.051C1897.23 113.645 1906.54 114.265 1917.79 115.261C1918.52 115.325 1919.25 115.391 1920 115.457V96.1366C1909.32 96.2183 1889.64 95.7708 1876.14 91.9257Z" fill="url(#paint4_linear_987_6134)"/>
<path d="M1549.46 92.2701C1544.58 92.4628 1539.52 92.3737 1534.26 91.9257C1523.94 91.0472 1515.95 89.3287 1508.02 87.6227C1499.67 85.8246 1491.38 84.0405 1480.48 83.2688C1479.81 83.2207 1479.13 83.1728 1478.47 83.1253L1476.98 83.0188C1454.48 81.4099 1439.54 80.3419 1418.27 84.6627C1420.04 85.5674 1421.79 86.5364 1423.54 87.5006L1423.54 87.5025L1423.54 87.5032L1423.54 87.5037C1426.14 88.9388 1428.72 90.3633 1431.3 91.55C1435.58 93.5241 1439.05 92.9018 1442.96 92.2001C1445.9 91.6735 1449.08 91.1022 1453.05 91.5499C1467.19 93.1465 1479.67 92.654 1493.12 92.1225C1500.24 91.8417 1507.63 91.5499 1515.68 91.5499C1520.64 91.5499 1523.06 92.5222 1525.62 93.5501C1527.91 94.4679 1530.3 95.4301 1534.71 95.7841C1540.63 96.2596 1545.07 94.333 1549.46 92.2701Z" fill="url(#paint5_linear_987_6134)"/>
<path d="M1549.46 92.2701C1544.58 92.4628 1539.52 92.3737 1534.26 91.9257C1523.94 91.0472 1515.95 89.3287 1508.02 87.6227C1499.67 85.8246 1491.38 84.0405 1480.48 83.2688C1479.81 83.2207 1479.13 83.1728 1478.47 83.1253L1476.98 83.0188C1454.48 81.4099 1439.54 80.3419 1418.27 84.6627C1420.04 85.5674 1421.79 86.5364 1423.54 87.5006L1423.54 87.5025L1423.54 87.5032L1423.54 87.5037C1426.14 88.9388 1428.72 90.3633 1431.3 91.55C1435.58 93.5241 1439.05 92.9018 1442.96 92.2001C1445.9 91.6735 1449.08 91.1022 1453.05 91.5499C1467.19 93.1465 1479.67 92.654 1493.12 92.1225C1500.24 91.8417 1507.63 91.5499 1515.68 91.5499C1520.64 91.5499 1523.06 92.5222 1525.62 93.5501C1527.91 94.4679 1530.3 95.4301 1534.71 95.7841C1540.63 96.2596 1545.07 94.333 1549.46 92.2701Z" fill="url(#paint6_linear_987_6134)"/>
<path d="M189.038 198.753C148.823 200.194 126.233 201.597 86.2823 206.39C74.8204 207.765 65.5601 209.591 56.6348 211.351C44.3711 213.77 32.7397 216.063 16.8983 216.891C11.8254 217.156 5.75853 217.237 0 217.23V239.681C9.26484 240.571 18.3876 241.27 26.5167 241.594C28.6017 241.678 30.5928 241.76 32.5094 241.84C49.108 242.528 60.1187 242.985 78.1354 241.594C89.8214 240.693 98.0627 239.244 107.318 237.618C112.236 236.753 117.44 235.839 123.6 234.929C131.743 233.726 138.712 231.46 145.304 229.318C157.417 225.379 168.255 221.856 182.763 226.107C186.759 227.278 189.585 228.909 192.424 230.547C195.183 232.14 197.954 233.739 201.822 234.929C212.121 238.097 220.174 237.085 228.845 235.995C234.632 235.267 240.694 234.505 247.882 234.929C258.213 235.538 266.183 236.9 274.161 238.264C282.09 239.619 290.026 240.975 300.295 241.594C329.441 243.352 350.399 240.189 373.529 236.699C386.902 234.681 401 232.554 417.826 231.204C426.985 230.469 434.874 228.72 442.332 227.066C456.331 223.96 468.813 221.192 485.328 226.107C488.824 227.147 491.451 228.871 493.964 230.519C497.448 232.805 500.714 234.947 505.777 234.929C511.077 234.91 514.451 232.731 518.132 230.352C520.455 228.852 522.899 227.273 526.027 226.107C528.719 225.103 531.286 224.121 533.758 223.175L533.765 223.173C551.661 216.323 564.683 211.34 585.389 213.56C589.986 214.053 593.356 214.974 596.861 215.932C599.617 216.685 602.455 217.461 606.036 218.069C640.461 223.915 663.465 219.46 693.549 213.635L693.551 213.635L693.557 213.634C700.581 212.274 707.992 210.839 716.024 209.443C737.79 205.661 771.216 197.092 771.216 197.092L878.623 176.116C878.623 176.116 915.223 161.396 938.977 164.745C943.736 165.416 947.294 166.745 950.837 168.068C954.478 169.427 958.103 170.781 963 171.411C977.451 173.268 987.741 168.747 998.659 163.949C999.877 163.414 1001.1 162.875 1002.34 162.342C989.835 160.874 977.021 159.335 961.145 156.748C935.043 152.495 914.382 147.314 894.256 142.268C869.429 136.043 845.417 130.022 813.014 126.2C798.44 124.48 786.821 124.035 775.352 123.595C762.725 123.111 750.278 122.634 734.266 120.472C719.406 118.464 707.814 115.481 696.427 112.55C683.409 109.2 670.659 105.919 653.599 104.243C560.899 95.1358 419.758 151.02 419.758 151.02C419.758 151.02 371.919 160.093 342.931 171.068C332.48 175.025 324.666 179.651 317.064 184.152C307.678 189.71 298.615 195.076 285.311 198.753C263.066 204.901 246.005 202.99 227.449 200.912C215.788 199.605 203.537 198.233 189.038 198.753Z" fill="url(#paint7_linear_987_6134)"/>
<path d="M189.038 198.753C148.823 200.194 126.233 201.597 86.2823 206.39C74.8204 207.765 65.5601 209.591 56.6348 211.351C44.3711 213.77 32.7397 216.063 16.8983 216.891C11.8254 217.156 5.75853 217.237 0 217.23V239.681C9.26484 240.571 18.3876 241.27 26.5167 241.594C28.6017 241.678 30.5928 241.76 32.5094 241.84C49.108 242.528 60.1187 242.985 78.1354 241.594C89.8214 240.693 98.0627 239.244 107.318 237.618C112.236 236.753 117.44 235.839 123.6 234.929C131.743 233.726 138.712 231.46 145.304 229.318C157.417 225.379 168.255 221.856 182.763 226.107C186.759 227.278 189.585 228.909 192.424 230.547C195.183 232.14 197.954 233.739 201.822 234.929C212.121 238.097 220.174 237.085 228.845 235.995C234.632 235.267 240.694 234.505 247.882 234.929C258.213 235.538 266.183 236.9 274.161 238.264C282.09 239.619 290.026 240.975 300.295 241.594C329.441 243.352 350.399 240.189 373.529 236.699C386.902 234.681 401 232.554 417.826 231.204C426.985 230.469 434.874 228.72 442.332 227.066C456.331 223.96 468.813 221.192 485.328 226.107C488.824 227.147 491.451 228.871 493.964 230.519C497.448 232.805 500.714 234.947 505.777 234.929C511.077 234.91 514.451 232.731 518.132 230.352C520.455 228.852 522.899 227.273 526.027 226.107C528.719 225.103 531.286 224.121 533.758 223.175L533.765 223.173C551.661 216.323 564.683 211.34 585.389 213.56C589.986 214.053 593.356 214.974 596.861 215.932C599.617 216.685 602.455 217.461 606.036 218.069C640.461 223.915 663.465 219.46 693.549 213.635L693.551 213.635L693.557 213.634C700.581 212.274 707.992 210.839 716.024 209.443C737.79 205.661 771.216 197.092 771.216 197.092L878.623 176.116C878.623 176.116 915.223 161.396 938.977 164.745C943.736 165.416 947.294 166.745 950.837 168.068C954.478 169.427 958.103 170.781 963 171.411C977.451 173.268 987.741 168.747 998.659 163.949C999.877 163.414 1001.1 162.875 1002.34 162.342C989.835 160.874 977.021 159.335 961.145 156.748C935.043 152.495 914.382 147.314 894.256 142.268C869.429 136.043 845.417 130.022 813.014 126.2C798.44 124.48 786.821 124.035 775.352 123.595C762.725 123.111 750.278 122.634 734.266 120.472C719.406 118.464 707.814 115.481 696.427 112.55C683.409 109.2 670.659 105.919 653.599 104.243C560.899 95.1358 419.758 151.02 419.758 151.02C419.758 151.02 371.919 160.093 342.931 171.068C332.48 175.025 324.666 179.651 317.064 184.152C307.678 189.71 298.615 195.076 285.311 198.753C263.066 204.901 246.005 202.99 227.449 200.912C215.788 199.605 203.537 198.233 189.038 198.753Z" fill="url(#paint8_linear_987_6134)"/>
<path d="M938.977 164.93C915.223 161.581 878.623 176.3 878.623 176.3L771.216 197.277C771.216 197.277 737.79 205.845 716.024 209.628C707.992 211.024 700.581 212.458 693.557 213.818L693.551 213.82L693.549 213.82C663.465 219.645 640.461 224.099 606.036 218.254C602.455 217.645 599.617 216.87 596.861 216.117C593.356 215.159 589.986 214.238 585.389 213.745C564.683 211.524 551.661 216.508 533.765 223.357L533.758 223.36C531.286 224.306 528.719 225.288 526.027 226.291C522.899 227.457 520.455 229.037 518.132 230.537C514.451 232.915 511.077 235.095 505.777 235.113C500.714 235.131 497.448 232.989 493.964 230.704C491.451 229.055 488.824 227.332 485.328 226.291C468.813 221.377 456.331 224.145 442.332 227.25C434.874 228.904 426.985 230.654 417.826 231.389C401 232.738 386.902 234.866 373.529 236.884C350.399 240.374 329.441 243.536 300.295 241.779C290.026 241.16 282.09 239.803 274.161 238.448C266.183 237.085 258.213 235.723 247.882 235.113C240.694 234.69 234.632 235.452 228.845 236.179C220.174 237.269 212.121 238.282 201.822 235.113C197.954 233.924 195.183 232.324 192.424 230.732C189.585 229.094 186.759 227.462 182.763 226.291C168.255 222.041 157.417 225.564 145.304 229.502C138.712 231.645 131.743 233.911 123.6 235.113C117.44 236.023 112.236 236.938 107.318 237.802C98.0627 239.429 89.8214 240.877 78.1354 241.779C60.1187 243.169 49.108 242.712 32.5094 242.024C30.5928 241.945 28.6017 241.862 26.5167 241.779C18.3876 241.455 9.26484 240.755 0 239.865V276.479H1920V137.555C1910.98 136.847 1895.68 136.143 1884.79 138.268C1881.78 138.855 1879.54 139.53 1877.25 140.222C1875.27 140.815 1873.26 141.421 1870.7 141.993C1844.92 147.729 1825.24 142.644 1804.52 137.29C1788.77 133.223 1772.43 129.002 1752.37 129.25C1735.86 129.453 1724.94 130.463 1711.08 131.745C1706.86 132.135 1702.38 132.549 1697.38 132.974C1684.11 134.103 1673.45 135.559 1663.1 136.973C1649.94 138.772 1637.27 140.503 1620.34 141.404C1601.67 142.399 1588.28 142.103 1573.31 141.773C1565.2 141.594 1556.63 141.404 1546.49 141.404C1539.46 141.404 1533.51 141.221 1527.88 141.047C1517.49 140.727 1508.21 140.441 1495.27 141.404C1485.3 142.147 1478 143.358 1470.22 144.65C1464.9 145.532 1459.36 146.451 1452.58 147.286C1444.69 148.257 1437.6 149.217 1430.93 150.119L1430.91 150.12L1430.91 150.121C1408.45 153.159 1390.81 155.543 1364.04 155.52C1350.31 155.508 1339.75 154.307 1329.08 153.093C1324.08 152.525 1319.06 151.953 1313.68 151.5C1308.36 151.052 1302.69 150.72 1296.34 150.618C1274.94 150.277 1258.37 152.441 1241.75 154.611C1225.46 156.738 1209.11 158.872 1188.14 158.656C1179.03 158.563 1171.53 157.531 1164.34 156.543C1153.88 155.106 1144.09 153.759 1130.96 155.52C1127.5 155.983 1124.89 156.561 1122.22 157.149C1119.88 157.665 1117.51 158.191 1114.48 158.656C1097.02 161.344 1083.24 159.31 1069.37 157.263C1056.03 155.293 1042.6 153.312 1025.74 155.52C1016.7 156.702 1009.3 159.535 1002.34 162.526C1001.1 163.06 999.877 163.599 998.659 164.134C987.741 168.931 977.451 173.453 963 171.595C958.103 170.966 954.478 169.612 950.837 168.252C947.294 166.929 943.736 165.601 938.977 164.93Z" fill="#1197E4"/>
<defs>
<linearGradient id="paint0_linear_987_6134" x1="1313.68" y1="155.594" x2="1921.96" y2="102.595" gradientUnits="userSpaceOnUse">
<stop stopColor="#74C7F8"/>
<stop offset="1" stopColor="#1FA2EE"/>
</linearGradient>
<linearGradient id="paint1_linear_987_6134" x1="0" y1="0.239258" x2="1923.15" y2="184.661" gradientUnits="userSpaceOnUse">
<stop stopColor="#58BBF5"/>
<stop offset="0.989583" stopColor="#0B7DBF"/>
</linearGradient>
<linearGradient id="paint2_linear_987_6134" x1="0" y1="0.239258" x2="1923.15" y2="184.661" gradientUnits="userSpaceOnUse">
<stop stopColor="#ADDBF6"/>
<stop offset="0.989583" stopColor="#1197E4"/>
</linearGradient>
<linearGradient id="paint3_linear_987_6134" x1="0" y1="0.239258" x2="1923.15" y2="184.661" gradientUnits="userSpaceOnUse">
<stop stopColor="#58BBF5"/>
<stop offset="0.989583" stopColor="#0B7DBF"/>
</linearGradient>
<linearGradient id="paint4_linear_987_6134" x1="0" y1="0.239258" x2="1923.15" y2="184.661" gradientUnits="userSpaceOnUse">
<stop stopColor="#ADDBF6"/>
<stop offset="0.989583" stopColor="#1197E4"/>
</linearGradient>
<linearGradient id="paint5_linear_987_6134" x1="0" y1="0.239258" x2="1923.15" y2="184.661" gradientUnits="userSpaceOnUse">
<stop stopColor="#58BBF5"/>
<stop offset="0.989583" stopColor="#0B7DBF"/>
</linearGradient>
<linearGradient id="paint6_linear_987_6134" x1="0" y1="0.239258" x2="1923.15" y2="184.661" gradientUnits="userSpaceOnUse">
<stop stopColor="#ADDBF6"/>
<stop offset="0.989583" stopColor="#1197E4"/>
</linearGradient>
<linearGradient id="paint7_linear_987_6134" x1="1.05082e-05" y1="242.499" x2="1030.29" y2="160.155" gradientUnits="userSpaceOnUse">
<stop stopColor="#0668A0"/>
<stop offset="1" stopColor="#1197E4"/>
</linearGradient>
<linearGradient id="paint8_linear_987_6134" x1="1.05082e-05" y1="242.499" x2="1030.29" y2="160.155" gradientUnits="userSpaceOnUse">
<stop stopColor="#58BBF5"/>
<stop offset="1" stopColor="#1197E4"/>
</linearGradient>
</defs>
</svg>
