<svg width="1920" height="247" viewBox="0 0 1920 247" fill="none" xmlns="http://www.w3.org/2000/svg">
<path d="M1918.23 117.176C1889.95 114.673 1873.96 114.543 1845.76 111.248C1812.26 107.334 1794.19 97.0207 1760.47 97.6991C1730.52 98.3014 1708.3 102.992 1679.44 105.956C1660.82 107.869 1657.58 100.347 1639.04 97.6991C1620.86 95.1026 1610.07 101.006 1592.01 97.6991C1583.6 96.1583 1578.65 92.379 1571.6 90.6878C1569.75 90.244 1567.75 89.9439 1565.5 89.8659C1559.45 89.6555 1554.94 91.8095 1550.46 93.9219C1545.88 96.0801 1541.32 98.1948 1535.15 97.6991C1525.8 96.9486 1525.49 93.465 1516.12 93.465C1492.82 93.465 1475.1 95.9053 1453.49 93.465C1444.23 92.4207 1439.23 96.9205 1431.73 93.4651C1427.06 91.3128 1422.38 88.3785 1417.59 86.0172C1412.67 83.5901 1407.64 81.7685 1402.39 82.0239C1393.64 82.45 1396.87 83.2274 1389.14 87.3166C1382.38 90.89 1378.36 94.4208 1375.32 98.1279C1369.52 105.225 1367.35 112.968 1356.65 122.892C1349.35 129.654 1332.58 141.329 1314 153.565" stroke="#0BA2FA" stroke-width="4"/>
<path d="M1 218.652C1 218.652 23.8468 219.415 38.453 218.652C65.8235 217.221 80.6261 211.416 107.837 208.151C147.788 203.358 170.378 201.955 210.592 200.514C248.165 199.167 270.643 210.526 306.866 200.514C330.945 193.858 341.13 181.672 364.486 172.829C393.473 161.853 441.312 152.781 441.312 152.781C441.312 152.781 582.454 96.8965 675.153 106.003C707.139 109.146 723.972 117.931 755.821 122.232C786.375 126.359 803.948 124.348 834.568 127.96C893.237 134.881 924.397 149.009 982.7 158.509C991.564 159.953 999.474 161.071 1006.91 162.032" stroke="#BF980B" stroke-width="4"/>
<path d="M1919 139.224C1909.87 138.552 1895.41 137.996 1885 140.028C1879.41 141.12 1876.46 142.516 1870.9 143.753C1825.55 153.846 1799.05 130.437 1752.57 131.01C1731.05 131.276 1719.03 132.912 1697.58 134.735C1667.42 137.299 1650.77 141.556 1620.55 143.165C1591.75 144.698 1575.54 143.165 1546.69 143.165C1526.69 143.165 1515.42 141.679 1495.47 143.165C1478.69 144.415 1469.49 146.99 1452.79 149.046C1418.32 153.29 1398.97 157.311 1364.24 157.28C1344.44 157.263 1331.23 154.772 1314.77 153.337C1309.19 152.851 1303.25 152.486 1296.54 152.379C1254.17 151.703 1230.71 160.853 1188.34 160.417C1165.98 160.187 1153.32 154.309 1131.16 157.28C1124.67 158.151 1121.16 159.42 1114.69 160.417C1080.42 165.692 1060.32 152.779 1025.94 157.28C1019.04 158.184 1013.08 160.052 1007.56 162.217C992.995 167.922 981.398 175.694 963.204 173.356C953.541 172.114 948.828 168.05 939.181 166.69C915.427 163.341 878.827 178.061 878.827 178.061L771.42 199.038C771.42 199.038 737.994 207.606 716.228 211.388C673.792 218.763 648.705 227.225 606.24 220.014C598.102 218.632 593.803 216.386 585.593 215.505C562.024 212.978 548.411 219.785 526.231 228.052C518.145 231.067 514.625 236.844 505.981 236.874C497.266 236.905 493.876 230.535 485.532 228.052C460.219 220.519 444.382 231.036 418.031 233.149C372.099 236.833 346.496 246.313 300.499 243.54C279.899 242.298 268.687 238.089 248.086 236.874C230.13 235.815 219.199 242.157 202.026 236.874C194.178 234.46 190.847 230.361 182.967 228.052C160.566 221.488 146.913 233.461 123.804 236.874C106.052 239.496 96.2344 242.159 78.3395 243.54C58.2423 245.09 46.8627 244.343 26.7207 243.54C19.0144 243.232 10.4152 242.588 1.64844 241.763" stroke="#BF0B0B" stroke-width="4"/>
<path d="M1918.35 97.878C1908.22 98.0201 1886.99 97.7583 1872.69 93.6865C1863.21 90.9853 1858.91 86.2134 1849.2 84.4525C1840.25 82.8291 1835 84.1239 1825.91 84.4525C1811.45 84.975 1803.36 89.8142 1789.02 87.9152C1779.39 86.64 1774.77 82.2936 1765.14 80.9897C1756.35 79.7993 1751.28 80.3703 1742.43 80.9897C1727.8 82.0134 1720.1 89.5983 1705.54 87.9152C1699.73 87.2439 1696.62 86.0021 1690.98 84.4525C1683.29 82.3368 1679.27 80.1807 1671.57 78.1041C1632.76 67.6431 1605.1 83.1155 1571.71 90.5336C1569.86 90.0897 1567.87 89.7897 1565.62 89.7117C1559.56 89.5012 1555.06 91.6553 1550.58 93.7676C1544.29 94.2441 1537.73 94.2754 1530.82 93.6865C1509.62 91.8819 1498.26 86.5334 1477.04 85.0296C1453.61 83.3694 1438.54 82.0058 1417.71 85.863C1412.79 83.4359 1407.76 81.6142 1402.51 81.8697C1393.76 82.2957 1396.99 83.0732 1389.26 87.1624C1382.5 90.7358 1378.47 94.2666 1375.44 97.9737C1358.94 100.355 1347.85 96.6485 1329.88 97.1492C1300.63 97.9643 1281.81 114.274 1255.14 102.343C1244.38 97.5316 1241.67 88.7438 1230.48 85.0296C1218.19 80.9493 1209.8 88.3926 1197.29 85.0296C1185.62 81.8949 1181.72 73.9281 1170.3 70.0243C1158.35 65.9405 1149.96 70.1689 1138.27 65.4073C1123.97 59.5862 1121.23 47.9498 1107.79 40.3985C1086.37 28.3667 1071.02 27.413 1046.44 25.9703C1038.04 25.4773 1033.14 27.6247 1024.89 25.9703C1018.47 24.683 1015.42 22.1196 1009.16 20.1991C981.025 11.5594 963.119 19.3699 933.839 16.1592C910.423 13.5916 897.698 9.05108 874.238 6.92515C802.724 0.444743 756.165 -4.68565 691.359 25.9703C683.861 29.5172 680.67 34.1419 672.527 35.7815C666.732 36.9484 663.196 34.6949 657.385 35.7815C644.195 38.2477 641.845 50.5425 629.429 55.5961C623.234 58.1173 619.27 58.0881 612.927 60.2132C603.081 63.5113 598.395 67.5591 588.465 70.6014C580.239 73.1218 574.905 72.038 566.916 75.2184C552.621 80.9092 550.357 93.4967 536.436 100.035C516.159 109.558 501.605 104.632 479.165 104.652C450.279 104.677 434.467 97.7037 405.586 97.1492C382.06 96.6975 368.928 99.5002 345.403 100.035C324.18 100.517 312.247 101.073 291.044 100.035C264.452 98.7331 249.914 92.5281 223.29 92.5322C202.437 92.5354 190.639 93.5993 170.096 97.1492C147.011 101.138 135.514 110.207 112.242 112.924C71.2657 117.708 49.0293 98.612 7.79562 97.1492C5.68537 97.0744 3.37958 97.0242 1 96.9926" stroke="#0BBF1D" stroke-width="4"/>
</svg>
