<svg width="302" height="262" viewBox="0 0 302 262" fill="none" xmlns="http://www.w3.org/2000/svg">
<path d="M219.813 114.527C225.993 107.692 229.775 98.6383 229.811 88.6932C229.822 85.3955 229.421 82.1888 228.654 79.1241C228.275 77.6116 227.808 76.1336 227.257 74.6963C226.912 73.7966 226.535 72.913 226.126 72.047C221.96 63.2166 214.558 56.2147 205.44 52.5723L205.141 52.4205C183.872 41.6418 160.296 34.7493 135.347 32.6801C130.779 28.6515 124.778 26.1937 118.207 26.1703C113.547 26.1536 109.162 27.3635 105.365 29.4964L90.0833 21.8021L86.48 18.5358C159.444 24.6388 239.688 32.9834 239.236 94.5576C239.186 101.328 238.783 107.992 235.327 113.692L219.813 114.527Z" fill="#E5F6FF"/>
<path d="M204.465 187.079L205.381 183.467C206.646 178.485 205.75 173.199 202.914 168.912L193.706 154.993C193.041 153.987 192.277 153.049 191.426 152.194L164.209 124.827L227.499 121.422C218.929 126.808 204.1 130.215 178.443 130.191C219.448 153.892 220.55 174.197 213.543 185.118L204.465 187.079Z" fill="#E5F6FF"/>
<path d="M1.69877 124.965C-3.42934 107.588 4.80463 93.9313 16.3018 94.8876C41.2867 91.9262 54.9166 88.3846 66.9953 80.0605C68.6128 80.3132 70.2707 80.3492 71.9257 80.156C70.8831 81.3035 69.6022 82.2237 68.1614 82.8456L36.8908 96.3435C35.7681 96.8281 34.5722 97.1212 33.3527 97.2106L24.8821 97.8318C24.501 97.8597 24.1206 97.7685 23.7936 97.5707C20.4452 95.5453 16.1791 95.876 13.1827 98.393L9.48669 101.498C4.73811 105.487 2.74544 111.875 4.38393 117.856L6.29512 124.833C7.07396 127.676 8.91448 130.112 11.4369 131.638C13.512 132.893 15.9305 133.46 18.3472 133.259L19.2103 133.187L38.1766 131.606L100.441 128.257C101.849 134.645 104.964 140.397 109.281 145.002C109.368 145.095 109.46 145.183 109.556 145.267L144.992 175.919L143.63 176.94C143.203 177.26 142.719 177.563 142.096 177.943C135.182 182.153 130.54 189.761 130.509 198.465C130.503 200.212 130.683 201.919 131.032 203.565L126.895 204.477C120.701 190.994 133.998 177.848 140.341 175.259C127.634 170.925 102.136 154.148 96.7501 132.871C77.8691 130.795 60.0591 132.893 45.0199 134.665C22.3119 137.341 5.92098 139.272 1.69877 124.965Z" fill="#E5F6FF"/>
<path fillRule="evenodd" clipRule="evenodd" d="M129.339 208.489L208.904 190.273C210.597 188.918 212.216 187.186 213.543 185.118L289.579 168.689C294.924 167.534 301.636 170.773 301.611 177.636C301.556 192.986 289.973 205.594 275.088 207.297L41.2016 260.7C41.1506 260.711 41.0994 260.722 41.048 260.731C39.2473 261.062 37.3931 261.231 35.5017 261.224C25.3142 261.188 16.3337 256.068 10.9537 248.292C7.90695 243.888 8.32508 238.983 10.6521 235.157C12.8986 231.464 16.9054 228.711 21.4235 227.716L126.895 204.477C127.509 205.814 128.315 207.155 129.339 208.489ZM291.12 175.822L200.281 195.45L200.249 195.457L182.455 199.47L136.471 209.84L136.453 209.844L22.994 234.843C20.6078 235.369 18.6068 236.688 17.3866 238.234C17.2019 238.468 17.0352 238.708 16.8876 238.95C15.8458 240.663 15.7696 242.425 16.9558 244.139C21.0361 250.037 27.8273 253.898 35.5278 253.926C36.9402 253.931 38.3198 253.807 39.6564 253.566L273.667 200.135C273.806 200.103 273.948 200.079 274.091 200.064C285.423 198.852 294.271 189.274 294.313 177.61C294.315 177.019 294.064 176.566 293.543 176.217C292.966 175.83 292.078 175.615 291.12 175.822Z" fill="#0B7DBF"/>
<path d="M208.904 190.273L129.339 208.489C128.315 207.155 127.509 205.814 126.895 204.477L131.032 203.565C130.683 201.919 130.503 200.212 130.509 198.465C130.54 189.761 135.182 182.153 142.096 177.943C142.719 177.563 143.203 177.26 143.63 176.94L144.992 175.919L109.556 145.267C109.46 145.183 109.368 145.095 109.281 145.002C104.964 140.397 101.849 134.645 100.441 128.257L107.853 127.858C109.062 132.41 111.37 136.515 114.479 139.875L139.224 161.279L144.831 166.129L151.128 171.576L154.936 177.804L152.89 179.121L148.006 182.781C147.268 183.334 146.513 183.798 145.892 184.176C141.055 187.122 137.829 192.428 137.808 198.491C137.803 199.689 137.924 200.855 138.156 201.978L196.492 188.823L198.307 181.672C199.066 178.682 198.528 175.511 196.826 172.939L187.619 159.02C187.268 158.49 186.872 157.991 186.435 157.53L181.174 152.236L172.605 143.619L167.432 138.417L154.439 125.352L164.209 124.827L191.426 152.194C192.277 153.049 193.041 153.987 193.706 154.993L202.914 168.912C205.75 173.199 206.646 178.485 205.381 183.467L204.465 187.079L213.543 185.118C212.216 187.186 210.597 188.918 208.904 190.273Z" fill="#0B7DBF"/>
<path d="M51.7473 68.404L73.2061 75.263C71.1484 77.0215 69.0953 78.6132 66.9953 80.0605L66.9392 80.0516C63.7066 79.5363 60.6378 78.1551 58.0799 76.008L57.2483 75.3099L56.4046 74.63C54.5214 73.1123 51.9863 72.2552 48.9288 71.6669C48.6415 71.6116 48.3556 71.5524 48.0712 71.4892C34.1808 68.4045 23.8151 55.9922 23.868 41.1772C23.9152 28.0014 32.1903 16.7876 43.7974 12.3672L70.0545 1.3698L70.0768 1.36021C71.1215 0.911747 72.2705 0.667004 73.4673 0.671283C78.1739 0.688111 81.9757 4.5172 81.9589 9.22382L81.9403 14.4205L86.48 18.5358C84.4306 18.3644 82.387 18.1947 80.351 18.0257L80.3354 18.0244L80.3078 18.0221L80.2953 18.0211C78.0799 17.8372 75.8735 17.654 73.6788 17.4701L71.7021 20.2448L74.6394 15.0641L74.6604 9.19773C74.6628 8.52197 74.117 7.97219 73.4412 7.96977C73.2604 7.96913 73.0979 8.00572 72.9528 8.06847L46.5604 19.1228C46.5213 19.1392 46.4818 19.155 46.4421 19.17C37.5379 22.5391 31.2026 31.1282 31.1666 41.2033C31.1363 49.6753 35.5685 57.1266 42.254 61.3241C43.762 62.2709 45.3847 63.0522 47.0966 63.6422L49.6613 59.1188L51.7473 68.404Z" fill="#0B7DBF"/>
<path d="M100.306 35.1209L89.6153 29.738L83.4897 25.676L79.2115 21.7979L73.1874 32.4228C72.3056 32.6223 71.3929 32.8923 70.4345 33.2677C64.4647 35.6055 61.1658 39.5738 58.266 43.9424L71.7021 20.2448L73.6788 17.4701C75.8735 17.654 78.0799 17.8372 80.2953 18.0211L80.3078 18.0221L80.3354 18.0244L80.351 18.0257C82.387 18.1947 84.4306 18.3644 86.48 18.5358L90.0833 21.8021L105.365 29.4964C109.162 27.3635 113.547 26.1536 118.207 26.1703C124.778 26.1937 130.779 28.6515 135.347 32.6801C160.296 34.7493 183.872 41.6418 205.141 52.4205L205.44 52.5723C214.558 56.2147 221.96 63.2166 226.126 72.047L218.372 72.9498C214.841 66.7874 209.28 61.9306 202.601 59.2978C202.495 59.2561 202.391 59.2094 202.29 59.158L201.841 58.9307C183.315 49.5416 162.967 43.2196 141.46 40.6354L131.241 38.8248C127.87 35.5232 123.268 33.4869 118.181 33.4688C114.512 33.4556 111.095 34.4924 108.202 36.2963L100.306 35.1209Z" fill="#0B7DBF"/>
<path d="M229.811 88.6932C229.775 98.6383 225.993 107.692 219.813 114.527L207.809 115.172C212.928 111.947 217.049 107.29 219.612 101.763C221.458 97.7792 222.495 93.3439 222.512 88.6671C222.523 85.6441 222.108 82.7239 221.324 79.9608L228.654 79.1241C229.421 82.1888 229.822 85.3955 229.811 88.6932Z" fill="#0B7DBF"/>
<path fillRule="evenodd" clipRule="evenodd" d="M73.2061 75.263L51.7473 68.404L49.6613 59.1188L58.266 43.9424C61.1658 39.5738 64.4647 35.6055 70.4345 33.2677C71.3929 32.8923 72.3056 32.6223 73.1874 32.4228L69.3451 39.1995L76.1254 40.274L80.4929 31.6165L83.4897 25.676L89.6153 29.738L81.918 44.996L82.0705 46.5793C82.6114 52.19 80.5287 57.7357 76.4282 61.6034L65.366 72.0375C67.2156 72.8591 69.2763 73.1604 71.3205 72.8759L76.8697 72.1033L100.306 35.1209L108.202 36.2963L82.1826 77.3546L79.7412 81.7124C77.7837 85.2064 74.731 87.9593 71.0539 89.5465L39.7832 103.044C39.0034 103.381 38.2025 103.662 37.3864 103.886L30.1301 104.765L25.4159 105.111C23.5253 105.249 21.6383 104.797 20.0163 103.816C19.3413 103.407 18.4813 103.474 17.8772 103.981L14.1812 107.086C11.6146 109.242 10.5376 112.695 11.4232 115.928L13.3344 122.905C13.6191 123.944 14.2921 124.835 15.2144 125.393C15.3419 125.47 15.4729 125.54 15.6069 125.603C16.2703 125.914 17.0059 126.047 17.741 125.986C16.7389 126.102 14.7326 126.936 14.724 129.336C14.7133 132.336 17.4841 133.331 18.3472 133.259C15.9305 133.46 13.512 132.893 11.4369 131.638C8.91448 130.112 7.07396 127.676 6.29512 124.833L4.38393 117.856C2.74544 111.875 4.73811 105.487 9.48669 101.498L13.1827 98.393C16.1791 95.876 20.4452 95.5453 23.7936 97.5707C24.1206 97.7685 24.501 97.8597 24.8821 97.8318L33.3527 97.2106C34.5722 97.1212 35.7681 96.8281 36.8908 96.3435L68.1614 82.8456C69.6022 82.2237 70.8831 81.3035 71.9257 80.156C70.2707 80.3492 68.6128 80.3132 66.9953 80.0605C69.0953 78.6132 71.1484 77.0215 73.2061 75.263ZM54.4177 65.5276L65.5008 45.9799L74.8214 47.457C75.0859 50.7626 73.8373 54.0142 71.4202 56.294L59.285 67.7403C57.7231 66.7644 56.0653 66.058 54.4177 65.5276Z" fill="#0B7DBF"/>
<path d="M139.224 161.279L167.432 138.417L172.605 143.619L144.831 166.129L139.224 161.279Z" fill="#0B7DBF"/>
<path d="M151.128 171.576L181.174 152.236L186.435 157.53L154.936 177.804L151.128 171.576Z" fill="#0B7DBF"/>
<path d="M40.9597 124.147L50.5331 123.632L67.8082 122.703L99.6047 120.993L106.9 120.6L207.809 115.172L219.813 114.527L235.327 113.692C233.597 116.546 231.1 119.159 227.499 121.422L164.209 124.827L154.439 125.352L107.853 127.858L100.441 128.257L38.1766 131.606L19.2103 133.187C19.2251 129.055 28.8356 125.781 33.639 124.66L40.9597 124.147Z" fill="#0B7DBF"/>
<path d="M261.384 128.257L260.304 119.658L227.499 121.422C231.1 119.159 233.597 116.546 235.327 113.692L259.382 112.398L258.541 105.841C258.285 103.842 259.698 102.013 261.697 101.757C263.696 101.501 265.524 102.914 265.781 104.913L266.69 112.005L275.574 111.527C277.587 111.419 279.306 112.963 279.414 114.975C279.522 116.988 277.979 118.707 275.966 118.815L267.61 119.265L268.625 127.347C268.876 129.347 267.459 131.172 265.459 131.423C263.459 131.674 261.635 130.257 261.384 128.257Z" fill="#0B7DBF"/>
<path d="M106.9 120.415C106.9 120.477 106.9 120.538 106.9 120.6L99.6047 120.993C99.6021 120.792 99.6011 120.59 99.6018 120.389C99.6236 114.297 101.166 108.567 103.866 103.555C107.014 103.279 110.037 103.079 112.959 102.942C109.181 107.76 106.924 113.822 106.9 120.415Z" fill="#0B7DBF"/>
<path d="M136.845 51.0883C136.557 46.2979 134.472 41.9883 131.241 38.8248L141.46 40.6354C142.977 43.6828 143.916 47.0698 144.13 50.651C144.214 52.0338 144.046 53.3309 143.816 54.4594L142.625 60.3043C142.208 62.3536 141.441 64.3159 140.358 66.1055L136.715 72.1292C135.943 73.4057 135.017 74.5827 133.958 75.6338L126.146 83.3901L117.208 91.1785L104.718 102.061L102.842 103.647C97.7044 104.122 92.4654 104.805 87.1496 105.674L90.2376 104.24C91.1234 103.828 91.9502 103.3 92.6959 102.67L117.48 81.7098L128.816 70.4545C129.451 69.8239 130.007 69.1176 130.47 68.3517L134.113 62.328C134.763 61.2543 135.223 60.0769 135.473 58.8473L136.664 53.0025C136.818 52.2471 136.877 51.6245 136.845 51.0883Z" fill="#0B7DBF"/>
<path d="M221.324 79.9608L128.135 90.5101L126.146 83.3901L218.372 72.9498L221.324 79.9608Z" fill="#0B7DBF"/>
<path d="M126.146 83.3901L128.135 90.5101L117.208 91.1785L126.146 83.3901Z" fill="#0B7DBF"/>
<path d="M119.167 97.0818L119.101 97.1286C116.776 98.7534 114.705 100.715 112.959 102.942C110.037 103.079 107.014 103.279 103.866 103.555C104.139 103.05 104.423 102.551 104.718 102.061L117.208 91.1785L128.135 90.5101L119.167 97.0818Z" fill="#0B7DBF"/>
<path d="M60.5362 118.044C60.6155 118 60.6964 117.958 60.7788 117.92L87.1496 105.674C92.4654 104.805 97.7044 104.122 102.842 103.647L97.4089 108.242C96.166 109.294 94.7881 110.174 93.3118 110.859L67.8082 122.703L50.5331 123.632L60.5362 118.044Z" fill="#0B7DBF"/>
<path d="M52.9758 236.879C98.9444 235.95 123.558 222.062 166.58 205.845C171.479 203.998 176.933 201.789 182.455 199.47L200.249 195.457L200.281 195.45L291.12 175.822C292.078 175.615 292.966 175.83 293.543 176.217C294.064 176.566 294.315 177.019 294.313 177.61C294.271 189.274 285.423 198.852 274.091 200.064C273.948 200.079 273.806 200.103 273.667 200.135L39.6564 253.566C38.3198 253.807 36.9402 253.931 35.5278 253.926C27.8273 253.898 21.0361 250.037 16.9558 244.139C15.7696 242.425 15.8458 240.663 16.8876 238.95C17.0352 238.708 17.2019 238.468 17.3866 238.234C21.3915 237.328 25.6911 236.667 30.4241 236.28C39.2087 235.561 44.1655 237.057 52.9758 236.879Z" fill="#1197E4"/>
<path d="M128.135 90.5101L221.324 79.9608C222.108 82.7239 222.523 85.6441 222.512 88.6671C222.495 93.3439 221.458 97.7792 219.612 101.763C210.971 102.923 201.779 103.923 190.988 104.508C175.004 105.374 162.253 104.563 149.727 103.767C138.082 103.027 126.631 102.299 112.959 102.942C114.705 100.715 116.776 98.7534 119.101 97.1286L119.167 97.0818L128.135 90.5101Z" fill="#E5F6FF"/>
<path d="M106.9 120.6C106.9 120.538 106.9 120.477 106.9 120.415C106.924 113.822 109.181 107.76 112.959 102.942C126.631 102.299 138.082 103.027 149.727 103.767C162.253 104.563 175.004 105.374 190.988 104.508C201.779 103.923 210.971 102.923 219.612 101.763C217.049 107.29 212.928 111.947 207.809 115.172L106.9 120.6Z" fill="#1197E4"/>
<path d="M107.853 127.858L154.439 125.352L167.432 138.417L139.224 161.279L114.479 139.875C111.37 136.515 109.062 132.41 107.853 127.858Z" fill="#1197E4"/>
<path d="M144.831 166.129L172.605 143.619L181.174 152.236L151.128 171.576L144.831 166.129Z" fill="#E5F6FF"/>
<path d="M166.58 205.845C123.558 222.062 98.9444 235.95 52.9758 236.879C44.1655 237.057 39.2087 235.561 30.4241 236.28C25.6911 236.667 21.3915 237.328 17.3866 238.234C18.6068 236.688 20.6078 235.369 22.994 234.843L136.453 209.844L136.471 209.84L182.455 199.47C176.933 201.789 171.479 203.998 166.58 205.845Z" fill="#E5F6FF"/>
<path d="M82.1826 77.3546L108.202 36.2963C111.095 34.4924 114.512 33.4556 118.181 33.4688C123.268 33.4869 127.87 35.5232 131.241 38.8248C134.472 41.9883 136.557 46.2979 136.845 51.0883C136.877 51.6245 136.818 52.2471 136.664 53.0025L135.473 58.8473C135.223 60.0769 134.763 61.2543 134.113 62.328L130.47 68.3517C130.007 69.1176 129.451 69.8239 128.816 70.4545L117.48 81.7098L92.6959 102.67C91.9502 103.3 91.1234 103.828 90.2376 104.24L87.1496 105.674C71.7954 108.183 55.8008 112.243 39.7521 117.3L37.3864 103.886C38.2025 103.662 39.0034 103.381 39.7832 103.044L71.0539 89.5465C74.731 87.9593 77.7837 85.2064 79.7412 81.7124L82.1826 77.3546Z" fill="#E5F6FF"/>
<path d="M141.46 40.6354C162.967 43.2196 183.315 49.5416 201.841 58.9307L202.29 59.158C202.391 59.2094 202.495 59.2561 202.601 59.2978C209.28 61.9306 214.841 66.7874 218.372 72.9498L126.146 83.3901L133.958 75.6338C135.017 74.5827 135.943 73.4057 136.715 72.1292L140.358 66.1055C141.441 64.3159 142.208 62.3536 142.625 60.3043L143.816 54.4594C144.046 53.3309 144.214 52.0338 144.13 50.651C143.916 47.0698 142.977 43.6828 141.46 40.6354Z" fill="#E5F6FF"/>
<path d="M60.7788 117.92C60.6964 117.958 60.6155 118 60.5362 118.044L50.5331 123.632L40.9597 124.147L39.7521 117.3C55.8008 112.243 71.7954 108.183 87.1496 105.674L60.7788 117.92Z" fill="#1197E4"/>
<path d="M15.2144 125.393C14.2921 124.835 13.6191 123.944 13.3344 122.905L11.4232 115.928C10.5376 112.695 11.6146 109.242 14.1812 107.086L17.8772 103.981C18.4813 103.474 19.3413 103.407 20.0163 103.816C21.6383 104.797 23.5253 105.249 25.4159 105.111L30.1301 104.765L32.7412 119.57C27.017 121.473 21.2966 123.492 15.6069 125.603C15.4729 125.54 15.3419 125.47 15.2144 125.393Z" fill="#E5F6FF"/>
<path d="M17.741 125.986C17.0059 126.047 16.2703 125.914 15.6069 125.603C21.2966 123.492 27.017 121.473 32.7412 119.57L33.639 124.66L17.741 125.986Z" fill="#1197E4"/>
<path d="M99.6047 120.993L67.8082 122.703L93.3118 110.859C94.7881 110.174 96.166 109.294 97.4089 108.242L102.842 103.647L104.718 102.061C104.423 102.551 104.139 103.05 103.866 103.555C101.166 108.567 99.6236 114.297 99.6018 120.389C99.6011 120.59 99.6021 120.792 99.6047 120.993Z" fill="#E5F6FF"/>
<path d="M65.366 72.0375L76.4282 61.6034C80.5287 57.7357 82.6114 52.19 82.0705 46.5793L81.918 44.996L89.6153 29.738L100.306 35.1209L76.8697 72.1033L71.3205 72.8759C69.2763 73.1604 67.2156 72.8591 65.366 72.0375Z" fill="#E5F6FF"/>
<path d="M73.4412 7.96977C74.117 7.97219 74.6628 8.52197 74.6604 9.19773L74.6394 15.0641L71.7021 20.2448L48.3058 53.0855L49.0693 56.4841C48.9686 56.5801 48.8668 56.6757 48.764 56.7708C47.6681 57.7843 46.4535 58.7454 45.0824 59.6339C44.0958 60.2732 43.1588 60.8279 42.254 61.3241C35.5685 57.1266 31.1363 49.6753 31.1666 41.2033C31.2026 31.1282 37.5379 22.5391 46.4421 19.17C46.4818 19.155 46.5213 19.1392 46.5604 19.1228L72.9528 8.06847C73.0979 8.00572 73.2604 7.96913 73.4412 7.96977Z" fill="#E5F6FF"/>
<path d="M71.7021 20.2448L58.266 43.9424C57.6459 44.8766 57.044 45.8291 56.4382 46.7879C54.3381 50.1116 52.1903 53.5107 49.0693 56.4841L48.3058 53.0855L71.7021 20.2448Z" fill="#E5F6FF"/>
<path d="M47.0966 63.6422C45.3847 63.0522 43.762 62.2709 42.254 61.3241C43.1588 60.8279 44.0958 60.2732 45.0824 59.6339C46.4535 58.7454 47.6681 57.7843 48.764 56.7708C48.8668 56.6757 48.9686 56.5801 49.0693 56.4841L49.6613 59.1188L47.0966 63.6422Z" fill="#E5F6FF"/>
<path d="M56.4382 46.7879C57.044 45.8291 57.6459 44.8766 58.266 43.9424L49.6613 59.1188L49.0693 56.4841C52.1903 53.5107 54.3381 50.1116 56.4382 46.7879Z" fill="#E5F6FF"/>
<path d="M76.1254 40.274L69.3451 39.1995L73.1874 32.4228C74.9798 32.0173 76.6444 31.9035 78.3051 31.7898C79.0317 31.7401 79.7574 31.6905 80.4929 31.6165L76.1254 40.274Z" fill="#E5F6FF"/>
<path d="M79.2115 21.7979L83.4897 25.676L80.4929 31.6165C79.7574 31.6905 79.0317 31.7401 78.3051 31.7898C76.6444 31.9035 74.9798 32.0173 73.1874 32.4228L79.2115 21.7979Z" fill="#E5F6FF"/>
<path d="M14.724 129.336C14.7326 126.936 16.7389 126.102 17.741 125.986L33.639 124.66C28.8356 125.781 19.2251 129.055 19.2103 133.187L18.3472 133.259C17.4841 133.331 14.7133 132.336 14.724 129.336Z" fill="#0B7DBF"/>
<path d="M186.435 157.53C186.872 157.991 187.268 158.49 187.619 159.02L196.826 172.939C198.528 175.511 199.066 178.682 198.307 181.672L196.492 188.823L138.156 201.978C137.924 200.855 137.803 199.689 137.808 198.491C137.829 192.428 141.055 187.122 145.892 184.176C146.513 183.798 147.268 183.334 148.006 182.781L152.89 179.121L154.936 177.804L186.435 157.53Z" fill="#1197E4"/>
<path d="M221.324 79.9608L218.372 72.9498L226.126 72.047C226.535 72.913 226.912 73.7966 227.257 74.6963C227.808 76.1336 228.275 77.6116 228.654 79.1241L221.324 79.9608Z" fill="#0B7DBF"/>
<path d="M65.5008 45.9799L54.4177 65.5276C56.0653 66.058 57.7231 66.7644 59.285 67.7403L71.4202 56.294C73.8373 54.0142 75.0859 50.7626 74.8214 47.457L65.5008 45.9799Z" fill="#1197E4"/>
</svg>
